G04 #@! TF.GenerationSoftware,KiCad,Pcbnew,(5.0.0-rc2-dev-482-gf81c77cd4)*
G04 #@! TF.CreationDate,2018-06-24T17:31:56+02:00*
G04 #@! TF.ProjectId,ha_plattform,68615F706C617474666F726D2E6B6963,rev?*
G04 #@! TF.SameCoordinates,Original*
G04 #@! TF.FileFunction,Copper,L2,Bot,Signal*
G04 #@! TF.FilePolarity,Positive*
%FSLAX46Y46*%
G04 Gerber Fmt 4.6, Leading zero omitted, Abs format (unit mm)*
G04 Created by KiCad (PCBNEW (5.0.0-rc2-dev-482-gf81c77cd4)) date Sun Jun 24 17:31:56 2018*
%MOMM*%
%LPD*%
G01*
G04 APERTURE LIST*
%ADD10O,2.032000X1.727200*%
%ADD11O,1.727200X1.727200*%
%ADD12R,1.727200X1.727200*%
%ADD13C,1.270000*%
G04 APERTURE END LIST*
D10*
X24111524Y-28022001D03*
X24111524Y-30562001D03*
X24111524Y-33102001D03*
X24111524Y-35642001D03*
X24111524Y-38182001D03*
X24111524Y-40722001D03*
X24111524Y-43262001D03*
X24111524Y-45802001D03*
X24111524Y-48342001D03*
X24111524Y-50882001D03*
X24111524Y-53422001D03*
X24111524Y-55962001D03*
X24111524Y-58502001D03*
X24111524Y-61042001D03*
X24111524Y-63582001D03*
X46971524Y-28022001D03*
X46971524Y-58502001D03*
X46971524Y-61042001D03*
X46971524Y-55962001D03*
X46971524Y-40722001D03*
X46971524Y-38182001D03*
X46971524Y-43262001D03*
X46971524Y-63582001D03*
X46971524Y-48342001D03*
X46971524Y-45802001D03*
X46971524Y-50882001D03*
X46971524Y-53422001D03*
X46971524Y-33102001D03*
X46971524Y-35642001D03*
X46971524Y-30562001D03*
D11*
X60900000Y-36510000D03*
X60900000Y-39050000D03*
X63440000Y-36510000D03*
X63440000Y-39050000D03*
X65980000Y-36510000D03*
X65980000Y-39050000D03*
D12*
X68520000Y-36510000D03*
D11*
X68520000Y-39050000D03*
D13*
X68520000Y-39050000D02*
X52430000Y-55140000D01*
X47123924Y-63582001D02*
X46971524Y-63582001D01*
X52430000Y-58275925D02*
X47123924Y-63582001D01*
X52430000Y-55140000D02*
X52430000Y-58275925D01*
X49067999Y-48342001D02*
X46971524Y-48342001D01*
X60900000Y-36510000D02*
X49067999Y-48342001D01*
X63440000Y-34540000D02*
X63440000Y-36510000D01*
X47123924Y-45802001D02*
X58385925Y-34540000D01*
X58385925Y-34540000D02*
X63440000Y-34540000D01*
X46971524Y-45802001D02*
X47123924Y-45802001D01*
X51607999Y-50882001D02*
X46971524Y-50882001D01*
X63440000Y-39050000D02*
X51607999Y-50882001D01*
X51607999Y-53422001D02*
X65980000Y-39050000D01*
X46971524Y-53422001D02*
X51607999Y-53422001D01*
X49257524Y-28022001D02*
X46971524Y-28022001D01*
X58897671Y-28022001D02*
X49257524Y-28022001D01*
X65980000Y-35104330D02*
X58897671Y-28022001D01*
X65980000Y-36510000D02*
X65980000Y-35104330D01*
M02*
