G04 #@! TF.GenerationSoftware,KiCad,Pcbnew,(5.0.0-rc2-dev-482-gf81c77cd4)*
G04 #@! TF.CreationDate,2018-08-02T20:03:37+02:00*
G04 #@! TF.ProjectId,ha_plattform,68615F706C617474666F726D2E6B6963,rev?*
G04 #@! TF.SameCoordinates,Original*
G04 #@! TF.FileFunction,Soldermask,Top*
G04 #@! TF.FilePolarity,Negative*
%FSLAX46Y46*%
G04 Gerber Fmt 4.6, Leading zero omitted, Abs format (unit mm)*
G04 Created by KiCad (PCBNEW (5.0.0-rc2-dev-482-gf81c77cd4)) date Thu Aug  2 20:03:37 2018*
%MOMM*%
%LPD*%
G01*
G04 APERTURE LIST*
%ADD10C,3.600000*%
%ADD11O,2.432000X2.127200*%
%ADD12O,2.127200X2.127200*%
%ADD13R,2.127200X2.127200*%
G04 APERTURE END LIST*
D10*
X48510400Y-22321600D03*
D11*
X49297800Y-66136600D03*
X49297800Y-63596600D03*
X49297800Y-61056600D03*
X49297800Y-58516600D03*
X49297800Y-55976600D03*
X49297800Y-53436600D03*
X49297800Y-50896600D03*
X49297800Y-48356600D03*
X49297800Y-45816600D03*
X49297800Y-43276600D03*
X49297800Y-40736600D03*
X49297800Y-38196600D03*
X49297800Y-35656600D03*
X49297800Y-33116600D03*
X49297800Y-30576600D03*
X21776900Y-30576600D03*
X21776900Y-33116600D03*
X21776900Y-35656600D03*
X21776900Y-38196600D03*
X21776900Y-40736600D03*
X21776900Y-43276600D03*
X21776900Y-45816600D03*
X21776900Y-48356600D03*
X21776900Y-50896600D03*
X21776900Y-53436600D03*
X21776900Y-55976600D03*
X21776900Y-58516600D03*
X21776900Y-61056600D03*
X21776900Y-63596600D03*
X21776900Y-66136600D03*
D10*
X22450000Y-74290000D03*
X48612000Y-74340800D03*
X22450000Y-22220000D03*
D12*
X37634000Y-62396000D03*
X37634000Y-59856000D03*
X35094000Y-62396000D03*
X35094000Y-59856000D03*
X32554000Y-62396000D03*
X32554000Y-59856000D03*
D13*
X30014000Y-62396000D03*
D12*
X30014000Y-59856000D03*
M02*
