M48
;DRILL file {KiCad (5.0.0-rc2-dev-482-gf81c77cd4)} date Sun Jun 24 17:29:09 2018
;FORMAT={-:-/ absolute / inch / decimal}
FMAT,2
INCH,TZ
T1C0.0400
T2C0.1260
%
G90
G05
M72
T1
X0.9493Y-1.1032
X0.9493Y-1.2032
X0.9493Y-1.3032
X0.9493Y-1.4032
X0.9493Y-1.5032
X0.9493Y-1.6032
X0.9493Y-1.7032
X0.9493Y-1.8032
X0.9493Y-1.9032
X0.9493Y-2.0032
X0.9493Y-2.1032
X0.9493Y-2.2032
X0.9493Y-2.3032
X0.9493Y-2.4032
X0.9493Y-2.5032
X1.8493Y-1.1032
X1.8493Y-1.2032
X1.8493Y-1.3032
X1.8493Y-1.4032
X1.8493Y-1.5032
X1.8493Y-1.6032
X1.8493Y-1.7032
X1.8493Y-1.8032
X1.8493Y-1.9032
X1.8493Y-2.0032
X1.8493Y-2.1032
X1.8493Y-2.2032
X1.8493Y-2.3032
X1.8493Y-2.4032
X1.8493Y-2.5032
X2.3976Y-1.4374
X2.3976Y-1.5374
X2.4976Y-1.4374
X2.4976Y-1.5374
X2.5976Y-1.4374
X2.5976Y-1.5374
X2.6976Y-1.4374
X2.6976Y-1.5374
T2
X0.9788Y-0.9359
X0.9808Y-2.6536
X1.8154Y-0.9359
X1.8154Y-2.6536
T0
M30
