M48
;DRILL file {KiCad (5.0.0-rc2-dev-482-gf81c77cd4)} date Thu Aug  2 20:03:34 2018
;FORMAT={-:-/ absolute / inch / decimal}
FMAT,2
INCH,TZ
T1C0.0400
T2C0.1260
%
G90
G05
M72
T1
X1.1817Y-2.3565
X1.1817Y-2.4565
X1.2817Y-2.3565
X1.2817Y-2.4565
X1.3817Y-2.3565
X1.3817Y-2.4565
X1.4817Y-2.3565
X1.4817Y-2.4565
X0.8574Y-1.2038
X0.8574Y-1.3038
X0.8574Y-1.4038
X0.8574Y-1.5038
X0.8574Y-1.6038
X0.8574Y-1.7038
X0.8574Y-1.8038
X0.8574Y-1.9038
X0.8574Y-2.0038
X0.8574Y-2.1038
X0.8574Y-2.2038
X0.8574Y-2.3038
X0.8574Y-2.4038
X0.8574Y-2.5038
X0.8574Y-2.6038
X1.9409Y-1.2038
X1.9409Y-1.3038
X1.9409Y-1.4038
X1.9409Y-1.5038
X1.9409Y-1.6038
X1.9409Y-1.7038
X1.9409Y-1.8038
X1.9409Y-1.9038
X1.9409Y-2.0038
X1.9409Y-2.1038
X1.9409Y-2.2038
X1.9409Y-2.3038
X1.9409Y-2.4038
X1.9409Y-2.5038
X1.9409Y-2.6038
T2
X0.8839Y-0.8748
X0.8839Y-2.9248
X1.9099Y-0.8788
X1.9139Y-2.9268
T0
M30
