G04 #@! TF.GenerationSoftware,KiCad,Pcbnew,(5.0.0-rc2-dev-482-gf81c77cd4)*
G04 #@! TF.CreationDate,2018-06-24T17:31:56+02:00*
G04 #@! TF.ProjectId,ha_plattform,68615F706C617474666F726D2E6B6963,rev?*
G04 #@! TF.SameCoordinates,Original*
G04 #@! TF.FileFunction,Legend,Top*
G04 #@! TF.FilePolarity,Positive*
%FSLAX46Y46*%
G04 Gerber Fmt 4.6, Leading zero omitted, Abs format (unit mm)*
G04 Created by KiCad (PCBNEW (5.0.0-rc2-dev-482-gf81c77cd4)) date Sun Jun 24 17:31:56 2018*
%MOMM*%
%LPD*%
G01*
G04 APERTURE LIST*
%ADD10C,0.300000*%
%ADD11C,0.150000*%
%ADD12C,0.010000*%
%ADD13C,0.160000*%
G04 APERTURE END LIST*
D10*
X29083333Y-74376666D02*
X29016666Y-74310000D01*
X28883333Y-74110000D01*
X28816666Y-73976666D01*
X28749999Y-73776666D01*
X28683333Y-73443333D01*
X28683333Y-73176666D01*
X28749999Y-72843333D01*
X28816666Y-72643333D01*
X28883333Y-72510000D01*
X29016666Y-72310000D01*
X29083333Y-72243333D01*
X30216666Y-73776666D02*
X30083333Y-73843333D01*
X29816666Y-73843333D01*
X29683333Y-73776666D01*
X29616666Y-73710000D01*
X29549999Y-73576666D01*
X29549999Y-73176666D01*
X29616666Y-73043333D01*
X29683333Y-72976666D01*
X29816666Y-72910000D01*
X30083333Y-72910000D01*
X30216666Y-72976666D01*
X30683333Y-74376666D02*
X30749999Y-74310000D01*
X30883333Y-74110000D01*
X30949999Y-73976666D01*
X31016666Y-73776666D01*
X31083333Y-73443333D01*
X31083333Y-73176666D01*
X31016666Y-72843333D01*
X30949999Y-72643333D01*
X30883333Y-72510000D01*
X30749999Y-72310000D01*
X30683333Y-72243333D01*
X32749999Y-72576666D02*
X32816666Y-72510000D01*
X32949999Y-72443333D01*
X33283333Y-72443333D01*
X33416666Y-72510000D01*
X33483333Y-72576666D01*
X33549999Y-72710000D01*
X33549999Y-72843333D01*
X33483333Y-73043333D01*
X32683333Y-73843333D01*
X33549999Y-73843333D01*
X34416666Y-72443333D02*
X34549999Y-72443333D01*
X34683333Y-72510000D01*
X34749999Y-72576666D01*
X34816666Y-72710000D01*
X34883333Y-72976666D01*
X34883333Y-73310000D01*
X34816666Y-73576666D01*
X34749999Y-73710000D01*
X34683333Y-73776666D01*
X34549999Y-73843333D01*
X34416666Y-73843333D01*
X34283333Y-73776666D01*
X34216666Y-73710000D01*
X34149999Y-73576666D01*
X34083333Y-73310000D01*
X34083333Y-72976666D01*
X34149999Y-72710000D01*
X34216666Y-72576666D01*
X34283333Y-72510000D01*
X34416666Y-72443333D01*
X36216666Y-73843333D02*
X35416666Y-73843333D01*
X35816666Y-73843333D02*
X35816666Y-72443333D01*
X35683333Y-72643333D01*
X35549999Y-72776666D01*
X35416666Y-72843333D01*
X37016666Y-73043333D02*
X36883333Y-72976666D01*
X36816666Y-72910000D01*
X36749999Y-72776666D01*
X36749999Y-72710000D01*
X36816666Y-72576666D01*
X36883333Y-72510000D01*
X37016666Y-72443333D01*
X37283333Y-72443333D01*
X37416666Y-72510000D01*
X37483333Y-72576666D01*
X37549999Y-72710000D01*
X37549999Y-72776666D01*
X37483333Y-72910000D01*
X37416666Y-72976666D01*
X37283333Y-73043333D01*
X37016666Y-73043333D01*
X36883333Y-73110000D01*
X36816666Y-73176666D01*
X36749999Y-73310000D01*
X36749999Y-73576666D01*
X36816666Y-73710000D01*
X36883333Y-73776666D01*
X37016666Y-73843333D01*
X37283333Y-73843333D01*
X37416666Y-73776666D01*
X37483333Y-73710000D01*
X37549999Y-73576666D01*
X37549999Y-73310000D01*
X37483333Y-73176666D01*
X37416666Y-73110000D01*
X37283333Y-73043333D01*
X39149999Y-73443333D02*
X39816666Y-73443333D01*
X39016666Y-73843333D02*
X39483333Y-72443333D01*
X39949999Y-73843333D01*
X40616666Y-73843333D02*
X40483333Y-73776666D01*
X40416666Y-73643333D01*
X40416666Y-72443333D01*
X41683333Y-73776666D02*
X41550000Y-73843333D01*
X41283333Y-73843333D01*
X41150000Y-73776666D01*
X41083333Y-73643333D01*
X41083333Y-73110000D01*
X41150000Y-72976666D01*
X41283333Y-72910000D01*
X41550000Y-72910000D01*
X41683333Y-72976666D01*
X41750000Y-73110000D01*
X41750000Y-73243333D01*
X41083333Y-73376666D01*
X42216666Y-73843333D02*
X42950000Y-72910000D01*
X42216666Y-72910000D02*
X42950000Y-73843333D01*
X44083333Y-73843333D02*
X44083333Y-73110000D01*
X44016666Y-72976666D01*
X43883333Y-72910000D01*
X43616666Y-72910000D01*
X43483333Y-72976666D01*
X44083333Y-73776666D02*
X43950000Y-73843333D01*
X43616666Y-73843333D01*
X43483333Y-73776666D01*
X43416666Y-73643333D01*
X43416666Y-73510000D01*
X43483333Y-73376666D01*
X43616666Y-73310000D01*
X43950000Y-73310000D01*
X44083333Y-73243333D01*
X44750000Y-72910000D02*
X44750000Y-73843333D01*
X44750000Y-73043333D02*
X44816666Y-72976666D01*
X44950000Y-72910000D01*
X45150000Y-72910000D01*
X45283333Y-72976666D01*
X45350000Y-73110000D01*
X45350000Y-73843333D01*
X46616666Y-73843333D02*
X46616666Y-72443333D01*
X46616666Y-73776666D02*
X46483333Y-73843333D01*
X46216666Y-73843333D01*
X46083333Y-73776666D01*
X46016666Y-73710000D01*
X45950000Y-73576666D01*
X45950000Y-73176666D01*
X46016666Y-73043333D01*
X46083333Y-72976666D01*
X46216666Y-72910000D01*
X46483333Y-72910000D01*
X46616666Y-72976666D01*
X47816666Y-73776666D02*
X47683333Y-73843333D01*
X47416666Y-73843333D01*
X47283333Y-73776666D01*
X47216666Y-73643333D01*
X47216666Y-73110000D01*
X47283333Y-72976666D01*
X47416666Y-72910000D01*
X47683333Y-72910000D01*
X47816666Y-72976666D01*
X47883333Y-73110000D01*
X47883333Y-73243333D01*
X47216666Y-73376666D01*
X48483333Y-73843333D02*
X48483333Y-72910000D01*
X48483333Y-73176666D02*
X48550000Y-73043333D01*
X48616666Y-72976666D01*
X48750000Y-72910000D01*
X48883333Y-72910000D01*
X50416666Y-73843333D02*
X50416666Y-72443333D01*
X50883333Y-73443333D01*
X51350000Y-72443333D01*
X51350000Y-73843333D01*
X52216666Y-73843333D02*
X52083333Y-73776666D01*
X52016666Y-73710000D01*
X51950000Y-73576666D01*
X51950000Y-73176666D01*
X52016666Y-73043333D01*
X52083333Y-72976666D01*
X52216666Y-72910000D01*
X52416666Y-72910000D01*
X52550000Y-72976666D01*
X52616666Y-73043333D01*
X52683333Y-73176666D01*
X52683333Y-73576666D01*
X52616666Y-73710000D01*
X52550000Y-73776666D01*
X52416666Y-73843333D01*
X52216666Y-73843333D01*
X53283333Y-73843333D02*
X53283333Y-72443333D01*
X53883333Y-73843333D02*
X53883333Y-73110000D01*
X53816666Y-72976666D01*
X53683333Y-72910000D01*
X53483333Y-72910000D01*
X53350000Y-72976666D01*
X53283333Y-73043333D01*
X54550000Y-73843333D02*
X54550000Y-72910000D01*
X54550000Y-73176666D02*
X54616666Y-73043333D01*
X54683333Y-72976666D01*
X54816666Y-72910000D01*
X54950000Y-72910000D01*
D11*
X22841524Y-29292001D02*
X22841524Y-64852001D01*
X22841524Y-64852001D02*
X25381524Y-64852001D01*
X25381524Y-64852001D02*
X25381524Y-29292001D01*
X25661524Y-26472001D02*
X25661524Y-28022001D01*
X25381524Y-29292001D02*
X22841524Y-29292001D01*
X22561524Y-28022001D02*
X22561524Y-26472001D01*
X22561524Y-26472001D02*
X25661524Y-26472001D01*
X45701524Y-64852001D02*
X48241524Y-64852001D01*
X45701524Y-26752001D02*
X45701524Y-64852001D01*
X48241524Y-26752001D02*
X45701524Y-26752001D01*
X48241524Y-64852001D02*
X48241524Y-26752001D01*
X67250000Y-35113000D02*
X69917000Y-35113000D01*
X69917000Y-35113000D02*
X69917000Y-37780000D01*
X62170000Y-35240000D02*
X59630000Y-35240000D01*
X59630000Y-35240000D02*
X59630000Y-37780000D01*
X67250000Y-35240000D02*
X67250000Y-37780000D01*
X67250000Y-37780000D02*
X69790000Y-37780000D01*
X62170000Y-35240000D02*
X69790000Y-35240000D01*
X69790000Y-35240000D02*
X69790000Y-40320000D01*
X69790000Y-40320000D02*
X59630000Y-40320000D01*
X59630000Y-40320000D02*
X59630000Y-37780000D01*
D12*
G36*
X73794430Y-68294848D02*
X73793811Y-68381931D01*
X73342086Y-68840891D01*
X72890361Y-69299852D01*
X72890032Y-69510471D01*
X72889703Y-69721089D01*
X72614610Y-69721089D01*
X72607522Y-69774530D01*
X72604838Y-69798888D01*
X72600313Y-69844759D01*
X72594191Y-69909405D01*
X72586712Y-69990091D01*
X72578119Y-70084081D01*
X72568654Y-70188637D01*
X72558558Y-70301025D01*
X72548074Y-70418507D01*
X72537444Y-70538348D01*
X72526909Y-70657811D01*
X72516713Y-70774159D01*
X72507095Y-70884657D01*
X72498300Y-70986569D01*
X72490568Y-71077158D01*
X72484142Y-71153687D01*
X72479263Y-71213421D01*
X72476175Y-71253624D01*
X72475117Y-71271559D01*
X72475118Y-71271644D01*
X72482827Y-71286035D01*
X72505981Y-71315748D01*
X72544895Y-71361131D01*
X72599884Y-71422529D01*
X72671264Y-71500288D01*
X72759349Y-71594754D01*
X72864454Y-71706272D01*
X72986895Y-71835188D01*
X73021310Y-71871287D01*
X73567137Y-72443416D01*
X73478881Y-72531436D01*
X73407485Y-72453758D01*
X73381366Y-72425686D01*
X73340566Y-72382274D01*
X73287777Y-72326366D01*
X73225691Y-72260808D01*
X73157000Y-72188441D01*
X73084396Y-72112112D01*
X73040960Y-72066524D01*
X72959416Y-71981119D01*
X72893504Y-71912710D01*
X72841544Y-71860053D01*
X72801855Y-71821905D01*
X72772757Y-71797020D01*
X72752569Y-71784156D01*
X72739610Y-71782068D01*
X72732200Y-71789513D01*
X72728658Y-71805246D01*
X72727303Y-71828023D01*
X72727121Y-71834239D01*
X72717703Y-71877061D01*
X72694497Y-71928819D01*
X72662136Y-71981328D01*
X72625252Y-72026403D01*
X72610493Y-72040328D01*
X72534767Y-72089047D01*
X72446308Y-72116306D01*
X72368100Y-72122773D01*
X72279468Y-72110576D01*
X72197612Y-72074813D01*
X72125164Y-72016722D01*
X72111797Y-72002262D01*
X72062918Y-71946733D01*
X71217326Y-71946733D01*
X71217326Y-72122773D01*
X70990990Y-72122773D01*
X70990990Y-72040531D01*
X70988150Y-71984386D01*
X70978607Y-71945416D01*
X70967009Y-71924219D01*
X70958723Y-71909052D01*
X70951627Y-71887062D01*
X70945252Y-71854987D01*
X70939128Y-71809569D01*
X70932784Y-71747548D01*
X70925750Y-71665662D01*
X70920934Y-71604746D01*
X70898839Y-71319343D01*
X70356435Y-71868805D01*
X70258363Y-71968228D01*
X70164216Y-72063815D01*
X70075715Y-72153810D01*
X69994580Y-72236457D01*
X69922531Y-72310001D01*
X69861288Y-72372684D01*
X69812573Y-72422752D01*
X69778104Y-72458448D01*
X69759621Y-72477995D01*
X69729257Y-72508944D01*
X69703929Y-72530530D01*
X69690305Y-72537723D01*
X69672905Y-72529297D01*
X69647540Y-72508245D01*
X69638942Y-72499671D01*
X69602486Y-72461620D01*
X69803198Y-72257658D01*
X69854404Y-72205699D01*
X69920431Y-72138820D01*
X69998382Y-72059950D01*
X70085362Y-71972014D01*
X70178474Y-71877941D01*
X70274821Y-71780658D01*
X70371508Y-71683093D01*
X70440866Y-71613145D01*
X70546297Y-71506550D01*
X70634871Y-71416307D01*
X70707719Y-71341192D01*
X70765977Y-71279986D01*
X70810775Y-71231466D01*
X70832979Y-71206129D01*
X71011276Y-71206129D01*
X71033599Y-71491555D01*
X71040331Y-71575219D01*
X71046843Y-71651727D01*
X71052766Y-71717081D01*
X71057732Y-71767281D01*
X71061371Y-71798329D01*
X71062542Y-71805273D01*
X71069162Y-71833565D01*
X72018636Y-71833565D01*
X72024974Y-71754606D01*
X72044110Y-71661315D01*
X72084154Y-71578791D01*
X72142582Y-71510038D01*
X72216871Y-71458063D01*
X72300252Y-71426863D01*
X72327302Y-71412228D01*
X72340844Y-71380819D01*
X72341128Y-71379434D01*
X72342753Y-71366174D01*
X72340744Y-71352595D01*
X72333142Y-71336181D01*
X72317984Y-71314411D01*
X72293312Y-71284767D01*
X72257164Y-71244732D01*
X72207580Y-71191785D01*
X72142599Y-71123409D01*
X72138401Y-71119005D01*
X72068507Y-71045611D01*
X71994200Y-70967437D01*
X71920586Y-70889864D01*
X71852771Y-70818275D01*
X71795860Y-70758051D01*
X71783168Y-70744587D01*
X71734513Y-70693820D01*
X71691291Y-70650375D01*
X71656605Y-70617241D01*
X71633556Y-70597405D01*
X71625818Y-70593046D01*
X71614278Y-70602170D01*
X71587290Y-70627200D01*
X71546979Y-70666052D01*
X71495471Y-70716643D01*
X71434891Y-70776888D01*
X71367364Y-70844704D01*
X71312174Y-70900565D01*
X71011276Y-71206129D01*
X70832979Y-71206129D01*
X70843249Y-71194411D01*
X70864529Y-71167599D01*
X70875749Y-71149808D01*
X70878246Y-71141570D01*
X70877300Y-71123590D01*
X70874427Y-71082892D01*
X70869813Y-71021819D01*
X70863642Y-70942713D01*
X70856102Y-70847914D01*
X70847379Y-70739767D01*
X70837657Y-70620612D01*
X70827124Y-70492791D01*
X70818635Y-70390635D01*
X70770604Y-69814674D01*
X70894195Y-69814674D01*
X70894727Y-69827104D01*
X70897231Y-69862110D01*
X70901504Y-69917215D01*
X70907347Y-69989943D01*
X70914557Y-70077814D01*
X70922934Y-70178351D01*
X70932277Y-70289077D01*
X70941242Y-70394205D01*
X70951398Y-70513483D01*
X70960858Y-70626080D01*
X70969404Y-70729305D01*
X70976821Y-70820473D01*
X70982892Y-70896895D01*
X70987399Y-70955883D01*
X70990127Y-70994749D01*
X70990884Y-71009844D01*
X70992065Y-71019238D01*
X70996744Y-71022966D01*
X71006724Y-71019471D01*
X71023810Y-71007199D01*
X71049804Y-70984594D01*
X71086510Y-70950100D01*
X71135733Y-70902162D01*
X71199274Y-70839224D01*
X71266695Y-70771968D01*
X71542399Y-70496477D01*
X71540467Y-70494406D01*
X71722710Y-70494406D01*
X71731016Y-70505780D01*
X71754267Y-70532563D01*
X71790135Y-70572292D01*
X71836287Y-70622507D01*
X71890394Y-70680746D01*
X71950126Y-70744547D01*
X72013152Y-70811449D01*
X72077142Y-70878990D01*
X72139764Y-70944710D01*
X72198690Y-71006146D01*
X72251588Y-71060837D01*
X72296128Y-71106322D01*
X72329980Y-71140138D01*
X72350812Y-71159826D01*
X72356494Y-71163837D01*
X72358366Y-71150891D01*
X72362254Y-71115134D01*
X72367943Y-71058804D01*
X72375219Y-70984140D01*
X72383869Y-70893380D01*
X72393678Y-70788762D01*
X72404434Y-70672526D01*
X72415921Y-70546908D01*
X72425093Y-70445618D01*
X72436826Y-70314279D01*
X72447665Y-70190552D01*
X72457430Y-70076681D01*
X72465937Y-69974911D01*
X72473005Y-69887487D01*
X72478451Y-69816653D01*
X72482092Y-69764653D01*
X72483747Y-69733732D01*
X72483558Y-69725703D01*
X72473666Y-69732854D01*
X72448476Y-69755841D01*
X72410190Y-69792439D01*
X72361011Y-69840422D01*
X72303139Y-69897566D01*
X72238778Y-69961647D01*
X72170129Y-70030438D01*
X72099395Y-70101716D01*
X72028778Y-70173255D01*
X71960480Y-70242830D01*
X71896704Y-70308217D01*
X71839650Y-70367191D01*
X71791522Y-70417527D01*
X71754522Y-70456999D01*
X71730852Y-70483383D01*
X71722710Y-70494406D01*
X71540467Y-70494406D01*
X71439591Y-70386295D01*
X71387232Y-70330377D01*
X71328465Y-70267948D01*
X71265615Y-70201443D01*
X71201005Y-70133298D01*
X71136958Y-70065948D01*
X71075797Y-70001828D01*
X71019847Y-69943372D01*
X70971430Y-69893018D01*
X70932870Y-69853198D01*
X70906491Y-69826350D01*
X70894616Y-69814908D01*
X70894195Y-69814674D01*
X70770604Y-69814674D01*
X70758599Y-69670726D01*
X70158062Y-69039158D01*
X69557525Y-68407589D01*
X69557966Y-68319315D01*
X69558408Y-68231040D01*
X69655417Y-68334666D01*
X69709709Y-68392463D01*
X69773808Y-68460368D01*
X69845984Y-68536572D01*
X69924508Y-68619269D01*
X70007651Y-68706653D01*
X70093681Y-68796915D01*
X70180870Y-68888250D01*
X70267487Y-68978849D01*
X70351803Y-69066907D01*
X70432088Y-69150615D01*
X70506613Y-69228167D01*
X70573646Y-69297757D01*
X70631459Y-69357576D01*
X70678321Y-69405818D01*
X70712504Y-69440676D01*
X70732276Y-69460343D01*
X70736610Y-69464116D01*
X70736908Y-69450992D01*
X70735269Y-69417389D01*
X70731977Y-69367880D01*
X70727318Y-69307037D01*
X70725318Y-69282732D01*
X70710423Y-69104951D01*
X70827045Y-69104951D01*
X70833066Y-69133243D01*
X70836137Y-69155618D01*
X70840452Y-69197717D01*
X70845512Y-69254178D01*
X70850819Y-69319635D01*
X70852656Y-69343862D01*
X70858073Y-69413421D01*
X70863541Y-69478018D01*
X70868512Y-69531548D01*
X70872439Y-69567910D01*
X70873325Y-69574509D01*
X70876666Y-69588056D01*
X70883899Y-69603914D01*
X70896560Y-69623861D01*
X70916189Y-69649673D01*
X70944322Y-69683129D01*
X70982498Y-69726007D01*
X71032254Y-69780083D01*
X71095129Y-69847136D01*
X71172659Y-69928943D01*
X71251749Y-70011950D01*
X71330436Y-70094094D01*
X71403888Y-70170169D01*
X71470276Y-70238325D01*
X71527773Y-70296712D01*
X71574549Y-70343481D01*
X71608776Y-70376782D01*
X71628627Y-70394767D01*
X71632860Y-70397442D01*
X71643997Y-70387741D01*
X71670029Y-70362441D01*
X71708430Y-70324082D01*
X71756672Y-70275200D01*
X71812230Y-70218334D01*
X71852408Y-70176906D01*
X72062169Y-69960000D01*
X71443663Y-69960000D01*
X71443663Y-69721089D01*
X72198119Y-69721089D01*
X72198119Y-69827542D01*
X72336435Y-69689654D01*
X72434553Y-69591840D01*
X72625643Y-69591840D01*
X72627471Y-69607270D01*
X72636723Y-69615867D01*
X72659050Y-69619613D01*
X72700105Y-69620489D01*
X72707376Y-69620495D01*
X72789109Y-69620495D01*
X72789109Y-69401172D01*
X72707376Y-69482179D01*
X72661270Y-69531428D01*
X72633694Y-69569159D01*
X72625643Y-69591840D01*
X72434553Y-69591840D01*
X72474752Y-69551766D01*
X72474752Y-69428952D01*
X72475137Y-69372450D01*
X72476900Y-69336505D01*
X72480950Y-69316530D01*
X72488199Y-69307937D01*
X72499130Y-69306139D01*
X72511288Y-69303498D01*
X72520273Y-69292912D01*
X72527174Y-69270381D01*
X72533076Y-69231909D01*
X72539065Y-69173498D01*
X72540987Y-69152104D01*
X72545148Y-69104951D01*
X70827045Y-69104951D01*
X70710423Y-69104951D01*
X70550891Y-69104951D01*
X70550891Y-68991782D01*
X70618686Y-68991782D01*
X70658338Y-68990696D01*
X70679884Y-68985454D01*
X70682520Y-68982334D01*
X70821384Y-68982334D01*
X70828692Y-68989462D01*
X70854007Y-68991662D01*
X70871092Y-68991782D01*
X70928119Y-68991782D01*
X71140779Y-68991782D01*
X72555302Y-68991782D01*
X72507458Y-68942786D01*
X72433150Y-68882324D01*
X72341184Y-68835691D01*
X72230002Y-68802249D01*
X72119529Y-68783753D01*
X72047227Y-68775122D01*
X72047227Y-68866040D01*
X71468812Y-68866040D01*
X71468812Y-68762893D01*
X71383935Y-68771496D01*
X71324632Y-68778756D01*
X71261449Y-68788379D01*
X71223614Y-68795252D01*
X71148168Y-68810407D01*
X71144474Y-68901095D01*
X71140779Y-68991782D01*
X70928119Y-68991782D01*
X70928119Y-68941485D01*
X70926456Y-68909976D01*
X70922303Y-68892463D01*
X70920629Y-68891188D01*
X70902013Y-68899254D01*
X70874817Y-68918820D01*
X70847552Y-68942944D01*
X70828733Y-68964682D01*
X70827057Y-68967508D01*
X70821384Y-68982334D01*
X70682520Y-68982334D01*
X70690338Y-68973081D01*
X70694558Y-68959604D01*
X70711781Y-68924627D01*
X70744862Y-68882579D01*
X70788107Y-68839356D01*
X70835826Y-68800854D01*
X70867170Y-68780801D01*
X70902877Y-68758851D01*
X70921181Y-68740411D01*
X70927612Y-68718668D01*
X70928106Y-68705718D01*
X70928106Y-68702575D01*
X71569406Y-68702575D01*
X71569406Y-68765446D01*
X71946633Y-68765446D01*
X71946633Y-68702575D01*
X71569406Y-68702575D01*
X70928106Y-68702575D01*
X70928119Y-68664852D01*
X71033952Y-68664852D01*
X71082645Y-68666029D01*
X71120595Y-68669165D01*
X71141692Y-68673671D01*
X71143977Y-68675495D01*
X71157359Y-68678295D01*
X71189926Y-68677148D01*
X71236084Y-68672393D01*
X71267624Y-68668003D01*
X71324812Y-68659378D01*
X71377114Y-68651591D01*
X71416418Y-68645847D01*
X71427945Y-68644215D01*
X71458063Y-68634888D01*
X71468812Y-68620272D01*
X71472080Y-68614320D01*
X71483770Y-68609778D01*
X71506712Y-68606470D01*
X71543735Y-68604215D01*
X71597668Y-68602834D01*
X71671340Y-68602150D01*
X71758020Y-68601980D01*
X71850529Y-68602077D01*
X71920906Y-68602530D01*
X71972164Y-68603590D01*
X72007320Y-68605503D01*
X72029389Y-68608519D01*
X72041385Y-68612885D01*
X72046324Y-68618849D01*
X72047227Y-68625784D01*
X72054921Y-68647795D01*
X72080121Y-68660321D01*
X72126009Y-68664788D01*
X72134264Y-68664852D01*
X72211973Y-68672868D01*
X72300233Y-68694936D01*
X72391085Y-68728084D01*
X72476570Y-68769339D01*
X72548726Y-68815731D01*
X72558072Y-68823082D01*
X72588533Y-68846998D01*
X72606572Y-68856576D01*
X72619169Y-68853480D01*
X72632100Y-68840704D01*
X72670293Y-68815678D01*
X72719998Y-68806071D01*
X72773524Y-68811067D01*
X72823178Y-68829851D01*
X72861267Y-68861606D01*
X72864025Y-68865297D01*
X72892526Y-68924575D01*
X72897828Y-68985934D01*
X72880518Y-69044427D01*
X72841180Y-69095104D01*
X72836370Y-69099289D01*
X72808440Y-69119167D01*
X72780102Y-69127921D01*
X72740263Y-69128553D01*
X72730311Y-69127992D01*
X72691332Y-69126562D01*
X72671254Y-69129839D01*
X72663985Y-69139728D01*
X72663240Y-69148961D01*
X72661716Y-69175744D01*
X72657935Y-69216025D01*
X72655218Y-69240124D01*
X72651277Y-69278401D01*
X72652916Y-69297996D01*
X72662421Y-69305158D01*
X72679351Y-69306139D01*
X72689392Y-69302901D01*
X72705590Y-69292420D01*
X72729145Y-69273548D01*
X72761257Y-69245135D01*
X72803128Y-69206035D01*
X72855957Y-69155097D01*
X72920945Y-69091173D01*
X72999291Y-69013114D01*
X73092197Y-68919772D01*
X73200863Y-68809998D01*
X73253231Y-68756952D01*
X73795049Y-68207767D01*
X73794430Y-68294848D01*
X73794430Y-68294848D01*
G37*
X73794430Y-68294848D02*
X73793811Y-68381931D01*
X73342086Y-68840891D01*
X72890361Y-69299852D01*
X72890032Y-69510471D01*
X72889703Y-69721089D01*
X72614610Y-69721089D01*
X72607522Y-69774530D01*
X72604838Y-69798888D01*
X72600313Y-69844759D01*
X72594191Y-69909405D01*
X72586712Y-69990091D01*
X72578119Y-70084081D01*
X72568654Y-70188637D01*
X72558558Y-70301025D01*
X72548074Y-70418507D01*
X72537444Y-70538348D01*
X72526909Y-70657811D01*
X72516713Y-70774159D01*
X72507095Y-70884657D01*
X72498300Y-70986569D01*
X72490568Y-71077158D01*
X72484142Y-71153687D01*
X72479263Y-71213421D01*
X72476175Y-71253624D01*
X72475117Y-71271559D01*
X72475118Y-71271644D01*
X72482827Y-71286035D01*
X72505981Y-71315748D01*
X72544895Y-71361131D01*
X72599884Y-71422529D01*
X72671264Y-71500288D01*
X72759349Y-71594754D01*
X72864454Y-71706272D01*
X72986895Y-71835188D01*
X73021310Y-71871287D01*
X73567137Y-72443416D01*
X73478881Y-72531436D01*
X73407485Y-72453758D01*
X73381366Y-72425686D01*
X73340566Y-72382274D01*
X73287777Y-72326366D01*
X73225691Y-72260808D01*
X73157000Y-72188441D01*
X73084396Y-72112112D01*
X73040960Y-72066524D01*
X72959416Y-71981119D01*
X72893504Y-71912710D01*
X72841544Y-71860053D01*
X72801855Y-71821905D01*
X72772757Y-71797020D01*
X72752569Y-71784156D01*
X72739610Y-71782068D01*
X72732200Y-71789513D01*
X72728658Y-71805246D01*
X72727303Y-71828023D01*
X72727121Y-71834239D01*
X72717703Y-71877061D01*
X72694497Y-71928819D01*
X72662136Y-71981328D01*
X72625252Y-72026403D01*
X72610493Y-72040328D01*
X72534767Y-72089047D01*
X72446308Y-72116306D01*
X72368100Y-72122773D01*
X72279468Y-72110576D01*
X72197612Y-72074813D01*
X72125164Y-72016722D01*
X72111797Y-72002262D01*
X72062918Y-71946733D01*
X71217326Y-71946733D01*
X71217326Y-72122773D01*
X70990990Y-72122773D01*
X70990990Y-72040531D01*
X70988150Y-71984386D01*
X70978607Y-71945416D01*
X70967009Y-71924219D01*
X70958723Y-71909052D01*
X70951627Y-71887062D01*
X70945252Y-71854987D01*
X70939128Y-71809569D01*
X70932784Y-71747548D01*
X70925750Y-71665662D01*
X70920934Y-71604746D01*
X70898839Y-71319343D01*
X70356435Y-71868805D01*
X70258363Y-71968228D01*
X70164216Y-72063815D01*
X70075715Y-72153810D01*
X69994580Y-72236457D01*
X69922531Y-72310001D01*
X69861288Y-72372684D01*
X69812573Y-72422752D01*
X69778104Y-72458448D01*
X69759621Y-72477995D01*
X69729257Y-72508944D01*
X69703929Y-72530530D01*
X69690305Y-72537723D01*
X69672905Y-72529297D01*
X69647540Y-72508245D01*
X69638942Y-72499671D01*
X69602486Y-72461620D01*
X69803198Y-72257658D01*
X69854404Y-72205699D01*
X69920431Y-72138820D01*
X69998382Y-72059950D01*
X70085362Y-71972014D01*
X70178474Y-71877941D01*
X70274821Y-71780658D01*
X70371508Y-71683093D01*
X70440866Y-71613145D01*
X70546297Y-71506550D01*
X70634871Y-71416307D01*
X70707719Y-71341192D01*
X70765977Y-71279986D01*
X70810775Y-71231466D01*
X70832979Y-71206129D01*
X71011276Y-71206129D01*
X71033599Y-71491555D01*
X71040331Y-71575219D01*
X71046843Y-71651727D01*
X71052766Y-71717081D01*
X71057732Y-71767281D01*
X71061371Y-71798329D01*
X71062542Y-71805273D01*
X71069162Y-71833565D01*
X72018636Y-71833565D01*
X72024974Y-71754606D01*
X72044110Y-71661315D01*
X72084154Y-71578791D01*
X72142582Y-71510038D01*
X72216871Y-71458063D01*
X72300252Y-71426863D01*
X72327302Y-71412228D01*
X72340844Y-71380819D01*
X72341128Y-71379434D01*
X72342753Y-71366174D01*
X72340744Y-71352595D01*
X72333142Y-71336181D01*
X72317984Y-71314411D01*
X72293312Y-71284767D01*
X72257164Y-71244732D01*
X72207580Y-71191785D01*
X72142599Y-71123409D01*
X72138401Y-71119005D01*
X72068507Y-71045611D01*
X71994200Y-70967437D01*
X71920586Y-70889864D01*
X71852771Y-70818275D01*
X71795860Y-70758051D01*
X71783168Y-70744587D01*
X71734513Y-70693820D01*
X71691291Y-70650375D01*
X71656605Y-70617241D01*
X71633556Y-70597405D01*
X71625818Y-70593046D01*
X71614278Y-70602170D01*
X71587290Y-70627200D01*
X71546979Y-70666052D01*
X71495471Y-70716643D01*
X71434891Y-70776888D01*
X71367364Y-70844704D01*
X71312174Y-70900565D01*
X71011276Y-71206129D01*
X70832979Y-71206129D01*
X70843249Y-71194411D01*
X70864529Y-71167599D01*
X70875749Y-71149808D01*
X70878246Y-71141570D01*
X70877300Y-71123590D01*
X70874427Y-71082892D01*
X70869813Y-71021819D01*
X70863642Y-70942713D01*
X70856102Y-70847914D01*
X70847379Y-70739767D01*
X70837657Y-70620612D01*
X70827124Y-70492791D01*
X70818635Y-70390635D01*
X70770604Y-69814674D01*
X70894195Y-69814674D01*
X70894727Y-69827104D01*
X70897231Y-69862110D01*
X70901504Y-69917215D01*
X70907347Y-69989943D01*
X70914557Y-70077814D01*
X70922934Y-70178351D01*
X70932277Y-70289077D01*
X70941242Y-70394205D01*
X70951398Y-70513483D01*
X70960858Y-70626080D01*
X70969404Y-70729305D01*
X70976821Y-70820473D01*
X70982892Y-70896895D01*
X70987399Y-70955883D01*
X70990127Y-70994749D01*
X70990884Y-71009844D01*
X70992065Y-71019238D01*
X70996744Y-71022966D01*
X71006724Y-71019471D01*
X71023810Y-71007199D01*
X71049804Y-70984594D01*
X71086510Y-70950100D01*
X71135733Y-70902162D01*
X71199274Y-70839224D01*
X71266695Y-70771968D01*
X71542399Y-70496477D01*
X71540467Y-70494406D01*
X71722710Y-70494406D01*
X71731016Y-70505780D01*
X71754267Y-70532563D01*
X71790135Y-70572292D01*
X71836287Y-70622507D01*
X71890394Y-70680746D01*
X71950126Y-70744547D01*
X72013152Y-70811449D01*
X72077142Y-70878990D01*
X72139764Y-70944710D01*
X72198690Y-71006146D01*
X72251588Y-71060837D01*
X72296128Y-71106322D01*
X72329980Y-71140138D01*
X72350812Y-71159826D01*
X72356494Y-71163837D01*
X72358366Y-71150891D01*
X72362254Y-71115134D01*
X72367943Y-71058804D01*
X72375219Y-70984140D01*
X72383869Y-70893380D01*
X72393678Y-70788762D01*
X72404434Y-70672526D01*
X72415921Y-70546908D01*
X72425093Y-70445618D01*
X72436826Y-70314279D01*
X72447665Y-70190552D01*
X72457430Y-70076681D01*
X72465937Y-69974911D01*
X72473005Y-69887487D01*
X72478451Y-69816653D01*
X72482092Y-69764653D01*
X72483747Y-69733732D01*
X72483558Y-69725703D01*
X72473666Y-69732854D01*
X72448476Y-69755841D01*
X72410190Y-69792439D01*
X72361011Y-69840422D01*
X72303139Y-69897566D01*
X72238778Y-69961647D01*
X72170129Y-70030438D01*
X72099395Y-70101716D01*
X72028778Y-70173255D01*
X71960480Y-70242830D01*
X71896704Y-70308217D01*
X71839650Y-70367191D01*
X71791522Y-70417527D01*
X71754522Y-70456999D01*
X71730852Y-70483383D01*
X71722710Y-70494406D01*
X71540467Y-70494406D01*
X71439591Y-70386295D01*
X71387232Y-70330377D01*
X71328465Y-70267948D01*
X71265615Y-70201443D01*
X71201005Y-70133298D01*
X71136958Y-70065948D01*
X71075797Y-70001828D01*
X71019847Y-69943372D01*
X70971430Y-69893018D01*
X70932870Y-69853198D01*
X70906491Y-69826350D01*
X70894616Y-69814908D01*
X70894195Y-69814674D01*
X70770604Y-69814674D01*
X70758599Y-69670726D01*
X70158062Y-69039158D01*
X69557525Y-68407589D01*
X69557966Y-68319315D01*
X69558408Y-68231040D01*
X69655417Y-68334666D01*
X69709709Y-68392463D01*
X69773808Y-68460368D01*
X69845984Y-68536572D01*
X69924508Y-68619269D01*
X70007651Y-68706653D01*
X70093681Y-68796915D01*
X70180870Y-68888250D01*
X70267487Y-68978849D01*
X70351803Y-69066907D01*
X70432088Y-69150615D01*
X70506613Y-69228167D01*
X70573646Y-69297757D01*
X70631459Y-69357576D01*
X70678321Y-69405818D01*
X70712504Y-69440676D01*
X70732276Y-69460343D01*
X70736610Y-69464116D01*
X70736908Y-69450992D01*
X70735269Y-69417389D01*
X70731977Y-69367880D01*
X70727318Y-69307037D01*
X70725318Y-69282732D01*
X70710423Y-69104951D01*
X70827045Y-69104951D01*
X70833066Y-69133243D01*
X70836137Y-69155618D01*
X70840452Y-69197717D01*
X70845512Y-69254178D01*
X70850819Y-69319635D01*
X70852656Y-69343862D01*
X70858073Y-69413421D01*
X70863541Y-69478018D01*
X70868512Y-69531548D01*
X70872439Y-69567910D01*
X70873325Y-69574509D01*
X70876666Y-69588056D01*
X70883899Y-69603914D01*
X70896560Y-69623861D01*
X70916189Y-69649673D01*
X70944322Y-69683129D01*
X70982498Y-69726007D01*
X71032254Y-69780083D01*
X71095129Y-69847136D01*
X71172659Y-69928943D01*
X71251749Y-70011950D01*
X71330436Y-70094094D01*
X71403888Y-70170169D01*
X71470276Y-70238325D01*
X71527773Y-70296712D01*
X71574549Y-70343481D01*
X71608776Y-70376782D01*
X71628627Y-70394767D01*
X71632860Y-70397442D01*
X71643997Y-70387741D01*
X71670029Y-70362441D01*
X71708430Y-70324082D01*
X71756672Y-70275200D01*
X71812230Y-70218334D01*
X71852408Y-70176906D01*
X72062169Y-69960000D01*
X71443663Y-69960000D01*
X71443663Y-69721089D01*
X72198119Y-69721089D01*
X72198119Y-69827542D01*
X72336435Y-69689654D01*
X72434553Y-69591840D01*
X72625643Y-69591840D01*
X72627471Y-69607270D01*
X72636723Y-69615867D01*
X72659050Y-69619613D01*
X72700105Y-69620489D01*
X72707376Y-69620495D01*
X72789109Y-69620495D01*
X72789109Y-69401172D01*
X72707376Y-69482179D01*
X72661270Y-69531428D01*
X72633694Y-69569159D01*
X72625643Y-69591840D01*
X72434553Y-69591840D01*
X72474752Y-69551766D01*
X72474752Y-69428952D01*
X72475137Y-69372450D01*
X72476900Y-69336505D01*
X72480950Y-69316530D01*
X72488199Y-69307937D01*
X72499130Y-69306139D01*
X72511288Y-69303498D01*
X72520273Y-69292912D01*
X72527174Y-69270381D01*
X72533076Y-69231909D01*
X72539065Y-69173498D01*
X72540987Y-69152104D01*
X72545148Y-69104951D01*
X70827045Y-69104951D01*
X70710423Y-69104951D01*
X70550891Y-69104951D01*
X70550891Y-68991782D01*
X70618686Y-68991782D01*
X70658338Y-68990696D01*
X70679884Y-68985454D01*
X70682520Y-68982334D01*
X70821384Y-68982334D01*
X70828692Y-68989462D01*
X70854007Y-68991662D01*
X70871092Y-68991782D01*
X70928119Y-68991782D01*
X71140779Y-68991782D01*
X72555302Y-68991782D01*
X72507458Y-68942786D01*
X72433150Y-68882324D01*
X72341184Y-68835691D01*
X72230002Y-68802249D01*
X72119529Y-68783753D01*
X72047227Y-68775122D01*
X72047227Y-68866040D01*
X71468812Y-68866040D01*
X71468812Y-68762893D01*
X71383935Y-68771496D01*
X71324632Y-68778756D01*
X71261449Y-68788379D01*
X71223614Y-68795252D01*
X71148168Y-68810407D01*
X71144474Y-68901095D01*
X71140779Y-68991782D01*
X70928119Y-68991782D01*
X70928119Y-68941485D01*
X70926456Y-68909976D01*
X70922303Y-68892463D01*
X70920629Y-68891188D01*
X70902013Y-68899254D01*
X70874817Y-68918820D01*
X70847552Y-68942944D01*
X70828733Y-68964682D01*
X70827057Y-68967508D01*
X70821384Y-68982334D01*
X70682520Y-68982334D01*
X70690338Y-68973081D01*
X70694558Y-68959604D01*
X70711781Y-68924627D01*
X70744862Y-68882579D01*
X70788107Y-68839356D01*
X70835826Y-68800854D01*
X70867170Y-68780801D01*
X70902877Y-68758851D01*
X70921181Y-68740411D01*
X70927612Y-68718668D01*
X70928106Y-68705718D01*
X70928106Y-68702575D01*
X71569406Y-68702575D01*
X71569406Y-68765446D01*
X71946633Y-68765446D01*
X71946633Y-68702575D01*
X71569406Y-68702575D01*
X70928106Y-68702575D01*
X70928119Y-68664852D01*
X71033952Y-68664852D01*
X71082645Y-68666029D01*
X71120595Y-68669165D01*
X71141692Y-68673671D01*
X71143977Y-68675495D01*
X71157359Y-68678295D01*
X71189926Y-68677148D01*
X71236084Y-68672393D01*
X71267624Y-68668003D01*
X71324812Y-68659378D01*
X71377114Y-68651591D01*
X71416418Y-68645847D01*
X71427945Y-68644215D01*
X71458063Y-68634888D01*
X71468812Y-68620272D01*
X71472080Y-68614320D01*
X71483770Y-68609778D01*
X71506712Y-68606470D01*
X71543735Y-68604215D01*
X71597668Y-68602834D01*
X71671340Y-68602150D01*
X71758020Y-68601980D01*
X71850529Y-68602077D01*
X71920906Y-68602530D01*
X71972164Y-68603590D01*
X72007320Y-68605503D01*
X72029389Y-68608519D01*
X72041385Y-68612885D01*
X72046324Y-68618849D01*
X72047227Y-68625784D01*
X72054921Y-68647795D01*
X72080121Y-68660321D01*
X72126009Y-68664788D01*
X72134264Y-68664852D01*
X72211973Y-68672868D01*
X72300233Y-68694936D01*
X72391085Y-68728084D01*
X72476570Y-68769339D01*
X72548726Y-68815731D01*
X72558072Y-68823082D01*
X72588533Y-68846998D01*
X72606572Y-68856576D01*
X72619169Y-68853480D01*
X72632100Y-68840704D01*
X72670293Y-68815678D01*
X72719998Y-68806071D01*
X72773524Y-68811067D01*
X72823178Y-68829851D01*
X72861267Y-68861606D01*
X72864025Y-68865297D01*
X72892526Y-68924575D01*
X72897828Y-68985934D01*
X72880518Y-69044427D01*
X72841180Y-69095104D01*
X72836370Y-69099289D01*
X72808440Y-69119167D01*
X72780102Y-69127921D01*
X72740263Y-69128553D01*
X72730311Y-69127992D01*
X72691332Y-69126562D01*
X72671254Y-69129839D01*
X72663985Y-69139728D01*
X72663240Y-69148961D01*
X72661716Y-69175744D01*
X72657935Y-69216025D01*
X72655218Y-69240124D01*
X72651277Y-69278401D01*
X72652916Y-69297996D01*
X72662421Y-69305158D01*
X72679351Y-69306139D01*
X72689392Y-69302901D01*
X72705590Y-69292420D01*
X72729145Y-69273548D01*
X72761257Y-69245135D01*
X72803128Y-69206035D01*
X72855957Y-69155097D01*
X72920945Y-69091173D01*
X72999291Y-69013114D01*
X73092197Y-68919772D01*
X73200863Y-68809998D01*
X73253231Y-68756952D01*
X73795049Y-68207767D01*
X73794430Y-68294848D01*
G36*
X73417822Y-74247822D02*
X69897029Y-74247822D01*
X69897029Y-73380198D01*
X73417822Y-73380198D01*
X73417822Y-74247822D01*
X73417822Y-74247822D01*
G37*
X73417822Y-74247822D02*
X69897029Y-74247822D01*
X69897029Y-73380198D01*
X73417822Y-73380198D01*
X73417822Y-74247822D01*
G36*
X64150964Y-66888576D02*
X64226513Y-67289322D01*
X64784041Y-67519154D01*
X65118465Y-67291748D01*
X65212122Y-67228431D01*
X65296782Y-67171896D01*
X65368495Y-67124727D01*
X65423311Y-67089502D01*
X65457280Y-67068805D01*
X65466530Y-67064342D01*
X65483195Y-67075820D01*
X65518806Y-67107551D01*
X65569371Y-67155483D01*
X65630900Y-67215562D01*
X65699399Y-67283733D01*
X65770879Y-67355945D01*
X65841347Y-67428142D01*
X65906811Y-67496273D01*
X65963280Y-67556283D01*
X66006763Y-67604119D01*
X66033268Y-67635727D01*
X66039605Y-67646305D01*
X66030486Y-67665806D01*
X66004920Y-67708531D01*
X65965597Y-67770298D01*
X65915203Y-67846931D01*
X65856427Y-67934248D01*
X65822368Y-67984052D01*
X65760289Y-68074993D01*
X65705126Y-68157059D01*
X65659554Y-68226163D01*
X65626250Y-68278222D01*
X65607890Y-68309150D01*
X65605131Y-68315650D01*
X65611385Y-68334121D01*
X65628434Y-68377172D01*
X65653703Y-68438749D01*
X65684622Y-68512799D01*
X65718618Y-68593270D01*
X65753118Y-68674107D01*
X65785551Y-68749258D01*
X65813343Y-68812671D01*
X65833923Y-68858293D01*
X65844719Y-68880069D01*
X65845356Y-68880926D01*
X65862307Y-68885084D01*
X65907451Y-68894361D01*
X65976110Y-68907844D01*
X66063602Y-68924621D01*
X66165250Y-68943781D01*
X66224556Y-68954830D01*
X66333172Y-68975510D01*
X66431277Y-68995189D01*
X66513909Y-69012789D01*
X66576104Y-69027233D01*
X66612899Y-69037446D01*
X66620296Y-69040686D01*
X66627540Y-69062617D01*
X66633385Y-69112147D01*
X66637835Y-69183485D01*
X66640893Y-69270839D01*
X66642565Y-69368417D01*
X66642853Y-69470426D01*
X66641761Y-69571075D01*
X66639294Y-69664572D01*
X66635456Y-69745125D01*
X66630250Y-69806942D01*
X66623681Y-69844230D01*
X66619741Y-69851993D01*
X66596188Y-69861298D01*
X66546282Y-69874600D01*
X66476623Y-69890337D01*
X66393813Y-69906946D01*
X66364905Y-69912319D01*
X66225531Y-69937848D01*
X66115436Y-69958408D01*
X66030982Y-69974815D01*
X65968530Y-69987887D01*
X65924444Y-69998441D01*
X65895085Y-70007294D01*
X65876815Y-70015263D01*
X65865998Y-70023165D01*
X65864485Y-70024727D01*
X65849377Y-70049886D01*
X65826329Y-70098850D01*
X65797644Y-70165621D01*
X65765622Y-70244205D01*
X65732565Y-70328607D01*
X65700773Y-70412830D01*
X65672549Y-70490879D01*
X65650193Y-70556759D01*
X65636007Y-70604473D01*
X65632293Y-70628027D01*
X65632602Y-70628852D01*
X65645189Y-70648104D01*
X65673744Y-70690463D01*
X65715267Y-70751521D01*
X65766756Y-70826868D01*
X65825211Y-70912096D01*
X65841858Y-70936315D01*
X65901215Y-71024123D01*
X65953447Y-71104238D01*
X65995708Y-71172062D01*
X66025153Y-71222993D01*
X66038937Y-71252431D01*
X66039605Y-71256048D01*
X66028024Y-71275057D01*
X65996024Y-71312714D01*
X65947718Y-71364973D01*
X65887220Y-71427786D01*
X65818644Y-71497106D01*
X65746104Y-71568885D01*
X65673712Y-71639077D01*
X65605584Y-71703635D01*
X65545832Y-71758510D01*
X65498571Y-71799656D01*
X65467913Y-71823026D01*
X65459432Y-71826842D01*
X65439691Y-71817855D01*
X65399274Y-71793616D01*
X65344763Y-71758209D01*
X65302823Y-71729711D01*
X65226829Y-71677418D01*
X65136834Y-71615845D01*
X65046564Y-71554370D01*
X64998032Y-71521469D01*
X64833762Y-71410359D01*
X64695869Y-71484916D01*
X64633049Y-71517578D01*
X64579629Y-71542966D01*
X64543484Y-71557446D01*
X64534284Y-71559460D01*
X64523221Y-71544584D01*
X64501394Y-71502547D01*
X64470434Y-71437227D01*
X64431970Y-71352500D01*
X64387632Y-71252245D01*
X64339047Y-71140339D01*
X64287846Y-71020659D01*
X64235659Y-70897084D01*
X64184113Y-70773491D01*
X64134840Y-70653757D01*
X64089467Y-70541759D01*
X64049625Y-70441377D01*
X64016942Y-70356486D01*
X63993049Y-70290965D01*
X63979574Y-70248690D01*
X63977406Y-70234172D01*
X63994583Y-70215653D01*
X64032190Y-70185590D01*
X64082366Y-70150232D01*
X64086578Y-70147434D01*
X64216264Y-70043625D01*
X64320834Y-69922515D01*
X64399381Y-69787976D01*
X64450999Y-69643882D01*
X64474782Y-69494105D01*
X64469823Y-69342517D01*
X64435217Y-69192992D01*
X64370057Y-69049400D01*
X64350886Y-69017984D01*
X64251174Y-68891125D01*
X64133377Y-68789255D01*
X64001571Y-68712904D01*
X63859833Y-68662602D01*
X63712242Y-68638879D01*
X63562873Y-68642265D01*
X63415803Y-68673288D01*
X63275111Y-68732480D01*
X63144873Y-68820369D01*
X63104586Y-68856042D01*
X63002055Y-68967706D01*
X62927341Y-69085257D01*
X62876090Y-69217020D01*
X62847546Y-69347507D01*
X62840500Y-69494216D01*
X62863996Y-69641653D01*
X62915649Y-69784834D01*
X62993071Y-69918777D01*
X63093875Y-70038498D01*
X63215676Y-70139014D01*
X63231684Y-70149609D01*
X63282398Y-70184306D01*
X63320950Y-70214370D01*
X63339381Y-70233565D01*
X63339649Y-70234172D01*
X63335692Y-70254936D01*
X63320007Y-70302062D01*
X63294222Y-70371673D01*
X63259969Y-70459893D01*
X63218877Y-70562844D01*
X63172576Y-70676650D01*
X63122696Y-70797435D01*
X63070867Y-70921321D01*
X63018719Y-71044432D01*
X62967882Y-71162891D01*
X62919987Y-71272823D01*
X62876662Y-71370349D01*
X62839538Y-71451593D01*
X62810244Y-71512679D01*
X62790412Y-71549730D01*
X62782426Y-71559460D01*
X62758021Y-71551883D01*
X62712358Y-71531560D01*
X62653310Y-71502125D01*
X62620840Y-71484916D01*
X62482947Y-71410359D01*
X62318677Y-71521469D01*
X62234821Y-71578390D01*
X62143013Y-71641030D01*
X62056980Y-71700011D01*
X62013887Y-71729711D01*
X61953277Y-71770410D01*
X61901955Y-71802663D01*
X61866615Y-71822384D01*
X61855137Y-71826554D01*
X61838430Y-71815307D01*
X61801454Y-71783911D01*
X61747795Y-71735624D01*
X61681038Y-71673708D01*
X61604766Y-71601421D01*
X61556527Y-71555008D01*
X61472133Y-71472087D01*
X61399197Y-71397920D01*
X61340669Y-71335680D01*
X61299497Y-71288541D01*
X61278628Y-71259673D01*
X61276626Y-71253815D01*
X61285917Y-71231532D01*
X61311591Y-71186477D01*
X61350800Y-71123211D01*
X61400697Y-71046295D01*
X61458433Y-70960292D01*
X61474851Y-70936315D01*
X61534677Y-70849170D01*
X61588350Y-70770710D01*
X61632870Y-70705345D01*
X61665235Y-70657484D01*
X61682445Y-70631535D01*
X61684107Y-70628852D01*
X61681621Y-70608172D01*
X61668423Y-70562704D01*
X61646814Y-70498444D01*
X61619096Y-70421387D01*
X61587570Y-70337529D01*
X61554537Y-70252866D01*
X61522299Y-70173392D01*
X61493157Y-70105104D01*
X61469412Y-70053997D01*
X61453365Y-70026067D01*
X61452225Y-70024727D01*
X61442412Y-70016745D01*
X61425839Y-70008851D01*
X61398868Y-70000229D01*
X61357861Y-69990062D01*
X61299180Y-69977531D01*
X61219187Y-69961821D01*
X61114245Y-69942113D01*
X60980715Y-69917592D01*
X60951804Y-69912319D01*
X60866118Y-69895764D01*
X60791418Y-69879569D01*
X60734306Y-69865296D01*
X60701383Y-69854508D01*
X60696969Y-69851993D01*
X60689694Y-69829696D01*
X60683781Y-69779869D01*
X60679234Y-69708304D01*
X60676055Y-69620793D01*
X60674251Y-69523128D01*
X60673823Y-69421101D01*
X60674777Y-69320503D01*
X60677116Y-69227127D01*
X60680844Y-69146765D01*
X60685966Y-69085209D01*
X60692484Y-69048250D01*
X60696414Y-69040686D01*
X60718292Y-69033056D01*
X60768109Y-69020642D01*
X60840903Y-69004522D01*
X60931711Y-68985773D01*
X61035569Y-68965471D01*
X61092154Y-68954830D01*
X61199514Y-68934760D01*
X61295254Y-68916580D01*
X61374694Y-68901199D01*
X61433154Y-68889531D01*
X61465955Y-68882488D01*
X61471354Y-68880926D01*
X61480478Y-68863322D01*
X61499765Y-68820918D01*
X61526645Y-68759772D01*
X61558546Y-68685943D01*
X61592898Y-68605489D01*
X61627129Y-68524468D01*
X61658669Y-68448937D01*
X61684946Y-68384955D01*
X61703389Y-68338580D01*
X61711429Y-68315869D01*
X61711578Y-68314876D01*
X61702465Y-68296961D01*
X61676914Y-68255733D01*
X61637612Y-68195291D01*
X61587243Y-68119731D01*
X61528494Y-68033152D01*
X61494342Y-67983421D01*
X61432110Y-67892236D01*
X61376836Y-67809449D01*
X61331218Y-67739249D01*
X61297952Y-67685824D01*
X61279736Y-67653361D01*
X61277105Y-67646083D01*
X61288414Y-67629145D01*
X61319681Y-67592978D01*
X61366910Y-67541635D01*
X61426108Y-67479167D01*
X61493281Y-67409626D01*
X61564434Y-67337065D01*
X61635574Y-67265535D01*
X61702707Y-67199087D01*
X61761839Y-67141774D01*
X61808975Y-67097647D01*
X61840123Y-67070759D01*
X61850543Y-67064342D01*
X61867509Y-67073365D01*
X61908089Y-67098715D01*
X61968337Y-67137810D01*
X62044307Y-67188071D01*
X62132054Y-67246917D01*
X62198244Y-67291748D01*
X62532668Y-67519154D01*
X62811433Y-67404238D01*
X63090197Y-67289322D01*
X63165746Y-66888576D01*
X63241294Y-66487829D01*
X64075415Y-66487829D01*
X64150964Y-66888576D01*
X64150964Y-66888576D01*
G37*
X64150964Y-66888576D02*
X64226513Y-67289322D01*
X64784041Y-67519154D01*
X65118465Y-67291748D01*
X65212122Y-67228431D01*
X65296782Y-67171896D01*
X65368495Y-67124727D01*
X65423311Y-67089502D01*
X65457280Y-67068805D01*
X65466530Y-67064342D01*
X65483195Y-67075820D01*
X65518806Y-67107551D01*
X65569371Y-67155483D01*
X65630900Y-67215562D01*
X65699399Y-67283733D01*
X65770879Y-67355945D01*
X65841347Y-67428142D01*
X65906811Y-67496273D01*
X65963280Y-67556283D01*
X66006763Y-67604119D01*
X66033268Y-67635727D01*
X66039605Y-67646305D01*
X66030486Y-67665806D01*
X66004920Y-67708531D01*
X65965597Y-67770298D01*
X65915203Y-67846931D01*
X65856427Y-67934248D01*
X65822368Y-67984052D01*
X65760289Y-68074993D01*
X65705126Y-68157059D01*
X65659554Y-68226163D01*
X65626250Y-68278222D01*
X65607890Y-68309150D01*
X65605131Y-68315650D01*
X65611385Y-68334121D01*
X65628434Y-68377172D01*
X65653703Y-68438749D01*
X65684622Y-68512799D01*
X65718618Y-68593270D01*
X65753118Y-68674107D01*
X65785551Y-68749258D01*
X65813343Y-68812671D01*
X65833923Y-68858293D01*
X65844719Y-68880069D01*
X65845356Y-68880926D01*
X65862307Y-68885084D01*
X65907451Y-68894361D01*
X65976110Y-68907844D01*
X66063602Y-68924621D01*
X66165250Y-68943781D01*
X66224556Y-68954830D01*
X66333172Y-68975510D01*
X66431277Y-68995189D01*
X66513909Y-69012789D01*
X66576104Y-69027233D01*
X66612899Y-69037446D01*
X66620296Y-69040686D01*
X66627540Y-69062617D01*
X66633385Y-69112147D01*
X66637835Y-69183485D01*
X66640893Y-69270839D01*
X66642565Y-69368417D01*
X66642853Y-69470426D01*
X66641761Y-69571075D01*
X66639294Y-69664572D01*
X66635456Y-69745125D01*
X66630250Y-69806942D01*
X66623681Y-69844230D01*
X66619741Y-69851993D01*
X66596188Y-69861298D01*
X66546282Y-69874600D01*
X66476623Y-69890337D01*
X66393813Y-69906946D01*
X66364905Y-69912319D01*
X66225531Y-69937848D01*
X66115436Y-69958408D01*
X66030982Y-69974815D01*
X65968530Y-69987887D01*
X65924444Y-69998441D01*
X65895085Y-70007294D01*
X65876815Y-70015263D01*
X65865998Y-70023165D01*
X65864485Y-70024727D01*
X65849377Y-70049886D01*
X65826329Y-70098850D01*
X65797644Y-70165621D01*
X65765622Y-70244205D01*
X65732565Y-70328607D01*
X65700773Y-70412830D01*
X65672549Y-70490879D01*
X65650193Y-70556759D01*
X65636007Y-70604473D01*
X65632293Y-70628027D01*
X65632602Y-70628852D01*
X65645189Y-70648104D01*
X65673744Y-70690463D01*
X65715267Y-70751521D01*
X65766756Y-70826868D01*
X65825211Y-70912096D01*
X65841858Y-70936315D01*
X65901215Y-71024123D01*
X65953447Y-71104238D01*
X65995708Y-71172062D01*
X66025153Y-71222993D01*
X66038937Y-71252431D01*
X66039605Y-71256048D01*
X66028024Y-71275057D01*
X65996024Y-71312714D01*
X65947718Y-71364973D01*
X65887220Y-71427786D01*
X65818644Y-71497106D01*
X65746104Y-71568885D01*
X65673712Y-71639077D01*
X65605584Y-71703635D01*
X65545832Y-71758510D01*
X65498571Y-71799656D01*
X65467913Y-71823026D01*
X65459432Y-71826842D01*
X65439691Y-71817855D01*
X65399274Y-71793616D01*
X65344763Y-71758209D01*
X65302823Y-71729711D01*
X65226829Y-71677418D01*
X65136834Y-71615845D01*
X65046564Y-71554370D01*
X64998032Y-71521469D01*
X64833762Y-71410359D01*
X64695869Y-71484916D01*
X64633049Y-71517578D01*
X64579629Y-71542966D01*
X64543484Y-71557446D01*
X64534284Y-71559460D01*
X64523221Y-71544584D01*
X64501394Y-71502547D01*
X64470434Y-71437227D01*
X64431970Y-71352500D01*
X64387632Y-71252245D01*
X64339047Y-71140339D01*
X64287846Y-71020659D01*
X64235659Y-70897084D01*
X64184113Y-70773491D01*
X64134840Y-70653757D01*
X64089467Y-70541759D01*
X64049625Y-70441377D01*
X64016942Y-70356486D01*
X63993049Y-70290965D01*
X63979574Y-70248690D01*
X63977406Y-70234172D01*
X63994583Y-70215653D01*
X64032190Y-70185590D01*
X64082366Y-70150232D01*
X64086578Y-70147434D01*
X64216264Y-70043625D01*
X64320834Y-69922515D01*
X64399381Y-69787976D01*
X64450999Y-69643882D01*
X64474782Y-69494105D01*
X64469823Y-69342517D01*
X64435217Y-69192992D01*
X64370057Y-69049400D01*
X64350886Y-69017984D01*
X64251174Y-68891125D01*
X64133377Y-68789255D01*
X64001571Y-68712904D01*
X63859833Y-68662602D01*
X63712242Y-68638879D01*
X63562873Y-68642265D01*
X63415803Y-68673288D01*
X63275111Y-68732480D01*
X63144873Y-68820369D01*
X63104586Y-68856042D01*
X63002055Y-68967706D01*
X62927341Y-69085257D01*
X62876090Y-69217020D01*
X62847546Y-69347507D01*
X62840500Y-69494216D01*
X62863996Y-69641653D01*
X62915649Y-69784834D01*
X62993071Y-69918777D01*
X63093875Y-70038498D01*
X63215676Y-70139014D01*
X63231684Y-70149609D01*
X63282398Y-70184306D01*
X63320950Y-70214370D01*
X63339381Y-70233565D01*
X63339649Y-70234172D01*
X63335692Y-70254936D01*
X63320007Y-70302062D01*
X63294222Y-70371673D01*
X63259969Y-70459893D01*
X63218877Y-70562844D01*
X63172576Y-70676650D01*
X63122696Y-70797435D01*
X63070867Y-70921321D01*
X63018719Y-71044432D01*
X62967882Y-71162891D01*
X62919987Y-71272823D01*
X62876662Y-71370349D01*
X62839538Y-71451593D01*
X62810244Y-71512679D01*
X62790412Y-71549730D01*
X62782426Y-71559460D01*
X62758021Y-71551883D01*
X62712358Y-71531560D01*
X62653310Y-71502125D01*
X62620840Y-71484916D01*
X62482947Y-71410359D01*
X62318677Y-71521469D01*
X62234821Y-71578390D01*
X62143013Y-71641030D01*
X62056980Y-71700011D01*
X62013887Y-71729711D01*
X61953277Y-71770410D01*
X61901955Y-71802663D01*
X61866615Y-71822384D01*
X61855137Y-71826554D01*
X61838430Y-71815307D01*
X61801454Y-71783911D01*
X61747795Y-71735624D01*
X61681038Y-71673708D01*
X61604766Y-71601421D01*
X61556527Y-71555008D01*
X61472133Y-71472087D01*
X61399197Y-71397920D01*
X61340669Y-71335680D01*
X61299497Y-71288541D01*
X61278628Y-71259673D01*
X61276626Y-71253815D01*
X61285917Y-71231532D01*
X61311591Y-71186477D01*
X61350800Y-71123211D01*
X61400697Y-71046295D01*
X61458433Y-70960292D01*
X61474851Y-70936315D01*
X61534677Y-70849170D01*
X61588350Y-70770710D01*
X61632870Y-70705345D01*
X61665235Y-70657484D01*
X61682445Y-70631535D01*
X61684107Y-70628852D01*
X61681621Y-70608172D01*
X61668423Y-70562704D01*
X61646814Y-70498444D01*
X61619096Y-70421387D01*
X61587570Y-70337529D01*
X61554537Y-70252866D01*
X61522299Y-70173392D01*
X61493157Y-70105104D01*
X61469412Y-70053997D01*
X61453365Y-70026067D01*
X61452225Y-70024727D01*
X61442412Y-70016745D01*
X61425839Y-70008851D01*
X61398868Y-70000229D01*
X61357861Y-69990062D01*
X61299180Y-69977531D01*
X61219187Y-69961821D01*
X61114245Y-69942113D01*
X60980715Y-69917592D01*
X60951804Y-69912319D01*
X60866118Y-69895764D01*
X60791418Y-69879569D01*
X60734306Y-69865296D01*
X60701383Y-69854508D01*
X60696969Y-69851993D01*
X60689694Y-69829696D01*
X60683781Y-69779869D01*
X60679234Y-69708304D01*
X60676055Y-69620793D01*
X60674251Y-69523128D01*
X60673823Y-69421101D01*
X60674777Y-69320503D01*
X60677116Y-69227127D01*
X60680844Y-69146765D01*
X60685966Y-69085209D01*
X60692484Y-69048250D01*
X60696414Y-69040686D01*
X60718292Y-69033056D01*
X60768109Y-69020642D01*
X60840903Y-69004522D01*
X60931711Y-68985773D01*
X61035569Y-68965471D01*
X61092154Y-68954830D01*
X61199514Y-68934760D01*
X61295254Y-68916580D01*
X61374694Y-68901199D01*
X61433154Y-68889531D01*
X61465955Y-68882488D01*
X61471354Y-68880926D01*
X61480478Y-68863322D01*
X61499765Y-68820918D01*
X61526645Y-68759772D01*
X61558546Y-68685943D01*
X61592898Y-68605489D01*
X61627129Y-68524468D01*
X61658669Y-68448937D01*
X61684946Y-68384955D01*
X61703389Y-68338580D01*
X61711429Y-68315869D01*
X61711578Y-68314876D01*
X61702465Y-68296961D01*
X61676914Y-68255733D01*
X61637612Y-68195291D01*
X61587243Y-68119731D01*
X61528494Y-68033152D01*
X61494342Y-67983421D01*
X61432110Y-67892236D01*
X61376836Y-67809449D01*
X61331218Y-67739249D01*
X61297952Y-67685824D01*
X61279736Y-67653361D01*
X61277105Y-67646083D01*
X61288414Y-67629145D01*
X61319681Y-67592978D01*
X61366910Y-67541635D01*
X61426108Y-67479167D01*
X61493281Y-67409626D01*
X61564434Y-67337065D01*
X61635574Y-67265535D01*
X61702707Y-67199087D01*
X61761839Y-67141774D01*
X61808975Y-67097647D01*
X61840123Y-67070759D01*
X61850543Y-67064342D01*
X61867509Y-67073365D01*
X61908089Y-67098715D01*
X61968337Y-67137810D01*
X62044307Y-67188071D01*
X62132054Y-67246917D01*
X62198244Y-67291748D01*
X62532668Y-67519154D01*
X62811433Y-67404238D01*
X63090197Y-67289322D01*
X63165746Y-66888576D01*
X63241294Y-66487829D01*
X64075415Y-66487829D01*
X64150964Y-66888576D01*
G36*
X66041388Y-72427645D02*
X66098865Y-72445206D01*
X66135872Y-72467395D01*
X66147927Y-72484942D01*
X66144609Y-72505742D01*
X66123079Y-72538419D01*
X66104874Y-72561562D01*
X66067344Y-72603402D01*
X66039148Y-72621005D01*
X66015111Y-72619856D01*
X65943808Y-72601710D01*
X65891442Y-72602534D01*
X65848918Y-72623098D01*
X65834642Y-72635134D01*
X65788947Y-72677483D01*
X65788947Y-73230526D01*
X65605131Y-73230526D01*
X65605131Y-72428421D01*
X65697039Y-72428421D01*
X65752219Y-72430603D01*
X65780688Y-72438351D01*
X65788943Y-72453468D01*
X65788947Y-72453916D01*
X65792845Y-72469749D01*
X65810474Y-72467684D01*
X65834901Y-72456261D01*
X65885350Y-72435005D01*
X65926316Y-72422216D01*
X65979028Y-72418938D01*
X66041388Y-72427645D01*
X66041388Y-72427645D01*
G37*
X66041388Y-72427645D02*
X66098865Y-72445206D01*
X66135872Y-72467395D01*
X66147927Y-72484942D01*
X66144609Y-72505742D01*
X66123079Y-72538419D01*
X66104874Y-72561562D01*
X66067344Y-72603402D01*
X66039148Y-72621005D01*
X66015111Y-72619856D01*
X65943808Y-72601710D01*
X65891442Y-72602534D01*
X65848918Y-72623098D01*
X65834642Y-72635134D01*
X65788947Y-72677483D01*
X65788947Y-73230526D01*
X65605131Y-73230526D01*
X65605131Y-72428421D01*
X65697039Y-72428421D01*
X65752219Y-72430603D01*
X65780688Y-72438351D01*
X65788943Y-72453468D01*
X65788947Y-72453916D01*
X65792845Y-72469749D01*
X65810474Y-72467684D01*
X65834901Y-72456261D01*
X65885350Y-72435005D01*
X65926316Y-72422216D01*
X65979028Y-72418938D01*
X66041388Y-72427645D01*
G36*
X62647957Y-72442226D02*
X62689546Y-72462090D01*
X62729825Y-72490784D01*
X62760510Y-72523809D01*
X62782861Y-72565931D01*
X62798136Y-72621915D01*
X62807592Y-72696528D01*
X62812487Y-72794535D01*
X62814081Y-72920702D01*
X62814106Y-72933914D01*
X62814473Y-73230526D01*
X62630657Y-73230526D01*
X62630657Y-72957081D01*
X62630527Y-72855777D01*
X62629621Y-72782353D01*
X62627173Y-72731271D01*
X62622414Y-72696990D01*
X62614574Y-72673971D01*
X62602885Y-72656673D01*
X62586602Y-72639581D01*
X62529634Y-72602857D01*
X62467445Y-72596042D01*
X62408199Y-72619261D01*
X62387595Y-72636543D01*
X62372470Y-72652791D01*
X62361610Y-72670191D01*
X62354310Y-72694212D01*
X62349863Y-72730322D01*
X62347564Y-72783988D01*
X62346704Y-72860680D01*
X62346578Y-72954043D01*
X62346578Y-73230526D01*
X62162763Y-73230526D01*
X62162763Y-72428421D01*
X62254671Y-72428421D01*
X62309851Y-72430603D01*
X62338320Y-72438351D01*
X62346575Y-72453468D01*
X62346578Y-72453916D01*
X62350408Y-72468720D01*
X62367301Y-72467040D01*
X62400888Y-72450773D01*
X62477063Y-72426840D01*
X62564200Y-72424178D01*
X62647957Y-72442226D01*
X62647957Y-72442226D01*
G37*
X62647957Y-72442226D02*
X62689546Y-72462090D01*
X62729825Y-72490784D01*
X62760510Y-72523809D01*
X62782861Y-72565931D01*
X62798136Y-72621915D01*
X62807592Y-72696528D01*
X62812487Y-72794535D01*
X62814081Y-72920702D01*
X62814106Y-72933914D01*
X62814473Y-73230526D01*
X62630657Y-73230526D01*
X62630657Y-72957081D01*
X62630527Y-72855777D01*
X62629621Y-72782353D01*
X62627173Y-72731271D01*
X62622414Y-72696990D01*
X62614574Y-72673971D01*
X62602885Y-72656673D01*
X62586602Y-72639581D01*
X62529634Y-72602857D01*
X62467445Y-72596042D01*
X62408199Y-72619261D01*
X62387595Y-72636543D01*
X62372470Y-72652791D01*
X62361610Y-72670191D01*
X62354310Y-72694212D01*
X62349863Y-72730322D01*
X62347564Y-72783988D01*
X62346704Y-72860680D01*
X62346578Y-72954043D01*
X62346578Y-73230526D01*
X62162763Y-73230526D01*
X62162763Y-72428421D01*
X62254671Y-72428421D01*
X62309851Y-72430603D01*
X62338320Y-72438351D01*
X62346575Y-72453468D01*
X62346578Y-72453916D01*
X62350408Y-72468720D01*
X62367301Y-72467040D01*
X62400888Y-72450773D01*
X62477063Y-72426840D01*
X62564200Y-72424178D01*
X62647957Y-72442226D01*
G36*
X67208784Y-72425554D02*
X67251574Y-72435949D01*
X67333609Y-72474013D01*
X67403757Y-72532149D01*
X67452305Y-72601852D01*
X67458975Y-72617502D01*
X67468124Y-72658496D01*
X67474529Y-72719138D01*
X67476710Y-72780430D01*
X67476710Y-72896316D01*
X67234407Y-72896316D01*
X67134471Y-72896693D01*
X67064069Y-72898987D01*
X67019313Y-72904938D01*
X66996315Y-72916285D01*
X66991189Y-72934771D01*
X67000048Y-72962136D01*
X67015917Y-72994155D01*
X67060184Y-73047592D01*
X67121699Y-73074215D01*
X67196885Y-73073347D01*
X67282053Y-73044371D01*
X67355659Y-73008611D01*
X67416734Y-73056904D01*
X67477810Y-73105197D01*
X67420351Y-73158285D01*
X67343641Y-73208445D01*
X67249302Y-73238688D01*
X67147827Y-73247151D01*
X67049711Y-73231974D01*
X67033881Y-73226824D01*
X66947647Y-73181791D01*
X66883501Y-73114652D01*
X66840091Y-73023405D01*
X66816064Y-72906044D01*
X66815784Y-72903529D01*
X66813633Y-72775627D01*
X66822329Y-72729997D01*
X66992105Y-72729997D01*
X67007697Y-72737013D01*
X67050029Y-72742388D01*
X67112434Y-72745457D01*
X67151981Y-72745921D01*
X67225728Y-72745630D01*
X67271840Y-72743783D01*
X67296100Y-72738912D01*
X67304294Y-72729555D01*
X67302206Y-72714245D01*
X67300455Y-72708322D01*
X67270560Y-72652668D01*
X67223542Y-72607815D01*
X67182049Y-72588105D01*
X67126926Y-72589295D01*
X67071068Y-72613875D01*
X67024212Y-72654570D01*
X66996094Y-72704108D01*
X66992105Y-72729997D01*
X66822329Y-72729997D01*
X66835074Y-72663133D01*
X66877611Y-72568727D01*
X66938747Y-72495088D01*
X67015985Y-72444893D01*
X67106830Y-72420822D01*
X67208784Y-72425554D01*
X67208784Y-72425554D01*
G37*
X67208784Y-72425554D02*
X67251574Y-72435949D01*
X67333609Y-72474013D01*
X67403757Y-72532149D01*
X67452305Y-72601852D01*
X67458975Y-72617502D01*
X67468124Y-72658496D01*
X67474529Y-72719138D01*
X67476710Y-72780430D01*
X67476710Y-72896316D01*
X67234407Y-72896316D01*
X67134471Y-72896693D01*
X67064069Y-72898987D01*
X67019313Y-72904938D01*
X66996315Y-72916285D01*
X66991189Y-72934771D01*
X67000048Y-72962136D01*
X67015917Y-72994155D01*
X67060184Y-73047592D01*
X67121699Y-73074215D01*
X67196885Y-73073347D01*
X67282053Y-73044371D01*
X67355659Y-73008611D01*
X67416734Y-73056904D01*
X67477810Y-73105197D01*
X67420351Y-73158285D01*
X67343641Y-73208445D01*
X67249302Y-73238688D01*
X67147827Y-73247151D01*
X67049711Y-73231974D01*
X67033881Y-73226824D01*
X66947647Y-73181791D01*
X66883501Y-73114652D01*
X66840091Y-73023405D01*
X66816064Y-72906044D01*
X66815784Y-72903529D01*
X66813633Y-72775627D01*
X66822329Y-72729997D01*
X66992105Y-72729997D01*
X67007697Y-72737013D01*
X67050029Y-72742388D01*
X67112434Y-72745457D01*
X67151981Y-72745921D01*
X67225728Y-72745630D01*
X67271840Y-72743783D01*
X67296100Y-72738912D01*
X67304294Y-72729555D01*
X67302206Y-72714245D01*
X67300455Y-72708322D01*
X67270560Y-72652668D01*
X67223542Y-72607815D01*
X67182049Y-72588105D01*
X67126926Y-72589295D01*
X67071068Y-72613875D01*
X67024212Y-72654570D01*
X66996094Y-72704108D01*
X66992105Y-72729997D01*
X66822329Y-72729997D01*
X66835074Y-72663133D01*
X66877611Y-72568727D01*
X66938747Y-72495088D01*
X67015985Y-72444893D01*
X67106830Y-72420822D01*
X67208784Y-72425554D01*
G36*
X66596576Y-72435419D02*
X66693395Y-72476549D01*
X66723890Y-72496571D01*
X66762865Y-72527340D01*
X66787331Y-72551533D01*
X66791578Y-72559413D01*
X66779584Y-72576899D01*
X66748887Y-72606570D01*
X66724312Y-72627279D01*
X66657046Y-72681336D01*
X66603930Y-72636642D01*
X66562884Y-72607789D01*
X66522863Y-72597829D01*
X66477059Y-72600261D01*
X66404324Y-72618345D01*
X66354256Y-72655881D01*
X66323829Y-72716562D01*
X66310017Y-72804081D01*
X66310013Y-72804136D01*
X66311208Y-72901958D01*
X66329772Y-72973730D01*
X66366804Y-73022595D01*
X66392050Y-73039143D01*
X66459097Y-73059749D01*
X66530709Y-73059762D01*
X66593015Y-73039768D01*
X66607763Y-73030000D01*
X66644750Y-73005047D01*
X66673668Y-73000958D01*
X66704856Y-73019530D01*
X66739336Y-73052887D01*
X66793912Y-73109196D01*
X66733318Y-73159142D01*
X66639698Y-73215513D01*
X66534125Y-73243293D01*
X66423798Y-73241282D01*
X66351343Y-73222862D01*
X66266656Y-73177310D01*
X66198927Y-73105650D01*
X66168157Y-73055066D01*
X66143236Y-72982488D01*
X66130766Y-72890569D01*
X66130670Y-72790948D01*
X66142870Y-72695267D01*
X66167290Y-72615169D01*
X66171136Y-72606956D01*
X66228093Y-72526413D01*
X66305209Y-72467771D01*
X66396390Y-72432247D01*
X66495543Y-72421057D01*
X66596576Y-72435419D01*
X66596576Y-72435419D01*
G37*
X66596576Y-72435419D02*
X66693395Y-72476549D01*
X66723890Y-72496571D01*
X66762865Y-72527340D01*
X66787331Y-72551533D01*
X66791578Y-72559413D01*
X66779584Y-72576899D01*
X66748887Y-72606570D01*
X66724312Y-72627279D01*
X66657046Y-72681336D01*
X66603930Y-72636642D01*
X66562884Y-72607789D01*
X66522863Y-72597829D01*
X66477059Y-72600261D01*
X66404324Y-72618345D01*
X66354256Y-72655881D01*
X66323829Y-72716562D01*
X66310017Y-72804081D01*
X66310013Y-72804136D01*
X66311208Y-72901958D01*
X66329772Y-72973730D01*
X66366804Y-73022595D01*
X66392050Y-73039143D01*
X66459097Y-73059749D01*
X66530709Y-73059762D01*
X66593015Y-73039768D01*
X66607763Y-73030000D01*
X66644750Y-73005047D01*
X66673668Y-73000958D01*
X66704856Y-73019530D01*
X66739336Y-73052887D01*
X66793912Y-73109196D01*
X66733318Y-73159142D01*
X66639698Y-73215513D01*
X66534125Y-73243293D01*
X66423798Y-73241282D01*
X66351343Y-73222862D01*
X66266656Y-73177310D01*
X66198927Y-73105650D01*
X66168157Y-73055066D01*
X66143236Y-72982488D01*
X66130766Y-72890569D01*
X66130670Y-72790948D01*
X66142870Y-72695267D01*
X66167290Y-72615169D01*
X66171136Y-72606956D01*
X66228093Y-72526413D01*
X66305209Y-72467771D01*
X66396390Y-72432247D01*
X66495543Y-72421057D01*
X66596576Y-72435419D01*
G36*
X64970131Y-72688533D02*
X64971710Y-72811089D01*
X64977481Y-72904179D01*
X64988991Y-72971651D01*
X65007790Y-73017355D01*
X65035426Y-73045139D01*
X65073448Y-73058854D01*
X65120526Y-73062358D01*
X65169832Y-73058432D01*
X65207283Y-73044089D01*
X65234428Y-73015478D01*
X65252815Y-72968751D01*
X65263993Y-72900058D01*
X65269511Y-72805550D01*
X65270921Y-72688533D01*
X65270921Y-72428421D01*
X65454736Y-72428421D01*
X65454736Y-73230526D01*
X65362828Y-73230526D01*
X65307422Y-73228281D01*
X65278891Y-73220396D01*
X65270921Y-73205428D01*
X65266120Y-73192097D01*
X65247014Y-73194917D01*
X65208504Y-73213783D01*
X65120239Y-73242887D01*
X65026623Y-73240825D01*
X64936921Y-73209221D01*
X64894204Y-73184257D01*
X64861621Y-73157226D01*
X64837817Y-73123405D01*
X64821439Y-73078068D01*
X64811131Y-73016489D01*
X64805541Y-72933943D01*
X64803312Y-72825705D01*
X64803026Y-72742004D01*
X64803026Y-72428421D01*
X64970131Y-72428421D01*
X64970131Y-72688533D01*
X64970131Y-72688533D01*
G37*
X64970131Y-72688533D02*
X64971710Y-72811089D01*
X64977481Y-72904179D01*
X64988991Y-72971651D01*
X65007790Y-73017355D01*
X65035426Y-73045139D01*
X65073448Y-73058854D01*
X65120526Y-73062358D01*
X65169832Y-73058432D01*
X65207283Y-73044089D01*
X65234428Y-73015478D01*
X65252815Y-72968751D01*
X65263993Y-72900058D01*
X65269511Y-72805550D01*
X65270921Y-72688533D01*
X65270921Y-72428421D01*
X65454736Y-72428421D01*
X65454736Y-73230526D01*
X65362828Y-73230526D01*
X65307422Y-73228281D01*
X65278891Y-73220396D01*
X65270921Y-73205428D01*
X65266120Y-73192097D01*
X65247014Y-73194917D01*
X65208504Y-73213783D01*
X65120239Y-73242887D01*
X65026623Y-73240825D01*
X64936921Y-73209221D01*
X64894204Y-73184257D01*
X64861621Y-73157226D01*
X64837817Y-73123405D01*
X64821439Y-73078068D01*
X64811131Y-73016489D01*
X64805541Y-72933943D01*
X64803312Y-72825705D01*
X64803026Y-72742004D01*
X64803026Y-72428421D01*
X64970131Y-72428421D01*
X64970131Y-72688533D01*
G36*
X64461669Y-72438310D02*
X64546192Y-72484340D01*
X64612321Y-72557006D01*
X64643478Y-72616106D01*
X64656855Y-72668305D01*
X64665522Y-72742719D01*
X64669237Y-72828442D01*
X64667754Y-72914569D01*
X64660831Y-72990193D01*
X64652745Y-73030584D01*
X64625465Y-73085840D01*
X64578220Y-73144530D01*
X64521282Y-73195852D01*
X64464924Y-73229005D01*
X64463550Y-73229531D01*
X64393616Y-73244018D01*
X64310737Y-73244377D01*
X64231977Y-73231188D01*
X64201566Y-73220617D01*
X64123239Y-73176201D01*
X64067143Y-73118007D01*
X64030286Y-73040965D01*
X64009680Y-72940001D01*
X64005018Y-72887116D01*
X64005613Y-72820663D01*
X64184736Y-72820663D01*
X64190770Y-72917630D01*
X64208138Y-72991523D01*
X64235740Y-73038736D01*
X64255404Y-73052237D01*
X64305787Y-73061651D01*
X64365673Y-73058864D01*
X64417449Y-73045316D01*
X64431027Y-73037862D01*
X64466849Y-72994451D01*
X64490493Y-72928014D01*
X64500558Y-72847161D01*
X64495642Y-72760502D01*
X64484655Y-72708349D01*
X64453109Y-72647951D01*
X64403311Y-72610197D01*
X64343337Y-72597143D01*
X64281264Y-72610849D01*
X64233582Y-72644372D01*
X64208525Y-72672031D01*
X64193900Y-72699294D01*
X64186929Y-72736190D01*
X64184833Y-72792750D01*
X64184736Y-72820663D01*
X64005613Y-72820663D01*
X64006282Y-72745994D01*
X64029265Y-72630271D01*
X64073972Y-72539941D01*
X64140405Y-72475000D01*
X64228565Y-72435445D01*
X64247495Y-72430858D01*
X64361266Y-72420090D01*
X64461669Y-72438310D01*
X64461669Y-72438310D01*
G37*
X64461669Y-72438310D02*
X64546192Y-72484340D01*
X64612321Y-72557006D01*
X64643478Y-72616106D01*
X64656855Y-72668305D01*
X64665522Y-72742719D01*
X64669237Y-72828442D01*
X64667754Y-72914569D01*
X64660831Y-72990193D01*
X64652745Y-73030584D01*
X64625465Y-73085840D01*
X64578220Y-73144530D01*
X64521282Y-73195852D01*
X64464924Y-73229005D01*
X64463550Y-73229531D01*
X64393616Y-73244018D01*
X64310737Y-73244377D01*
X64231977Y-73231188D01*
X64201566Y-73220617D01*
X64123239Y-73176201D01*
X64067143Y-73118007D01*
X64030286Y-73040965D01*
X64009680Y-72940001D01*
X64005018Y-72887116D01*
X64005613Y-72820663D01*
X64184736Y-72820663D01*
X64190770Y-72917630D01*
X64208138Y-72991523D01*
X64235740Y-73038736D01*
X64255404Y-73052237D01*
X64305787Y-73061651D01*
X64365673Y-73058864D01*
X64417449Y-73045316D01*
X64431027Y-73037862D01*
X64466849Y-72994451D01*
X64490493Y-72928014D01*
X64500558Y-72847161D01*
X64495642Y-72760502D01*
X64484655Y-72708349D01*
X64453109Y-72647951D01*
X64403311Y-72610197D01*
X64343337Y-72597143D01*
X64281264Y-72610849D01*
X64233582Y-72644372D01*
X64208525Y-72672031D01*
X64193900Y-72699294D01*
X64186929Y-72736190D01*
X64184833Y-72792750D01*
X64184736Y-72820663D01*
X64005613Y-72820663D01*
X64006282Y-72745994D01*
X64029265Y-72630271D01*
X64073972Y-72539941D01*
X64140405Y-72475000D01*
X64228565Y-72435445D01*
X64247495Y-72430858D01*
X64361266Y-72420090D01*
X64461669Y-72438310D01*
G36*
X63668628Y-72425547D02*
X63731908Y-72437548D01*
X63797557Y-72462648D01*
X63804572Y-72465848D01*
X63854356Y-72492026D01*
X63888834Y-72516353D01*
X63899978Y-72531937D01*
X63889366Y-72557353D01*
X63863588Y-72594853D01*
X63852146Y-72608852D01*
X63804992Y-72663954D01*
X63744201Y-72628086D01*
X63686347Y-72604192D01*
X63619500Y-72591420D01*
X63555394Y-72590613D01*
X63505764Y-72602615D01*
X63493854Y-72610105D01*
X63471172Y-72644450D01*
X63468416Y-72684013D01*
X63485388Y-72714920D01*
X63495427Y-72720913D01*
X63525510Y-72728357D01*
X63578389Y-72737106D01*
X63643575Y-72745467D01*
X63655600Y-72746778D01*
X63760297Y-72764888D01*
X63836232Y-72795651D01*
X63886592Y-72841907D01*
X63914564Y-72906497D01*
X63923278Y-72985387D01*
X63911240Y-73075065D01*
X63872151Y-73145486D01*
X63805855Y-73196777D01*
X63712194Y-73229067D01*
X63608223Y-73241807D01*
X63523438Y-73241654D01*
X63454665Y-73230083D01*
X63407697Y-73214109D01*
X63348350Y-73186275D01*
X63293506Y-73153973D01*
X63274013Y-73139755D01*
X63223881Y-73098835D01*
X63344803Y-72976477D01*
X63413543Y-73021967D01*
X63482488Y-73056133D01*
X63556111Y-73074004D01*
X63626883Y-73075889D01*
X63687274Y-73062101D01*
X63729757Y-73032949D01*
X63743474Y-73008352D01*
X63741417Y-72968904D01*
X63707330Y-72938737D01*
X63641308Y-72917906D01*
X63568974Y-72908279D01*
X63457652Y-72889910D01*
X63374952Y-72855254D01*
X63319765Y-72803297D01*
X63290988Y-72733023D01*
X63287001Y-72649707D01*
X63306693Y-72562681D01*
X63351589Y-72496902D01*
X63422091Y-72452068D01*
X63518601Y-72427879D01*
X63590100Y-72423137D01*
X63668628Y-72425547D01*
X63668628Y-72425547D01*
G37*
X63668628Y-72425547D02*
X63731908Y-72437548D01*
X63797557Y-72462648D01*
X63804572Y-72465848D01*
X63854356Y-72492026D01*
X63888834Y-72516353D01*
X63899978Y-72531937D01*
X63889366Y-72557353D01*
X63863588Y-72594853D01*
X63852146Y-72608852D01*
X63804992Y-72663954D01*
X63744201Y-72628086D01*
X63686347Y-72604192D01*
X63619500Y-72591420D01*
X63555394Y-72590613D01*
X63505764Y-72602615D01*
X63493854Y-72610105D01*
X63471172Y-72644450D01*
X63468416Y-72684013D01*
X63485388Y-72714920D01*
X63495427Y-72720913D01*
X63525510Y-72728357D01*
X63578389Y-72737106D01*
X63643575Y-72745467D01*
X63655600Y-72746778D01*
X63760297Y-72764888D01*
X63836232Y-72795651D01*
X63886592Y-72841907D01*
X63914564Y-72906497D01*
X63923278Y-72985387D01*
X63911240Y-73075065D01*
X63872151Y-73145486D01*
X63805855Y-73196777D01*
X63712194Y-73229067D01*
X63608223Y-73241807D01*
X63523438Y-73241654D01*
X63454665Y-73230083D01*
X63407697Y-73214109D01*
X63348350Y-73186275D01*
X63293506Y-73153973D01*
X63274013Y-73139755D01*
X63223881Y-73098835D01*
X63344803Y-72976477D01*
X63413543Y-73021967D01*
X63482488Y-73056133D01*
X63556111Y-73074004D01*
X63626883Y-73075889D01*
X63687274Y-73062101D01*
X63729757Y-73032949D01*
X63743474Y-73008352D01*
X63741417Y-72968904D01*
X63707330Y-72938737D01*
X63641308Y-72917906D01*
X63568974Y-72908279D01*
X63457652Y-72889910D01*
X63374952Y-72855254D01*
X63319765Y-72803297D01*
X63290988Y-72733023D01*
X63287001Y-72649707D01*
X63306693Y-72562681D01*
X63351589Y-72496902D01*
X63422091Y-72452068D01*
X63518601Y-72427879D01*
X63590100Y-72423137D01*
X63668628Y-72425547D01*
G36*
X61847018Y-72447027D02*
X61863670Y-72454866D01*
X61921305Y-72497086D01*
X61975805Y-72558700D01*
X62016499Y-72626543D01*
X62028074Y-72657734D01*
X62038634Y-72713449D01*
X62044931Y-72780781D01*
X62045696Y-72808585D01*
X62045789Y-72896316D01*
X61540850Y-72896316D01*
X61551613Y-72942270D01*
X61578033Y-72996620D01*
X61624222Y-73043591D01*
X61679172Y-73073848D01*
X61714189Y-73080131D01*
X61761677Y-73072506D01*
X61818335Y-73053383D01*
X61837582Y-73044584D01*
X61908759Y-73009036D01*
X61969502Y-73055367D01*
X62004552Y-73086703D01*
X62023202Y-73112567D01*
X62024147Y-73120158D01*
X62007485Y-73138556D01*
X61970970Y-73166515D01*
X61937828Y-73188327D01*
X61848393Y-73227537D01*
X61748129Y-73245285D01*
X61648754Y-73240670D01*
X61569539Y-73216551D01*
X61487880Y-73164884D01*
X61429849Y-73096856D01*
X61393546Y-73008843D01*
X61377072Y-72897216D01*
X61375611Y-72846138D01*
X61381457Y-72729091D01*
X61382175Y-72725686D01*
X61549489Y-72725686D01*
X61554097Y-72736662D01*
X61573036Y-72742715D01*
X61612098Y-72745310D01*
X61677077Y-72745910D01*
X61702097Y-72745921D01*
X61778221Y-72745014D01*
X61826496Y-72741720D01*
X61852460Y-72735181D01*
X61861648Y-72724537D01*
X61861973Y-72721119D01*
X61851487Y-72693956D01*
X61825242Y-72655903D01*
X61813959Y-72642579D01*
X61772072Y-72604896D01*
X61728409Y-72590080D01*
X61704885Y-72588842D01*
X61641243Y-72604329D01*
X61587873Y-72645930D01*
X61554019Y-72706353D01*
X61553419Y-72708322D01*
X61549489Y-72725686D01*
X61382175Y-72725686D01*
X61400899Y-72636928D01*
X61435922Y-72563190D01*
X61478756Y-72510848D01*
X61557948Y-72454092D01*
X61651040Y-72423762D01*
X61750055Y-72421021D01*
X61847018Y-72447027D01*
X61847018Y-72447027D01*
G37*
X61847018Y-72447027D02*
X61863670Y-72454866D01*
X61921305Y-72497086D01*
X61975805Y-72558700D01*
X62016499Y-72626543D01*
X62028074Y-72657734D01*
X62038634Y-72713449D01*
X62044931Y-72780781D01*
X62045696Y-72808585D01*
X62045789Y-72896316D01*
X61540850Y-72896316D01*
X61551613Y-72942270D01*
X61578033Y-72996620D01*
X61624222Y-73043591D01*
X61679172Y-73073848D01*
X61714189Y-73080131D01*
X61761677Y-73072506D01*
X61818335Y-73053383D01*
X61837582Y-73044584D01*
X61908759Y-73009036D01*
X61969502Y-73055367D01*
X62004552Y-73086703D01*
X62023202Y-73112567D01*
X62024147Y-73120158D01*
X62007485Y-73138556D01*
X61970970Y-73166515D01*
X61937828Y-73188327D01*
X61848393Y-73227537D01*
X61748129Y-73245285D01*
X61648754Y-73240670D01*
X61569539Y-73216551D01*
X61487880Y-73164884D01*
X61429849Y-73096856D01*
X61393546Y-73008843D01*
X61377072Y-72897216D01*
X61375611Y-72846138D01*
X61381457Y-72729091D01*
X61382175Y-72725686D01*
X61549489Y-72725686D01*
X61554097Y-72736662D01*
X61573036Y-72742715D01*
X61612098Y-72745310D01*
X61677077Y-72745910D01*
X61702097Y-72745921D01*
X61778221Y-72745014D01*
X61826496Y-72741720D01*
X61852460Y-72735181D01*
X61861648Y-72724537D01*
X61861973Y-72721119D01*
X61851487Y-72693956D01*
X61825242Y-72655903D01*
X61813959Y-72642579D01*
X61772072Y-72604896D01*
X61728409Y-72590080D01*
X61704885Y-72588842D01*
X61641243Y-72604329D01*
X61587873Y-72645930D01*
X61554019Y-72706353D01*
X61553419Y-72708322D01*
X61549489Y-72725686D01*
X61382175Y-72725686D01*
X61400899Y-72636928D01*
X61435922Y-72563190D01*
X61478756Y-72510848D01*
X61557948Y-72454092D01*
X61651040Y-72423762D01*
X61750055Y-72421021D01*
X61847018Y-72447027D01*
G36*
X60276784Y-72437104D02*
X60364205Y-72475754D01*
X60430570Y-72540290D01*
X60475976Y-72630812D01*
X60500518Y-72747418D01*
X60502277Y-72765624D01*
X60503656Y-72893984D01*
X60485784Y-73006496D01*
X60449750Y-73097688D01*
X60430455Y-73127022D01*
X60363245Y-73189106D01*
X60277650Y-73229316D01*
X60181890Y-73246003D01*
X60084187Y-73237517D01*
X60009917Y-73211380D01*
X59946047Y-73167335D01*
X59893846Y-73109587D01*
X59892943Y-73108236D01*
X59871744Y-73072593D01*
X59857967Y-73036752D01*
X59849624Y-72991519D01*
X59844727Y-72927701D01*
X59842569Y-72875368D01*
X59841671Y-72827910D01*
X60008743Y-72827910D01*
X60010376Y-72875154D01*
X60016304Y-72938046D01*
X60026761Y-72978407D01*
X60045619Y-73007122D01*
X60063281Y-73023896D01*
X60125894Y-73059016D01*
X60191408Y-73063710D01*
X60252421Y-73038440D01*
X60282928Y-73010124D01*
X60304911Y-72981589D01*
X60317769Y-72954284D01*
X60323412Y-72918750D01*
X60323751Y-72865524D01*
X60322012Y-72816506D01*
X60318271Y-72746482D01*
X60312341Y-72701064D01*
X60301653Y-72671440D01*
X60283639Y-72648797D01*
X60269363Y-72635855D01*
X60209651Y-72601860D01*
X60145234Y-72600165D01*
X60091219Y-72620301D01*
X60045140Y-72662352D01*
X60017689Y-72731428D01*
X60008743Y-72827910D01*
X59841671Y-72827910D01*
X59840599Y-72771299D01*
X59843964Y-72693468D01*
X59854045Y-72634930D01*
X59872226Y-72588737D01*
X59899890Y-72547942D01*
X59910146Y-72535828D01*
X59974278Y-72475474D01*
X60043066Y-72440220D01*
X60127189Y-72425450D01*
X60168209Y-72424243D01*
X60276784Y-72437104D01*
X60276784Y-72437104D01*
G37*
X60276784Y-72437104D02*
X60364205Y-72475754D01*
X60430570Y-72540290D01*
X60475976Y-72630812D01*
X60500518Y-72747418D01*
X60502277Y-72765624D01*
X60503656Y-72893984D01*
X60485784Y-73006496D01*
X60449750Y-73097688D01*
X60430455Y-73127022D01*
X60363245Y-73189106D01*
X60277650Y-73229316D01*
X60181890Y-73246003D01*
X60084187Y-73237517D01*
X60009917Y-73211380D01*
X59946047Y-73167335D01*
X59893846Y-73109587D01*
X59892943Y-73108236D01*
X59871744Y-73072593D01*
X59857967Y-73036752D01*
X59849624Y-72991519D01*
X59844727Y-72927701D01*
X59842569Y-72875368D01*
X59841671Y-72827910D01*
X60008743Y-72827910D01*
X60010376Y-72875154D01*
X60016304Y-72938046D01*
X60026761Y-72978407D01*
X60045619Y-73007122D01*
X60063281Y-73023896D01*
X60125894Y-73059016D01*
X60191408Y-73063710D01*
X60252421Y-73038440D01*
X60282928Y-73010124D01*
X60304911Y-72981589D01*
X60317769Y-72954284D01*
X60323412Y-72918750D01*
X60323751Y-72865524D01*
X60322012Y-72816506D01*
X60318271Y-72746482D01*
X60312341Y-72701064D01*
X60301653Y-72671440D01*
X60283639Y-72648797D01*
X60269363Y-72635855D01*
X60209651Y-72601860D01*
X60145234Y-72600165D01*
X60091219Y-72620301D01*
X60045140Y-72662352D01*
X60017689Y-72731428D01*
X60008743Y-72827910D01*
X59841671Y-72827910D01*
X59840599Y-72771299D01*
X59843964Y-72693468D01*
X59854045Y-72634930D01*
X59872226Y-72588737D01*
X59899890Y-72547942D01*
X59910146Y-72535828D01*
X59974278Y-72475474D01*
X60043066Y-72440220D01*
X60127189Y-72425450D01*
X60168209Y-72424243D01*
X60276784Y-72437104D01*
G36*
X66351193Y-73686078D02*
X66431068Y-73706845D01*
X66497962Y-73749705D01*
X66530351Y-73781723D01*
X66583445Y-73857413D01*
X66613873Y-73945216D01*
X66624327Y-74053150D01*
X66624380Y-74061875D01*
X66624473Y-74149605D01*
X66119534Y-74149605D01*
X66130298Y-74195559D01*
X66149732Y-74237178D01*
X66183745Y-74280544D01*
X66190860Y-74287467D01*
X66252003Y-74324935D01*
X66321729Y-74331289D01*
X66401987Y-74306638D01*
X66415592Y-74300000D01*
X66457319Y-74279819D01*
X66485268Y-74268321D01*
X66490145Y-74267258D01*
X66507168Y-74277583D01*
X66539633Y-74302845D01*
X66556114Y-74316650D01*
X66590264Y-74348361D01*
X66601478Y-74369299D01*
X66593695Y-74388560D01*
X66589535Y-74393827D01*
X66561357Y-74416878D01*
X66514862Y-74444892D01*
X66482434Y-74461246D01*
X66390385Y-74490059D01*
X66288476Y-74499395D01*
X66191963Y-74488332D01*
X66164934Y-74480412D01*
X66081276Y-74435581D01*
X66019266Y-74366598D01*
X65978545Y-74272794D01*
X65958755Y-74153498D01*
X65956582Y-74091118D01*
X65962926Y-74000298D01*
X66123157Y-74000298D01*
X66138655Y-74007012D01*
X66180312Y-74012280D01*
X66240876Y-74015389D01*
X66281907Y-74015921D01*
X66355711Y-74015408D01*
X66402293Y-74013006D01*
X66427848Y-74007422D01*
X66438569Y-73997361D01*
X66440657Y-73982763D01*
X66426331Y-73937796D01*
X66390262Y-73893353D01*
X66342815Y-73859242D01*
X66295349Y-73845288D01*
X66230879Y-73857666D01*
X66175070Y-73893452D01*
X66136374Y-73945033D01*
X66123157Y-74000298D01*
X65962926Y-74000298D01*
X65965821Y-73958866D01*
X65994336Y-73853498D01*
X66042729Y-73774178D01*
X66111604Y-73720071D01*
X66201565Y-73690343D01*
X66250300Y-73684618D01*
X66351193Y-73686078D01*
X66351193Y-73686078D01*
G37*
X66351193Y-73686078D02*
X66431068Y-73706845D01*
X66497962Y-73749705D01*
X66530351Y-73781723D01*
X66583445Y-73857413D01*
X66613873Y-73945216D01*
X66624327Y-74053150D01*
X66624380Y-74061875D01*
X66624473Y-74149605D01*
X66119534Y-74149605D01*
X66130298Y-74195559D01*
X66149732Y-74237178D01*
X66183745Y-74280544D01*
X66190860Y-74287467D01*
X66252003Y-74324935D01*
X66321729Y-74331289D01*
X66401987Y-74306638D01*
X66415592Y-74300000D01*
X66457319Y-74279819D01*
X66485268Y-74268321D01*
X66490145Y-74267258D01*
X66507168Y-74277583D01*
X66539633Y-74302845D01*
X66556114Y-74316650D01*
X66590264Y-74348361D01*
X66601478Y-74369299D01*
X66593695Y-74388560D01*
X66589535Y-74393827D01*
X66561357Y-74416878D01*
X66514862Y-74444892D01*
X66482434Y-74461246D01*
X66390385Y-74490059D01*
X66288476Y-74499395D01*
X66191963Y-74488332D01*
X66164934Y-74480412D01*
X66081276Y-74435581D01*
X66019266Y-74366598D01*
X65978545Y-74272794D01*
X65958755Y-74153498D01*
X65956582Y-74091118D01*
X65962926Y-74000298D01*
X66123157Y-74000298D01*
X66138655Y-74007012D01*
X66180312Y-74012280D01*
X66240876Y-74015389D01*
X66281907Y-74015921D01*
X66355711Y-74015408D01*
X66402293Y-74013006D01*
X66427848Y-74007422D01*
X66438569Y-73997361D01*
X66440657Y-73982763D01*
X66426331Y-73937796D01*
X66390262Y-73893353D01*
X66342815Y-73859242D01*
X66295349Y-73845288D01*
X66230879Y-73857666D01*
X66175070Y-73893452D01*
X66136374Y-73945033D01*
X66123157Y-74000298D01*
X65962926Y-74000298D01*
X65965821Y-73958866D01*
X65994336Y-73853498D01*
X66042729Y-73774178D01*
X66111604Y-73720071D01*
X66201565Y-73690343D01*
X66250300Y-73684618D01*
X66351193Y-73686078D01*
G36*
X65823167Y-73681447D02*
X65887408Y-73694112D01*
X65923980Y-73712864D01*
X65962453Y-73744017D01*
X65907717Y-73813127D01*
X65873969Y-73854979D01*
X65851053Y-73875398D01*
X65828279Y-73878517D01*
X65794956Y-73868472D01*
X65779314Y-73862789D01*
X65715542Y-73854404D01*
X65657140Y-73872378D01*
X65614264Y-73912982D01*
X65607299Y-73925929D01*
X65599713Y-73960224D01*
X65593859Y-74023427D01*
X65590011Y-74111060D01*
X65588443Y-74218640D01*
X65588421Y-74233944D01*
X65588421Y-74500526D01*
X65404605Y-74500526D01*
X65404605Y-73681710D01*
X65496513Y-73681710D01*
X65549507Y-73683094D01*
X65577115Y-73689252D01*
X65587324Y-73703194D01*
X65588421Y-73716344D01*
X65588421Y-73750978D01*
X65632450Y-73716344D01*
X65682937Y-73692716D01*
X65750760Y-73681033D01*
X65823167Y-73681447D01*
X65823167Y-73681447D01*
G37*
X65823167Y-73681447D02*
X65887408Y-73694112D01*
X65923980Y-73712864D01*
X65962453Y-73744017D01*
X65907717Y-73813127D01*
X65873969Y-73854979D01*
X65851053Y-73875398D01*
X65828279Y-73878517D01*
X65794956Y-73868472D01*
X65779314Y-73862789D01*
X65715542Y-73854404D01*
X65657140Y-73872378D01*
X65614264Y-73912982D01*
X65607299Y-73925929D01*
X65599713Y-73960224D01*
X65593859Y-74023427D01*
X65590011Y-74111060D01*
X65588443Y-74218640D01*
X65588421Y-74233944D01*
X65588421Y-74500526D01*
X65404605Y-74500526D01*
X65404605Y-73681710D01*
X65496513Y-73681710D01*
X65549507Y-73683094D01*
X65577115Y-73689252D01*
X65587324Y-73703194D01*
X65588421Y-73716344D01*
X65588421Y-73750978D01*
X65632450Y-73716344D01*
X65682937Y-73692716D01*
X65750760Y-73681033D01*
X65823167Y-73681447D01*
G36*
X65029992Y-73686673D02*
X65100427Y-73703780D01*
X65120787Y-73712844D01*
X65160253Y-73736583D01*
X65190541Y-73763321D01*
X65212952Y-73797699D01*
X65228786Y-73844360D01*
X65239343Y-73907946D01*
X65245924Y-73993099D01*
X65249828Y-74104462D01*
X65251310Y-74178849D01*
X65256765Y-74500526D01*
X65163580Y-74500526D01*
X65107047Y-74498156D01*
X65077922Y-74490055D01*
X65070394Y-74476451D01*
X65066420Y-74461741D01*
X65048652Y-74464554D01*
X65024440Y-74476348D01*
X64963828Y-74494427D01*
X64885929Y-74499299D01*
X64803995Y-74491330D01*
X64731281Y-74470889D01*
X64724759Y-74468051D01*
X64658302Y-74421365D01*
X64614491Y-74356464D01*
X64594332Y-74280600D01*
X64595872Y-74253344D01*
X64760345Y-74253344D01*
X64774837Y-74290024D01*
X64817805Y-74316309D01*
X64887129Y-74330417D01*
X64924177Y-74332290D01*
X64985919Y-74327494D01*
X65026960Y-74308858D01*
X65036973Y-74300000D01*
X65064100Y-74251806D01*
X65070394Y-74208092D01*
X65070394Y-74149605D01*
X64988930Y-74149605D01*
X64894234Y-74154432D01*
X64827813Y-74169613D01*
X64785846Y-74196200D01*
X64776449Y-74208052D01*
X64760345Y-74253344D01*
X64595872Y-74253344D01*
X64598829Y-74201026D01*
X64628985Y-74124995D01*
X64670131Y-74073612D01*
X64695052Y-74051397D01*
X64719448Y-74036798D01*
X64751191Y-74027897D01*
X64798152Y-74022775D01*
X64868204Y-74019515D01*
X64895990Y-74018577D01*
X65070394Y-74012879D01*
X65070138Y-73960091D01*
X65063384Y-73904603D01*
X65038964Y-73871052D01*
X64989630Y-73849618D01*
X64988306Y-73849236D01*
X64918360Y-73840808D01*
X64849914Y-73851816D01*
X64799047Y-73878585D01*
X64778637Y-73891803D01*
X64756654Y-73889974D01*
X64722826Y-73870824D01*
X64702961Y-73857308D01*
X64664106Y-73828432D01*
X64640038Y-73806786D01*
X64636176Y-73800589D01*
X64652079Y-73768519D01*
X64699065Y-73730219D01*
X64719473Y-73717297D01*
X64778143Y-73695041D01*
X64857212Y-73682432D01*
X64945041Y-73679600D01*
X65029992Y-73686673D01*
X65029992Y-73686673D01*
G37*
X65029992Y-73686673D02*
X65100427Y-73703780D01*
X65120787Y-73712844D01*
X65160253Y-73736583D01*
X65190541Y-73763321D01*
X65212952Y-73797699D01*
X65228786Y-73844360D01*
X65239343Y-73907946D01*
X65245924Y-73993099D01*
X65249828Y-74104462D01*
X65251310Y-74178849D01*
X65256765Y-74500526D01*
X65163580Y-74500526D01*
X65107047Y-74498156D01*
X65077922Y-74490055D01*
X65070394Y-74476451D01*
X65066420Y-74461741D01*
X65048652Y-74464554D01*
X65024440Y-74476348D01*
X64963828Y-74494427D01*
X64885929Y-74499299D01*
X64803995Y-74491330D01*
X64731281Y-74470889D01*
X64724759Y-74468051D01*
X64658302Y-74421365D01*
X64614491Y-74356464D01*
X64594332Y-74280600D01*
X64595872Y-74253344D01*
X64760345Y-74253344D01*
X64774837Y-74290024D01*
X64817805Y-74316309D01*
X64887129Y-74330417D01*
X64924177Y-74332290D01*
X64985919Y-74327494D01*
X65026960Y-74308858D01*
X65036973Y-74300000D01*
X65064100Y-74251806D01*
X65070394Y-74208092D01*
X65070394Y-74149605D01*
X64988930Y-74149605D01*
X64894234Y-74154432D01*
X64827813Y-74169613D01*
X64785846Y-74196200D01*
X64776449Y-74208052D01*
X64760345Y-74253344D01*
X64595872Y-74253344D01*
X64598829Y-74201026D01*
X64628985Y-74124995D01*
X64670131Y-74073612D01*
X64695052Y-74051397D01*
X64719448Y-74036798D01*
X64751191Y-74027897D01*
X64798152Y-74022775D01*
X64868204Y-74019515D01*
X64895990Y-74018577D01*
X65070394Y-74012879D01*
X65070138Y-73960091D01*
X65063384Y-73904603D01*
X65038964Y-73871052D01*
X64989630Y-73849618D01*
X64988306Y-73849236D01*
X64918360Y-73840808D01*
X64849914Y-73851816D01*
X64799047Y-73878585D01*
X64778637Y-73891803D01*
X64756654Y-73889974D01*
X64722826Y-73870824D01*
X64702961Y-73857308D01*
X64664106Y-73828432D01*
X64640038Y-73806786D01*
X64636176Y-73800589D01*
X64652079Y-73768519D01*
X64699065Y-73730219D01*
X64719473Y-73717297D01*
X64778143Y-73695041D01*
X64857212Y-73682432D01*
X64945041Y-73679600D01*
X65029992Y-73686673D01*
G36*
X64024130Y-73685104D02*
X64090220Y-73690066D01*
X64176626Y-73949079D01*
X64263031Y-74208092D01*
X64290124Y-74116184D01*
X64306428Y-74059384D01*
X64327875Y-73982625D01*
X64351035Y-73898251D01*
X64363280Y-73852993D01*
X64409344Y-73681710D01*
X64599387Y-73681710D01*
X64542582Y-73861349D01*
X64514607Y-73949704D01*
X64480813Y-74056281D01*
X64445520Y-74167454D01*
X64414013Y-74266579D01*
X64342250Y-74492171D01*
X64187286Y-74502253D01*
X64145270Y-74363528D01*
X64119359Y-74277351D01*
X64091083Y-74182347D01*
X64066369Y-74098441D01*
X64065394Y-74095102D01*
X64046935Y-74038248D01*
X64030649Y-73999456D01*
X64019242Y-73984787D01*
X64016898Y-73986483D01*
X64008671Y-74009225D01*
X63993038Y-74057940D01*
X63971904Y-74126502D01*
X63947170Y-74208785D01*
X63933787Y-74254046D01*
X63861311Y-74500526D01*
X63707495Y-74500526D01*
X63584531Y-74112006D01*
X63549988Y-74003022D01*
X63518521Y-73904048D01*
X63491616Y-73819736D01*
X63470759Y-73754734D01*
X63457438Y-73713692D01*
X63453388Y-73701701D01*
X63456594Y-73689423D01*
X63481765Y-73684046D01*
X63534146Y-73684584D01*
X63542345Y-73684990D01*
X63639482Y-73690066D01*
X63703100Y-73924013D01*
X63726484Y-74009333D01*
X63747381Y-74084335D01*
X63763951Y-74142507D01*
X63774354Y-74177337D01*
X63776276Y-74183016D01*
X63784241Y-74176486D01*
X63800304Y-74142654D01*
X63822621Y-74086127D01*
X63849345Y-74011510D01*
X63871937Y-73944107D01*
X63958041Y-73680143D01*
X64024130Y-73685104D01*
X64024130Y-73685104D01*
G37*
X64024130Y-73685104D02*
X64090220Y-73690066D01*
X64176626Y-73949079D01*
X64263031Y-74208092D01*
X64290124Y-74116184D01*
X64306428Y-74059384D01*
X64327875Y-73982625D01*
X64351035Y-73898251D01*
X64363280Y-73852993D01*
X64409344Y-73681710D01*
X64599387Y-73681710D01*
X64542582Y-73861349D01*
X64514607Y-73949704D01*
X64480813Y-74056281D01*
X64445520Y-74167454D01*
X64414013Y-74266579D01*
X64342250Y-74492171D01*
X64187286Y-74502253D01*
X64145270Y-74363528D01*
X64119359Y-74277351D01*
X64091083Y-74182347D01*
X64066369Y-74098441D01*
X64065394Y-74095102D01*
X64046935Y-74038248D01*
X64030649Y-73999456D01*
X64019242Y-73984787D01*
X64016898Y-73986483D01*
X64008671Y-74009225D01*
X63993038Y-74057940D01*
X63971904Y-74126502D01*
X63947170Y-74208785D01*
X63933787Y-74254046D01*
X63861311Y-74500526D01*
X63707495Y-74500526D01*
X63584531Y-74112006D01*
X63549988Y-74003022D01*
X63518521Y-73904048D01*
X63491616Y-73819736D01*
X63470759Y-73754734D01*
X63457438Y-73713692D01*
X63453388Y-73701701D01*
X63456594Y-73689423D01*
X63481765Y-73684046D01*
X63534146Y-73684584D01*
X63542345Y-73684990D01*
X63639482Y-73690066D01*
X63703100Y-73924013D01*
X63726484Y-74009333D01*
X63747381Y-74084335D01*
X63763951Y-74142507D01*
X63774354Y-74177337D01*
X63776276Y-74183016D01*
X63784241Y-74176486D01*
X63800304Y-74142654D01*
X63822621Y-74086127D01*
X63849345Y-74011510D01*
X63871937Y-73944107D01*
X63958041Y-73680143D01*
X64024130Y-73685104D01*
G36*
X63382631Y-74500526D02*
X63290723Y-74500526D01*
X63237377Y-74498962D01*
X63209593Y-74492485D01*
X63199590Y-74478418D01*
X63198815Y-74468906D01*
X63197128Y-74449832D01*
X63186490Y-74446174D01*
X63158535Y-74457932D01*
X63136795Y-74468906D01*
X63053332Y-74494911D01*
X62962604Y-74496416D01*
X62888842Y-74477021D01*
X62820154Y-74430165D01*
X62767794Y-74361004D01*
X62739122Y-74279427D01*
X62738392Y-74274866D01*
X62734132Y-74225101D01*
X62732014Y-74153659D01*
X62732184Y-74099626D01*
X62914720Y-74099626D01*
X62918949Y-74171441D01*
X62928568Y-74230634D01*
X62941590Y-74264060D01*
X62990856Y-74309740D01*
X63049350Y-74326115D01*
X63109671Y-74312873D01*
X63161217Y-74273373D01*
X63180738Y-74246807D01*
X63192152Y-74215106D01*
X63197498Y-74168832D01*
X63198815Y-74099328D01*
X63196458Y-74030499D01*
X63190233Y-73970026D01*
X63181408Y-73929556D01*
X63179937Y-73925929D01*
X63144347Y-73882802D01*
X63092400Y-73859124D01*
X63034278Y-73855301D01*
X62980160Y-73871738D01*
X62940226Y-73908840D01*
X62936083Y-73916222D01*
X62923116Y-73961239D01*
X62916052Y-74025967D01*
X62914720Y-74099626D01*
X62732184Y-74099626D01*
X62732271Y-74072230D01*
X62733472Y-74028405D01*
X62741645Y-73919988D01*
X62758630Y-73838588D01*
X62786887Y-73778412D01*
X62828872Y-73733666D01*
X62869632Y-73707400D01*
X62926581Y-73688935D01*
X62997411Y-73682602D01*
X63069941Y-73687760D01*
X63131986Y-73703769D01*
X63164768Y-73722920D01*
X63198815Y-73753732D01*
X63198815Y-73364210D01*
X63382631Y-73364210D01*
X63382631Y-74500526D01*
X63382631Y-74500526D01*
G37*
X63382631Y-74500526D02*
X63290723Y-74500526D01*
X63237377Y-74498962D01*
X63209593Y-74492485D01*
X63199590Y-74478418D01*
X63198815Y-74468906D01*
X63197128Y-74449832D01*
X63186490Y-74446174D01*
X63158535Y-74457932D01*
X63136795Y-74468906D01*
X63053332Y-74494911D01*
X62962604Y-74496416D01*
X62888842Y-74477021D01*
X62820154Y-74430165D01*
X62767794Y-74361004D01*
X62739122Y-74279427D01*
X62738392Y-74274866D01*
X62734132Y-74225101D01*
X62732014Y-74153659D01*
X62732184Y-74099626D01*
X62914720Y-74099626D01*
X62918949Y-74171441D01*
X62928568Y-74230634D01*
X62941590Y-74264060D01*
X62990856Y-74309740D01*
X63049350Y-74326115D01*
X63109671Y-74312873D01*
X63161217Y-74273373D01*
X63180738Y-74246807D01*
X63192152Y-74215106D01*
X63197498Y-74168832D01*
X63198815Y-74099328D01*
X63196458Y-74030499D01*
X63190233Y-73970026D01*
X63181408Y-73929556D01*
X63179937Y-73925929D01*
X63144347Y-73882802D01*
X63092400Y-73859124D01*
X63034278Y-73855301D01*
X62980160Y-73871738D01*
X62940226Y-73908840D01*
X62936083Y-73916222D01*
X62923116Y-73961239D01*
X62916052Y-74025967D01*
X62914720Y-74099626D01*
X62732184Y-74099626D01*
X62732271Y-74072230D01*
X62733472Y-74028405D01*
X62741645Y-73919988D01*
X62758630Y-73838588D01*
X62786887Y-73778412D01*
X62828872Y-73733666D01*
X62869632Y-73707400D01*
X62926581Y-73688935D01*
X62997411Y-73682602D01*
X63069941Y-73687760D01*
X63131986Y-73703769D01*
X63164768Y-73722920D01*
X63198815Y-73753732D01*
X63198815Y-73364210D01*
X63382631Y-73364210D01*
X63382631Y-74500526D01*
G36*
X62329881Y-73683486D02*
X62354888Y-73690982D01*
X62362950Y-73707451D01*
X62363289Y-73714886D01*
X62364736Y-73735594D01*
X62374698Y-73738845D01*
X62401612Y-73724648D01*
X62417598Y-73714948D01*
X62468033Y-73694175D01*
X62528272Y-73683904D01*
X62591434Y-73683114D01*
X62650637Y-73690786D01*
X62699002Y-73705898D01*
X62729646Y-73727432D01*
X62735689Y-73754366D01*
X62732639Y-73761660D01*
X62710406Y-73791937D01*
X62675930Y-73829175D01*
X62669694Y-73835195D01*
X62636833Y-73862875D01*
X62608480Y-73871818D01*
X62568827Y-73865576D01*
X62552942Y-73861429D01*
X62503509Y-73851467D01*
X62468752Y-73855947D01*
X62439400Y-73871746D01*
X62412513Y-73892949D01*
X62392710Y-73919614D01*
X62378948Y-73956827D01*
X62370184Y-74009673D01*
X62365374Y-74083237D01*
X62363474Y-74182605D01*
X62363289Y-74242601D01*
X62363289Y-74500526D01*
X62196184Y-74500526D01*
X62196184Y-73681710D01*
X62279736Y-73681710D01*
X62329881Y-73683486D01*
X62329881Y-73683486D01*
G37*
X62329881Y-73683486D02*
X62354888Y-73690982D01*
X62362950Y-73707451D01*
X62363289Y-73714886D01*
X62364736Y-73735594D01*
X62374698Y-73738845D01*
X62401612Y-73724648D01*
X62417598Y-73714948D01*
X62468033Y-73694175D01*
X62528272Y-73683904D01*
X62591434Y-73683114D01*
X62650637Y-73690786D01*
X62699002Y-73705898D01*
X62729646Y-73727432D01*
X62735689Y-73754366D01*
X62732639Y-73761660D01*
X62710406Y-73791937D01*
X62675930Y-73829175D01*
X62669694Y-73835195D01*
X62636833Y-73862875D01*
X62608480Y-73871818D01*
X62568827Y-73865576D01*
X62552942Y-73861429D01*
X62503509Y-73851467D01*
X62468752Y-73855947D01*
X62439400Y-73871746D01*
X62412513Y-73892949D01*
X62392710Y-73919614D01*
X62378948Y-73956827D01*
X62370184Y-74009673D01*
X62365374Y-74083237D01*
X62363474Y-74182605D01*
X62363289Y-74242601D01*
X62363289Y-74500526D01*
X62196184Y-74500526D01*
X62196184Y-73681710D01*
X62279736Y-73681710D01*
X62329881Y-73683486D01*
G36*
X61810457Y-73688184D02*
X61889070Y-73709160D01*
X61948916Y-73747180D01*
X61991147Y-73796978D01*
X62004275Y-73818230D01*
X62013968Y-73840492D01*
X62020744Y-73868970D01*
X62025123Y-73908871D01*
X62027624Y-73965401D01*
X62028768Y-74043767D01*
X62029072Y-74149176D01*
X62029078Y-74177142D01*
X62029078Y-74500526D01*
X61948868Y-74500526D01*
X61897706Y-74496943D01*
X61859877Y-74487866D01*
X61850399Y-74482268D01*
X61824488Y-74472606D01*
X61798024Y-74482268D01*
X61754452Y-74494330D01*
X61691160Y-74499185D01*
X61621010Y-74497078D01*
X61556860Y-74488256D01*
X61519407Y-74476937D01*
X61446933Y-74430412D01*
X61401640Y-74365846D01*
X61381278Y-74280000D01*
X61381088Y-74277796D01*
X61382875Y-74239713D01*
X61544473Y-74239713D01*
X61558601Y-74283030D01*
X61581612Y-74307408D01*
X61627804Y-74325845D01*
X61688775Y-74333205D01*
X61750949Y-74329583D01*
X61800751Y-74315074D01*
X61814703Y-74305765D01*
X61839085Y-74262753D01*
X61845263Y-74213857D01*
X61845263Y-74149605D01*
X61752818Y-74149605D01*
X61664995Y-74156366D01*
X61598418Y-74175520D01*
X61557002Y-74205376D01*
X61544473Y-74239713D01*
X61382875Y-74239713D01*
X61385490Y-74184004D01*
X61416424Y-74109847D01*
X61474581Y-74053767D01*
X61482620Y-74048665D01*
X61517163Y-74032055D01*
X61559918Y-74021996D01*
X61619686Y-74017107D01*
X61690690Y-74015983D01*
X61845263Y-74015921D01*
X61845263Y-73951125D01*
X61838706Y-73900850D01*
X61821975Y-73867169D01*
X61820016Y-73865376D01*
X61782783Y-73850642D01*
X61726580Y-73844931D01*
X61664467Y-73847737D01*
X61609510Y-73858556D01*
X61576899Y-73874782D01*
X61559228Y-73887780D01*
X61540569Y-73890262D01*
X61514819Y-73879613D01*
X61475873Y-73853218D01*
X61417630Y-73808465D01*
X61412284Y-73804273D01*
X61415023Y-73788760D01*
X61437876Y-73762960D01*
X61472609Y-73734289D01*
X61510990Y-73710166D01*
X61523048Y-73704470D01*
X61567034Y-73693103D01*
X61631487Y-73684995D01*
X61703497Y-73681743D01*
X61706864Y-73681736D01*
X61810457Y-73688184D01*
X61810457Y-73688184D01*
G37*
X61810457Y-73688184D02*
X61889070Y-73709160D01*
X61948916Y-73747180D01*
X61991147Y-73796978D01*
X62004275Y-73818230D01*
X62013968Y-73840492D01*
X62020744Y-73868970D01*
X62025123Y-73908871D01*
X62027624Y-73965401D01*
X62028768Y-74043767D01*
X62029072Y-74149176D01*
X62029078Y-74177142D01*
X62029078Y-74500526D01*
X61948868Y-74500526D01*
X61897706Y-74496943D01*
X61859877Y-74487866D01*
X61850399Y-74482268D01*
X61824488Y-74472606D01*
X61798024Y-74482268D01*
X61754452Y-74494330D01*
X61691160Y-74499185D01*
X61621010Y-74497078D01*
X61556860Y-74488256D01*
X61519407Y-74476937D01*
X61446933Y-74430412D01*
X61401640Y-74365846D01*
X61381278Y-74280000D01*
X61381088Y-74277796D01*
X61382875Y-74239713D01*
X61544473Y-74239713D01*
X61558601Y-74283030D01*
X61581612Y-74307408D01*
X61627804Y-74325845D01*
X61688775Y-74333205D01*
X61750949Y-74329583D01*
X61800751Y-74315074D01*
X61814703Y-74305765D01*
X61839085Y-74262753D01*
X61845263Y-74213857D01*
X61845263Y-74149605D01*
X61752818Y-74149605D01*
X61664995Y-74156366D01*
X61598418Y-74175520D01*
X61557002Y-74205376D01*
X61544473Y-74239713D01*
X61382875Y-74239713D01*
X61385490Y-74184004D01*
X61416424Y-74109847D01*
X61474581Y-74053767D01*
X61482620Y-74048665D01*
X61517163Y-74032055D01*
X61559918Y-74021996D01*
X61619686Y-74017107D01*
X61690690Y-74015983D01*
X61845263Y-74015921D01*
X61845263Y-73951125D01*
X61838706Y-73900850D01*
X61821975Y-73867169D01*
X61820016Y-73865376D01*
X61782783Y-73850642D01*
X61726580Y-73844931D01*
X61664467Y-73847737D01*
X61609510Y-73858556D01*
X61576899Y-73874782D01*
X61559228Y-73887780D01*
X61540569Y-73890262D01*
X61514819Y-73879613D01*
X61475873Y-73853218D01*
X61417630Y-73808465D01*
X61412284Y-73804273D01*
X61415023Y-73788760D01*
X61437876Y-73762960D01*
X61472609Y-73734289D01*
X61510990Y-73710166D01*
X61523048Y-73704470D01*
X61567034Y-73693103D01*
X61631487Y-73684995D01*
X61703497Y-73681743D01*
X61706864Y-73681736D01*
X61810457Y-73688184D01*
G36*
X61113360Y-72442468D02*
X61148592Y-72459874D01*
X61192040Y-72490206D01*
X61223706Y-72523283D01*
X61245394Y-72564817D01*
X61258903Y-72620522D01*
X61266038Y-72696111D01*
X61268600Y-72797296D01*
X61268750Y-72840797D01*
X61268312Y-72936135D01*
X61266496Y-73004271D01*
X61262545Y-73051418D01*
X61255702Y-73083790D01*
X61245211Y-73107600D01*
X61234296Y-73123843D01*
X61164619Y-73192952D01*
X61082566Y-73234521D01*
X60994050Y-73247023D01*
X60904981Y-73228934D01*
X60876763Y-73216142D01*
X60809210Y-73180931D01*
X60809210Y-73732700D01*
X60858512Y-73707205D01*
X60923473Y-73687480D01*
X61003320Y-73682427D01*
X61083052Y-73691756D01*
X61143265Y-73712714D01*
X61193208Y-73752627D01*
X61235881Y-73809741D01*
X61239090Y-73815605D01*
X61252622Y-73843227D01*
X61262505Y-73871068D01*
X61269309Y-73904794D01*
X61273601Y-73950071D01*
X61275951Y-74012562D01*
X61276928Y-74097935D01*
X61277105Y-74194010D01*
X61277105Y-74500526D01*
X61093289Y-74500526D01*
X61093289Y-73935339D01*
X61041875Y-73892077D01*
X60988466Y-73857472D01*
X60937888Y-73851180D01*
X60887030Y-73867372D01*
X60859925Y-73883227D01*
X60839751Y-73905810D01*
X60825403Y-73939940D01*
X60815776Y-73990434D01*
X60809763Y-74062111D01*
X60806260Y-74159788D01*
X60805026Y-74224802D01*
X60800855Y-74492171D01*
X60713125Y-74497222D01*
X60625394Y-74502273D01*
X60625394Y-72843101D01*
X60809210Y-72843101D01*
X60813896Y-72935600D01*
X60829688Y-72999809D01*
X60859183Y-73039759D01*
X60904980Y-73059480D01*
X60951250Y-73063421D01*
X61003628Y-73058892D01*
X61038390Y-73041069D01*
X61060128Y-73017519D01*
X61077240Y-72992189D01*
X61087427Y-72963969D01*
X61091960Y-72924431D01*
X61092109Y-72865142D01*
X61090584Y-72815498D01*
X61087081Y-72740710D01*
X61081867Y-72691611D01*
X61073087Y-72660467D01*
X61058886Y-72639545D01*
X61045484Y-72627452D01*
X60989487Y-72601081D01*
X60923211Y-72596822D01*
X60885156Y-72605906D01*
X60847477Y-72638196D01*
X60822519Y-72701006D01*
X60810422Y-72793894D01*
X60809210Y-72843101D01*
X60625394Y-72843101D01*
X60625394Y-72428421D01*
X60717302Y-72428421D01*
X60772483Y-72430603D01*
X60800952Y-72438351D01*
X60809206Y-72453468D01*
X60809210Y-72453916D01*
X60813040Y-72468720D01*
X60829933Y-72467039D01*
X60863519Y-72450772D01*
X60941778Y-72425887D01*
X61029827Y-72423271D01*
X61113360Y-72442468D01*
X61113360Y-72442468D01*
G37*
X61113360Y-72442468D02*
X61148592Y-72459874D01*
X61192040Y-72490206D01*
X61223706Y-72523283D01*
X61245394Y-72564817D01*
X61258903Y-72620522D01*
X61266038Y-72696111D01*
X61268600Y-72797296D01*
X61268750Y-72840797D01*
X61268312Y-72936135D01*
X61266496Y-73004271D01*
X61262545Y-73051418D01*
X61255702Y-73083790D01*
X61245211Y-73107600D01*
X61234296Y-73123843D01*
X61164619Y-73192952D01*
X61082566Y-73234521D01*
X60994050Y-73247023D01*
X60904981Y-73228934D01*
X60876763Y-73216142D01*
X60809210Y-73180931D01*
X60809210Y-73732700D01*
X60858512Y-73707205D01*
X60923473Y-73687480D01*
X61003320Y-73682427D01*
X61083052Y-73691756D01*
X61143265Y-73712714D01*
X61193208Y-73752627D01*
X61235881Y-73809741D01*
X61239090Y-73815605D01*
X61252622Y-73843227D01*
X61262505Y-73871068D01*
X61269309Y-73904794D01*
X61273601Y-73950071D01*
X61275951Y-74012562D01*
X61276928Y-74097935D01*
X61277105Y-74194010D01*
X61277105Y-74500526D01*
X61093289Y-74500526D01*
X61093289Y-73935339D01*
X61041875Y-73892077D01*
X60988466Y-73857472D01*
X60937888Y-73851180D01*
X60887030Y-73867372D01*
X60859925Y-73883227D01*
X60839751Y-73905810D01*
X60825403Y-73939940D01*
X60815776Y-73990434D01*
X60809763Y-74062111D01*
X60806260Y-74159788D01*
X60805026Y-74224802D01*
X60800855Y-74492171D01*
X60713125Y-74497222D01*
X60625394Y-74502273D01*
X60625394Y-72843101D01*
X60809210Y-72843101D01*
X60813896Y-72935600D01*
X60829688Y-72999809D01*
X60859183Y-73039759D01*
X60904980Y-73059480D01*
X60951250Y-73063421D01*
X61003628Y-73058892D01*
X61038390Y-73041069D01*
X61060128Y-73017519D01*
X61077240Y-72992189D01*
X61087427Y-72963969D01*
X61091960Y-72924431D01*
X61092109Y-72865142D01*
X61090584Y-72815498D01*
X61087081Y-72740710D01*
X61081867Y-72691611D01*
X61073087Y-72660467D01*
X61058886Y-72639545D01*
X61045484Y-72627452D01*
X60989487Y-72601081D01*
X60923211Y-72596822D01*
X60885156Y-72605906D01*
X60847477Y-72638196D01*
X60822519Y-72701006D01*
X60810422Y-72793894D01*
X60809210Y-72843101D01*
X60625394Y-72843101D01*
X60625394Y-72428421D01*
X60717302Y-72428421D01*
X60772483Y-72430603D01*
X60800952Y-72438351D01*
X60809206Y-72453468D01*
X60809210Y-72453916D01*
X60813040Y-72468720D01*
X60829933Y-72467039D01*
X60863519Y-72450772D01*
X60941778Y-72425887D01*
X61029827Y-72423271D01*
X61113360Y-72442468D01*
D11*
X32446285Y-40487715D02*
X32446285Y-41154381D01*
X32446285Y-40582953D02*
X32493904Y-40535334D01*
X32589143Y-40487715D01*
X32732000Y-40487715D01*
X32827238Y-40535334D01*
X32874857Y-40630572D01*
X32874857Y-41154381D01*
X33493904Y-41154381D02*
X33398666Y-41106762D01*
X33351047Y-41059143D01*
X33303428Y-40963905D01*
X33303428Y-40678191D01*
X33351047Y-40582953D01*
X33398666Y-40535334D01*
X33493904Y-40487715D01*
X33636762Y-40487715D01*
X33732000Y-40535334D01*
X33779619Y-40582953D01*
X33827238Y-40678191D01*
X33827238Y-40963905D01*
X33779619Y-41059143D01*
X33732000Y-41106762D01*
X33636762Y-41154381D01*
X33493904Y-41154381D01*
X34684381Y-41154381D02*
X34684381Y-40154381D01*
X34684381Y-41106762D02*
X34589143Y-41154381D01*
X34398666Y-41154381D01*
X34303428Y-41106762D01*
X34255809Y-41059143D01*
X34208190Y-40963905D01*
X34208190Y-40678191D01*
X34255809Y-40582953D01*
X34303428Y-40535334D01*
X34398666Y-40487715D01*
X34589143Y-40487715D01*
X34684381Y-40535334D01*
X35541524Y-41106762D02*
X35446285Y-41154381D01*
X35255809Y-41154381D01*
X35160571Y-41106762D01*
X35112952Y-41011524D01*
X35112952Y-40630572D01*
X35160571Y-40535334D01*
X35255809Y-40487715D01*
X35446285Y-40487715D01*
X35541524Y-40535334D01*
X35589143Y-40630572D01*
X35589143Y-40725810D01*
X35112952Y-40821048D01*
X36017714Y-41154381D02*
X36017714Y-40487715D01*
X36017714Y-40582953D02*
X36065333Y-40535334D01*
X36160571Y-40487715D01*
X36303428Y-40487715D01*
X36398666Y-40535334D01*
X36446285Y-40630572D01*
X36446285Y-41154381D01*
X36446285Y-40630572D02*
X36493904Y-40535334D01*
X36589143Y-40487715D01*
X36732000Y-40487715D01*
X36827238Y-40535334D01*
X36874857Y-40630572D01*
X36874857Y-41154381D01*
X37779619Y-41106762D02*
X37684381Y-41154381D01*
X37493904Y-41154381D01*
X37398666Y-41106762D01*
X37351047Y-41059143D01*
X37303428Y-40963905D01*
X37303428Y-40678191D01*
X37351047Y-40582953D01*
X37398666Y-40535334D01*
X37493904Y-40487715D01*
X37684381Y-40487715D01*
X37779619Y-40535334D01*
X38636762Y-40487715D02*
X38636762Y-41154381D01*
X38208190Y-40487715D02*
X38208190Y-41011524D01*
X38255809Y-41106762D01*
X38351047Y-41154381D01*
X38493904Y-41154381D01*
X38589143Y-41106762D01*
X38636762Y-41059143D01*
D13*
X66647047Y-33798571D02*
X66647047Y-34331904D01*
X66647047Y-33874761D02*
X66685142Y-33836666D01*
X66761333Y-33798571D01*
X66875619Y-33798571D01*
X66951809Y-33836666D01*
X66989904Y-33912857D01*
X66989904Y-34331904D01*
X67370857Y-34331904D02*
X67370857Y-33798571D01*
X67370857Y-33950952D02*
X67408952Y-33874761D01*
X67447047Y-33836666D01*
X67523238Y-33798571D01*
X67599428Y-33798571D01*
X67751809Y-33798571D02*
X68056571Y-33798571D01*
X67866095Y-34331904D02*
X67866095Y-33646190D01*
X67904190Y-33570000D01*
X67980380Y-33531904D01*
X68056571Y-33531904D01*
X68285142Y-33608095D02*
X68323238Y-33570000D01*
X68399428Y-33531904D01*
X68589904Y-33531904D01*
X68666095Y-33570000D01*
X68704190Y-33608095D01*
X68742285Y-33684285D01*
X68742285Y-33760476D01*
X68704190Y-33874761D01*
X68247047Y-34331904D01*
X68742285Y-34331904D01*
X69428000Y-33798571D02*
X69428000Y-34331904D01*
X69237523Y-33493809D02*
X69047047Y-34065238D01*
X69542285Y-34065238D01*
X69961333Y-34331904D02*
X69885142Y-34293809D01*
X69847047Y-34217619D01*
X69847047Y-33531904D01*
X70418476Y-33531904D02*
X70494666Y-33531904D01*
X70570857Y-33570000D01*
X70608952Y-33608095D01*
X70647047Y-33684285D01*
X70685142Y-33836666D01*
X70685142Y-34027142D01*
X70647047Y-34179523D01*
X70608952Y-34255714D01*
X70570857Y-34293809D01*
X70494666Y-34331904D01*
X70418476Y-34331904D01*
X70342285Y-34293809D01*
X70304190Y-34255714D01*
X70266095Y-34179523D01*
X70228000Y-34027142D01*
X70228000Y-33836666D01*
X70266095Y-33684285D01*
X70304190Y-33608095D01*
X70342285Y-33570000D01*
X70418476Y-33531904D01*
X71447047Y-34331904D02*
X70989904Y-34331904D01*
X71218476Y-34331904D02*
X71218476Y-33531904D01*
X71142285Y-33646190D01*
X71066095Y-33722380D01*
X70989904Y-33760476D01*
M02*
