G04 #@! TF.GenerationSoftware,KiCad,Pcbnew,(5.0.0-rc2-dev-482-gf81c77cd4)*
G04 #@! TF.CreationDate,2018-08-02T20:03:37+02:00*
G04 #@! TF.ProjectId,ha_plattform,68615F706C617474666F726D2E6B6963,rev?*
G04 #@! TF.SameCoordinates,Original*
G04 #@! TF.FileFunction,Copper,L1,Top,Signal*
G04 #@! TF.FilePolarity,Positive*
%FSLAX46Y46*%
G04 Gerber Fmt 4.6, Leading zero omitted, Abs format (unit mm)*
G04 Created by KiCad (PCBNEW (5.0.0-rc2-dev-482-gf81c77cd4)) date Thu Aug  2 20:03:37 2018*
%MOMM*%
%LPD*%
G01*
G04 APERTURE LIST*
%ADD10O,2.032000X1.727200*%
%ADD11O,1.727200X1.727200*%
%ADD12R,1.727200X1.727200*%
%ADD13C,1.270000*%
G04 APERTURE END LIST*
D10*
X49297800Y-66136600D03*
X49297800Y-63596600D03*
X49297800Y-61056600D03*
X49297800Y-58516600D03*
X49297800Y-55976600D03*
X49297800Y-53436600D03*
X49297800Y-50896600D03*
X49297800Y-48356600D03*
X49297800Y-45816600D03*
X49297800Y-43276600D03*
X49297800Y-40736600D03*
X49297800Y-38196600D03*
X49297800Y-35656600D03*
X49297800Y-33116600D03*
X49297800Y-30576600D03*
X21776900Y-30576600D03*
X21776900Y-33116600D03*
X21776900Y-35656600D03*
X21776900Y-38196600D03*
X21776900Y-40736600D03*
X21776900Y-43276600D03*
X21776900Y-45816600D03*
X21776900Y-48356600D03*
X21776900Y-50896600D03*
X21776900Y-53436600D03*
X21776900Y-55976600D03*
X21776900Y-58516600D03*
X21776900Y-61056600D03*
X21776900Y-63596600D03*
X21776900Y-66136600D03*
D11*
X37634000Y-62396000D03*
X37634000Y-59856000D03*
X35094000Y-62396000D03*
X35094000Y-59856000D03*
X32554000Y-62396000D03*
X32554000Y-59856000D03*
D12*
X30014000Y-62396000D03*
D11*
X30014000Y-59856000D03*
D13*
X36428710Y-66136600D02*
X47011800Y-66136600D01*
X47011800Y-66136600D02*
X49297800Y-66136600D01*
X32688110Y-62396000D02*
X36428710Y-66136600D01*
X32554000Y-62396000D02*
X32688110Y-62396000D01*
X49145400Y-30576600D02*
X49297800Y-30576600D01*
X30014000Y-49708000D02*
X49145400Y-30576600D01*
X30014000Y-59856000D02*
X30014000Y-49708000D01*
X40396740Y-43276600D02*
X49297800Y-43276600D01*
X32808020Y-50865320D02*
X40396740Y-43276600D01*
X32808020Y-57778020D02*
X32808020Y-50865320D01*
X32930000Y-57900000D02*
X32808020Y-57778020D01*
X35094000Y-59856000D02*
X33138000Y-57900000D01*
X33138000Y-57900000D02*
X32930000Y-57900000D01*
X31411010Y-58713010D02*
X31411010Y-50286660D01*
X32554000Y-59856000D02*
X31411010Y-58713010D01*
X40961070Y-40736600D02*
X49297800Y-40736600D01*
X31411010Y-50286660D02*
X40961070Y-40736600D01*
X40292086Y-55976600D02*
X47011800Y-55976600D01*
X37634000Y-58634686D02*
X40292086Y-55976600D01*
X47011800Y-55976600D02*
X49297800Y-55976600D01*
X37634000Y-59856000D02*
X37634000Y-58634686D01*
M02*
