M48
;DRILL file {KiCad (5.0.0-rc2-dev-482-gf81c77cd4)} date Fri May 18 00:15:43 2018
;FORMAT={-:-/ absolute / inch / decimal}
FMAT,2
INCH,TZ
T1C0.0157
T2C0.0276
T3C0.0394
T4C0.0433
T5C0.0472
%
G90
G05
M72
T1
X1.3907Y-1.7307
X1.3907Y-1.9047
T2
X1.105Y-0.895
X1.305Y-0.895
X2.12Y-1.885
X2.12Y-2.185
X2.285Y-1.885
X2.285Y-2.185
T3
X0.86Y-0.93
X0.86Y-1.03
X0.86Y-1.13
X0.86Y-1.23
X0.86Y-1.33
X0.86Y-1.43
X0.86Y-1.53
X0.86Y-1.63
X0.86Y-1.73
X0.86Y-1.83
X0.86Y-1.93
X0.86Y-2.03
X0.86Y-2.13
X0.86Y-2.23
X0.86Y-2.33
X0.86Y-2.43
X0.86Y-2.53
X0.86Y-2.63
X0.86Y-2.73
X0.86Y-2.83
X0.96Y-0.93
X0.96Y-1.03
X0.96Y-1.13
X0.96Y-1.23
X0.96Y-1.33
X0.96Y-1.43
X0.96Y-1.53
X0.96Y-1.63
X0.96Y-1.73
X0.96Y-1.83
X0.96Y-1.93
X0.96Y-2.03
X0.96Y-2.13
X0.96Y-2.23
X0.96Y-2.33
X0.96Y-2.43
X0.96Y-2.53
X0.96Y-2.63
X0.96Y-2.73
X0.96Y-2.83
X1.855Y-2.865
X1.955Y-2.865
X1.575Y-2.865
X1.675Y-2.865
T4
X1.58Y-2.55
X1.68Y-2.55
X1.78Y-2.55
X2.5299Y-0.9854
X2.5299Y-1.0854
X2.5299Y-1.1854
X2.5299Y-1.2854
X2.3638Y-2.6165
X2.4638Y-2.6165
X2.5638Y-2.6165
X2.1752Y-1.0228
X2.1752Y-1.1228
X2.1752Y-1.2228
X2.1752Y-1.3228
X1.17Y-2.775
X1.27Y-2.775
X1.37Y-2.775
T5
X1.195Y-1.73
X1.195Y-1.8087
X1.195Y-1.8875
X1.195Y-1.9662
X1.195Y-2.045
X1.195Y-2.1237
X1.195Y-2.2024
X1.195Y-2.2812
X1.943Y-1.9465
X1.943Y-2.045
X1.943Y-2.1434
X1.3008Y-1.2787
X1.4976Y-1.2787
T0
M30
