G04 #@! TF.GenerationSoftware,KiCad,Pcbnew,(5.0.0-rc2-dev-482-gf81c77cd4)*
G04 #@! TF.CreationDate,2018-04-20T23:01:05+02:00*
G04 #@! TF.ProjectId,ha_plattform,68615F706C617474666F726D2E6B6963,rev?*
G04 #@! TF.SameCoordinates,Original*
G04 #@! TF.FileFunction,Copper,L2,Bot,Signal*
G04 #@! TF.FilePolarity,Positive*
%FSLAX46Y46*%
G04 Gerber Fmt 4.6, Leading zero omitted, Abs format (unit mm)*
G04 Created by KiCad (PCBNEW (5.0.0-rc2-dev-482-gf81c77cd4)) date Fri Apr 20 23:01:05 2018*
%MOMM*%
%LPD*%
G01*
G04 APERTURE LIST*
%ADD10R,1.700000X1.700000*%
%ADD11O,1.700000X1.700000*%
%ADD12R,2.000000X1.905000*%
%ADD13O,2.000000X1.905000*%
%ADD14R,2.000000X2.000000*%
%ADD15C,2.000000*%
%ADD16O,1.750000X1.300000*%
%ADD17C,1.750000*%
%ADD18R,1.800000X1.800000*%
%ADD19O,1.800000X1.800000*%
%ADD20O,1.905000X2.000000*%
%ADD21R,1.905000X2.000000*%
%ADD22O,1.000000X1.000000*%
%ADD23R,1.000000X1.000000*%
%ADD24C,0.250000*%
G04 APERTURE END LIST*
D10*
X21844000Y-23622000D03*
D11*
X24384000Y-23622000D03*
X21844000Y-26162000D03*
X24384000Y-26162000D03*
X21844000Y-28702000D03*
X24384000Y-28702000D03*
X21844000Y-31242000D03*
X24384000Y-31242000D03*
X21844000Y-33782000D03*
X24384000Y-33782000D03*
X21844000Y-36322000D03*
X24384000Y-36322000D03*
X21844000Y-38862000D03*
X24384000Y-38862000D03*
X21844000Y-41402000D03*
X24384000Y-41402000D03*
X21844000Y-43942000D03*
X24384000Y-43942000D03*
X21844000Y-46482000D03*
X24384000Y-46482000D03*
X21844000Y-49022000D03*
X24384000Y-49022000D03*
X21844000Y-51562000D03*
X24384000Y-51562000D03*
X21844000Y-54102000D03*
X24384000Y-54102000D03*
X21844000Y-56642000D03*
X24384000Y-56642000D03*
X21844000Y-59182000D03*
X24384000Y-59182000D03*
X21844000Y-61722000D03*
X24384000Y-61722000D03*
X21844000Y-64262000D03*
X24384000Y-64262000D03*
X21844000Y-66802000D03*
X24384000Y-66802000D03*
X21844000Y-69342000D03*
X24384000Y-69342000D03*
X21844000Y-71882000D03*
X24384000Y-71882000D03*
D12*
X73914000Y-41402000D03*
D13*
X73914000Y-43942000D03*
X73914000Y-46482000D03*
X73914000Y-49022000D03*
D12*
X61214000Y-56642000D03*
D13*
X61214000Y-54102000D03*
X61214000Y-51562000D03*
D14*
X38354000Y-33782000D03*
D15*
X43354000Y-33782000D03*
D16*
X30124000Y-47102000D03*
X30124000Y-49102000D03*
X30124000Y-51102000D03*
X30124000Y-53102000D03*
X30124000Y-55102000D03*
X30124000Y-57102000D03*
X30124000Y-59102000D03*
X30124000Y-61102000D03*
D17*
X49124000Y-57602000D03*
X49124000Y-55102000D03*
X49124000Y-52602000D03*
D18*
X52324000Y-23622000D03*
D19*
X54864000Y-23622000D03*
X59944000Y-23622000D03*
D18*
X62484000Y-23622000D03*
D20*
X43434000Y-71882000D03*
X40894000Y-71882000D03*
D21*
X38354000Y-71882000D03*
D22*
X34544000Y-23622000D03*
D23*
X34544000Y-22352000D03*
D21*
X57404000Y-33782000D03*
D20*
X59944000Y-33782000D03*
X62484000Y-33782000D03*
D23*
X57404000Y-41402000D03*
D22*
X57404000Y-42672000D03*
D13*
X73914000Y-29972000D03*
X73914000Y-27432000D03*
X73914000Y-24892000D03*
D12*
X73914000Y-22352000D03*
D24*
X23114000Y-27432000D02*
X21844000Y-28702000D01*
X73914000Y-27432000D02*
X23114000Y-27432000D01*
X20994001Y-27011999D02*
X21844000Y-26162000D01*
X20668999Y-27337001D02*
X20994001Y-27011999D01*
X20668999Y-29266001D02*
X20668999Y-27337001D01*
X21374998Y-29972000D02*
X20668999Y-29266001D01*
X73914000Y-29972000D02*
X21374998Y-29972000D01*
X49124000Y-52602000D02*
X38124000Y-52602000D01*
X30349000Y-49102000D02*
X32004000Y-47447000D01*
X30124000Y-49102000D02*
X30349000Y-49102000D01*
X32004000Y-47447000D02*
X32004000Y-46482000D01*
X38124000Y-52602000D02*
X32004000Y-46482000D01*
X32004000Y-46482000D02*
X24384000Y-38862000D01*
X25233999Y-52411999D02*
X24384000Y-51562000D01*
X25559001Y-52737001D02*
X25233999Y-52411999D01*
X25559001Y-56762001D02*
X25559001Y-52737001D01*
X29899000Y-61102000D02*
X25559001Y-56762001D01*
X30124000Y-61102000D02*
X29899000Y-61102000D01*
X25559001Y-45117001D02*
X25233999Y-44791999D01*
X25559001Y-48140873D02*
X25559001Y-45117001D01*
X29545118Y-52126990D02*
X25559001Y-48140873D01*
X30752862Y-52126990D02*
X29545118Y-52126990D01*
X31324010Y-52698138D02*
X30752862Y-52126990D01*
X31324010Y-56126990D02*
X31324010Y-52698138D01*
X30349000Y-57102000D02*
X31324010Y-56126990D01*
X25233999Y-44791999D02*
X24384000Y-43942000D01*
X30124000Y-57102000D02*
X30349000Y-57102000D01*
X22693999Y-49871999D02*
X21844000Y-49022000D01*
X24994001Y-50197001D02*
X23019001Y-50197001D01*
X23019001Y-50197001D02*
X22693999Y-49871999D01*
X29899000Y-55102000D02*
X24994001Y-50197001D01*
X30124000Y-55102000D02*
X29899000Y-55102000D01*
X38927873Y-53901999D02*
X30257873Y-62571999D01*
X30257873Y-62571999D02*
X25233999Y-62571999D01*
X49600003Y-53901999D02*
X38927873Y-53901999D01*
X25233999Y-62571999D02*
X24384000Y-61722000D01*
X59560002Y-43942000D02*
X49600003Y-53901999D01*
X73914000Y-43942000D02*
X59560002Y-43942000D01*
X73961500Y-49022000D02*
X73914000Y-49022000D01*
X76454000Y-46529500D02*
X73961500Y-49022000D01*
X76454000Y-27384500D02*
X76454000Y-46529500D01*
X73961500Y-24892000D02*
X76454000Y-27384500D01*
X73914000Y-24892000D02*
X73961500Y-24892000D01*
X44601499Y-73207001D02*
X23169001Y-73207001D01*
X22693999Y-72731999D02*
X21844000Y-71882000D01*
X23169001Y-73207001D02*
X22693999Y-72731999D01*
X61166500Y-56642000D02*
X44601499Y-73207001D01*
X61214000Y-56642000D02*
X61166500Y-56642000D01*
M02*
