G04 #@! TF.GenerationSoftware,KiCad,Pcbnew,(5.0.0-rc2-dev-482-gf81c77cd4)*
G04 #@! TF.CreationDate,2018-06-08T20:02:40+02:00*
G04 #@! TF.ProjectId,ha_plattform,68615F706C617474666F726D2E6B6963,rev?*
G04 #@! TF.SameCoordinates,Original*
G04 #@! TF.FileFunction,Legend,Top*
G04 #@! TF.FilePolarity,Positive*
%FSLAX46Y46*%
G04 Gerber Fmt 4.6, Leading zero omitted, Abs format (unit mm)*
G04 Created by KiCad (PCBNEW (5.0.0-rc2-dev-482-gf81c77cd4)) date Fri Jun  8 20:02:40 2018*
%MOMM*%
%LPD*%
G01*
G04 APERTURE LIST*
%ADD10C,0.100000*%
%ADD11C,0.120000*%
%ADD12C,0.150000*%
%ADD13C,0.010000*%
G04 APERTURE END LIST*
D10*
X21762380Y-58621428D02*
X20762380Y-58621428D01*
X21238571Y-58621428D02*
X21238571Y-58050000D01*
X21762380Y-58050000D02*
X20762380Y-58050000D01*
X21476666Y-57621428D02*
X21476666Y-57145238D01*
X21762380Y-57716666D02*
X20762380Y-57383333D01*
X21762380Y-57050000D01*
X21762380Y-55954761D02*
X20762380Y-55954761D01*
X20762380Y-55573809D01*
X20810000Y-55478571D01*
X20857619Y-55430952D01*
X20952857Y-55383333D01*
X21095714Y-55383333D01*
X21190952Y-55430952D01*
X21238571Y-55478571D01*
X21286190Y-55573809D01*
X21286190Y-55954761D01*
X21762380Y-54811904D02*
X21714761Y-54907142D01*
X21619523Y-54954761D01*
X20762380Y-54954761D01*
X21762380Y-54002380D02*
X21238571Y-54002380D01*
X21143333Y-54050000D01*
X21095714Y-54145238D01*
X21095714Y-54335714D01*
X21143333Y-54430952D01*
X21714761Y-54002380D02*
X21762380Y-54097619D01*
X21762380Y-54335714D01*
X21714761Y-54430952D01*
X21619523Y-54478571D01*
X21524285Y-54478571D01*
X21429047Y-54430952D01*
X21381428Y-54335714D01*
X21381428Y-54097619D01*
X21333809Y-54002380D01*
X21095714Y-53669047D02*
X21095714Y-53288095D01*
X20762380Y-53526190D02*
X21619523Y-53526190D01*
X21714761Y-53478571D01*
X21762380Y-53383333D01*
X21762380Y-53288095D01*
X21095714Y-53097619D02*
X21095714Y-52716666D01*
X20762380Y-52954761D02*
X21619523Y-52954761D01*
X21714761Y-52907142D01*
X21762380Y-52811904D01*
X21762380Y-52716666D01*
X21095714Y-52526190D02*
X21095714Y-52145238D01*
X21762380Y-52383333D02*
X20905238Y-52383333D01*
X20810000Y-52335714D01*
X20762380Y-52240476D01*
X20762380Y-52145238D01*
X21762380Y-51669047D02*
X21714761Y-51764285D01*
X21667142Y-51811904D01*
X21571904Y-51859523D01*
X21286190Y-51859523D01*
X21190952Y-51811904D01*
X21143333Y-51764285D01*
X21095714Y-51669047D01*
X21095714Y-51526190D01*
X21143333Y-51430952D01*
X21190952Y-51383333D01*
X21286190Y-51335714D01*
X21571904Y-51335714D01*
X21667142Y-51383333D01*
X21714761Y-51430952D01*
X21762380Y-51526190D01*
X21762380Y-51669047D01*
X21762380Y-50907142D02*
X21095714Y-50907142D01*
X21286190Y-50907142D02*
X21190952Y-50859523D01*
X21143333Y-50811904D01*
X21095714Y-50716666D01*
X21095714Y-50621428D01*
X21762380Y-50288095D02*
X21095714Y-50288095D01*
X21190952Y-50288095D02*
X21143333Y-50240476D01*
X21095714Y-50145238D01*
X21095714Y-50002380D01*
X21143333Y-49907142D01*
X21238571Y-49859523D01*
X21762380Y-49859523D01*
X21238571Y-49859523D02*
X21143333Y-49811904D01*
X21095714Y-49716666D01*
X21095714Y-49573809D01*
X21143333Y-49478571D01*
X21238571Y-49430952D01*
X21762380Y-49430952D01*
X20762380Y-48335714D02*
X21762380Y-48002380D01*
X20762380Y-47669047D01*
X20762380Y-47145238D02*
X20762380Y-47050000D01*
X20810000Y-46954761D01*
X20857619Y-46907142D01*
X20952857Y-46859523D01*
X21143333Y-46811904D01*
X21381428Y-46811904D01*
X21571904Y-46859523D01*
X21667142Y-46907142D01*
X21714761Y-46954761D01*
X21762380Y-47050000D01*
X21762380Y-47145238D01*
X21714761Y-47240476D01*
X21667142Y-47288095D01*
X21571904Y-47335714D01*
X21381428Y-47383333D01*
X21143333Y-47383333D01*
X20952857Y-47335714D01*
X20857619Y-47288095D01*
X20810000Y-47240476D01*
X20762380Y-47145238D01*
X21667142Y-46383333D02*
X21714761Y-46335714D01*
X21762380Y-46383333D01*
X21714761Y-46430952D01*
X21667142Y-46383333D01*
X21762380Y-46383333D01*
X20762380Y-46002380D02*
X20762380Y-45383333D01*
X21143333Y-45716666D01*
X21143333Y-45573809D01*
X21190952Y-45478571D01*
X21238571Y-45430952D01*
X21333809Y-45383333D01*
X21571904Y-45383333D01*
X21667142Y-45430952D01*
X21714761Y-45478571D01*
X21762380Y-45573809D01*
X21762380Y-45859523D01*
X21714761Y-45954761D01*
X21667142Y-46002380D01*
X22143333Y-43907142D02*
X22095714Y-43954761D01*
X21952857Y-44050000D01*
X21857619Y-44097619D01*
X21714761Y-44145238D01*
X21476666Y-44192857D01*
X21286190Y-44192857D01*
X21048095Y-44145238D01*
X20905238Y-44097619D01*
X20810000Y-44050000D01*
X20667142Y-43954761D01*
X20619523Y-43907142D01*
X21714761Y-43097619D02*
X21762380Y-43192857D01*
X21762380Y-43383333D01*
X21714761Y-43478571D01*
X21667142Y-43526190D01*
X21571904Y-43573809D01*
X21286190Y-43573809D01*
X21190952Y-43526190D01*
X21143333Y-43478571D01*
X21095714Y-43383333D01*
X21095714Y-43192857D01*
X21143333Y-43097619D01*
X22143333Y-42764285D02*
X22095714Y-42716666D01*
X21952857Y-42621428D01*
X21857619Y-42573809D01*
X21714761Y-42526190D01*
X21476666Y-42478571D01*
X21286190Y-42478571D01*
X21048095Y-42526190D01*
X20905238Y-42573809D01*
X20810000Y-42621428D01*
X20667142Y-42716666D01*
X20619523Y-42764285D01*
X20857619Y-41288095D02*
X20810000Y-41240476D01*
X20762380Y-41145238D01*
X20762380Y-40907142D01*
X20810000Y-40811904D01*
X20857619Y-40764285D01*
X20952857Y-40716666D01*
X21048095Y-40716666D01*
X21190952Y-40764285D01*
X21762380Y-41335714D01*
X21762380Y-40716666D01*
X20762380Y-40097619D02*
X20762380Y-40002380D01*
X20810000Y-39907142D01*
X20857619Y-39859523D01*
X20952857Y-39811904D01*
X21143333Y-39764285D01*
X21381428Y-39764285D01*
X21571904Y-39811904D01*
X21667142Y-39859523D01*
X21714761Y-39907142D01*
X21762380Y-40002380D01*
X21762380Y-40097619D01*
X21714761Y-40192857D01*
X21667142Y-40240476D01*
X21571904Y-40288095D01*
X21381428Y-40335714D01*
X21143333Y-40335714D01*
X20952857Y-40288095D01*
X20857619Y-40240476D01*
X20810000Y-40192857D01*
X20762380Y-40097619D01*
X21762380Y-38811904D02*
X21762380Y-39383333D01*
X21762380Y-39097619D02*
X20762380Y-39097619D01*
X20905238Y-39192857D01*
X21000476Y-39288095D01*
X21048095Y-39383333D01*
X21190952Y-38240476D02*
X21143333Y-38335714D01*
X21095714Y-38383333D01*
X21000476Y-38430952D01*
X20952857Y-38430952D01*
X20857619Y-38383333D01*
X20810000Y-38335714D01*
X20762380Y-38240476D01*
X20762380Y-38050000D01*
X20810000Y-37954761D01*
X20857619Y-37907142D01*
X20952857Y-37859523D01*
X21000476Y-37859523D01*
X21095714Y-37907142D01*
X21143333Y-37954761D01*
X21190952Y-38050000D01*
X21190952Y-38240476D01*
X21238571Y-38335714D01*
X21286190Y-38383333D01*
X21381428Y-38430952D01*
X21571904Y-38430952D01*
X21667142Y-38383333D01*
X21714761Y-38335714D01*
X21762380Y-38240476D01*
X21762380Y-38050000D01*
X21714761Y-37954761D01*
X21667142Y-37907142D01*
X21571904Y-37859523D01*
X21381428Y-37859523D01*
X21286190Y-37907142D01*
X21238571Y-37954761D01*
X21190952Y-38050000D01*
X21476666Y-36716666D02*
X21476666Y-36240476D01*
X21762380Y-36811904D02*
X20762380Y-36478571D01*
X21762380Y-36145238D01*
X21667142Y-35811904D02*
X21714761Y-35764285D01*
X21762380Y-35811904D01*
X21714761Y-35859523D01*
X21667142Y-35811904D01*
X21762380Y-35811904D01*
X21762380Y-34573809D02*
X20762380Y-34573809D01*
X21476666Y-34240476D01*
X20762380Y-33907142D01*
X21762380Y-33907142D01*
X21762380Y-33288095D02*
X21714761Y-33383333D01*
X21667142Y-33430952D01*
X21571904Y-33478571D01*
X21286190Y-33478571D01*
X21190952Y-33430952D01*
X21143333Y-33383333D01*
X21095714Y-33288095D01*
X21095714Y-33145238D01*
X21143333Y-33050000D01*
X21190952Y-33002380D01*
X21286190Y-32954761D01*
X21571904Y-32954761D01*
X21667142Y-33002380D01*
X21714761Y-33050000D01*
X21762380Y-33145238D01*
X21762380Y-33288095D01*
X21762380Y-32526190D02*
X20762380Y-32526190D01*
X21762380Y-32097619D02*
X21238571Y-32097619D01*
X21143333Y-32145238D01*
X21095714Y-32240476D01*
X21095714Y-32383333D01*
X21143333Y-32478571D01*
X21190952Y-32526190D01*
X21762380Y-31621428D02*
X21095714Y-31621428D01*
X21286190Y-31621428D02*
X21190952Y-31573809D01*
X21143333Y-31526190D01*
X21095714Y-31430952D01*
X21095714Y-31335714D01*
D11*
X56910000Y-71450000D02*
G75*
G03X56910000Y-71450000I-2620000J0D01*
G01*
X54290000Y-68870000D02*
X54290000Y-74030000D01*
X54330000Y-68870000D02*
X54330000Y-74030000D01*
X54370000Y-68871000D02*
X54370000Y-74029000D01*
X54410000Y-68872000D02*
X54410000Y-74028000D01*
X54450000Y-68874000D02*
X54450000Y-74026000D01*
X54490000Y-68877000D02*
X54490000Y-74023000D01*
X54530000Y-68881000D02*
X54530000Y-70410000D01*
X54530000Y-72490000D02*
X54530000Y-74019000D01*
X54570000Y-68885000D02*
X54570000Y-70410000D01*
X54570000Y-72490000D02*
X54570000Y-74015000D01*
X54610000Y-68889000D02*
X54610000Y-70410000D01*
X54610000Y-72490000D02*
X54610000Y-74011000D01*
X54650000Y-68894000D02*
X54650000Y-70410000D01*
X54650000Y-72490000D02*
X54650000Y-74006000D01*
X54690000Y-68900000D02*
X54690000Y-70410000D01*
X54690000Y-72490000D02*
X54690000Y-74000000D01*
X54730000Y-68907000D02*
X54730000Y-70410000D01*
X54730000Y-72490000D02*
X54730000Y-73993000D01*
X54770000Y-68914000D02*
X54770000Y-70410000D01*
X54770000Y-72490000D02*
X54770000Y-73986000D01*
X54810000Y-68922000D02*
X54810000Y-70410000D01*
X54810000Y-72490000D02*
X54810000Y-73978000D01*
X54850000Y-68930000D02*
X54850000Y-70410000D01*
X54850000Y-72490000D02*
X54850000Y-73970000D01*
X54890000Y-68939000D02*
X54890000Y-70410000D01*
X54890000Y-72490000D02*
X54890000Y-73961000D01*
X54930000Y-68949000D02*
X54930000Y-70410000D01*
X54930000Y-72490000D02*
X54930000Y-73951000D01*
X54970000Y-68959000D02*
X54970000Y-70410000D01*
X54970000Y-72490000D02*
X54970000Y-73941000D01*
X55011000Y-68970000D02*
X55011000Y-70410000D01*
X55011000Y-72490000D02*
X55011000Y-73930000D01*
X55051000Y-68982000D02*
X55051000Y-70410000D01*
X55051000Y-72490000D02*
X55051000Y-73918000D01*
X55091000Y-68995000D02*
X55091000Y-70410000D01*
X55091000Y-72490000D02*
X55091000Y-73905000D01*
X55131000Y-69008000D02*
X55131000Y-70410000D01*
X55131000Y-72490000D02*
X55131000Y-73892000D01*
X55171000Y-69022000D02*
X55171000Y-70410000D01*
X55171000Y-72490000D02*
X55171000Y-73878000D01*
X55211000Y-69036000D02*
X55211000Y-70410000D01*
X55211000Y-72490000D02*
X55211000Y-73864000D01*
X55251000Y-69052000D02*
X55251000Y-70410000D01*
X55251000Y-72490000D02*
X55251000Y-73848000D01*
X55291000Y-69068000D02*
X55291000Y-70410000D01*
X55291000Y-72490000D02*
X55291000Y-73832000D01*
X55331000Y-69085000D02*
X55331000Y-70410000D01*
X55331000Y-72490000D02*
X55331000Y-73815000D01*
X55371000Y-69102000D02*
X55371000Y-70410000D01*
X55371000Y-72490000D02*
X55371000Y-73798000D01*
X55411000Y-69121000D02*
X55411000Y-70410000D01*
X55411000Y-72490000D02*
X55411000Y-73779000D01*
X55451000Y-69140000D02*
X55451000Y-70410000D01*
X55451000Y-72490000D02*
X55451000Y-73760000D01*
X55491000Y-69160000D02*
X55491000Y-70410000D01*
X55491000Y-72490000D02*
X55491000Y-73740000D01*
X55531000Y-69182000D02*
X55531000Y-70410000D01*
X55531000Y-72490000D02*
X55531000Y-73718000D01*
X55571000Y-69203000D02*
X55571000Y-70410000D01*
X55571000Y-72490000D02*
X55571000Y-73697000D01*
X55611000Y-69226000D02*
X55611000Y-70410000D01*
X55611000Y-72490000D02*
X55611000Y-73674000D01*
X55651000Y-69250000D02*
X55651000Y-70410000D01*
X55651000Y-72490000D02*
X55651000Y-73650000D01*
X55691000Y-69275000D02*
X55691000Y-70410000D01*
X55691000Y-72490000D02*
X55691000Y-73625000D01*
X55731000Y-69301000D02*
X55731000Y-70410000D01*
X55731000Y-72490000D02*
X55731000Y-73599000D01*
X55771000Y-69328000D02*
X55771000Y-70410000D01*
X55771000Y-72490000D02*
X55771000Y-73572000D01*
X55811000Y-69355000D02*
X55811000Y-70410000D01*
X55811000Y-72490000D02*
X55811000Y-73545000D01*
X55851000Y-69385000D02*
X55851000Y-70410000D01*
X55851000Y-72490000D02*
X55851000Y-73515000D01*
X55891000Y-69415000D02*
X55891000Y-70410000D01*
X55891000Y-72490000D02*
X55891000Y-73485000D01*
X55931000Y-69446000D02*
X55931000Y-70410000D01*
X55931000Y-72490000D02*
X55931000Y-73454000D01*
X55971000Y-69479000D02*
X55971000Y-70410000D01*
X55971000Y-72490000D02*
X55971000Y-73421000D01*
X56011000Y-69513000D02*
X56011000Y-70410000D01*
X56011000Y-72490000D02*
X56011000Y-73387000D01*
X56051000Y-69549000D02*
X56051000Y-70410000D01*
X56051000Y-72490000D02*
X56051000Y-73351000D01*
X56091000Y-69586000D02*
X56091000Y-70410000D01*
X56091000Y-72490000D02*
X56091000Y-73314000D01*
X56131000Y-69624000D02*
X56131000Y-70410000D01*
X56131000Y-72490000D02*
X56131000Y-73276000D01*
X56171000Y-69665000D02*
X56171000Y-70410000D01*
X56171000Y-72490000D02*
X56171000Y-73235000D01*
X56211000Y-69707000D02*
X56211000Y-70410000D01*
X56211000Y-72490000D02*
X56211000Y-73193000D01*
X56251000Y-69751000D02*
X56251000Y-70410000D01*
X56251000Y-72490000D02*
X56251000Y-73149000D01*
X56291000Y-69797000D02*
X56291000Y-70410000D01*
X56291000Y-72490000D02*
X56291000Y-73103000D01*
X56331000Y-69845000D02*
X56331000Y-70410000D01*
X56331000Y-72490000D02*
X56331000Y-73055000D01*
X56371000Y-69896000D02*
X56371000Y-70410000D01*
X56371000Y-72490000D02*
X56371000Y-73004000D01*
X56411000Y-69950000D02*
X56411000Y-70410000D01*
X56411000Y-72490000D02*
X56411000Y-72950000D01*
X56451000Y-70007000D02*
X56451000Y-70410000D01*
X56451000Y-72490000D02*
X56451000Y-72893000D01*
X56491000Y-70067000D02*
X56491000Y-70410000D01*
X56491000Y-72490000D02*
X56491000Y-72833000D01*
X56531000Y-70131000D02*
X56531000Y-70410000D01*
X56531000Y-72490000D02*
X56531000Y-72769000D01*
X56571000Y-70199000D02*
X56571000Y-70410000D01*
X56571000Y-72490000D02*
X56571000Y-72701000D01*
X56611000Y-70272000D02*
X56611000Y-72628000D01*
X56651000Y-70352000D02*
X56651000Y-72548000D01*
X56691000Y-70439000D02*
X56691000Y-72461000D01*
X56731000Y-70535000D02*
X56731000Y-72365000D01*
X56771000Y-70645000D02*
X56771000Y-72255000D01*
X56811000Y-70773000D02*
X56811000Y-72127000D01*
X56851000Y-70932000D02*
X56851000Y-71968000D01*
X56891000Y-71166000D02*
X56891000Y-71734000D01*
X51485225Y-69975000D02*
X51985225Y-69975000D01*
X51735225Y-69725000D02*
X51735225Y-70225000D01*
X37180000Y-11310000D02*
G75*
G02X40300000Y-11310000I1560000J0D01*
G01*
X40300000Y-15170000D02*
X40300000Y-11310000D01*
X37180000Y-15170000D02*
X37180000Y-11310000D01*
X40300000Y-15170000D02*
X37180000Y-15170000D01*
X36780000Y-15170000D02*
X36780000Y-14050000D01*
X36780000Y-14050000D02*
X37180000Y-14050000D01*
X37180000Y-14050000D02*
X37180000Y-15170000D01*
X37180000Y-15170000D02*
X36780000Y-15170000D01*
X40010000Y-20380000D02*
X40010000Y-15170000D01*
X40010000Y-15170000D02*
X40010000Y-15170000D01*
X40010000Y-15170000D02*
X40010000Y-20380000D01*
X40010000Y-20380000D02*
X40010000Y-20380000D01*
X37470000Y-20380000D02*
X37470000Y-15170000D01*
X37470000Y-15170000D02*
X37470000Y-15170000D01*
X37470000Y-15170000D02*
X37470000Y-20380000D01*
X37470000Y-20380000D02*
X37470000Y-20380000D01*
X42900000Y-11260000D02*
G75*
G02X46020000Y-11260000I1560000J0D01*
G01*
X46020000Y-15120000D02*
X46020000Y-11260000D01*
X42900000Y-15120000D02*
X42900000Y-11260000D01*
X46020000Y-15120000D02*
X42900000Y-15120000D01*
X42500000Y-15120000D02*
X42500000Y-14000000D01*
X42500000Y-14000000D02*
X42900000Y-14000000D01*
X42900000Y-14000000D02*
X42900000Y-15120000D01*
X42900000Y-15120000D02*
X42500000Y-15120000D01*
X45730000Y-20330000D02*
X45730000Y-15120000D01*
X45730000Y-15120000D02*
X45730000Y-15120000D01*
X45730000Y-15120000D02*
X45730000Y-20330000D01*
X45730000Y-20330000D02*
X45730000Y-20330000D01*
X43190000Y-20330000D02*
X43190000Y-15120000D01*
X43190000Y-15120000D02*
X43190000Y-15120000D01*
X43190000Y-15120000D02*
X43190000Y-20330000D01*
X43190000Y-20330000D02*
X43190000Y-20330000D01*
D12*
X59380000Y-56410000D02*
X59380000Y-57160000D01*
X59380000Y-39860000D02*
X59380000Y-40610000D01*
X40080000Y-39860000D02*
X59380000Y-39860000D01*
X40080000Y-43885000D02*
X40080000Y-39860000D01*
X40080000Y-57160000D02*
X40080000Y-51135000D01*
X59380000Y-57160000D02*
X40080000Y-57160000D01*
D11*
X67820000Y-22110000D02*
X69150000Y-22110000D01*
X67820000Y-23440000D02*
X67820000Y-22110000D01*
X70420000Y-22110000D02*
X73020000Y-22110000D01*
X70420000Y-24710000D02*
X70420000Y-22110000D01*
X67820000Y-24710000D02*
X70420000Y-24710000D01*
X73020000Y-22110000D02*
X73020000Y-73030000D01*
X67820000Y-24710000D02*
X67820000Y-73030000D01*
X67820000Y-73030000D02*
X73020000Y-73030000D01*
D12*
X29304229Y-52070707D02*
X26204229Y-52070707D01*
X29304229Y-50520707D02*
X29304229Y-52070707D01*
X26484229Y-49250707D02*
X29024229Y-49250707D01*
X29024229Y-41630707D02*
X26484229Y-41630707D01*
X26204229Y-52070707D02*
X26204229Y-50520707D01*
X26484229Y-49250707D02*
X26484229Y-41630707D01*
X29024229Y-49250707D02*
X29024229Y-41630707D01*
X31800000Y-70090000D02*
X36880000Y-70090000D01*
X31800000Y-72630000D02*
X31800000Y-70090000D01*
X36880000Y-72630000D02*
X31800000Y-72630000D01*
X36880000Y-70090000D02*
X36880000Y-72630000D01*
X39674000Y-69836000D02*
X38150000Y-69836000D01*
X39674000Y-72884000D02*
X39674000Y-69836000D01*
X38150000Y-72884000D02*
X39674000Y-72884000D01*
D11*
X60430000Y-72890000D02*
X60430000Y-62650000D01*
X65071000Y-72890000D02*
X65071000Y-62650000D01*
X60430000Y-72890000D02*
X65071000Y-72890000D01*
X60430000Y-62650000D02*
X65071000Y-62650000D01*
X61940000Y-72890000D02*
X61940000Y-62650000D01*
X60430000Y-69620000D02*
X61940000Y-69620000D01*
X60430000Y-65919000D02*
X61940000Y-65919000D01*
X42450000Y-63520000D02*
X46290000Y-63520000D01*
X42450000Y-65360000D02*
X46290000Y-65360000D01*
X32920000Y-27790000D02*
X22680000Y-27790000D01*
X32920000Y-23149000D02*
X22680000Y-23149000D01*
X32920000Y-27790000D02*
X32920000Y-23149000D01*
X22680000Y-27790000D02*
X22680000Y-23149000D01*
X32920000Y-26280000D02*
X22680000Y-26280000D01*
X29650000Y-27790000D02*
X29650000Y-26280000D01*
X25949000Y-27790000D02*
X25949000Y-26280000D01*
X28590000Y-30310000D02*
X28590000Y-28470000D01*
X28590000Y-28470000D02*
X24750000Y-28470000D01*
X24750000Y-28470000D02*
X24750000Y-30310000D01*
X24750000Y-30310000D02*
X28590000Y-30310000D01*
X29540000Y-29390000D02*
X28590000Y-29390000D01*
X23800000Y-29390000D02*
X24750000Y-29390000D01*
X29790000Y-33470000D02*
X28840000Y-33470000D01*
X24050000Y-33470000D02*
X25000000Y-33470000D01*
X28840000Y-32550000D02*
X25000000Y-32550000D01*
X28840000Y-34390000D02*
X28840000Y-32550000D01*
X25000000Y-34390000D02*
X28840000Y-34390000D01*
X25000000Y-32550000D02*
X25000000Y-34390000D01*
X59090000Y-27130000D02*
X60600000Y-27130000D01*
X59090000Y-30830000D02*
X60600000Y-30830000D01*
X60600000Y-34100000D02*
X60600000Y-23860000D01*
X59090000Y-23860000D02*
X63731000Y-23860000D01*
X59090000Y-34100000D02*
X63731000Y-34100000D01*
X63731000Y-34100000D02*
X63731000Y-23860000D01*
X59090000Y-34100000D02*
X59090000Y-23860000D01*
D13*
G36*
X52176535Y-22313172D02*
X52289117Y-22910363D01*
X52704531Y-23081610D01*
X53119944Y-23252857D01*
X53618302Y-22913978D01*
X53757868Y-22819622D01*
X53884028Y-22735375D01*
X53990895Y-22665083D01*
X54072582Y-22612592D01*
X54123201Y-22581749D01*
X54136986Y-22575098D01*
X54161820Y-22592203D01*
X54214888Y-22639489D01*
X54290240Y-22710917D01*
X54381929Y-22800445D01*
X54484007Y-22902034D01*
X54590526Y-23009643D01*
X54695536Y-23117232D01*
X54793091Y-23218760D01*
X54877242Y-23308186D01*
X54942040Y-23379471D01*
X54981538Y-23426573D01*
X54990980Y-23442337D01*
X54977391Y-23471398D01*
X54939293Y-23535066D01*
X54880694Y-23627112D01*
X54805597Y-23741309D01*
X54718009Y-23871429D01*
X54667254Y-23945646D01*
X54574745Y-24081167D01*
X54492540Y-24203461D01*
X54424630Y-24306440D01*
X54375000Y-24384018D01*
X54347640Y-24430106D01*
X54343529Y-24439792D01*
X54352849Y-24467319D01*
X54378254Y-24531473D01*
X54415911Y-24623235D01*
X54461986Y-24733584D01*
X54512646Y-24853500D01*
X54564059Y-24973964D01*
X54612389Y-25085954D01*
X54653806Y-25180452D01*
X54684474Y-25248437D01*
X54700562Y-25280888D01*
X54701511Y-25282165D01*
X54726772Y-25288362D01*
X54794046Y-25302185D01*
X54896360Y-25322277D01*
X55026741Y-25347279D01*
X55178216Y-25375831D01*
X55266594Y-25392296D01*
X55428452Y-25423114D01*
X55574649Y-25452439D01*
X55697787Y-25478666D01*
X55790469Y-25500191D01*
X55845301Y-25515410D01*
X55856323Y-25520238D01*
X55867119Y-25552919D01*
X55875829Y-25626730D01*
X55882460Y-25733037D01*
X55887018Y-25863212D01*
X55889509Y-26008621D01*
X55889938Y-26160635D01*
X55888311Y-26310622D01*
X55884635Y-26449951D01*
X55878915Y-26569990D01*
X55871158Y-26662110D01*
X55861368Y-26717677D01*
X55855496Y-26729245D01*
X55820399Y-26743110D01*
X55746028Y-26762933D01*
X55642223Y-26786384D01*
X55518819Y-26811136D01*
X55475741Y-26819143D01*
X55268047Y-26857186D01*
X55103984Y-26887824D01*
X54978130Y-26912274D01*
X54885065Y-26931754D01*
X54819367Y-26947481D01*
X54775617Y-26960673D01*
X54748392Y-26972549D01*
X54732272Y-26984325D01*
X54730017Y-26986653D01*
X54707503Y-27024145D01*
X54673158Y-27097110D01*
X54630411Y-27196612D01*
X54582692Y-27313718D01*
X54533430Y-27439493D01*
X54486055Y-27565002D01*
X54443995Y-27681310D01*
X54410680Y-27779484D01*
X54389541Y-27850588D01*
X54384005Y-27885687D01*
X54384466Y-27886917D01*
X54403223Y-27915606D01*
X54445776Y-27978730D01*
X54507653Y-28069718D01*
X54584382Y-28182000D01*
X54671491Y-28309005D01*
X54696299Y-28345098D01*
X54784753Y-28475948D01*
X54862588Y-28595336D01*
X54925566Y-28696407D01*
X54969445Y-28772304D01*
X54989985Y-28816172D01*
X54990980Y-28821562D01*
X54973722Y-28849889D01*
X54926036Y-28906006D01*
X54854050Y-28983882D01*
X54763897Y-29077485D01*
X54661705Y-29180786D01*
X54553606Y-29287751D01*
X54445728Y-29392351D01*
X54344204Y-29488554D01*
X54255162Y-29570329D01*
X54184733Y-29631645D01*
X54139047Y-29666471D01*
X54126409Y-29672157D01*
X54096991Y-29658765D01*
X54036761Y-29622644D01*
X53955530Y-29569881D01*
X53893030Y-29527412D01*
X53779785Y-29449485D01*
X53645674Y-29357729D01*
X53511155Y-29266120D01*
X53438833Y-29217091D01*
X53194038Y-29051515D01*
X52988551Y-29162620D01*
X52894936Y-29211293D01*
X52815330Y-29249126D01*
X52761467Y-29270703D01*
X52747757Y-29273706D01*
X52731270Y-29251538D01*
X52698745Y-29188894D01*
X52652609Y-29091554D01*
X52595290Y-28965294D01*
X52529216Y-28815895D01*
X52456815Y-28649133D01*
X52380516Y-28470787D01*
X52302746Y-28286636D01*
X52225934Y-28102457D01*
X52152506Y-27924030D01*
X52084892Y-27757132D01*
X52025520Y-27607542D01*
X51976816Y-27481038D01*
X51941210Y-27383399D01*
X51921130Y-27320402D01*
X51917900Y-27298766D01*
X51943496Y-27271169D01*
X51999539Y-27226370D01*
X52074311Y-27173679D01*
X52080587Y-27169510D01*
X52273845Y-27014814D01*
X52429674Y-26834336D01*
X52546724Y-26633847D01*
X52623645Y-26419119D01*
X52659086Y-26195922D01*
X52651697Y-25970026D01*
X52600127Y-25747204D01*
X52503026Y-25533224D01*
X52474458Y-25486409D01*
X52325868Y-25297363D01*
X52150327Y-25145557D01*
X51953910Y-25031779D01*
X51742693Y-24956820D01*
X51522753Y-24921467D01*
X51300163Y-24926512D01*
X51081001Y-24972744D01*
X50871342Y-25060951D01*
X50677261Y-25191924D01*
X50617226Y-25245082D01*
X50464435Y-25411484D01*
X50353097Y-25586657D01*
X50276723Y-25783011D01*
X50234187Y-25977462D01*
X50223686Y-26196087D01*
X50258701Y-26415797D01*
X50335673Y-26629165D01*
X50451047Y-26828767D01*
X50601266Y-27007174D01*
X50782773Y-27156962D01*
X50806627Y-27172751D01*
X50882201Y-27224457D01*
X50939651Y-27269257D01*
X50967117Y-27297862D01*
X50967517Y-27298766D01*
X50961620Y-27329709D01*
X50938245Y-27399936D01*
X50899821Y-27503670D01*
X50848777Y-27635135D01*
X50787542Y-27788552D01*
X50718544Y-27958146D01*
X50644214Y-28138138D01*
X50566978Y-28322753D01*
X50489268Y-28506213D01*
X50413511Y-28682741D01*
X50342137Y-28846559D01*
X50277574Y-28991892D01*
X50222252Y-29112962D01*
X50178600Y-29203992D01*
X50149046Y-29259205D01*
X50137144Y-29273706D01*
X50100777Y-29262414D01*
X50032730Y-29232130D01*
X49944737Y-29188265D01*
X49896351Y-29162620D01*
X49690863Y-29051515D01*
X49446068Y-29217091D01*
X49321106Y-29301915D01*
X49184295Y-29395261D01*
X49056089Y-29483153D01*
X48991871Y-29527412D01*
X48901551Y-29588063D01*
X48825071Y-29636126D01*
X48772407Y-29665515D01*
X48755302Y-29671727D01*
X48730405Y-29654968D01*
X48675305Y-29608181D01*
X48595343Y-29536225D01*
X48495861Y-29443957D01*
X48382200Y-29336235D01*
X48310315Y-29267071D01*
X48184551Y-29143502D01*
X48075863Y-29032979D01*
X47988645Y-28940230D01*
X47927289Y-28869982D01*
X47896191Y-28826965D01*
X47893208Y-28818235D01*
X47907053Y-28785029D01*
X47945312Y-28717887D01*
X48003742Y-28623608D01*
X48078097Y-28508990D01*
X48164135Y-28380828D01*
X48188603Y-28345098D01*
X48277755Y-28215234D01*
X48357738Y-28098314D01*
X48424080Y-28000907D01*
X48472311Y-27929584D01*
X48497957Y-27890915D01*
X48500435Y-27886917D01*
X48496729Y-27856100D01*
X48477061Y-27788344D01*
X48444860Y-27692584D01*
X48403555Y-27577754D01*
X48356575Y-27452789D01*
X48307349Y-27326624D01*
X48259308Y-27208193D01*
X48215881Y-27106430D01*
X48180496Y-27030271D01*
X48156584Y-26988649D01*
X48154884Y-26986653D01*
X48140262Y-26974758D01*
X48115565Y-26962995D01*
X48075372Y-26950146D01*
X48014263Y-26934994D01*
X47926817Y-26916321D01*
X47807612Y-26892910D01*
X47651227Y-26863542D01*
X47452243Y-26827000D01*
X47409160Y-26819143D01*
X47281471Y-26794472D01*
X47170153Y-26770338D01*
X47085045Y-26749069D01*
X47035983Y-26732993D01*
X47029405Y-26729245D01*
X47018564Y-26696018D01*
X47009753Y-26621766D01*
X47002976Y-26515121D01*
X46998240Y-26384712D01*
X46995550Y-26239172D01*
X46994913Y-26087131D01*
X46996334Y-25937221D01*
X46999820Y-25798073D01*
X47005376Y-25678317D01*
X47013008Y-25586586D01*
X47022722Y-25531511D01*
X47028578Y-25520238D01*
X47061180Y-25508868D01*
X47135418Y-25490369D01*
X47243896Y-25466347D01*
X47379217Y-25438407D01*
X47533985Y-25408153D01*
X47618308Y-25392296D01*
X47778296Y-25362389D01*
X47920967Y-25335295D01*
X48039348Y-25312376D01*
X48126465Y-25294988D01*
X48175345Y-25284492D01*
X48183390Y-25282165D01*
X48196987Y-25255931D01*
X48225729Y-25192740D01*
X48265785Y-25101622D01*
X48313324Y-24991602D01*
X48364515Y-24871710D01*
X48415526Y-24750972D01*
X48462526Y-24638416D01*
X48501684Y-24543071D01*
X48529169Y-24473962D01*
X48541149Y-24440119D01*
X48541372Y-24438640D01*
X48527791Y-24411942D01*
X48489715Y-24350505D01*
X48431147Y-24260434D01*
X48356088Y-24147835D01*
X48268540Y-24018815D01*
X48217647Y-23944706D01*
X48124909Y-23808822D01*
X48042541Y-23685454D01*
X47974561Y-23580842D01*
X47924988Y-23501228D01*
X47897842Y-23452852D01*
X47893921Y-23442007D01*
X47910775Y-23416765D01*
X47957368Y-23362869D01*
X48027749Y-23286358D01*
X48115965Y-23193268D01*
X48216065Y-23089640D01*
X48322098Y-22981509D01*
X48428111Y-22874915D01*
X48528152Y-22775895D01*
X48616270Y-22690487D01*
X48686513Y-22624730D01*
X48732928Y-22584661D01*
X48748456Y-22575098D01*
X48773739Y-22588545D01*
X48834211Y-22626320D01*
X48923992Y-22684580D01*
X49037203Y-22759479D01*
X49167964Y-22847170D01*
X49266600Y-22913978D01*
X49764957Y-23252857D01*
X50180371Y-23081610D01*
X50595784Y-22910363D01*
X50708366Y-22313172D01*
X50820949Y-21715980D01*
X52063952Y-21715980D01*
X52176535Y-22313172D01*
X52176535Y-22313172D01*
G37*
X52176535Y-22313172D02*
X52289117Y-22910363D01*
X52704531Y-23081610D01*
X53119944Y-23252857D01*
X53618302Y-22913978D01*
X53757868Y-22819622D01*
X53884028Y-22735375D01*
X53990895Y-22665083D01*
X54072582Y-22612592D01*
X54123201Y-22581749D01*
X54136986Y-22575098D01*
X54161820Y-22592203D01*
X54214888Y-22639489D01*
X54290240Y-22710917D01*
X54381929Y-22800445D01*
X54484007Y-22902034D01*
X54590526Y-23009643D01*
X54695536Y-23117232D01*
X54793091Y-23218760D01*
X54877242Y-23308186D01*
X54942040Y-23379471D01*
X54981538Y-23426573D01*
X54990980Y-23442337D01*
X54977391Y-23471398D01*
X54939293Y-23535066D01*
X54880694Y-23627112D01*
X54805597Y-23741309D01*
X54718009Y-23871429D01*
X54667254Y-23945646D01*
X54574745Y-24081167D01*
X54492540Y-24203461D01*
X54424630Y-24306440D01*
X54375000Y-24384018D01*
X54347640Y-24430106D01*
X54343529Y-24439792D01*
X54352849Y-24467319D01*
X54378254Y-24531473D01*
X54415911Y-24623235D01*
X54461986Y-24733584D01*
X54512646Y-24853500D01*
X54564059Y-24973964D01*
X54612389Y-25085954D01*
X54653806Y-25180452D01*
X54684474Y-25248437D01*
X54700562Y-25280888D01*
X54701511Y-25282165D01*
X54726772Y-25288362D01*
X54794046Y-25302185D01*
X54896360Y-25322277D01*
X55026741Y-25347279D01*
X55178216Y-25375831D01*
X55266594Y-25392296D01*
X55428452Y-25423114D01*
X55574649Y-25452439D01*
X55697787Y-25478666D01*
X55790469Y-25500191D01*
X55845301Y-25515410D01*
X55856323Y-25520238D01*
X55867119Y-25552919D01*
X55875829Y-25626730D01*
X55882460Y-25733037D01*
X55887018Y-25863212D01*
X55889509Y-26008621D01*
X55889938Y-26160635D01*
X55888311Y-26310622D01*
X55884635Y-26449951D01*
X55878915Y-26569990D01*
X55871158Y-26662110D01*
X55861368Y-26717677D01*
X55855496Y-26729245D01*
X55820399Y-26743110D01*
X55746028Y-26762933D01*
X55642223Y-26786384D01*
X55518819Y-26811136D01*
X55475741Y-26819143D01*
X55268047Y-26857186D01*
X55103984Y-26887824D01*
X54978130Y-26912274D01*
X54885065Y-26931754D01*
X54819367Y-26947481D01*
X54775617Y-26960673D01*
X54748392Y-26972549D01*
X54732272Y-26984325D01*
X54730017Y-26986653D01*
X54707503Y-27024145D01*
X54673158Y-27097110D01*
X54630411Y-27196612D01*
X54582692Y-27313718D01*
X54533430Y-27439493D01*
X54486055Y-27565002D01*
X54443995Y-27681310D01*
X54410680Y-27779484D01*
X54389541Y-27850588D01*
X54384005Y-27885687D01*
X54384466Y-27886917D01*
X54403223Y-27915606D01*
X54445776Y-27978730D01*
X54507653Y-28069718D01*
X54584382Y-28182000D01*
X54671491Y-28309005D01*
X54696299Y-28345098D01*
X54784753Y-28475948D01*
X54862588Y-28595336D01*
X54925566Y-28696407D01*
X54969445Y-28772304D01*
X54989985Y-28816172D01*
X54990980Y-28821562D01*
X54973722Y-28849889D01*
X54926036Y-28906006D01*
X54854050Y-28983882D01*
X54763897Y-29077485D01*
X54661705Y-29180786D01*
X54553606Y-29287751D01*
X54445728Y-29392351D01*
X54344204Y-29488554D01*
X54255162Y-29570329D01*
X54184733Y-29631645D01*
X54139047Y-29666471D01*
X54126409Y-29672157D01*
X54096991Y-29658765D01*
X54036761Y-29622644D01*
X53955530Y-29569881D01*
X53893030Y-29527412D01*
X53779785Y-29449485D01*
X53645674Y-29357729D01*
X53511155Y-29266120D01*
X53438833Y-29217091D01*
X53194038Y-29051515D01*
X52988551Y-29162620D01*
X52894936Y-29211293D01*
X52815330Y-29249126D01*
X52761467Y-29270703D01*
X52747757Y-29273706D01*
X52731270Y-29251538D01*
X52698745Y-29188894D01*
X52652609Y-29091554D01*
X52595290Y-28965294D01*
X52529216Y-28815895D01*
X52456815Y-28649133D01*
X52380516Y-28470787D01*
X52302746Y-28286636D01*
X52225934Y-28102457D01*
X52152506Y-27924030D01*
X52084892Y-27757132D01*
X52025520Y-27607542D01*
X51976816Y-27481038D01*
X51941210Y-27383399D01*
X51921130Y-27320402D01*
X51917900Y-27298766D01*
X51943496Y-27271169D01*
X51999539Y-27226370D01*
X52074311Y-27173679D01*
X52080587Y-27169510D01*
X52273845Y-27014814D01*
X52429674Y-26834336D01*
X52546724Y-26633847D01*
X52623645Y-26419119D01*
X52659086Y-26195922D01*
X52651697Y-25970026D01*
X52600127Y-25747204D01*
X52503026Y-25533224D01*
X52474458Y-25486409D01*
X52325868Y-25297363D01*
X52150327Y-25145557D01*
X51953910Y-25031779D01*
X51742693Y-24956820D01*
X51522753Y-24921467D01*
X51300163Y-24926512D01*
X51081001Y-24972744D01*
X50871342Y-25060951D01*
X50677261Y-25191924D01*
X50617226Y-25245082D01*
X50464435Y-25411484D01*
X50353097Y-25586657D01*
X50276723Y-25783011D01*
X50234187Y-25977462D01*
X50223686Y-26196087D01*
X50258701Y-26415797D01*
X50335673Y-26629165D01*
X50451047Y-26828767D01*
X50601266Y-27007174D01*
X50782773Y-27156962D01*
X50806627Y-27172751D01*
X50882201Y-27224457D01*
X50939651Y-27269257D01*
X50967117Y-27297862D01*
X50967517Y-27298766D01*
X50961620Y-27329709D01*
X50938245Y-27399936D01*
X50899821Y-27503670D01*
X50848777Y-27635135D01*
X50787542Y-27788552D01*
X50718544Y-27958146D01*
X50644214Y-28138138D01*
X50566978Y-28322753D01*
X50489268Y-28506213D01*
X50413511Y-28682741D01*
X50342137Y-28846559D01*
X50277574Y-28991892D01*
X50222252Y-29112962D01*
X50178600Y-29203992D01*
X50149046Y-29259205D01*
X50137144Y-29273706D01*
X50100777Y-29262414D01*
X50032730Y-29232130D01*
X49944737Y-29188265D01*
X49896351Y-29162620D01*
X49690863Y-29051515D01*
X49446068Y-29217091D01*
X49321106Y-29301915D01*
X49184295Y-29395261D01*
X49056089Y-29483153D01*
X48991871Y-29527412D01*
X48901551Y-29588063D01*
X48825071Y-29636126D01*
X48772407Y-29665515D01*
X48755302Y-29671727D01*
X48730405Y-29654968D01*
X48675305Y-29608181D01*
X48595343Y-29536225D01*
X48495861Y-29443957D01*
X48382200Y-29336235D01*
X48310315Y-29267071D01*
X48184551Y-29143502D01*
X48075863Y-29032979D01*
X47988645Y-28940230D01*
X47927289Y-28869982D01*
X47896191Y-28826965D01*
X47893208Y-28818235D01*
X47907053Y-28785029D01*
X47945312Y-28717887D01*
X48003742Y-28623608D01*
X48078097Y-28508990D01*
X48164135Y-28380828D01*
X48188603Y-28345098D01*
X48277755Y-28215234D01*
X48357738Y-28098314D01*
X48424080Y-28000907D01*
X48472311Y-27929584D01*
X48497957Y-27890915D01*
X48500435Y-27886917D01*
X48496729Y-27856100D01*
X48477061Y-27788344D01*
X48444860Y-27692584D01*
X48403555Y-27577754D01*
X48356575Y-27452789D01*
X48307349Y-27326624D01*
X48259308Y-27208193D01*
X48215881Y-27106430D01*
X48180496Y-27030271D01*
X48156584Y-26988649D01*
X48154884Y-26986653D01*
X48140262Y-26974758D01*
X48115565Y-26962995D01*
X48075372Y-26950146D01*
X48014263Y-26934994D01*
X47926817Y-26916321D01*
X47807612Y-26892910D01*
X47651227Y-26863542D01*
X47452243Y-26827000D01*
X47409160Y-26819143D01*
X47281471Y-26794472D01*
X47170153Y-26770338D01*
X47085045Y-26749069D01*
X47035983Y-26732993D01*
X47029405Y-26729245D01*
X47018564Y-26696018D01*
X47009753Y-26621766D01*
X47002976Y-26515121D01*
X46998240Y-26384712D01*
X46995550Y-26239172D01*
X46994913Y-26087131D01*
X46996334Y-25937221D01*
X46999820Y-25798073D01*
X47005376Y-25678317D01*
X47013008Y-25586586D01*
X47022722Y-25531511D01*
X47028578Y-25520238D01*
X47061180Y-25508868D01*
X47135418Y-25490369D01*
X47243896Y-25466347D01*
X47379217Y-25438407D01*
X47533985Y-25408153D01*
X47618308Y-25392296D01*
X47778296Y-25362389D01*
X47920967Y-25335295D01*
X48039348Y-25312376D01*
X48126465Y-25294988D01*
X48175345Y-25284492D01*
X48183390Y-25282165D01*
X48196987Y-25255931D01*
X48225729Y-25192740D01*
X48265785Y-25101622D01*
X48313324Y-24991602D01*
X48364515Y-24871710D01*
X48415526Y-24750972D01*
X48462526Y-24638416D01*
X48501684Y-24543071D01*
X48529169Y-24473962D01*
X48541149Y-24440119D01*
X48541372Y-24438640D01*
X48527791Y-24411942D01*
X48489715Y-24350505D01*
X48431147Y-24260434D01*
X48356088Y-24147835D01*
X48268540Y-24018815D01*
X48217647Y-23944706D01*
X48124909Y-23808822D01*
X48042541Y-23685454D01*
X47974561Y-23580842D01*
X47924988Y-23501228D01*
X47897842Y-23452852D01*
X47893921Y-23442007D01*
X47910775Y-23416765D01*
X47957368Y-23362869D01*
X48027749Y-23286358D01*
X48115965Y-23193268D01*
X48216065Y-23089640D01*
X48322098Y-22981509D01*
X48428111Y-22874915D01*
X48528152Y-22775895D01*
X48616270Y-22690487D01*
X48686513Y-22624730D01*
X48732928Y-22584661D01*
X48748456Y-22575098D01*
X48773739Y-22588545D01*
X48834211Y-22626320D01*
X48923992Y-22684580D01*
X49037203Y-22759479D01*
X49167964Y-22847170D01*
X49266600Y-22913978D01*
X49764957Y-23252857D01*
X50180371Y-23081610D01*
X50595784Y-22910363D01*
X50708366Y-22313172D01*
X50820949Y-21715980D01*
X52063952Y-21715980D01*
X52176535Y-22313172D01*
G36*
X54993637Y-30567472D02*
X55079290Y-30593641D01*
X55134437Y-30626707D01*
X55152401Y-30652855D01*
X55147457Y-30683852D01*
X55115372Y-30732547D01*
X55088243Y-30767035D01*
X55032317Y-30829383D01*
X54990299Y-30855615D01*
X54954480Y-30853903D01*
X54848224Y-30826863D01*
X54770189Y-30828091D01*
X54706820Y-30858735D01*
X54685546Y-30876670D01*
X54617451Y-30939779D01*
X54617451Y-31763922D01*
X54343529Y-31763922D01*
X54343529Y-30568628D01*
X54480490Y-30568628D01*
X54562719Y-30571879D01*
X54605144Y-30583426D01*
X54617445Y-30605952D01*
X54617451Y-30606620D01*
X54623260Y-30630215D01*
X54649531Y-30627138D01*
X54685931Y-30610115D01*
X54761111Y-30578439D01*
X54822158Y-30559381D01*
X54900708Y-30554496D01*
X54993637Y-30567472D01*
X54993637Y-30567472D01*
G37*
X54993637Y-30567472D02*
X55079290Y-30593641D01*
X55134437Y-30626707D01*
X55152401Y-30652855D01*
X55147457Y-30683852D01*
X55115372Y-30732547D01*
X55088243Y-30767035D01*
X55032317Y-30829383D01*
X54990299Y-30855615D01*
X54954480Y-30853903D01*
X54848224Y-30826863D01*
X54770189Y-30828091D01*
X54706820Y-30858735D01*
X54685546Y-30876670D01*
X54617451Y-30939779D01*
X54617451Y-31763922D01*
X54343529Y-31763922D01*
X54343529Y-30568628D01*
X54480490Y-30568628D01*
X54562719Y-30571879D01*
X54605144Y-30583426D01*
X54617445Y-30605952D01*
X54617451Y-30606620D01*
X54623260Y-30630215D01*
X54649531Y-30627138D01*
X54685931Y-30610115D01*
X54761111Y-30578439D01*
X54822158Y-30559381D01*
X54900708Y-30554496D01*
X54993637Y-30567472D01*
G36*
X49936760Y-30589199D02*
X49998736Y-30618802D01*
X50058759Y-30661561D01*
X50104486Y-30710775D01*
X50137793Y-30773544D01*
X50160555Y-30856971D01*
X50174647Y-30968159D01*
X50181942Y-31114209D01*
X50184318Y-31302223D01*
X50184355Y-31321912D01*
X50184902Y-31763922D01*
X49910980Y-31763922D01*
X49910980Y-31356435D01*
X49910785Y-31205471D01*
X49909436Y-31096056D01*
X49905788Y-31019933D01*
X49898696Y-30968848D01*
X49887013Y-30934545D01*
X49869594Y-30908768D01*
X49845329Y-30883298D01*
X49760435Y-30828571D01*
X49667761Y-30818416D01*
X49579473Y-30853017D01*
X49548770Y-30878770D01*
X49526229Y-30902982D01*
X49510046Y-30928912D01*
X49499168Y-30964708D01*
X49492542Y-31018519D01*
X49489115Y-31098493D01*
X49487834Y-31212779D01*
X49487647Y-31351907D01*
X49487647Y-31763922D01*
X49213725Y-31763922D01*
X49213725Y-30568628D01*
X49350686Y-30568628D01*
X49432916Y-30571879D01*
X49475340Y-30583426D01*
X49487641Y-30605952D01*
X49487647Y-30606620D01*
X49493354Y-30628681D01*
X49518527Y-30626177D01*
X49568578Y-30601937D01*
X49682094Y-30566271D01*
X49811945Y-30562305D01*
X49936760Y-30589199D01*
X49936760Y-30589199D01*
G37*
X49936760Y-30589199D02*
X49998736Y-30618802D01*
X50058759Y-30661561D01*
X50104486Y-30710775D01*
X50137793Y-30773544D01*
X50160555Y-30856971D01*
X50174647Y-30968159D01*
X50181942Y-31114209D01*
X50184318Y-31302223D01*
X50184355Y-31321912D01*
X50184902Y-31763922D01*
X49910980Y-31763922D01*
X49910980Y-31356435D01*
X49910785Y-31205471D01*
X49909436Y-31096056D01*
X49905788Y-31019933D01*
X49898696Y-30968848D01*
X49887013Y-30934545D01*
X49869594Y-30908768D01*
X49845329Y-30883298D01*
X49760435Y-30828571D01*
X49667761Y-30818416D01*
X49579473Y-30853017D01*
X49548770Y-30878770D01*
X49526229Y-30902982D01*
X49510046Y-30928912D01*
X49499168Y-30964708D01*
X49492542Y-31018519D01*
X49489115Y-31098493D01*
X49487834Y-31212779D01*
X49487647Y-31351907D01*
X49487647Y-31763922D01*
X49213725Y-31763922D01*
X49213725Y-30568628D01*
X49350686Y-30568628D01*
X49432916Y-30571879D01*
X49475340Y-30583426D01*
X49487641Y-30605952D01*
X49487647Y-30606620D01*
X49493354Y-30628681D01*
X49518527Y-30626177D01*
X49568578Y-30601937D01*
X49682094Y-30566271D01*
X49811945Y-30562305D01*
X49936760Y-30589199D01*
G36*
X56733287Y-30564355D02*
X56797051Y-30579845D01*
X56919300Y-30636569D01*
X57023834Y-30723202D01*
X57096180Y-30827074D01*
X57106119Y-30850396D01*
X57119754Y-30911484D01*
X57129298Y-31001853D01*
X57132549Y-31093190D01*
X57132549Y-31265882D01*
X56771470Y-31265882D01*
X56622546Y-31266445D01*
X56517632Y-31269864D01*
X56450937Y-31278731D01*
X56416666Y-31295641D01*
X56409028Y-31323189D01*
X56422229Y-31363968D01*
X56445877Y-31411683D01*
X56511843Y-31491314D01*
X56603512Y-31530987D01*
X56715555Y-31529695D01*
X56842472Y-31486514D01*
X56952158Y-31433224D01*
X57043173Y-31505191D01*
X57134188Y-31577157D01*
X57048563Y-31656269D01*
X56934250Y-31731017D01*
X56793666Y-31776084D01*
X56642449Y-31788696D01*
X56496236Y-31766079D01*
X56472647Y-31758405D01*
X56344141Y-31691296D01*
X56248551Y-31591247D01*
X56183861Y-31455271D01*
X56148057Y-31280380D01*
X56147640Y-31276632D01*
X56144434Y-31086032D01*
X56157393Y-31018035D01*
X56410392Y-31018035D01*
X56433627Y-31028491D01*
X56496710Y-31036500D01*
X56589706Y-31041073D01*
X56648638Y-31041765D01*
X56758537Y-31041332D01*
X56827252Y-31038578D01*
X56863405Y-31031321D01*
X56875615Y-31017376D01*
X56872504Y-30994562D01*
X56869894Y-30985735D01*
X56825344Y-30902800D01*
X56755279Y-30835960D01*
X56693446Y-30806589D01*
X56611301Y-30808362D01*
X56528062Y-30844990D01*
X56458238Y-30905634D01*
X56416337Y-30979456D01*
X56410392Y-31018035D01*
X56157393Y-31018035D01*
X56176385Y-30918395D01*
X56239773Y-30777711D01*
X56330878Y-30667974D01*
X56445978Y-30593174D01*
X56581355Y-30557304D01*
X56733287Y-30564355D01*
X56733287Y-30564355D01*
G37*
X56733287Y-30564355D02*
X56797051Y-30579845D01*
X56919300Y-30636569D01*
X57023834Y-30723202D01*
X57096180Y-30827074D01*
X57106119Y-30850396D01*
X57119754Y-30911484D01*
X57129298Y-31001853D01*
X57132549Y-31093190D01*
X57132549Y-31265882D01*
X56771470Y-31265882D01*
X56622546Y-31266445D01*
X56517632Y-31269864D01*
X56450937Y-31278731D01*
X56416666Y-31295641D01*
X56409028Y-31323189D01*
X56422229Y-31363968D01*
X56445877Y-31411683D01*
X56511843Y-31491314D01*
X56603512Y-31530987D01*
X56715555Y-31529695D01*
X56842472Y-31486514D01*
X56952158Y-31433224D01*
X57043173Y-31505191D01*
X57134188Y-31577157D01*
X57048563Y-31656269D01*
X56934250Y-31731017D01*
X56793666Y-31776084D01*
X56642449Y-31788696D01*
X56496236Y-31766079D01*
X56472647Y-31758405D01*
X56344141Y-31691296D01*
X56248551Y-31591247D01*
X56183861Y-31455271D01*
X56148057Y-31280380D01*
X56147640Y-31276632D01*
X56144434Y-31086032D01*
X56157393Y-31018035D01*
X56410392Y-31018035D01*
X56433627Y-31028491D01*
X56496710Y-31036500D01*
X56589706Y-31041073D01*
X56648638Y-31041765D01*
X56758537Y-31041332D01*
X56827252Y-31038578D01*
X56863405Y-31031321D01*
X56875615Y-31017376D01*
X56872504Y-30994562D01*
X56869894Y-30985735D01*
X56825344Y-30902800D01*
X56755279Y-30835960D01*
X56693446Y-30806589D01*
X56611301Y-30808362D01*
X56528062Y-30844990D01*
X56458238Y-30905634D01*
X56416337Y-30979456D01*
X56410392Y-31018035D01*
X56157393Y-31018035D01*
X56176385Y-30918395D01*
X56239773Y-30777711D01*
X56330878Y-30667974D01*
X56445978Y-30593174D01*
X56581355Y-30557304D01*
X56733287Y-30564355D01*
G36*
X55820976Y-30579056D02*
X55965256Y-30640348D01*
X56010699Y-30670185D01*
X56068779Y-30716036D01*
X56105238Y-30752089D01*
X56111568Y-30763832D01*
X56093693Y-30789889D01*
X56047950Y-30834105D01*
X56011328Y-30864965D01*
X55911088Y-30945520D01*
X55831935Y-30878918D01*
X55770769Y-30835921D01*
X55711129Y-30821079D01*
X55642872Y-30824704D01*
X55534482Y-30851652D01*
X55459872Y-30907587D01*
X55414530Y-30998014D01*
X55393947Y-31128435D01*
X55393942Y-31128517D01*
X55395722Y-31274290D01*
X55423387Y-31381245D01*
X55478571Y-31454064D01*
X55516192Y-31478723D01*
X55616105Y-31509431D01*
X55722822Y-31509449D01*
X55815669Y-31479655D01*
X55837647Y-31465098D01*
X55892765Y-31427914D01*
X55935859Y-31421820D01*
X55982335Y-31449496D01*
X56033716Y-31499205D01*
X56115046Y-31583116D01*
X56024749Y-31657546D01*
X55885236Y-31741549D01*
X55727912Y-31782947D01*
X55563503Y-31779950D01*
X55455531Y-31752500D01*
X55329331Y-31684620D01*
X55228401Y-31577831D01*
X55182548Y-31502451D01*
X55145410Y-31394297D01*
X55126827Y-31257318D01*
X55126684Y-31108864D01*
X55144865Y-30966281D01*
X55181255Y-30846918D01*
X55186987Y-30834680D01*
X55271865Y-30714655D01*
X55386782Y-30627267D01*
X55522659Y-30574329D01*
X55670417Y-30557654D01*
X55820976Y-30579056D01*
X55820976Y-30579056D01*
G37*
X55820976Y-30579056D02*
X55965256Y-30640348D01*
X56010699Y-30670185D01*
X56068779Y-30716036D01*
X56105238Y-30752089D01*
X56111568Y-30763832D01*
X56093693Y-30789889D01*
X56047950Y-30834105D01*
X56011328Y-30864965D01*
X55911088Y-30945520D01*
X55831935Y-30878918D01*
X55770769Y-30835921D01*
X55711129Y-30821079D01*
X55642872Y-30824704D01*
X55534482Y-30851652D01*
X55459872Y-30907587D01*
X55414530Y-30998014D01*
X55393947Y-31128435D01*
X55393942Y-31128517D01*
X55395722Y-31274290D01*
X55423387Y-31381245D01*
X55478571Y-31454064D01*
X55516192Y-31478723D01*
X55616105Y-31509431D01*
X55722822Y-31509449D01*
X55815669Y-31479655D01*
X55837647Y-31465098D01*
X55892765Y-31427914D01*
X55935859Y-31421820D01*
X55982335Y-31449496D01*
X56033716Y-31499205D01*
X56115046Y-31583116D01*
X56024749Y-31657546D01*
X55885236Y-31741549D01*
X55727912Y-31782947D01*
X55563503Y-31779950D01*
X55455531Y-31752500D01*
X55329331Y-31684620D01*
X55228401Y-31577831D01*
X55182548Y-31502451D01*
X55145410Y-31394297D01*
X55126827Y-31257318D01*
X55126684Y-31108864D01*
X55144865Y-30966281D01*
X55181255Y-30846918D01*
X55186987Y-30834680D01*
X55271865Y-30714655D01*
X55386782Y-30627267D01*
X55522659Y-30574329D01*
X55670417Y-30557654D01*
X55820976Y-30579056D01*
G36*
X53397254Y-30956245D02*
X53399608Y-31138879D01*
X53408207Y-31277600D01*
X53425360Y-31378147D01*
X53453374Y-31446254D01*
X53494557Y-31487659D01*
X53551217Y-31508097D01*
X53621372Y-31513318D01*
X53694848Y-31507468D01*
X53750657Y-31486093D01*
X53791109Y-31443458D01*
X53818509Y-31373825D01*
X53835167Y-31271460D01*
X53843389Y-31130624D01*
X53845490Y-30956245D01*
X53845490Y-30568628D01*
X54119411Y-30568628D01*
X54119411Y-31763922D01*
X53982451Y-31763922D01*
X53899884Y-31760576D01*
X53857368Y-31748826D01*
X53845490Y-31726520D01*
X53838336Y-31706654D01*
X53809865Y-31710857D01*
X53752476Y-31738971D01*
X53620945Y-31782342D01*
X53481438Y-31779270D01*
X53347765Y-31732174D01*
X53284108Y-31694971D01*
X53235553Y-31654691D01*
X53200081Y-31604291D01*
X53175674Y-31536729D01*
X53160313Y-31444965D01*
X53151982Y-31321955D01*
X53148662Y-31160659D01*
X53148235Y-31035928D01*
X53148235Y-30568628D01*
X53397254Y-30568628D01*
X53397254Y-30956245D01*
X53397254Y-30956245D01*
G37*
X53397254Y-30956245D02*
X53399608Y-31138879D01*
X53408207Y-31277600D01*
X53425360Y-31378147D01*
X53453374Y-31446254D01*
X53494557Y-31487659D01*
X53551217Y-31508097D01*
X53621372Y-31513318D01*
X53694848Y-31507468D01*
X53750657Y-31486093D01*
X53791109Y-31443458D01*
X53818509Y-31373825D01*
X53835167Y-31271460D01*
X53843389Y-31130624D01*
X53845490Y-30956245D01*
X53845490Y-30568628D01*
X54119411Y-30568628D01*
X54119411Y-31763922D01*
X53982451Y-31763922D01*
X53899884Y-31760576D01*
X53857368Y-31748826D01*
X53845490Y-31726520D01*
X53838336Y-31706654D01*
X53809865Y-31710857D01*
X53752476Y-31738971D01*
X53620945Y-31782342D01*
X53481438Y-31779270D01*
X53347765Y-31732174D01*
X53284108Y-31694971D01*
X53235553Y-31654691D01*
X53200081Y-31604291D01*
X53175674Y-31536729D01*
X53160313Y-31444965D01*
X53151982Y-31321955D01*
X53148662Y-31160659D01*
X53148235Y-31035928D01*
X53148235Y-30568628D01*
X53397254Y-30568628D01*
X53397254Y-30956245D01*
G36*
X52639547Y-30583364D02*
X52765502Y-30651959D01*
X52864047Y-30760245D01*
X52910478Y-30848315D01*
X52930412Y-30926101D01*
X52943328Y-31036993D01*
X52948863Y-31164738D01*
X52946654Y-31293084D01*
X52936337Y-31405779D01*
X52924286Y-31465969D01*
X52883634Y-31548311D01*
X52813230Y-31635770D01*
X52728382Y-31712251D01*
X52644397Y-31761655D01*
X52642349Y-31762439D01*
X52538134Y-31784027D01*
X52414627Y-31784562D01*
X52297261Y-31764908D01*
X52251942Y-31749155D01*
X52135220Y-31682966D01*
X52051624Y-31596246D01*
X51996701Y-31481438D01*
X51965995Y-31330982D01*
X51959047Y-31252173D01*
X51959933Y-31153145D01*
X52226862Y-31153145D01*
X52235854Y-31297645D01*
X52261736Y-31407760D01*
X52302868Y-31478116D01*
X52332172Y-31498235D01*
X52407251Y-31512265D01*
X52496494Y-31508111D01*
X52573650Y-31487922D01*
X52593883Y-31476815D01*
X52647265Y-31412123D01*
X52682500Y-31313119D01*
X52697498Y-31192632D01*
X52690172Y-31063494D01*
X52673799Y-30985775D01*
X52626790Y-30895771D01*
X52552582Y-30839509D01*
X52463209Y-30820057D01*
X52370707Y-30840481D01*
X52299653Y-30890437D01*
X52262312Y-30931655D01*
X52240518Y-30972281D01*
X52230130Y-31027264D01*
X52227006Y-31111549D01*
X52226862Y-31153145D01*
X51959933Y-31153145D01*
X51960930Y-31041874D01*
X51995180Y-30869423D01*
X52061802Y-30734814D01*
X52160799Y-30638040D01*
X52292175Y-30579094D01*
X52320385Y-30572259D01*
X52489926Y-30556213D01*
X52639547Y-30583364D01*
X52639547Y-30583364D01*
G37*
X52639547Y-30583364D02*
X52765502Y-30651959D01*
X52864047Y-30760245D01*
X52910478Y-30848315D01*
X52930412Y-30926101D01*
X52943328Y-31036993D01*
X52948863Y-31164738D01*
X52946654Y-31293084D01*
X52936337Y-31405779D01*
X52924286Y-31465969D01*
X52883634Y-31548311D01*
X52813230Y-31635770D01*
X52728382Y-31712251D01*
X52644397Y-31761655D01*
X52642349Y-31762439D01*
X52538134Y-31784027D01*
X52414627Y-31784562D01*
X52297261Y-31764908D01*
X52251942Y-31749155D01*
X52135220Y-31682966D01*
X52051624Y-31596246D01*
X51996701Y-31481438D01*
X51965995Y-31330982D01*
X51959047Y-31252173D01*
X51959933Y-31153145D01*
X52226862Y-31153145D01*
X52235854Y-31297645D01*
X52261736Y-31407760D01*
X52302868Y-31478116D01*
X52332172Y-31498235D01*
X52407251Y-31512265D01*
X52496494Y-31508111D01*
X52573650Y-31487922D01*
X52593883Y-31476815D01*
X52647265Y-31412123D01*
X52682500Y-31313119D01*
X52697498Y-31192632D01*
X52690172Y-31063494D01*
X52673799Y-30985775D01*
X52626790Y-30895771D01*
X52552582Y-30839509D01*
X52463209Y-30820057D01*
X52370707Y-30840481D01*
X52299653Y-30890437D01*
X52262312Y-30931655D01*
X52240518Y-30972281D01*
X52230130Y-31027264D01*
X52227006Y-31111549D01*
X52226862Y-31153145D01*
X51959933Y-31153145D01*
X51960930Y-31041874D01*
X51995180Y-30869423D01*
X52061802Y-30734814D01*
X52160799Y-30638040D01*
X52292175Y-30579094D01*
X52320385Y-30572259D01*
X52489926Y-30556213D01*
X52639547Y-30583364D01*
G36*
X51457759Y-30564345D02*
X51552059Y-30582229D01*
X51649890Y-30619633D01*
X51660343Y-30624402D01*
X51734531Y-30663412D01*
X51785910Y-30699664D01*
X51802517Y-30722887D01*
X51786702Y-30760761D01*
X51748288Y-30816644D01*
X51731237Y-30837505D01*
X51660969Y-30919618D01*
X51570379Y-30866168D01*
X51484164Y-30830561D01*
X51384549Y-30811529D01*
X51289019Y-30810326D01*
X51215061Y-30828210D01*
X51197312Y-30839373D01*
X51163512Y-30890553D01*
X51159404Y-30949509D01*
X51184696Y-30995567D01*
X51199656Y-31004499D01*
X51244486Y-31015592D01*
X51323286Y-31028630D01*
X51420426Y-31041088D01*
X51438346Y-31043042D01*
X51594365Y-31070030D01*
X51707523Y-31115873D01*
X51782569Y-31184803D01*
X51824253Y-31281054D01*
X51837238Y-31398617D01*
X51819299Y-31532254D01*
X51761050Y-31637195D01*
X51662255Y-31713630D01*
X51522682Y-31761748D01*
X51367745Y-31780732D01*
X51241398Y-31780504D01*
X51138913Y-31763262D01*
X51068921Y-31739457D01*
X50980483Y-31697978D01*
X50898754Y-31649842D01*
X50869705Y-31628655D01*
X50795000Y-31567676D01*
X50885098Y-31476508D01*
X50975196Y-31385339D01*
X51077632Y-31453128D01*
X51180374Y-31504042D01*
X51290087Y-31530673D01*
X51395551Y-31533483D01*
X51485546Y-31512935D01*
X51548854Y-31469493D01*
X51569296Y-31432838D01*
X51566229Y-31374053D01*
X51515434Y-31329099D01*
X51417048Y-31298057D01*
X51309256Y-31283710D01*
X51143365Y-31256337D01*
X51020124Y-31204693D01*
X50937886Y-31127266D01*
X50895001Y-31022544D01*
X50889060Y-30898387D01*
X50918406Y-30768702D01*
X50985309Y-30670677D01*
X51090371Y-30603866D01*
X51234190Y-30567820D01*
X51340738Y-30560754D01*
X51457759Y-30564345D01*
X51457759Y-30564345D01*
G37*
X51457759Y-30564345D02*
X51552059Y-30582229D01*
X51649890Y-30619633D01*
X51660343Y-30624402D01*
X51734531Y-30663412D01*
X51785910Y-30699664D01*
X51802517Y-30722887D01*
X51786702Y-30760761D01*
X51748288Y-30816644D01*
X51731237Y-30837505D01*
X51660969Y-30919618D01*
X51570379Y-30866168D01*
X51484164Y-30830561D01*
X51384549Y-30811529D01*
X51289019Y-30810326D01*
X51215061Y-30828210D01*
X51197312Y-30839373D01*
X51163512Y-30890553D01*
X51159404Y-30949509D01*
X51184696Y-30995567D01*
X51199656Y-31004499D01*
X51244486Y-31015592D01*
X51323286Y-31028630D01*
X51420426Y-31041088D01*
X51438346Y-31043042D01*
X51594365Y-31070030D01*
X51707523Y-31115873D01*
X51782569Y-31184803D01*
X51824253Y-31281054D01*
X51837238Y-31398617D01*
X51819299Y-31532254D01*
X51761050Y-31637195D01*
X51662255Y-31713630D01*
X51522682Y-31761748D01*
X51367745Y-31780732D01*
X51241398Y-31780504D01*
X51138913Y-31763262D01*
X51068921Y-31739457D01*
X50980483Y-31697978D01*
X50898754Y-31649842D01*
X50869705Y-31628655D01*
X50795000Y-31567676D01*
X50885098Y-31476508D01*
X50975196Y-31385339D01*
X51077632Y-31453128D01*
X51180374Y-31504042D01*
X51290087Y-31530673D01*
X51395551Y-31533483D01*
X51485546Y-31512935D01*
X51548854Y-31469493D01*
X51569296Y-31432838D01*
X51566229Y-31374053D01*
X51515434Y-31329099D01*
X51417048Y-31298057D01*
X51309256Y-31283710D01*
X51143365Y-31256337D01*
X51020124Y-31204693D01*
X50937886Y-31127266D01*
X50895001Y-31022544D01*
X50889060Y-30898387D01*
X50918406Y-30768702D01*
X50985309Y-30670677D01*
X51090371Y-30603866D01*
X51234190Y-30567820D01*
X51340738Y-30560754D01*
X51457759Y-30564345D01*
G36*
X48743204Y-30596354D02*
X48768019Y-30608037D01*
X48853906Y-30670951D01*
X48935121Y-30762769D01*
X48995764Y-30863868D01*
X49013012Y-30910349D01*
X49028749Y-30993376D01*
X49038133Y-31093713D01*
X49039272Y-31135147D01*
X49039411Y-31265882D01*
X48286953Y-31265882D01*
X48302993Y-31334363D01*
X48342363Y-31415355D01*
X48411194Y-31485351D01*
X48493081Y-31530441D01*
X48545263Y-31539804D01*
X48616029Y-31528441D01*
X48700460Y-31499943D01*
X48729142Y-31486831D01*
X48835209Y-31433858D01*
X48925728Y-31502901D01*
X48977961Y-31549597D01*
X49005753Y-31588140D01*
X49007160Y-31599452D01*
X48982332Y-31626868D01*
X48927917Y-31668532D01*
X48878528Y-31701037D01*
X48745252Y-31759468D01*
X48595839Y-31785915D01*
X48447751Y-31779039D01*
X48329705Y-31743096D01*
X48208018Y-31666101D01*
X48121540Y-31564728D01*
X48067441Y-31433570D01*
X48042891Y-31267224D01*
X48040714Y-31191108D01*
X48049427Y-31016685D01*
X48050497Y-31011611D01*
X48299827Y-31011611D01*
X48306694Y-31027968D01*
X48334917Y-31036988D01*
X48393127Y-31040854D01*
X48489958Y-31041749D01*
X48527243Y-31041765D01*
X48640683Y-31040413D01*
X48712622Y-31035505D01*
X48751313Y-31025760D01*
X48765005Y-31009899D01*
X48765490Y-31004805D01*
X48749863Y-30964326D01*
X48710753Y-30907621D01*
X48693939Y-30887766D01*
X48631519Y-30831611D01*
X48566453Y-30809532D01*
X48531397Y-30807686D01*
X48436558Y-30830766D01*
X48357027Y-30892759D01*
X48306577Y-30982802D01*
X48305683Y-30985735D01*
X48299827Y-31011611D01*
X48050497Y-31011611D01*
X48078399Y-30879343D01*
X48130590Y-30769461D01*
X48194421Y-30691461D01*
X48312433Y-30606882D01*
X48451158Y-30561686D01*
X48598710Y-30557600D01*
X48743204Y-30596354D01*
X48743204Y-30596354D01*
G37*
X48743204Y-30596354D02*
X48768019Y-30608037D01*
X48853906Y-30670951D01*
X48935121Y-30762769D01*
X48995764Y-30863868D01*
X49013012Y-30910349D01*
X49028749Y-30993376D01*
X49038133Y-31093713D01*
X49039272Y-31135147D01*
X49039411Y-31265882D01*
X48286953Y-31265882D01*
X48302993Y-31334363D01*
X48342363Y-31415355D01*
X48411194Y-31485351D01*
X48493081Y-31530441D01*
X48545263Y-31539804D01*
X48616029Y-31528441D01*
X48700460Y-31499943D01*
X48729142Y-31486831D01*
X48835209Y-31433858D01*
X48925728Y-31502901D01*
X48977961Y-31549597D01*
X49005753Y-31588140D01*
X49007160Y-31599452D01*
X48982332Y-31626868D01*
X48927917Y-31668532D01*
X48878528Y-31701037D01*
X48745252Y-31759468D01*
X48595839Y-31785915D01*
X48447751Y-31779039D01*
X48329705Y-31743096D01*
X48208018Y-31666101D01*
X48121540Y-31564728D01*
X48067441Y-31433570D01*
X48042891Y-31267224D01*
X48040714Y-31191108D01*
X48049427Y-31016685D01*
X48050497Y-31011611D01*
X48299827Y-31011611D01*
X48306694Y-31027968D01*
X48334917Y-31036988D01*
X48393127Y-31040854D01*
X48489958Y-31041749D01*
X48527243Y-31041765D01*
X48640683Y-31040413D01*
X48712622Y-31035505D01*
X48751313Y-31025760D01*
X48765005Y-31009899D01*
X48765490Y-31004805D01*
X48749863Y-30964326D01*
X48710753Y-30907621D01*
X48693939Y-30887766D01*
X48631519Y-30831611D01*
X48566453Y-30809532D01*
X48531397Y-30807686D01*
X48436558Y-30830766D01*
X48357027Y-30892759D01*
X48306577Y-30982802D01*
X48305683Y-30985735D01*
X48299827Y-31011611D01*
X48050497Y-31011611D01*
X48078399Y-30879343D01*
X48130590Y-30769461D01*
X48194421Y-30691461D01*
X48312433Y-30606882D01*
X48451158Y-30561686D01*
X48598710Y-30557600D01*
X48743204Y-30596354D01*
G36*
X46403247Y-30581568D02*
X46533522Y-30639163D01*
X46632419Y-30735334D01*
X46700082Y-30870229D01*
X46736655Y-31043996D01*
X46739276Y-31071126D01*
X46741330Y-31262408D01*
X46714699Y-31430073D01*
X46661001Y-31565967D01*
X46632247Y-31609681D01*
X46532091Y-31702198D01*
X46404537Y-31762119D01*
X46261837Y-31786985D01*
X46116240Y-31774339D01*
X46005562Y-31735391D01*
X45910384Y-31669755D01*
X45832594Y-31583699D01*
X45831249Y-31581685D01*
X45799657Y-31528570D01*
X45779127Y-31475160D01*
X45766695Y-31407754D01*
X45759397Y-31312653D01*
X45756182Y-31234666D01*
X45754844Y-31163944D01*
X46003814Y-31163944D01*
X46006247Y-31234348D01*
X46015080Y-31328068D01*
X46030664Y-31388214D01*
X46058766Y-31431006D01*
X46085086Y-31456002D01*
X46178392Y-31508338D01*
X46276020Y-31515333D01*
X46366942Y-31477676D01*
X46412402Y-31435479D01*
X46445162Y-31392956D01*
X46464323Y-31352267D01*
X46472733Y-31299314D01*
X46473237Y-31219997D01*
X46470645Y-31146950D01*
X46465071Y-31042601D01*
X46456234Y-30974920D01*
X46440307Y-30930774D01*
X46413462Y-30897031D01*
X46392189Y-30877746D01*
X46303206Y-30827086D01*
X46207211Y-30824560D01*
X46126719Y-30854567D01*
X46058053Y-30917231D01*
X46017144Y-31020168D01*
X46003814Y-31163944D01*
X45754844Y-31163944D01*
X45753246Y-31079582D01*
X45758260Y-30963600D01*
X45773283Y-30876367D01*
X45800376Y-30807530D01*
X45841600Y-30746737D01*
X45856885Y-30728686D01*
X45952454Y-30638746D01*
X46054961Y-30586211D01*
X46180321Y-30564201D01*
X46241450Y-30562402D01*
X46403247Y-30581568D01*
X46403247Y-30581568D01*
G37*
X46403247Y-30581568D02*
X46533522Y-30639163D01*
X46632419Y-30735334D01*
X46700082Y-30870229D01*
X46736655Y-31043996D01*
X46739276Y-31071126D01*
X46741330Y-31262408D01*
X46714699Y-31430073D01*
X46661001Y-31565967D01*
X46632247Y-31609681D01*
X46532091Y-31702198D01*
X46404537Y-31762119D01*
X46261837Y-31786985D01*
X46116240Y-31774339D01*
X46005562Y-31735391D01*
X45910384Y-31669755D01*
X45832594Y-31583699D01*
X45831249Y-31581685D01*
X45799657Y-31528570D01*
X45779127Y-31475160D01*
X45766695Y-31407754D01*
X45759397Y-31312653D01*
X45756182Y-31234666D01*
X45754844Y-31163944D01*
X46003814Y-31163944D01*
X46006247Y-31234348D01*
X46015080Y-31328068D01*
X46030664Y-31388214D01*
X46058766Y-31431006D01*
X46085086Y-31456002D01*
X46178392Y-31508338D01*
X46276020Y-31515333D01*
X46366942Y-31477676D01*
X46412402Y-31435479D01*
X46445162Y-31392956D01*
X46464323Y-31352267D01*
X46472733Y-31299314D01*
X46473237Y-31219997D01*
X46470645Y-31146950D01*
X46465071Y-31042601D01*
X46456234Y-30974920D01*
X46440307Y-30930774D01*
X46413462Y-30897031D01*
X46392189Y-30877746D01*
X46303206Y-30827086D01*
X46207211Y-30824560D01*
X46126719Y-30854567D01*
X46058053Y-30917231D01*
X46017144Y-31020168D01*
X46003814Y-31163944D01*
X45754844Y-31163944D01*
X45753246Y-31079582D01*
X45758260Y-30963600D01*
X45773283Y-30876367D01*
X45800376Y-30807530D01*
X45841600Y-30746737D01*
X45856885Y-30728686D01*
X45952454Y-30638746D01*
X46054961Y-30586211D01*
X46180321Y-30564201D01*
X46241450Y-30562402D01*
X46403247Y-30581568D01*
G36*
X55455307Y-32442784D02*
X55574337Y-32473731D01*
X55674021Y-32537600D01*
X55722288Y-32585313D01*
X55801408Y-32698106D01*
X55846752Y-32828950D01*
X55862330Y-32989792D01*
X55862410Y-33002794D01*
X55862549Y-33133530D01*
X55110091Y-33133530D01*
X55126130Y-33202010D01*
X55155091Y-33264031D01*
X55205778Y-33328654D01*
X55216379Y-33338971D01*
X55307494Y-33394805D01*
X55411400Y-33404275D01*
X55531000Y-33367540D01*
X55551274Y-33357647D01*
X55613456Y-33327574D01*
X55655106Y-33310440D01*
X55662373Y-33308855D01*
X55687740Y-33324242D01*
X55736120Y-33361887D01*
X55760679Y-33382459D01*
X55811570Y-33429714D01*
X55828281Y-33460917D01*
X55816683Y-33489620D01*
X55810483Y-33497468D01*
X55768493Y-33531819D01*
X55699206Y-33573565D01*
X55650882Y-33597935D01*
X55513711Y-33640873D01*
X55361847Y-33654786D01*
X55218024Y-33638300D01*
X55177745Y-33626496D01*
X55053078Y-33559689D01*
X54960671Y-33456892D01*
X54899990Y-33317105D01*
X54870498Y-33139330D01*
X54867260Y-33046373D01*
X54876714Y-32911033D01*
X55115490Y-32911033D01*
X55138584Y-32921038D01*
X55200662Y-32928888D01*
X55290914Y-32933521D01*
X55352058Y-32934314D01*
X55462040Y-32933549D01*
X55531457Y-32929970D01*
X55569538Y-32921649D01*
X55585515Y-32906657D01*
X55588627Y-32884903D01*
X55567278Y-32817892D01*
X55513529Y-32751664D01*
X55442822Y-32700832D01*
X55372089Y-32680038D01*
X55276016Y-32698484D01*
X55192849Y-32751811D01*
X55135186Y-32828677D01*
X55115490Y-32911033D01*
X54876714Y-32911033D01*
X54881028Y-32849291D01*
X54923520Y-32692271D01*
X54995635Y-32574069D01*
X55098273Y-32493440D01*
X55232332Y-32449139D01*
X55304957Y-32440607D01*
X55455307Y-32442784D01*
X55455307Y-32442784D01*
G37*
X55455307Y-32442784D02*
X55574337Y-32473731D01*
X55674021Y-32537600D01*
X55722288Y-32585313D01*
X55801408Y-32698106D01*
X55846752Y-32828950D01*
X55862330Y-32989792D01*
X55862410Y-33002794D01*
X55862549Y-33133530D01*
X55110091Y-33133530D01*
X55126130Y-33202010D01*
X55155091Y-33264031D01*
X55205778Y-33328654D01*
X55216379Y-33338971D01*
X55307494Y-33394805D01*
X55411400Y-33404275D01*
X55531000Y-33367540D01*
X55551274Y-33357647D01*
X55613456Y-33327574D01*
X55655106Y-33310440D01*
X55662373Y-33308855D01*
X55687740Y-33324242D01*
X55736120Y-33361887D01*
X55760679Y-33382459D01*
X55811570Y-33429714D01*
X55828281Y-33460917D01*
X55816683Y-33489620D01*
X55810483Y-33497468D01*
X55768493Y-33531819D01*
X55699206Y-33573565D01*
X55650882Y-33597935D01*
X55513711Y-33640873D01*
X55361847Y-33654786D01*
X55218024Y-33638300D01*
X55177745Y-33626496D01*
X55053078Y-33559689D01*
X54960671Y-33456892D01*
X54899990Y-33317105D01*
X54870498Y-33139330D01*
X54867260Y-33046373D01*
X54876714Y-32911033D01*
X55115490Y-32911033D01*
X55138584Y-32921038D01*
X55200662Y-32928888D01*
X55290914Y-32933521D01*
X55352058Y-32934314D01*
X55462040Y-32933549D01*
X55531457Y-32929970D01*
X55569538Y-32921649D01*
X55585515Y-32906657D01*
X55588627Y-32884903D01*
X55567278Y-32817892D01*
X55513529Y-32751664D01*
X55442822Y-32700832D01*
X55372089Y-32680038D01*
X55276016Y-32698484D01*
X55192849Y-32751811D01*
X55135186Y-32828677D01*
X55115490Y-32911033D01*
X54876714Y-32911033D01*
X54881028Y-32849291D01*
X54923520Y-32692271D01*
X54995635Y-32574069D01*
X55098273Y-32493440D01*
X55232332Y-32449139D01*
X55304957Y-32440607D01*
X55455307Y-32442784D01*
G36*
X54668446Y-32435883D02*
X54764177Y-32454755D01*
X54818677Y-32482699D01*
X54876008Y-32529123D01*
X54794441Y-32632111D01*
X54744150Y-32694479D01*
X54710001Y-32724907D01*
X54676063Y-32729555D01*
X54626406Y-32714586D01*
X54603096Y-32706117D01*
X54508063Y-32693622D01*
X54421032Y-32720406D01*
X54357138Y-32780915D01*
X54346759Y-32800208D01*
X54335456Y-32851314D01*
X54326732Y-32945500D01*
X54320997Y-33076089D01*
X54318660Y-33236405D01*
X54318627Y-33259211D01*
X54318627Y-33656471D01*
X54044705Y-33656471D01*
X54044705Y-32436275D01*
X54181666Y-32436275D01*
X54260638Y-32438337D01*
X54301779Y-32447513D01*
X54316992Y-32468290D01*
X54318627Y-32487886D01*
X54318627Y-32539497D01*
X54384240Y-32487886D01*
X54459475Y-32452675D01*
X54560544Y-32435265D01*
X54668446Y-32435883D01*
X54668446Y-32435883D01*
G37*
X54668446Y-32435883D02*
X54764177Y-32454755D01*
X54818677Y-32482699D01*
X54876008Y-32529123D01*
X54794441Y-32632111D01*
X54744150Y-32694479D01*
X54710001Y-32724907D01*
X54676063Y-32729555D01*
X54626406Y-32714586D01*
X54603096Y-32706117D01*
X54508063Y-32693622D01*
X54421032Y-32720406D01*
X54357138Y-32780915D01*
X54346759Y-32800208D01*
X54335456Y-32851314D01*
X54326732Y-32945500D01*
X54320997Y-33076089D01*
X54318660Y-33236405D01*
X54318627Y-33259211D01*
X54318627Y-33656471D01*
X54044705Y-33656471D01*
X54044705Y-32436275D01*
X54181666Y-32436275D01*
X54260638Y-32438337D01*
X54301779Y-32447513D01*
X54316992Y-32468290D01*
X54318627Y-32487886D01*
X54318627Y-32539497D01*
X54384240Y-32487886D01*
X54459475Y-32452675D01*
X54560544Y-32435265D01*
X54668446Y-32435883D01*
G36*
X53486459Y-32443669D02*
X53591420Y-32469163D01*
X53621761Y-32482669D01*
X53680573Y-32518046D01*
X53725709Y-32557890D01*
X53759106Y-32609120D01*
X53782701Y-32678654D01*
X53798433Y-32773409D01*
X53808239Y-32900305D01*
X53814057Y-33066258D01*
X53816266Y-33177108D01*
X53824396Y-33656471D01*
X53685531Y-33656471D01*
X53601287Y-33652938D01*
X53557884Y-33640866D01*
X53546666Y-33620594D01*
X53540744Y-33598674D01*
X53514266Y-33602865D01*
X53478186Y-33620441D01*
X53387862Y-33647382D01*
X53271777Y-33654642D01*
X53149680Y-33642767D01*
X53041321Y-33612305D01*
X53031602Y-33608077D01*
X52932568Y-33538505D01*
X52867281Y-33441789D01*
X52837240Y-33328738D01*
X52839535Y-33288122D01*
X53084633Y-33288122D01*
X53106229Y-33342782D01*
X53170259Y-33381952D01*
X53273565Y-33402974D01*
X53328774Y-33405766D01*
X53420782Y-33398620D01*
X53481941Y-33370848D01*
X53496862Y-33357647D01*
X53537287Y-33285829D01*
X53546666Y-33220686D01*
X53546666Y-33133530D01*
X53425269Y-33133530D01*
X53284153Y-33140722D01*
X53185173Y-33163345D01*
X53122633Y-33202964D01*
X53108631Y-33220628D01*
X53084633Y-33288122D01*
X52839535Y-33288122D01*
X52843941Y-33210157D01*
X52888880Y-33096855D01*
X52950196Y-33020285D01*
X52987332Y-32987181D01*
X53023687Y-32965425D01*
X53070990Y-32952161D01*
X53140973Y-32944528D01*
X53245364Y-32939670D01*
X53286770Y-32938273D01*
X53546666Y-32929780D01*
X53546285Y-32851116D01*
X53536219Y-32768428D01*
X53499829Y-32718431D01*
X53426311Y-32686489D01*
X53424339Y-32685920D01*
X53320105Y-32673361D01*
X53218108Y-32689766D01*
X53142305Y-32729657D01*
X53111890Y-32749354D01*
X53079132Y-32746629D01*
X53028721Y-32718091D01*
X52999119Y-32697950D01*
X52941218Y-32654919D01*
X52905352Y-32622662D01*
X52899597Y-32613427D01*
X52923295Y-32565636D01*
X52993313Y-32508562D01*
X53023725Y-32489305D01*
X53111155Y-32456140D01*
X53228983Y-32437350D01*
X53359866Y-32433129D01*
X53486459Y-32443669D01*
X53486459Y-32443669D01*
G37*
X53486459Y-32443669D02*
X53591420Y-32469163D01*
X53621761Y-32482669D01*
X53680573Y-32518046D01*
X53725709Y-32557890D01*
X53759106Y-32609120D01*
X53782701Y-32678654D01*
X53798433Y-32773409D01*
X53808239Y-32900305D01*
X53814057Y-33066258D01*
X53816266Y-33177108D01*
X53824396Y-33656471D01*
X53685531Y-33656471D01*
X53601287Y-33652938D01*
X53557884Y-33640866D01*
X53546666Y-33620594D01*
X53540744Y-33598674D01*
X53514266Y-33602865D01*
X53478186Y-33620441D01*
X53387862Y-33647382D01*
X53271777Y-33654642D01*
X53149680Y-33642767D01*
X53041321Y-33612305D01*
X53031602Y-33608077D01*
X52932568Y-33538505D01*
X52867281Y-33441789D01*
X52837240Y-33328738D01*
X52839535Y-33288122D01*
X53084633Y-33288122D01*
X53106229Y-33342782D01*
X53170259Y-33381952D01*
X53273565Y-33402974D01*
X53328774Y-33405766D01*
X53420782Y-33398620D01*
X53481941Y-33370848D01*
X53496862Y-33357647D01*
X53537287Y-33285829D01*
X53546666Y-33220686D01*
X53546666Y-33133530D01*
X53425269Y-33133530D01*
X53284153Y-33140722D01*
X53185173Y-33163345D01*
X53122633Y-33202964D01*
X53108631Y-33220628D01*
X53084633Y-33288122D01*
X52839535Y-33288122D01*
X52843941Y-33210157D01*
X52888880Y-33096855D01*
X52950196Y-33020285D01*
X52987332Y-32987181D01*
X53023687Y-32965425D01*
X53070990Y-32952161D01*
X53140973Y-32944528D01*
X53245364Y-32939670D01*
X53286770Y-32938273D01*
X53546666Y-32929780D01*
X53546285Y-32851116D01*
X53536219Y-32768428D01*
X53499829Y-32718431D01*
X53426311Y-32686489D01*
X53424339Y-32685920D01*
X53320105Y-32673361D01*
X53218108Y-32689766D01*
X53142305Y-32729657D01*
X53111890Y-32749354D01*
X53079132Y-32746629D01*
X53028721Y-32718091D01*
X52999119Y-32697950D01*
X52941218Y-32654919D01*
X52905352Y-32622662D01*
X52899597Y-32613427D01*
X52923295Y-32565636D01*
X52993313Y-32508562D01*
X53023725Y-32489305D01*
X53111155Y-32456140D01*
X53228983Y-32437350D01*
X53359866Y-32433129D01*
X53486459Y-32443669D01*
G36*
X51987528Y-32441332D02*
X52086014Y-32448726D01*
X52214776Y-32834706D01*
X52343537Y-33220686D01*
X52383911Y-33083726D01*
X52408207Y-32999083D01*
X52440167Y-32884697D01*
X52474679Y-32758963D01*
X52492928Y-32691520D01*
X52561571Y-32436275D01*
X52844773Y-32436275D01*
X52760122Y-32703971D01*
X52718435Y-32835638D01*
X52668074Y-32994458D01*
X52615481Y-33160128D01*
X52568530Y-33307843D01*
X52461589Y-33644020D01*
X52230661Y-33659044D01*
X52168050Y-33452316D01*
X52129438Y-33323896D01*
X52087300Y-33182322D01*
X52050472Y-33057285D01*
X52049018Y-33052309D01*
X52021511Y-32967586D01*
X51997242Y-32909778D01*
X51980243Y-32887918D01*
X51976750Y-32890446D01*
X51964490Y-32924336D01*
X51941195Y-32996930D01*
X51909700Y-33099101D01*
X51872842Y-33221720D01*
X51852899Y-33289167D01*
X51744895Y-33656471D01*
X51515679Y-33656471D01*
X51332439Y-33077500D01*
X51280963Y-32915091D01*
X51234070Y-32767602D01*
X51193977Y-32641960D01*
X51162897Y-32545095D01*
X51143045Y-32483934D01*
X51137011Y-32466065D01*
X51141788Y-32447768D01*
X51179297Y-32439755D01*
X51257355Y-32440557D01*
X51269574Y-32441163D01*
X51414326Y-32448726D01*
X51509130Y-32797353D01*
X51543977Y-32924497D01*
X51575117Y-33036265D01*
X51599809Y-33122953D01*
X51615312Y-33174856D01*
X51618176Y-33183318D01*
X51630046Y-33173587D01*
X51653983Y-33123172D01*
X51687239Y-33038935D01*
X51727064Y-32927741D01*
X51760730Y-32827297D01*
X51889041Y-32433939D01*
X51987528Y-32441332D01*
X51987528Y-32441332D01*
G37*
X51987528Y-32441332D02*
X52086014Y-32448726D01*
X52214776Y-32834706D01*
X52343537Y-33220686D01*
X52383911Y-33083726D01*
X52408207Y-32999083D01*
X52440167Y-32884697D01*
X52474679Y-32758963D01*
X52492928Y-32691520D01*
X52561571Y-32436275D01*
X52844773Y-32436275D01*
X52760122Y-32703971D01*
X52718435Y-32835638D01*
X52668074Y-32994458D01*
X52615481Y-33160128D01*
X52568530Y-33307843D01*
X52461589Y-33644020D01*
X52230661Y-33659044D01*
X52168050Y-33452316D01*
X52129438Y-33323896D01*
X52087300Y-33182322D01*
X52050472Y-33057285D01*
X52049018Y-33052309D01*
X52021511Y-32967586D01*
X51997242Y-32909778D01*
X51980243Y-32887918D01*
X51976750Y-32890446D01*
X51964490Y-32924336D01*
X51941195Y-32996930D01*
X51909700Y-33099101D01*
X51872842Y-33221720D01*
X51852899Y-33289167D01*
X51744895Y-33656471D01*
X51515679Y-33656471D01*
X51332439Y-33077500D01*
X51280963Y-32915091D01*
X51234070Y-32767602D01*
X51193977Y-32641960D01*
X51162897Y-32545095D01*
X51143045Y-32483934D01*
X51137011Y-32466065D01*
X51141788Y-32447768D01*
X51179297Y-32439755D01*
X51257355Y-32440557D01*
X51269574Y-32441163D01*
X51414326Y-32448726D01*
X51509130Y-32797353D01*
X51543977Y-32924497D01*
X51575117Y-33036265D01*
X51599809Y-33122953D01*
X51615312Y-33174856D01*
X51618176Y-33183318D01*
X51630046Y-33173587D01*
X51653983Y-33123172D01*
X51687239Y-33038935D01*
X51727064Y-32927741D01*
X51760730Y-32827297D01*
X51889041Y-32433939D01*
X51987528Y-32441332D01*
G36*
X51031568Y-33656471D02*
X50894607Y-33656471D01*
X50815111Y-33654140D01*
X50773708Y-33644488D01*
X50758801Y-33623525D01*
X50757647Y-33609351D01*
X50755133Y-33580927D01*
X50739280Y-33575475D01*
X50697621Y-33592998D01*
X50665224Y-33609351D01*
X50540849Y-33648103D01*
X50405646Y-33650346D01*
X50295726Y-33621444D01*
X50193366Y-33551619D01*
X50115340Y-33448555D01*
X50072614Y-33326989D01*
X50071526Y-33320192D01*
X50065178Y-33246032D01*
X50062021Y-33139570D01*
X50062275Y-33059052D01*
X50334289Y-33059052D01*
X50340590Y-33166070D01*
X50354925Y-33254278D01*
X50374331Y-33304090D01*
X50447746Y-33372162D01*
X50534914Y-33396564D01*
X50624804Y-33376831D01*
X50701617Y-33317968D01*
X50730708Y-33278379D01*
X50747717Y-33231138D01*
X50755684Y-33162181D01*
X50757647Y-33058607D01*
X50754134Y-32956039D01*
X50744857Y-32865921D01*
X50731706Y-32805613D01*
X50729514Y-32800208D01*
X50676478Y-32735940D01*
X50599067Y-32700656D01*
X50512454Y-32694959D01*
X50431807Y-32719453D01*
X50372297Y-32774742D01*
X50366124Y-32785743D01*
X50346801Y-32852827D01*
X50336274Y-32949284D01*
X50334289Y-33059052D01*
X50062275Y-33059052D01*
X50062404Y-33018225D01*
X50064194Y-32952918D01*
X50076373Y-32791355D01*
X50101685Y-32670053D01*
X50143793Y-32580379D01*
X50206359Y-32513699D01*
X50267100Y-32474557D01*
X50351964Y-32447040D01*
X50457515Y-32437603D01*
X50565598Y-32445290D01*
X50658058Y-32469146D01*
X50706910Y-32497685D01*
X50757647Y-32543601D01*
X50757647Y-31963137D01*
X51031568Y-31963137D01*
X51031568Y-33656471D01*
X51031568Y-33656471D01*
G37*
X51031568Y-33656471D02*
X50894607Y-33656471D01*
X50815111Y-33654140D01*
X50773708Y-33644488D01*
X50758801Y-33623525D01*
X50757647Y-33609351D01*
X50755133Y-33580927D01*
X50739280Y-33575475D01*
X50697621Y-33592998D01*
X50665224Y-33609351D01*
X50540849Y-33648103D01*
X50405646Y-33650346D01*
X50295726Y-33621444D01*
X50193366Y-33551619D01*
X50115340Y-33448555D01*
X50072614Y-33326989D01*
X50071526Y-33320192D01*
X50065178Y-33246032D01*
X50062021Y-33139570D01*
X50062275Y-33059052D01*
X50334289Y-33059052D01*
X50340590Y-33166070D01*
X50354925Y-33254278D01*
X50374331Y-33304090D01*
X50447746Y-33372162D01*
X50534914Y-33396564D01*
X50624804Y-33376831D01*
X50701617Y-33317968D01*
X50730708Y-33278379D01*
X50747717Y-33231138D01*
X50755684Y-33162181D01*
X50757647Y-33058607D01*
X50754134Y-32956039D01*
X50744857Y-32865921D01*
X50731706Y-32805613D01*
X50729514Y-32800208D01*
X50676478Y-32735940D01*
X50599067Y-32700656D01*
X50512454Y-32694959D01*
X50431807Y-32719453D01*
X50372297Y-32774742D01*
X50366124Y-32785743D01*
X50346801Y-32852827D01*
X50336274Y-32949284D01*
X50334289Y-33059052D01*
X50062275Y-33059052D01*
X50062404Y-33018225D01*
X50064194Y-32952918D01*
X50076373Y-32791355D01*
X50101685Y-32670053D01*
X50143793Y-32580379D01*
X50206359Y-32513699D01*
X50267100Y-32474557D01*
X50351964Y-32447040D01*
X50457515Y-32437603D01*
X50565598Y-32445290D01*
X50658058Y-32469146D01*
X50706910Y-32497685D01*
X50757647Y-32543601D01*
X50757647Y-31963137D01*
X51031568Y-31963137D01*
X51031568Y-33656471D01*
G36*
X49462764Y-32438921D02*
X49500030Y-32450091D01*
X49512043Y-32474633D01*
X49512549Y-32485712D01*
X49514704Y-32516572D01*
X49529551Y-32521417D01*
X49569657Y-32500260D01*
X49593480Y-32485806D01*
X49668638Y-32454850D01*
X49758406Y-32439544D01*
X49852529Y-32438367D01*
X49940754Y-32449799D01*
X50012826Y-32472320D01*
X50058492Y-32504409D01*
X50067498Y-32544545D01*
X50062953Y-32555415D01*
X50029821Y-32600534D01*
X49978445Y-32656026D01*
X49969152Y-32664996D01*
X49920182Y-32706245D01*
X49877931Y-32719572D01*
X49818841Y-32710271D01*
X49795169Y-32704090D01*
X49721504Y-32689246D01*
X49669710Y-32695921D01*
X49625969Y-32719465D01*
X49585902Y-32751061D01*
X49556392Y-32790798D01*
X49535884Y-32846252D01*
X49522824Y-32925003D01*
X49515656Y-33034629D01*
X49512824Y-33182706D01*
X49512549Y-33272111D01*
X49512549Y-33656471D01*
X49263529Y-33656471D01*
X49263529Y-32436275D01*
X49388039Y-32436275D01*
X49462764Y-32438921D01*
X49462764Y-32438921D01*
G37*
X49462764Y-32438921D02*
X49500030Y-32450091D01*
X49512043Y-32474633D01*
X49512549Y-32485712D01*
X49514704Y-32516572D01*
X49529551Y-32521417D01*
X49569657Y-32500260D01*
X49593480Y-32485806D01*
X49668638Y-32454850D01*
X49758406Y-32439544D01*
X49852529Y-32438367D01*
X49940754Y-32449799D01*
X50012826Y-32472320D01*
X50058492Y-32504409D01*
X50067498Y-32544545D01*
X50062953Y-32555415D01*
X50029821Y-32600534D01*
X49978445Y-32656026D01*
X49969152Y-32664996D01*
X49920182Y-32706245D01*
X49877931Y-32719572D01*
X49818841Y-32710271D01*
X49795169Y-32704090D01*
X49721504Y-32689246D01*
X49669710Y-32695921D01*
X49625969Y-32719465D01*
X49585902Y-32751061D01*
X49556392Y-32790798D01*
X49535884Y-32846252D01*
X49522824Y-32925003D01*
X49515656Y-33034629D01*
X49512824Y-33182706D01*
X49512549Y-33272111D01*
X49512549Y-33656471D01*
X49263529Y-33656471D01*
X49263529Y-32436275D01*
X49388039Y-32436275D01*
X49462764Y-32438921D01*
G36*
X48688720Y-32445922D02*
X48805870Y-32477180D01*
X48895051Y-32533837D01*
X48957984Y-32608045D01*
X48977548Y-32639716D01*
X48991992Y-32672891D01*
X49002089Y-32715329D01*
X49008615Y-32774788D01*
X49012342Y-32859029D01*
X49014046Y-32975810D01*
X49014500Y-33132890D01*
X49014509Y-33174565D01*
X49014509Y-33656471D01*
X48894980Y-33656471D01*
X48818739Y-33651131D01*
X48762366Y-33637604D01*
X48748242Y-33629262D01*
X48709630Y-33614864D01*
X48670192Y-33629262D01*
X48605262Y-33647237D01*
X48510945Y-33654472D01*
X48406407Y-33651333D01*
X48310811Y-33638186D01*
X48255000Y-33621318D01*
X48146998Y-33551986D01*
X48079503Y-33455772D01*
X48049159Y-33327844D01*
X48048877Y-33324559D01*
X48051540Y-33267808D01*
X48292353Y-33267808D01*
X48313405Y-33332358D01*
X48347697Y-33368686D01*
X48416532Y-33396162D01*
X48507390Y-33407129D01*
X48600042Y-33401731D01*
X48674256Y-33380110D01*
X48695049Y-33366239D01*
X48731381Y-33302143D01*
X48740588Y-33229278D01*
X48740588Y-33133530D01*
X48602827Y-33133530D01*
X48471953Y-33143605D01*
X48372741Y-33172148D01*
X48311023Y-33216639D01*
X48292353Y-33267808D01*
X48051540Y-33267808D01*
X48055436Y-33184790D01*
X48101534Y-33074282D01*
X48188200Y-32990712D01*
X48200179Y-32983110D01*
X48251655Y-32958357D01*
X48315368Y-32943368D01*
X48404435Y-32936082D01*
X48510245Y-32934407D01*
X48740588Y-32934314D01*
X48740588Y-32837755D01*
X48730817Y-32762836D01*
X48705884Y-32712644D01*
X48702965Y-32709972D01*
X48647481Y-32688015D01*
X48563727Y-32679505D01*
X48471167Y-32683687D01*
X48389270Y-32699809D01*
X48340673Y-32723990D01*
X48314341Y-32743359D01*
X48286535Y-32747057D01*
X48248161Y-32731188D01*
X48190125Y-32691855D01*
X48103331Y-32625164D01*
X48095365Y-32618916D01*
X48099447Y-32595800D01*
X48133501Y-32557352D01*
X48185260Y-32514627D01*
X48242455Y-32478679D01*
X48260425Y-32470191D01*
X48325972Y-32453252D01*
X48422020Y-32441170D01*
X48529329Y-32436323D01*
X48534347Y-32436313D01*
X48688720Y-32445922D01*
X48688720Y-32445922D01*
G37*
X48688720Y-32445922D02*
X48805870Y-32477180D01*
X48895051Y-32533837D01*
X48957984Y-32608045D01*
X48977548Y-32639716D01*
X48991992Y-32672891D01*
X49002089Y-32715329D01*
X49008615Y-32774788D01*
X49012342Y-32859029D01*
X49014046Y-32975810D01*
X49014500Y-33132890D01*
X49014509Y-33174565D01*
X49014509Y-33656471D01*
X48894980Y-33656471D01*
X48818739Y-33651131D01*
X48762366Y-33637604D01*
X48748242Y-33629262D01*
X48709630Y-33614864D01*
X48670192Y-33629262D01*
X48605262Y-33647237D01*
X48510945Y-33654472D01*
X48406407Y-33651333D01*
X48310811Y-33638186D01*
X48255000Y-33621318D01*
X48146998Y-33551986D01*
X48079503Y-33455772D01*
X48049159Y-33327844D01*
X48048877Y-33324559D01*
X48051540Y-33267808D01*
X48292353Y-33267808D01*
X48313405Y-33332358D01*
X48347697Y-33368686D01*
X48416532Y-33396162D01*
X48507390Y-33407129D01*
X48600042Y-33401731D01*
X48674256Y-33380110D01*
X48695049Y-33366239D01*
X48731381Y-33302143D01*
X48740588Y-33229278D01*
X48740588Y-33133530D01*
X48602827Y-33133530D01*
X48471953Y-33143605D01*
X48372741Y-33172148D01*
X48311023Y-33216639D01*
X48292353Y-33267808D01*
X48051540Y-33267808D01*
X48055436Y-33184790D01*
X48101534Y-33074282D01*
X48188200Y-32990712D01*
X48200179Y-32983110D01*
X48251655Y-32958357D01*
X48315368Y-32943368D01*
X48404435Y-32936082D01*
X48510245Y-32934407D01*
X48740588Y-32934314D01*
X48740588Y-32837755D01*
X48730817Y-32762836D01*
X48705884Y-32712644D01*
X48702965Y-32709972D01*
X48647481Y-32688015D01*
X48563727Y-32679505D01*
X48471167Y-32683687D01*
X48389270Y-32699809D01*
X48340673Y-32723990D01*
X48314341Y-32743359D01*
X48286535Y-32747057D01*
X48248161Y-32731188D01*
X48190125Y-32691855D01*
X48103331Y-32625164D01*
X48095365Y-32618916D01*
X48099447Y-32595800D01*
X48133501Y-32557352D01*
X48185260Y-32514627D01*
X48242455Y-32478679D01*
X48260425Y-32470191D01*
X48325972Y-32453252D01*
X48422020Y-32441170D01*
X48529329Y-32436323D01*
X48534347Y-32436313D01*
X48688720Y-32445922D01*
G36*
X47649909Y-30589560D02*
X47702412Y-30615499D01*
X47767158Y-30660700D01*
X47814347Y-30709991D01*
X47846665Y-30771885D01*
X47866797Y-30854896D01*
X47877430Y-30967538D01*
X47881247Y-31118324D01*
X47881470Y-31183149D01*
X47880818Y-31325221D01*
X47878112Y-31426757D01*
X47872224Y-31497015D01*
X47862027Y-31545256D01*
X47846394Y-31580738D01*
X47830128Y-31604943D01*
X47726295Y-31707929D01*
X47604021Y-31769874D01*
X47472114Y-31788506D01*
X47339384Y-31761549D01*
X47297333Y-31742486D01*
X47196666Y-31690015D01*
X47196666Y-32512259D01*
X47270135Y-32474267D01*
X47366941Y-32444872D01*
X47485928Y-32437342D01*
X47604745Y-32451245D01*
X47694473Y-32482476D01*
X47768899Y-32541954D01*
X47832490Y-32627066D01*
X47837271Y-32635805D01*
X47857437Y-32676966D01*
X47872165Y-32718454D01*
X47882303Y-32768713D01*
X47888699Y-32836184D01*
X47892201Y-32929309D01*
X47893658Y-33056531D01*
X47893921Y-33199701D01*
X47893921Y-33656471D01*
X47620000Y-33656471D01*
X47620000Y-32814231D01*
X47543383Y-32749763D01*
X47463793Y-32698194D01*
X47388422Y-32688818D01*
X47312633Y-32712947D01*
X47272241Y-32736574D01*
X47242179Y-32770227D01*
X47220797Y-32821087D01*
X47206450Y-32896334D01*
X47197490Y-33003146D01*
X47192270Y-33148704D01*
X47190431Y-33245588D01*
X47184215Y-33644020D01*
X47053480Y-33651547D01*
X46922745Y-33659073D01*
X46922745Y-31186582D01*
X47196666Y-31186582D01*
X47203650Y-31324423D01*
X47227182Y-31420107D01*
X47271135Y-31479641D01*
X47339382Y-31509029D01*
X47408333Y-31514902D01*
X47486386Y-31508154D01*
X47538189Y-31481594D01*
X47570583Y-31446499D01*
X47596084Y-31408752D01*
X47611265Y-31366700D01*
X47618019Y-31307779D01*
X47618241Y-31219428D01*
X47615968Y-31145448D01*
X47610749Y-31034000D01*
X47602979Y-30960833D01*
X47589895Y-30914422D01*
X47568732Y-30883244D01*
X47548760Y-30865223D01*
X47465314Y-30825925D01*
X47366551Y-30819579D01*
X47309841Y-30833116D01*
X47253692Y-30881233D01*
X47216499Y-30974833D01*
X47198472Y-31113254D01*
X47196666Y-31186582D01*
X46922745Y-31186582D01*
X46922745Y-30568628D01*
X47059705Y-30568628D01*
X47141935Y-30571879D01*
X47184360Y-30583426D01*
X47196661Y-30605952D01*
X47196666Y-30606620D01*
X47202374Y-30628681D01*
X47227547Y-30626176D01*
X47277598Y-30601935D01*
X47394219Y-30564851D01*
X47525429Y-30560953D01*
X47649909Y-30589560D01*
X47649909Y-30589560D01*
G37*
X47649909Y-30589560D02*
X47702412Y-30615499D01*
X47767158Y-30660700D01*
X47814347Y-30709991D01*
X47846665Y-30771885D01*
X47866797Y-30854896D01*
X47877430Y-30967538D01*
X47881247Y-31118324D01*
X47881470Y-31183149D01*
X47880818Y-31325221D01*
X47878112Y-31426757D01*
X47872224Y-31497015D01*
X47862027Y-31545256D01*
X47846394Y-31580738D01*
X47830128Y-31604943D01*
X47726295Y-31707929D01*
X47604021Y-31769874D01*
X47472114Y-31788506D01*
X47339384Y-31761549D01*
X47297333Y-31742486D01*
X47196666Y-31690015D01*
X47196666Y-32512259D01*
X47270135Y-32474267D01*
X47366941Y-32444872D01*
X47485928Y-32437342D01*
X47604745Y-32451245D01*
X47694473Y-32482476D01*
X47768899Y-32541954D01*
X47832490Y-32627066D01*
X47837271Y-32635805D01*
X47857437Y-32676966D01*
X47872165Y-32718454D01*
X47882303Y-32768713D01*
X47888699Y-32836184D01*
X47892201Y-32929309D01*
X47893658Y-33056531D01*
X47893921Y-33199701D01*
X47893921Y-33656471D01*
X47620000Y-33656471D01*
X47620000Y-32814231D01*
X47543383Y-32749763D01*
X47463793Y-32698194D01*
X47388422Y-32688818D01*
X47312633Y-32712947D01*
X47272241Y-32736574D01*
X47242179Y-32770227D01*
X47220797Y-32821087D01*
X47206450Y-32896334D01*
X47197490Y-33003146D01*
X47192270Y-33148704D01*
X47190431Y-33245588D01*
X47184215Y-33644020D01*
X47053480Y-33651547D01*
X46922745Y-33659073D01*
X46922745Y-31186582D01*
X47196666Y-31186582D01*
X47203650Y-31324423D01*
X47227182Y-31420107D01*
X47271135Y-31479641D01*
X47339382Y-31509029D01*
X47408333Y-31514902D01*
X47486386Y-31508154D01*
X47538189Y-31481594D01*
X47570583Y-31446499D01*
X47596084Y-31408752D01*
X47611265Y-31366700D01*
X47618019Y-31307779D01*
X47618241Y-31219428D01*
X47615968Y-31145448D01*
X47610749Y-31034000D01*
X47602979Y-30960833D01*
X47589895Y-30914422D01*
X47568732Y-30883244D01*
X47548760Y-30865223D01*
X47465314Y-30825925D01*
X47366551Y-30819579D01*
X47309841Y-30833116D01*
X47253692Y-30881233D01*
X47216499Y-30974833D01*
X47198472Y-31113254D01*
X47196666Y-31186582D01*
X46922745Y-31186582D01*
X46922745Y-30568628D01*
X47059705Y-30568628D01*
X47141935Y-30571879D01*
X47184360Y-30583426D01*
X47196661Y-30605952D01*
X47196666Y-30606620D01*
X47202374Y-30628681D01*
X47227547Y-30626176D01*
X47277598Y-30601935D01*
X47394219Y-30564851D01*
X47525429Y-30560953D01*
X47649909Y-30589560D01*
G36*
X24744430Y-68614848D02*
X24743811Y-68701931D01*
X24292086Y-69160891D01*
X23840361Y-69619852D01*
X23840032Y-69830471D01*
X23839703Y-70041089D01*
X23564610Y-70041089D01*
X23557522Y-70094530D01*
X23554838Y-70118888D01*
X23550313Y-70164759D01*
X23544191Y-70229405D01*
X23536712Y-70310091D01*
X23528119Y-70404081D01*
X23518654Y-70508637D01*
X23508558Y-70621025D01*
X23498074Y-70738507D01*
X23487444Y-70858348D01*
X23476909Y-70977811D01*
X23466713Y-71094159D01*
X23457095Y-71204657D01*
X23448300Y-71306569D01*
X23440568Y-71397158D01*
X23434142Y-71473687D01*
X23429263Y-71533421D01*
X23426175Y-71573624D01*
X23425117Y-71591559D01*
X23425118Y-71591644D01*
X23432827Y-71606035D01*
X23455981Y-71635748D01*
X23494895Y-71681131D01*
X23549884Y-71742529D01*
X23621264Y-71820288D01*
X23709349Y-71914754D01*
X23814454Y-72026272D01*
X23936895Y-72155188D01*
X23971310Y-72191287D01*
X24517137Y-72763416D01*
X24428881Y-72851436D01*
X24357485Y-72773758D01*
X24331366Y-72745686D01*
X24290566Y-72702274D01*
X24237777Y-72646366D01*
X24175691Y-72580808D01*
X24107000Y-72508441D01*
X24034396Y-72432112D01*
X23990960Y-72386524D01*
X23909416Y-72301119D01*
X23843504Y-72232710D01*
X23791544Y-72180053D01*
X23751855Y-72141905D01*
X23722757Y-72117020D01*
X23702569Y-72104156D01*
X23689610Y-72102068D01*
X23682200Y-72109513D01*
X23678658Y-72125246D01*
X23677303Y-72148023D01*
X23677121Y-72154239D01*
X23667703Y-72197061D01*
X23644497Y-72248819D01*
X23612136Y-72301328D01*
X23575252Y-72346403D01*
X23560493Y-72360328D01*
X23484767Y-72409047D01*
X23396308Y-72436306D01*
X23318100Y-72442773D01*
X23229468Y-72430576D01*
X23147612Y-72394813D01*
X23075164Y-72336722D01*
X23061797Y-72322262D01*
X23012918Y-72266733D01*
X22167326Y-72266733D01*
X22167326Y-72442773D01*
X21940990Y-72442773D01*
X21940990Y-72360531D01*
X21938150Y-72304386D01*
X21928607Y-72265416D01*
X21917009Y-72244219D01*
X21908723Y-72229052D01*
X21901627Y-72207062D01*
X21895252Y-72174987D01*
X21889128Y-72129569D01*
X21882784Y-72067548D01*
X21875750Y-71985662D01*
X21870934Y-71924746D01*
X21848839Y-71639343D01*
X21306435Y-72188805D01*
X21208363Y-72288228D01*
X21114216Y-72383815D01*
X21025715Y-72473810D01*
X20944580Y-72556457D01*
X20872531Y-72630001D01*
X20811288Y-72692684D01*
X20762573Y-72742752D01*
X20728104Y-72778448D01*
X20709621Y-72797995D01*
X20679257Y-72828944D01*
X20653929Y-72850530D01*
X20640305Y-72857723D01*
X20622905Y-72849297D01*
X20597540Y-72828245D01*
X20588942Y-72819671D01*
X20552486Y-72781620D01*
X20753198Y-72577658D01*
X20804404Y-72525699D01*
X20870431Y-72458820D01*
X20948382Y-72379950D01*
X21035362Y-72292014D01*
X21128474Y-72197941D01*
X21224821Y-72100658D01*
X21321508Y-72003093D01*
X21390866Y-71933145D01*
X21496297Y-71826550D01*
X21584871Y-71736307D01*
X21657719Y-71661192D01*
X21715977Y-71599986D01*
X21760775Y-71551466D01*
X21782979Y-71526129D01*
X21961276Y-71526129D01*
X21983599Y-71811555D01*
X21990331Y-71895219D01*
X21996843Y-71971727D01*
X22002766Y-72037081D01*
X22007732Y-72087281D01*
X22011371Y-72118329D01*
X22012542Y-72125273D01*
X22019162Y-72153565D01*
X22968636Y-72153565D01*
X22974974Y-72074606D01*
X22994110Y-71981315D01*
X23034154Y-71898791D01*
X23092582Y-71830038D01*
X23166871Y-71778063D01*
X23250252Y-71746863D01*
X23277302Y-71732228D01*
X23290844Y-71700819D01*
X23291128Y-71699434D01*
X23292753Y-71686174D01*
X23290744Y-71672595D01*
X23283142Y-71656181D01*
X23267984Y-71634411D01*
X23243312Y-71604767D01*
X23207164Y-71564732D01*
X23157580Y-71511785D01*
X23092599Y-71443409D01*
X23088401Y-71439005D01*
X23018507Y-71365611D01*
X22944200Y-71287437D01*
X22870586Y-71209864D01*
X22802771Y-71138275D01*
X22745860Y-71078051D01*
X22733168Y-71064587D01*
X22684513Y-71013820D01*
X22641291Y-70970375D01*
X22606605Y-70937241D01*
X22583556Y-70917405D01*
X22575818Y-70913046D01*
X22564278Y-70922170D01*
X22537290Y-70947200D01*
X22496979Y-70986052D01*
X22445471Y-71036643D01*
X22384891Y-71096888D01*
X22317364Y-71164704D01*
X22262174Y-71220565D01*
X21961276Y-71526129D01*
X21782979Y-71526129D01*
X21793249Y-71514411D01*
X21814529Y-71487599D01*
X21825749Y-71469808D01*
X21828246Y-71461570D01*
X21827300Y-71443590D01*
X21824427Y-71402892D01*
X21819813Y-71341819D01*
X21813642Y-71262713D01*
X21806102Y-71167914D01*
X21797379Y-71059767D01*
X21787657Y-70940612D01*
X21777124Y-70812791D01*
X21768635Y-70710635D01*
X21720604Y-70134674D01*
X21844195Y-70134674D01*
X21844727Y-70147104D01*
X21847231Y-70182110D01*
X21851504Y-70237215D01*
X21857347Y-70309943D01*
X21864557Y-70397814D01*
X21872934Y-70498351D01*
X21882277Y-70609077D01*
X21891242Y-70714205D01*
X21901398Y-70833483D01*
X21910858Y-70946080D01*
X21919404Y-71049305D01*
X21926821Y-71140473D01*
X21932892Y-71216895D01*
X21937399Y-71275883D01*
X21940127Y-71314749D01*
X21940884Y-71329844D01*
X21942065Y-71339238D01*
X21946744Y-71342966D01*
X21956724Y-71339471D01*
X21973810Y-71327199D01*
X21999804Y-71304594D01*
X22036510Y-71270100D01*
X22085733Y-71222162D01*
X22149274Y-71159224D01*
X22216695Y-71091968D01*
X22492399Y-70816477D01*
X22490467Y-70814406D01*
X22672710Y-70814406D01*
X22681016Y-70825780D01*
X22704267Y-70852563D01*
X22740135Y-70892292D01*
X22786287Y-70942507D01*
X22840394Y-71000746D01*
X22900126Y-71064547D01*
X22963152Y-71131449D01*
X23027142Y-71198990D01*
X23089764Y-71264710D01*
X23148690Y-71326146D01*
X23201588Y-71380837D01*
X23246128Y-71426322D01*
X23279980Y-71460138D01*
X23300812Y-71479826D01*
X23306494Y-71483837D01*
X23308366Y-71470891D01*
X23312254Y-71435134D01*
X23317943Y-71378804D01*
X23325219Y-71304140D01*
X23333869Y-71213380D01*
X23343678Y-71108762D01*
X23354434Y-70992526D01*
X23365921Y-70866908D01*
X23375093Y-70765618D01*
X23386826Y-70634279D01*
X23397665Y-70510552D01*
X23407430Y-70396681D01*
X23415937Y-70294911D01*
X23423005Y-70207487D01*
X23428451Y-70136653D01*
X23432092Y-70084653D01*
X23433747Y-70053732D01*
X23433558Y-70045703D01*
X23423666Y-70052854D01*
X23398476Y-70075841D01*
X23360190Y-70112439D01*
X23311011Y-70160422D01*
X23253139Y-70217566D01*
X23188778Y-70281647D01*
X23120129Y-70350438D01*
X23049395Y-70421716D01*
X22978778Y-70493255D01*
X22910480Y-70562830D01*
X22846704Y-70628217D01*
X22789650Y-70687191D01*
X22741522Y-70737527D01*
X22704522Y-70776999D01*
X22680852Y-70803383D01*
X22672710Y-70814406D01*
X22490467Y-70814406D01*
X22389591Y-70706295D01*
X22337232Y-70650377D01*
X22278465Y-70587948D01*
X22215615Y-70521443D01*
X22151005Y-70453298D01*
X22086958Y-70385948D01*
X22025797Y-70321828D01*
X21969847Y-70263372D01*
X21921430Y-70213018D01*
X21882870Y-70173198D01*
X21856491Y-70146350D01*
X21844616Y-70134908D01*
X21844195Y-70134674D01*
X21720604Y-70134674D01*
X21708599Y-69990726D01*
X21108062Y-69359158D01*
X20507525Y-68727589D01*
X20507966Y-68639315D01*
X20508408Y-68551040D01*
X20605417Y-68654666D01*
X20659709Y-68712463D01*
X20723808Y-68780368D01*
X20795984Y-68856572D01*
X20874508Y-68939269D01*
X20957651Y-69026653D01*
X21043681Y-69116915D01*
X21130870Y-69208250D01*
X21217487Y-69298849D01*
X21301803Y-69386907D01*
X21382088Y-69470615D01*
X21456613Y-69548167D01*
X21523646Y-69617757D01*
X21581459Y-69677576D01*
X21628321Y-69725818D01*
X21662504Y-69760676D01*
X21682276Y-69780343D01*
X21686610Y-69784116D01*
X21686908Y-69770992D01*
X21685269Y-69737389D01*
X21681977Y-69687880D01*
X21677318Y-69627037D01*
X21675318Y-69602732D01*
X21660423Y-69424951D01*
X21777045Y-69424951D01*
X21783066Y-69453243D01*
X21786137Y-69475618D01*
X21790452Y-69517717D01*
X21795512Y-69574178D01*
X21800819Y-69639635D01*
X21802656Y-69663862D01*
X21808073Y-69733421D01*
X21813541Y-69798018D01*
X21818512Y-69851548D01*
X21822439Y-69887910D01*
X21823325Y-69894509D01*
X21826666Y-69908056D01*
X21833899Y-69923914D01*
X21846560Y-69943861D01*
X21866189Y-69969673D01*
X21894322Y-70003129D01*
X21932498Y-70046007D01*
X21982254Y-70100083D01*
X22045129Y-70167136D01*
X22122659Y-70248943D01*
X22201749Y-70331950D01*
X22280436Y-70414094D01*
X22353888Y-70490169D01*
X22420276Y-70558325D01*
X22477773Y-70616712D01*
X22524549Y-70663481D01*
X22558776Y-70696782D01*
X22578627Y-70714767D01*
X22582860Y-70717442D01*
X22593997Y-70707741D01*
X22620029Y-70682441D01*
X22658430Y-70644082D01*
X22706672Y-70595200D01*
X22762230Y-70538334D01*
X22802408Y-70496906D01*
X23012169Y-70280000D01*
X22393663Y-70280000D01*
X22393663Y-70041089D01*
X23148119Y-70041089D01*
X23148119Y-70147542D01*
X23286435Y-70009654D01*
X23384553Y-69911840D01*
X23575643Y-69911840D01*
X23577471Y-69927270D01*
X23586723Y-69935867D01*
X23609050Y-69939613D01*
X23650105Y-69940489D01*
X23657376Y-69940495D01*
X23739109Y-69940495D01*
X23739109Y-69721172D01*
X23657376Y-69802179D01*
X23611270Y-69851428D01*
X23583694Y-69889159D01*
X23575643Y-69911840D01*
X23384553Y-69911840D01*
X23424752Y-69871766D01*
X23424752Y-69748952D01*
X23425137Y-69692450D01*
X23426900Y-69656505D01*
X23430950Y-69636530D01*
X23438199Y-69627937D01*
X23449130Y-69626139D01*
X23461288Y-69623498D01*
X23470273Y-69612912D01*
X23477174Y-69590381D01*
X23483076Y-69551909D01*
X23489065Y-69493498D01*
X23490987Y-69472104D01*
X23495148Y-69424951D01*
X21777045Y-69424951D01*
X21660423Y-69424951D01*
X21500891Y-69424951D01*
X21500891Y-69311782D01*
X21568686Y-69311782D01*
X21608338Y-69310696D01*
X21629884Y-69305454D01*
X21632520Y-69302334D01*
X21771384Y-69302334D01*
X21778692Y-69309462D01*
X21804007Y-69311662D01*
X21821092Y-69311782D01*
X21878119Y-69311782D01*
X22090779Y-69311782D01*
X23505302Y-69311782D01*
X23457458Y-69262786D01*
X23383150Y-69202324D01*
X23291184Y-69155691D01*
X23180002Y-69122249D01*
X23069529Y-69103753D01*
X22997227Y-69095122D01*
X22997227Y-69186040D01*
X22418812Y-69186040D01*
X22418812Y-69082893D01*
X22333935Y-69091496D01*
X22274632Y-69098756D01*
X22211449Y-69108379D01*
X22173614Y-69115252D01*
X22098168Y-69130407D01*
X22094474Y-69221095D01*
X22090779Y-69311782D01*
X21878119Y-69311782D01*
X21878119Y-69261485D01*
X21876456Y-69229976D01*
X21872303Y-69212463D01*
X21870629Y-69211188D01*
X21852013Y-69219254D01*
X21824817Y-69238820D01*
X21797552Y-69262944D01*
X21778733Y-69284682D01*
X21777057Y-69287508D01*
X21771384Y-69302334D01*
X21632520Y-69302334D01*
X21640338Y-69293081D01*
X21644558Y-69279604D01*
X21661781Y-69244627D01*
X21694862Y-69202579D01*
X21738107Y-69159356D01*
X21785826Y-69120854D01*
X21817170Y-69100801D01*
X21852877Y-69078851D01*
X21871181Y-69060411D01*
X21877612Y-69038668D01*
X21878106Y-69025718D01*
X21878106Y-69022575D01*
X22519406Y-69022575D01*
X22519406Y-69085446D01*
X22896633Y-69085446D01*
X22896633Y-69022575D01*
X22519406Y-69022575D01*
X21878106Y-69022575D01*
X21878119Y-68984852D01*
X21983952Y-68984852D01*
X22032645Y-68986029D01*
X22070595Y-68989165D01*
X22091692Y-68993671D01*
X22093977Y-68995495D01*
X22107359Y-68998295D01*
X22139926Y-68997148D01*
X22186084Y-68992393D01*
X22217624Y-68988003D01*
X22274812Y-68979378D01*
X22327114Y-68971591D01*
X22366418Y-68965847D01*
X22377945Y-68964215D01*
X22408063Y-68954888D01*
X22418812Y-68940272D01*
X22422080Y-68934320D01*
X22433770Y-68929778D01*
X22456712Y-68926470D01*
X22493735Y-68924215D01*
X22547668Y-68922834D01*
X22621340Y-68922150D01*
X22708020Y-68921980D01*
X22800529Y-68922077D01*
X22870906Y-68922530D01*
X22922164Y-68923590D01*
X22957320Y-68925503D01*
X22979389Y-68928519D01*
X22991385Y-68932885D01*
X22996324Y-68938849D01*
X22997227Y-68945784D01*
X23004921Y-68967795D01*
X23030121Y-68980321D01*
X23076009Y-68984788D01*
X23084264Y-68984852D01*
X23161973Y-68992868D01*
X23250233Y-69014936D01*
X23341085Y-69048084D01*
X23426570Y-69089339D01*
X23498726Y-69135731D01*
X23508072Y-69143082D01*
X23538533Y-69166998D01*
X23556572Y-69176576D01*
X23569169Y-69173480D01*
X23582100Y-69160704D01*
X23620293Y-69135678D01*
X23669998Y-69126071D01*
X23723524Y-69131067D01*
X23773178Y-69149851D01*
X23811267Y-69181606D01*
X23814025Y-69185297D01*
X23842526Y-69244575D01*
X23847828Y-69305934D01*
X23830518Y-69364427D01*
X23791180Y-69415104D01*
X23786370Y-69419289D01*
X23758440Y-69439167D01*
X23730102Y-69447921D01*
X23690263Y-69448553D01*
X23680311Y-69447992D01*
X23641332Y-69446562D01*
X23621254Y-69449839D01*
X23613985Y-69459728D01*
X23613240Y-69468961D01*
X23611716Y-69495744D01*
X23607935Y-69536025D01*
X23605218Y-69560124D01*
X23601277Y-69598401D01*
X23602916Y-69617996D01*
X23612421Y-69625158D01*
X23629351Y-69626139D01*
X23639392Y-69622901D01*
X23655590Y-69612420D01*
X23679145Y-69593548D01*
X23711257Y-69565135D01*
X23753128Y-69526035D01*
X23805957Y-69475097D01*
X23870945Y-69411173D01*
X23949291Y-69333114D01*
X24042197Y-69239772D01*
X24150863Y-69129998D01*
X24203231Y-69076952D01*
X24745049Y-68527767D01*
X24744430Y-68614848D01*
X24744430Y-68614848D01*
G37*
X24744430Y-68614848D02*
X24743811Y-68701931D01*
X24292086Y-69160891D01*
X23840361Y-69619852D01*
X23840032Y-69830471D01*
X23839703Y-70041089D01*
X23564610Y-70041089D01*
X23557522Y-70094530D01*
X23554838Y-70118888D01*
X23550313Y-70164759D01*
X23544191Y-70229405D01*
X23536712Y-70310091D01*
X23528119Y-70404081D01*
X23518654Y-70508637D01*
X23508558Y-70621025D01*
X23498074Y-70738507D01*
X23487444Y-70858348D01*
X23476909Y-70977811D01*
X23466713Y-71094159D01*
X23457095Y-71204657D01*
X23448300Y-71306569D01*
X23440568Y-71397158D01*
X23434142Y-71473687D01*
X23429263Y-71533421D01*
X23426175Y-71573624D01*
X23425117Y-71591559D01*
X23425118Y-71591644D01*
X23432827Y-71606035D01*
X23455981Y-71635748D01*
X23494895Y-71681131D01*
X23549884Y-71742529D01*
X23621264Y-71820288D01*
X23709349Y-71914754D01*
X23814454Y-72026272D01*
X23936895Y-72155188D01*
X23971310Y-72191287D01*
X24517137Y-72763416D01*
X24428881Y-72851436D01*
X24357485Y-72773758D01*
X24331366Y-72745686D01*
X24290566Y-72702274D01*
X24237777Y-72646366D01*
X24175691Y-72580808D01*
X24107000Y-72508441D01*
X24034396Y-72432112D01*
X23990960Y-72386524D01*
X23909416Y-72301119D01*
X23843504Y-72232710D01*
X23791544Y-72180053D01*
X23751855Y-72141905D01*
X23722757Y-72117020D01*
X23702569Y-72104156D01*
X23689610Y-72102068D01*
X23682200Y-72109513D01*
X23678658Y-72125246D01*
X23677303Y-72148023D01*
X23677121Y-72154239D01*
X23667703Y-72197061D01*
X23644497Y-72248819D01*
X23612136Y-72301328D01*
X23575252Y-72346403D01*
X23560493Y-72360328D01*
X23484767Y-72409047D01*
X23396308Y-72436306D01*
X23318100Y-72442773D01*
X23229468Y-72430576D01*
X23147612Y-72394813D01*
X23075164Y-72336722D01*
X23061797Y-72322262D01*
X23012918Y-72266733D01*
X22167326Y-72266733D01*
X22167326Y-72442773D01*
X21940990Y-72442773D01*
X21940990Y-72360531D01*
X21938150Y-72304386D01*
X21928607Y-72265416D01*
X21917009Y-72244219D01*
X21908723Y-72229052D01*
X21901627Y-72207062D01*
X21895252Y-72174987D01*
X21889128Y-72129569D01*
X21882784Y-72067548D01*
X21875750Y-71985662D01*
X21870934Y-71924746D01*
X21848839Y-71639343D01*
X21306435Y-72188805D01*
X21208363Y-72288228D01*
X21114216Y-72383815D01*
X21025715Y-72473810D01*
X20944580Y-72556457D01*
X20872531Y-72630001D01*
X20811288Y-72692684D01*
X20762573Y-72742752D01*
X20728104Y-72778448D01*
X20709621Y-72797995D01*
X20679257Y-72828944D01*
X20653929Y-72850530D01*
X20640305Y-72857723D01*
X20622905Y-72849297D01*
X20597540Y-72828245D01*
X20588942Y-72819671D01*
X20552486Y-72781620D01*
X20753198Y-72577658D01*
X20804404Y-72525699D01*
X20870431Y-72458820D01*
X20948382Y-72379950D01*
X21035362Y-72292014D01*
X21128474Y-72197941D01*
X21224821Y-72100658D01*
X21321508Y-72003093D01*
X21390866Y-71933145D01*
X21496297Y-71826550D01*
X21584871Y-71736307D01*
X21657719Y-71661192D01*
X21715977Y-71599986D01*
X21760775Y-71551466D01*
X21782979Y-71526129D01*
X21961276Y-71526129D01*
X21983599Y-71811555D01*
X21990331Y-71895219D01*
X21996843Y-71971727D01*
X22002766Y-72037081D01*
X22007732Y-72087281D01*
X22011371Y-72118329D01*
X22012542Y-72125273D01*
X22019162Y-72153565D01*
X22968636Y-72153565D01*
X22974974Y-72074606D01*
X22994110Y-71981315D01*
X23034154Y-71898791D01*
X23092582Y-71830038D01*
X23166871Y-71778063D01*
X23250252Y-71746863D01*
X23277302Y-71732228D01*
X23290844Y-71700819D01*
X23291128Y-71699434D01*
X23292753Y-71686174D01*
X23290744Y-71672595D01*
X23283142Y-71656181D01*
X23267984Y-71634411D01*
X23243312Y-71604767D01*
X23207164Y-71564732D01*
X23157580Y-71511785D01*
X23092599Y-71443409D01*
X23088401Y-71439005D01*
X23018507Y-71365611D01*
X22944200Y-71287437D01*
X22870586Y-71209864D01*
X22802771Y-71138275D01*
X22745860Y-71078051D01*
X22733168Y-71064587D01*
X22684513Y-71013820D01*
X22641291Y-70970375D01*
X22606605Y-70937241D01*
X22583556Y-70917405D01*
X22575818Y-70913046D01*
X22564278Y-70922170D01*
X22537290Y-70947200D01*
X22496979Y-70986052D01*
X22445471Y-71036643D01*
X22384891Y-71096888D01*
X22317364Y-71164704D01*
X22262174Y-71220565D01*
X21961276Y-71526129D01*
X21782979Y-71526129D01*
X21793249Y-71514411D01*
X21814529Y-71487599D01*
X21825749Y-71469808D01*
X21828246Y-71461570D01*
X21827300Y-71443590D01*
X21824427Y-71402892D01*
X21819813Y-71341819D01*
X21813642Y-71262713D01*
X21806102Y-71167914D01*
X21797379Y-71059767D01*
X21787657Y-70940612D01*
X21777124Y-70812791D01*
X21768635Y-70710635D01*
X21720604Y-70134674D01*
X21844195Y-70134674D01*
X21844727Y-70147104D01*
X21847231Y-70182110D01*
X21851504Y-70237215D01*
X21857347Y-70309943D01*
X21864557Y-70397814D01*
X21872934Y-70498351D01*
X21882277Y-70609077D01*
X21891242Y-70714205D01*
X21901398Y-70833483D01*
X21910858Y-70946080D01*
X21919404Y-71049305D01*
X21926821Y-71140473D01*
X21932892Y-71216895D01*
X21937399Y-71275883D01*
X21940127Y-71314749D01*
X21940884Y-71329844D01*
X21942065Y-71339238D01*
X21946744Y-71342966D01*
X21956724Y-71339471D01*
X21973810Y-71327199D01*
X21999804Y-71304594D01*
X22036510Y-71270100D01*
X22085733Y-71222162D01*
X22149274Y-71159224D01*
X22216695Y-71091968D01*
X22492399Y-70816477D01*
X22490467Y-70814406D01*
X22672710Y-70814406D01*
X22681016Y-70825780D01*
X22704267Y-70852563D01*
X22740135Y-70892292D01*
X22786287Y-70942507D01*
X22840394Y-71000746D01*
X22900126Y-71064547D01*
X22963152Y-71131449D01*
X23027142Y-71198990D01*
X23089764Y-71264710D01*
X23148690Y-71326146D01*
X23201588Y-71380837D01*
X23246128Y-71426322D01*
X23279980Y-71460138D01*
X23300812Y-71479826D01*
X23306494Y-71483837D01*
X23308366Y-71470891D01*
X23312254Y-71435134D01*
X23317943Y-71378804D01*
X23325219Y-71304140D01*
X23333869Y-71213380D01*
X23343678Y-71108762D01*
X23354434Y-70992526D01*
X23365921Y-70866908D01*
X23375093Y-70765618D01*
X23386826Y-70634279D01*
X23397665Y-70510552D01*
X23407430Y-70396681D01*
X23415937Y-70294911D01*
X23423005Y-70207487D01*
X23428451Y-70136653D01*
X23432092Y-70084653D01*
X23433747Y-70053732D01*
X23433558Y-70045703D01*
X23423666Y-70052854D01*
X23398476Y-70075841D01*
X23360190Y-70112439D01*
X23311011Y-70160422D01*
X23253139Y-70217566D01*
X23188778Y-70281647D01*
X23120129Y-70350438D01*
X23049395Y-70421716D01*
X22978778Y-70493255D01*
X22910480Y-70562830D01*
X22846704Y-70628217D01*
X22789650Y-70687191D01*
X22741522Y-70737527D01*
X22704522Y-70776999D01*
X22680852Y-70803383D01*
X22672710Y-70814406D01*
X22490467Y-70814406D01*
X22389591Y-70706295D01*
X22337232Y-70650377D01*
X22278465Y-70587948D01*
X22215615Y-70521443D01*
X22151005Y-70453298D01*
X22086958Y-70385948D01*
X22025797Y-70321828D01*
X21969847Y-70263372D01*
X21921430Y-70213018D01*
X21882870Y-70173198D01*
X21856491Y-70146350D01*
X21844616Y-70134908D01*
X21844195Y-70134674D01*
X21720604Y-70134674D01*
X21708599Y-69990726D01*
X21108062Y-69359158D01*
X20507525Y-68727589D01*
X20507966Y-68639315D01*
X20508408Y-68551040D01*
X20605417Y-68654666D01*
X20659709Y-68712463D01*
X20723808Y-68780368D01*
X20795984Y-68856572D01*
X20874508Y-68939269D01*
X20957651Y-69026653D01*
X21043681Y-69116915D01*
X21130870Y-69208250D01*
X21217487Y-69298849D01*
X21301803Y-69386907D01*
X21382088Y-69470615D01*
X21456613Y-69548167D01*
X21523646Y-69617757D01*
X21581459Y-69677576D01*
X21628321Y-69725818D01*
X21662504Y-69760676D01*
X21682276Y-69780343D01*
X21686610Y-69784116D01*
X21686908Y-69770992D01*
X21685269Y-69737389D01*
X21681977Y-69687880D01*
X21677318Y-69627037D01*
X21675318Y-69602732D01*
X21660423Y-69424951D01*
X21777045Y-69424951D01*
X21783066Y-69453243D01*
X21786137Y-69475618D01*
X21790452Y-69517717D01*
X21795512Y-69574178D01*
X21800819Y-69639635D01*
X21802656Y-69663862D01*
X21808073Y-69733421D01*
X21813541Y-69798018D01*
X21818512Y-69851548D01*
X21822439Y-69887910D01*
X21823325Y-69894509D01*
X21826666Y-69908056D01*
X21833899Y-69923914D01*
X21846560Y-69943861D01*
X21866189Y-69969673D01*
X21894322Y-70003129D01*
X21932498Y-70046007D01*
X21982254Y-70100083D01*
X22045129Y-70167136D01*
X22122659Y-70248943D01*
X22201749Y-70331950D01*
X22280436Y-70414094D01*
X22353888Y-70490169D01*
X22420276Y-70558325D01*
X22477773Y-70616712D01*
X22524549Y-70663481D01*
X22558776Y-70696782D01*
X22578627Y-70714767D01*
X22582860Y-70717442D01*
X22593997Y-70707741D01*
X22620029Y-70682441D01*
X22658430Y-70644082D01*
X22706672Y-70595200D01*
X22762230Y-70538334D01*
X22802408Y-70496906D01*
X23012169Y-70280000D01*
X22393663Y-70280000D01*
X22393663Y-70041089D01*
X23148119Y-70041089D01*
X23148119Y-70147542D01*
X23286435Y-70009654D01*
X23384553Y-69911840D01*
X23575643Y-69911840D01*
X23577471Y-69927270D01*
X23586723Y-69935867D01*
X23609050Y-69939613D01*
X23650105Y-69940489D01*
X23657376Y-69940495D01*
X23739109Y-69940495D01*
X23739109Y-69721172D01*
X23657376Y-69802179D01*
X23611270Y-69851428D01*
X23583694Y-69889159D01*
X23575643Y-69911840D01*
X23384553Y-69911840D01*
X23424752Y-69871766D01*
X23424752Y-69748952D01*
X23425137Y-69692450D01*
X23426900Y-69656505D01*
X23430950Y-69636530D01*
X23438199Y-69627937D01*
X23449130Y-69626139D01*
X23461288Y-69623498D01*
X23470273Y-69612912D01*
X23477174Y-69590381D01*
X23483076Y-69551909D01*
X23489065Y-69493498D01*
X23490987Y-69472104D01*
X23495148Y-69424951D01*
X21777045Y-69424951D01*
X21660423Y-69424951D01*
X21500891Y-69424951D01*
X21500891Y-69311782D01*
X21568686Y-69311782D01*
X21608338Y-69310696D01*
X21629884Y-69305454D01*
X21632520Y-69302334D01*
X21771384Y-69302334D01*
X21778692Y-69309462D01*
X21804007Y-69311662D01*
X21821092Y-69311782D01*
X21878119Y-69311782D01*
X22090779Y-69311782D01*
X23505302Y-69311782D01*
X23457458Y-69262786D01*
X23383150Y-69202324D01*
X23291184Y-69155691D01*
X23180002Y-69122249D01*
X23069529Y-69103753D01*
X22997227Y-69095122D01*
X22997227Y-69186040D01*
X22418812Y-69186040D01*
X22418812Y-69082893D01*
X22333935Y-69091496D01*
X22274632Y-69098756D01*
X22211449Y-69108379D01*
X22173614Y-69115252D01*
X22098168Y-69130407D01*
X22094474Y-69221095D01*
X22090779Y-69311782D01*
X21878119Y-69311782D01*
X21878119Y-69261485D01*
X21876456Y-69229976D01*
X21872303Y-69212463D01*
X21870629Y-69211188D01*
X21852013Y-69219254D01*
X21824817Y-69238820D01*
X21797552Y-69262944D01*
X21778733Y-69284682D01*
X21777057Y-69287508D01*
X21771384Y-69302334D01*
X21632520Y-69302334D01*
X21640338Y-69293081D01*
X21644558Y-69279604D01*
X21661781Y-69244627D01*
X21694862Y-69202579D01*
X21738107Y-69159356D01*
X21785826Y-69120854D01*
X21817170Y-69100801D01*
X21852877Y-69078851D01*
X21871181Y-69060411D01*
X21877612Y-69038668D01*
X21878106Y-69025718D01*
X21878106Y-69022575D01*
X22519406Y-69022575D01*
X22519406Y-69085446D01*
X22896633Y-69085446D01*
X22896633Y-69022575D01*
X22519406Y-69022575D01*
X21878106Y-69022575D01*
X21878119Y-68984852D01*
X21983952Y-68984852D01*
X22032645Y-68986029D01*
X22070595Y-68989165D01*
X22091692Y-68993671D01*
X22093977Y-68995495D01*
X22107359Y-68998295D01*
X22139926Y-68997148D01*
X22186084Y-68992393D01*
X22217624Y-68988003D01*
X22274812Y-68979378D01*
X22327114Y-68971591D01*
X22366418Y-68965847D01*
X22377945Y-68964215D01*
X22408063Y-68954888D01*
X22418812Y-68940272D01*
X22422080Y-68934320D01*
X22433770Y-68929778D01*
X22456712Y-68926470D01*
X22493735Y-68924215D01*
X22547668Y-68922834D01*
X22621340Y-68922150D01*
X22708020Y-68921980D01*
X22800529Y-68922077D01*
X22870906Y-68922530D01*
X22922164Y-68923590D01*
X22957320Y-68925503D01*
X22979389Y-68928519D01*
X22991385Y-68932885D01*
X22996324Y-68938849D01*
X22997227Y-68945784D01*
X23004921Y-68967795D01*
X23030121Y-68980321D01*
X23076009Y-68984788D01*
X23084264Y-68984852D01*
X23161973Y-68992868D01*
X23250233Y-69014936D01*
X23341085Y-69048084D01*
X23426570Y-69089339D01*
X23498726Y-69135731D01*
X23508072Y-69143082D01*
X23538533Y-69166998D01*
X23556572Y-69176576D01*
X23569169Y-69173480D01*
X23582100Y-69160704D01*
X23620293Y-69135678D01*
X23669998Y-69126071D01*
X23723524Y-69131067D01*
X23773178Y-69149851D01*
X23811267Y-69181606D01*
X23814025Y-69185297D01*
X23842526Y-69244575D01*
X23847828Y-69305934D01*
X23830518Y-69364427D01*
X23791180Y-69415104D01*
X23786370Y-69419289D01*
X23758440Y-69439167D01*
X23730102Y-69447921D01*
X23690263Y-69448553D01*
X23680311Y-69447992D01*
X23641332Y-69446562D01*
X23621254Y-69449839D01*
X23613985Y-69459728D01*
X23613240Y-69468961D01*
X23611716Y-69495744D01*
X23607935Y-69536025D01*
X23605218Y-69560124D01*
X23601277Y-69598401D01*
X23602916Y-69617996D01*
X23612421Y-69625158D01*
X23629351Y-69626139D01*
X23639392Y-69622901D01*
X23655590Y-69612420D01*
X23679145Y-69593548D01*
X23711257Y-69565135D01*
X23753128Y-69526035D01*
X23805957Y-69475097D01*
X23870945Y-69411173D01*
X23949291Y-69333114D01*
X24042197Y-69239772D01*
X24150863Y-69129998D01*
X24203231Y-69076952D01*
X24745049Y-68527767D01*
X24744430Y-68614848D01*
G36*
X24367822Y-74567822D02*
X20847029Y-74567822D01*
X20847029Y-73700198D01*
X24367822Y-73700198D01*
X24367822Y-74567822D01*
X24367822Y-74567822D01*
G37*
X24367822Y-74567822D02*
X20847029Y-74567822D01*
X20847029Y-73700198D01*
X24367822Y-73700198D01*
X24367822Y-74567822D01*
D12*
X51647142Y-67937142D02*
X51599523Y-67984761D01*
X51456666Y-68032380D01*
X51361428Y-68032380D01*
X51218571Y-67984761D01*
X51123333Y-67889523D01*
X51075714Y-67794285D01*
X51028095Y-67603809D01*
X51028095Y-67460952D01*
X51075714Y-67270476D01*
X51123333Y-67175238D01*
X51218571Y-67080000D01*
X51361428Y-67032380D01*
X51456666Y-67032380D01*
X51599523Y-67080000D01*
X51647142Y-67127619D01*
X51837619Y-68127619D02*
X52599523Y-68127619D01*
X53028095Y-67032380D02*
X53123333Y-67032380D01*
X53218571Y-67080000D01*
X53266190Y-67127619D01*
X53313809Y-67222857D01*
X53361428Y-67413333D01*
X53361428Y-67651428D01*
X53313809Y-67841904D01*
X53266190Y-67937142D01*
X53218571Y-67984761D01*
X53123333Y-68032380D01*
X53028095Y-68032380D01*
X52932857Y-67984761D01*
X52885238Y-67937142D01*
X52837619Y-67841904D01*
X52790000Y-67651428D01*
X52790000Y-67413333D01*
X52837619Y-67222857D01*
X52885238Y-67127619D01*
X52932857Y-67080000D01*
X53028095Y-67032380D01*
X53790000Y-67937142D02*
X53837619Y-67984761D01*
X53790000Y-68032380D01*
X53742380Y-67984761D01*
X53790000Y-67937142D01*
X53790000Y-68032380D01*
X54218571Y-67127619D02*
X54266190Y-67080000D01*
X54361428Y-67032380D01*
X54599523Y-67032380D01*
X54694761Y-67080000D01*
X54742380Y-67127619D01*
X54790000Y-67222857D01*
X54790000Y-67318095D01*
X54742380Y-67460952D01*
X54170952Y-68032380D01*
X54790000Y-68032380D01*
X55170952Y-67127619D02*
X55218571Y-67080000D01*
X55313809Y-67032380D01*
X55551904Y-67032380D01*
X55647142Y-67080000D01*
X55694761Y-67127619D01*
X55742380Y-67222857D01*
X55742380Y-67318095D01*
X55694761Y-67460952D01*
X55123333Y-68032380D01*
X55742380Y-68032380D01*
X56504285Y-67508571D02*
X56170952Y-67508571D01*
X56170952Y-68032380D02*
X56170952Y-67032380D01*
X56647142Y-67032380D01*
X57551904Y-68032380D02*
X56980476Y-68032380D01*
X57266190Y-68032380D02*
X57266190Y-67032380D01*
X57170952Y-67175238D01*
X57075714Y-67270476D01*
X56980476Y-67318095D01*
X36882857Y-23872380D02*
X36882857Y-22872380D01*
X37930476Y-23872380D02*
X37597142Y-23396190D01*
X37359047Y-23872380D02*
X37359047Y-22872380D01*
X37740000Y-22872380D01*
X37835238Y-22920000D01*
X37882857Y-22967619D01*
X37930476Y-23062857D01*
X37930476Y-23205714D01*
X37882857Y-23300952D01*
X37835238Y-23348571D01*
X37740000Y-23396190D01*
X37359047Y-23396190D01*
X38120952Y-23967619D02*
X38882857Y-23967619D01*
X39120952Y-23872380D02*
X39120952Y-22872380D01*
X39359047Y-22872380D01*
X39501904Y-22920000D01*
X39597142Y-23015238D01*
X39644761Y-23110476D01*
X39692380Y-23300952D01*
X39692380Y-23443809D01*
X39644761Y-23634285D01*
X39597142Y-23729523D01*
X39501904Y-23824761D01*
X39359047Y-23872380D01*
X39120952Y-23872380D01*
X40073333Y-22967619D02*
X40120952Y-22920000D01*
X40216190Y-22872380D01*
X40454285Y-22872380D01*
X40549523Y-22920000D01*
X40597142Y-22967619D01*
X40644761Y-23062857D01*
X40644761Y-23158095D01*
X40597142Y-23300952D01*
X40025714Y-23872380D01*
X40644761Y-23872380D01*
X42602857Y-23822380D02*
X42602857Y-22822380D01*
X43650476Y-23822380D02*
X43317142Y-23346190D01*
X43079047Y-23822380D02*
X43079047Y-22822380D01*
X43460000Y-22822380D01*
X43555238Y-22870000D01*
X43602857Y-22917619D01*
X43650476Y-23012857D01*
X43650476Y-23155714D01*
X43602857Y-23250952D01*
X43555238Y-23298571D01*
X43460000Y-23346190D01*
X43079047Y-23346190D01*
X43840952Y-23917619D02*
X44602857Y-23917619D01*
X44840952Y-23822380D02*
X44840952Y-22822380D01*
X45079047Y-22822380D01*
X45221904Y-22870000D01*
X45317142Y-22965238D01*
X45364761Y-23060476D01*
X45412380Y-23250952D01*
X45412380Y-23393809D01*
X45364761Y-23584285D01*
X45317142Y-23679523D01*
X45221904Y-23774761D01*
X45079047Y-23822380D01*
X44840952Y-23822380D01*
X46364761Y-23822380D02*
X45793333Y-23822380D01*
X46079047Y-23822380D02*
X46079047Y-22822380D01*
X45983809Y-22965238D01*
X45888571Y-23060476D01*
X45793333Y-23108095D01*
X47634761Y-48867142D02*
X47587142Y-48914761D01*
X47444285Y-48962380D01*
X47349047Y-48962380D01*
X47206190Y-48914761D01*
X47110952Y-48819523D01*
X47063333Y-48724285D01*
X47015714Y-48533809D01*
X47015714Y-48390952D01*
X47063333Y-48200476D01*
X47110952Y-48105238D01*
X47206190Y-48010000D01*
X47349047Y-47962380D01*
X47444285Y-47962380D01*
X47587142Y-48010000D01*
X47634761Y-48057619D01*
X48634761Y-48867142D02*
X48587142Y-48914761D01*
X48444285Y-48962380D01*
X48349047Y-48962380D01*
X48206190Y-48914761D01*
X48110952Y-48819523D01*
X48063333Y-48724285D01*
X48015714Y-48533809D01*
X48015714Y-48390952D01*
X48063333Y-48200476D01*
X48110952Y-48105238D01*
X48206190Y-48010000D01*
X48349047Y-47962380D01*
X48444285Y-47962380D01*
X48587142Y-48010000D01*
X48634761Y-48057619D01*
X49587142Y-48962380D02*
X49015714Y-48962380D01*
X49301428Y-48962380D02*
X49301428Y-47962380D01*
X49206190Y-48105238D01*
X49110952Y-48200476D01*
X49015714Y-48248095D01*
X50539523Y-48962380D02*
X49968095Y-48962380D01*
X50253809Y-48962380D02*
X50253809Y-47962380D01*
X50158571Y-48105238D01*
X50063333Y-48200476D01*
X49968095Y-48248095D01*
X51158571Y-47962380D02*
X51253809Y-47962380D01*
X51349047Y-48010000D01*
X51396666Y-48057619D01*
X51444285Y-48152857D01*
X51491904Y-48343333D01*
X51491904Y-48581428D01*
X51444285Y-48771904D01*
X51396666Y-48867142D01*
X51349047Y-48914761D01*
X51253809Y-48962380D01*
X51158571Y-48962380D01*
X51063333Y-48914761D01*
X51015714Y-48867142D01*
X50968095Y-48771904D01*
X50920476Y-48581428D01*
X50920476Y-48343333D01*
X50968095Y-48152857D01*
X51015714Y-48057619D01*
X51063333Y-48010000D01*
X51158571Y-47962380D01*
X52444285Y-48962380D02*
X51872857Y-48962380D01*
X52158571Y-48962380D02*
X52158571Y-47962380D01*
X52063333Y-48105238D01*
X51968095Y-48200476D01*
X51872857Y-48248095D01*
X70086666Y-20562380D02*
X70086666Y-21276666D01*
X70039047Y-21419523D01*
X69943809Y-21514761D01*
X69800952Y-21562380D01*
X69705714Y-21562380D01*
X70467619Y-20562380D02*
X71086666Y-20562380D01*
X70753333Y-20943333D01*
X70896190Y-20943333D01*
X70991428Y-20990952D01*
X71039047Y-21038571D01*
X71086666Y-21133809D01*
X71086666Y-21371904D01*
X71039047Y-21467142D01*
X70991428Y-21514761D01*
X70896190Y-21562380D01*
X70610476Y-21562380D01*
X70515238Y-21514761D01*
X70467619Y-21467142D01*
X24515714Y-48055238D02*
X25182380Y-48055238D01*
X24134761Y-48293333D02*
X24849047Y-48531428D01*
X24849047Y-47912380D01*
X24182380Y-47626666D02*
X24182380Y-47007619D01*
X24563333Y-47340952D01*
X24563333Y-47198095D01*
X24610952Y-47102857D01*
X24658571Y-47055238D01*
X24753809Y-47007619D01*
X24991904Y-47007619D01*
X25087142Y-47055238D01*
X25134761Y-47102857D01*
X25182380Y-47198095D01*
X25182380Y-47483809D01*
X25134761Y-47579047D01*
X25087142Y-47626666D01*
X24182380Y-46674285D02*
X24182380Y-46055238D01*
X24563333Y-46388571D01*
X24563333Y-46245714D01*
X24610952Y-46150476D01*
X24658571Y-46102857D01*
X24753809Y-46055238D01*
X24991904Y-46055238D01*
X25087142Y-46102857D01*
X25134761Y-46150476D01*
X25182380Y-46245714D01*
X25182380Y-46531428D01*
X25134761Y-46626666D01*
X25087142Y-46674285D01*
X25277619Y-45864761D02*
X25277619Y-45102857D01*
X25182380Y-44293333D02*
X24706190Y-44626666D01*
X25182380Y-44864761D02*
X24182380Y-44864761D01*
X24182380Y-44483809D01*
X24230000Y-44388571D01*
X24277619Y-44340952D01*
X24372857Y-44293333D01*
X24515714Y-44293333D01*
X24610952Y-44340952D01*
X24658571Y-44388571D01*
X24706190Y-44483809D01*
X24706190Y-44864761D01*
X24182380Y-43960000D02*
X25182380Y-43293333D01*
X24182380Y-43293333D02*
X25182380Y-43960000D01*
X25182380Y-42388571D02*
X25182380Y-42960000D01*
X25182380Y-42674285D02*
X24182380Y-42674285D01*
X24325238Y-42769523D01*
X24420476Y-42864761D01*
X24468095Y-42960000D01*
X33133809Y-66700714D02*
X33133809Y-67367380D01*
X32895714Y-66319761D02*
X32657619Y-67034047D01*
X33276666Y-67034047D01*
X33562380Y-66367380D02*
X34181428Y-66367380D01*
X33848095Y-66748333D01*
X33990952Y-66748333D01*
X34086190Y-66795952D01*
X34133809Y-66843571D01*
X34181428Y-66938809D01*
X34181428Y-67176904D01*
X34133809Y-67272142D01*
X34086190Y-67319761D01*
X33990952Y-67367380D01*
X33705238Y-67367380D01*
X33610000Y-67319761D01*
X33562380Y-67272142D01*
X34514761Y-66367380D02*
X35133809Y-66367380D01*
X34800476Y-66748333D01*
X34943333Y-66748333D01*
X35038571Y-66795952D01*
X35086190Y-66843571D01*
X35133809Y-66938809D01*
X35133809Y-67176904D01*
X35086190Y-67272142D01*
X35038571Y-67319761D01*
X34943333Y-67367380D01*
X34657619Y-67367380D01*
X34562380Y-67319761D01*
X34514761Y-67272142D01*
X35324285Y-67462619D02*
X36086190Y-67462619D01*
X36181428Y-66367380D02*
X36752857Y-66367380D01*
X36467142Y-67367380D02*
X36467142Y-66367380D01*
X36990952Y-66367380D02*
X37657619Y-67367380D01*
X37657619Y-66367380D02*
X36990952Y-67367380D01*
X38562380Y-67367380D02*
X37990952Y-67367380D01*
X38276666Y-67367380D02*
X38276666Y-66367380D01*
X38181428Y-66510238D01*
X38086190Y-66605476D01*
X37990952Y-66653095D01*
X58882380Y-72174761D02*
X58882380Y-71603333D01*
X59882380Y-71889047D02*
X58882380Y-71889047D01*
X59834761Y-71317619D02*
X59882380Y-71174761D01*
X59882380Y-70936666D01*
X59834761Y-70841428D01*
X59787142Y-70793809D01*
X59691904Y-70746190D01*
X59596666Y-70746190D01*
X59501428Y-70793809D01*
X59453809Y-70841428D01*
X59406190Y-70936666D01*
X59358571Y-71127142D01*
X59310952Y-71222380D01*
X59263333Y-71270000D01*
X59168095Y-71317619D01*
X59072857Y-71317619D01*
X58977619Y-71270000D01*
X58930000Y-71222380D01*
X58882380Y-71127142D01*
X58882380Y-70889047D01*
X58930000Y-70746190D01*
X58882380Y-70127142D02*
X58882380Y-69936666D01*
X58930000Y-69841428D01*
X59025238Y-69746190D01*
X59215714Y-69698571D01*
X59549047Y-69698571D01*
X59739523Y-69746190D01*
X59834761Y-69841428D01*
X59882380Y-69936666D01*
X59882380Y-70127142D01*
X59834761Y-70222380D01*
X59739523Y-70317619D01*
X59549047Y-70365238D01*
X59215714Y-70365238D01*
X59025238Y-70317619D01*
X58930000Y-70222380D01*
X58882380Y-70127142D01*
X59882380Y-69270000D02*
X58882380Y-69270000D01*
X58882380Y-68889047D01*
X58930000Y-68793809D01*
X58977619Y-68746190D01*
X59072857Y-68698571D01*
X59215714Y-68698571D01*
X59310952Y-68746190D01*
X59358571Y-68793809D01*
X59406190Y-68889047D01*
X59406190Y-69270000D01*
X59215714Y-67841428D02*
X59882380Y-67841428D01*
X58834761Y-68079523D02*
X59549047Y-68317619D01*
X59549047Y-67698571D01*
X59310952Y-67174761D02*
X59263333Y-67270000D01*
X59215714Y-67317619D01*
X59120476Y-67365238D01*
X59072857Y-67365238D01*
X58977619Y-67317619D01*
X58930000Y-67270000D01*
X58882380Y-67174761D01*
X58882380Y-66984285D01*
X58930000Y-66889047D01*
X58977619Y-66841428D01*
X59072857Y-66793809D01*
X59120476Y-66793809D01*
X59215714Y-66841428D01*
X59263333Y-66889047D01*
X59310952Y-66984285D01*
X59310952Y-67174761D01*
X59358571Y-67270000D01*
X59406190Y-67317619D01*
X59501428Y-67365238D01*
X59691904Y-67365238D01*
X59787142Y-67317619D01*
X59834761Y-67270000D01*
X59882380Y-67174761D01*
X59882380Y-66984285D01*
X59834761Y-66889047D01*
X59787142Y-66841428D01*
X59691904Y-66793809D01*
X59501428Y-66793809D01*
X59406190Y-66841428D01*
X59358571Y-66889047D01*
X59310952Y-66984285D01*
X59882380Y-66460476D02*
X59215714Y-65936666D01*
X59215714Y-66460476D02*
X59882380Y-65936666D01*
X59882380Y-65650952D02*
X59215714Y-65127142D01*
X59215714Y-65650952D02*
X59882380Y-65127142D01*
X59977619Y-64984285D02*
X59977619Y-64222380D01*
X59882380Y-63460476D02*
X59882380Y-64031904D01*
X59882380Y-63746190D02*
X58882380Y-63746190D01*
X59025238Y-63841428D01*
X59120476Y-63936666D01*
X59168095Y-64031904D01*
X43203333Y-62972380D02*
X42727142Y-62972380D01*
X42727142Y-61972380D01*
X43536666Y-62972380D02*
X43536666Y-61972380D01*
X43774761Y-61972380D01*
X43917619Y-62020000D01*
X44012857Y-62115238D01*
X44060476Y-62210476D01*
X44108095Y-62400952D01*
X44108095Y-62543809D01*
X44060476Y-62734285D01*
X44012857Y-62829523D01*
X43917619Y-62924761D01*
X43774761Y-62972380D01*
X43536666Y-62972380D01*
X45108095Y-62972380D02*
X44774761Y-62496190D01*
X44536666Y-62972380D02*
X44536666Y-61972380D01*
X44917619Y-61972380D01*
X45012857Y-62020000D01*
X45060476Y-62067619D01*
X45108095Y-62162857D01*
X45108095Y-62305714D01*
X45060476Y-62400952D01*
X45012857Y-62448571D01*
X44917619Y-62496190D01*
X44536666Y-62496190D01*
X46060476Y-62972380D02*
X45489047Y-62972380D01*
X45774761Y-62972380D02*
X45774761Y-61972380D01*
X45679523Y-62115238D01*
X45584285Y-62210476D01*
X45489047Y-62258095D01*
X33454761Y-27452380D02*
X33454761Y-26452380D01*
X33835714Y-26452380D01*
X33930952Y-26500000D01*
X33978571Y-26547619D01*
X34026190Y-26642857D01*
X34026190Y-26785714D01*
X33978571Y-26880952D01*
X33930952Y-26928571D01*
X33835714Y-26976190D01*
X33454761Y-26976190D01*
X34454761Y-27452380D02*
X34454761Y-26452380D01*
X35026190Y-27452380D01*
X35026190Y-26452380D01*
X35454761Y-26547619D02*
X35502380Y-26500000D01*
X35597619Y-26452380D01*
X35835714Y-26452380D01*
X35930952Y-26500000D01*
X35978571Y-26547619D01*
X36026190Y-26642857D01*
X36026190Y-26738095D01*
X35978571Y-26880952D01*
X35407142Y-27452380D01*
X36026190Y-27452380D01*
X36407142Y-26547619D02*
X36454761Y-26500000D01*
X36550000Y-26452380D01*
X36788095Y-26452380D01*
X36883333Y-26500000D01*
X36930952Y-26547619D01*
X36978571Y-26642857D01*
X36978571Y-26738095D01*
X36930952Y-26880952D01*
X36359523Y-27452380D01*
X36978571Y-27452380D01*
X37359523Y-26547619D02*
X37407142Y-26500000D01*
X37502380Y-26452380D01*
X37740476Y-26452380D01*
X37835714Y-26500000D01*
X37883333Y-26547619D01*
X37930952Y-26642857D01*
X37930952Y-26738095D01*
X37883333Y-26880952D01*
X37311904Y-27452380D01*
X37930952Y-27452380D01*
X38311904Y-26547619D02*
X38359523Y-26500000D01*
X38454761Y-26452380D01*
X38692857Y-26452380D01*
X38788095Y-26500000D01*
X38835714Y-26547619D01*
X38883333Y-26642857D01*
X38883333Y-26738095D01*
X38835714Y-26880952D01*
X38264285Y-27452380D01*
X38883333Y-27452380D01*
X39264285Y-27166666D02*
X39740476Y-27166666D01*
X39169047Y-27452380D02*
X39502380Y-26452380D01*
X39835714Y-27452380D01*
X40692857Y-27452380D02*
X40121428Y-27452380D01*
X40407142Y-27452380D02*
X40407142Y-26452380D01*
X40311904Y-26595238D01*
X40216666Y-26690476D01*
X40121428Y-26738095D01*
X32266190Y-29832380D02*
X31932857Y-29356190D01*
X31694761Y-29832380D02*
X31694761Y-28832380D01*
X32075714Y-28832380D01*
X32170952Y-28880000D01*
X32218571Y-28927619D01*
X32266190Y-29022857D01*
X32266190Y-29165714D01*
X32218571Y-29260952D01*
X32170952Y-29308571D01*
X32075714Y-29356190D01*
X31694761Y-29356190D01*
X33218571Y-29832380D02*
X32647142Y-29832380D01*
X32932857Y-29832380D02*
X32932857Y-28832380D01*
X32837619Y-28975238D01*
X32742380Y-29070476D01*
X32647142Y-29118095D01*
X33837619Y-28832380D02*
X33932857Y-28832380D01*
X34028095Y-28880000D01*
X34075714Y-28927619D01*
X34123333Y-29022857D01*
X34170952Y-29213333D01*
X34170952Y-29451428D01*
X34123333Y-29641904D01*
X34075714Y-29737142D01*
X34028095Y-29784761D01*
X33932857Y-29832380D01*
X33837619Y-29832380D01*
X33742380Y-29784761D01*
X33694761Y-29737142D01*
X33647142Y-29641904D01*
X33599523Y-29451428D01*
X33599523Y-29213333D01*
X33647142Y-29022857D01*
X33694761Y-28927619D01*
X33742380Y-28880000D01*
X33837619Y-28832380D01*
X34599523Y-29832380D02*
X34599523Y-28832380D01*
X34694761Y-29451428D02*
X34980476Y-29832380D01*
X34980476Y-29165714D02*
X34599523Y-29546666D01*
X35932857Y-29832380D02*
X35361428Y-29832380D01*
X35647142Y-29832380D02*
X35647142Y-28832380D01*
X35551904Y-28975238D01*
X35456666Y-29070476D01*
X35361428Y-29118095D01*
X32420000Y-34102380D02*
X32086666Y-33626190D01*
X31848571Y-34102380D02*
X31848571Y-33102380D01*
X32229523Y-33102380D01*
X32324761Y-33150000D01*
X32372380Y-33197619D01*
X32420000Y-33292857D01*
X32420000Y-33435714D01*
X32372380Y-33530952D01*
X32324761Y-33578571D01*
X32229523Y-33626190D01*
X31848571Y-33626190D01*
X33324761Y-33102380D02*
X32848571Y-33102380D01*
X32800952Y-33578571D01*
X32848571Y-33530952D01*
X32943809Y-33483333D01*
X33181904Y-33483333D01*
X33277142Y-33530952D01*
X33324761Y-33578571D01*
X33372380Y-33673809D01*
X33372380Y-33911904D01*
X33324761Y-34007142D01*
X33277142Y-34054761D01*
X33181904Y-34102380D01*
X32943809Y-34102380D01*
X32848571Y-34054761D01*
X32800952Y-34007142D01*
X34229523Y-33102380D02*
X34039047Y-33102380D01*
X33943809Y-33150000D01*
X33896190Y-33197619D01*
X33800952Y-33340476D01*
X33753333Y-33530952D01*
X33753333Y-33911904D01*
X33800952Y-34007142D01*
X33848571Y-34054761D01*
X33943809Y-34102380D01*
X34134285Y-34102380D01*
X34229523Y-34054761D01*
X34277142Y-34007142D01*
X34324761Y-33911904D01*
X34324761Y-33673809D01*
X34277142Y-33578571D01*
X34229523Y-33530952D01*
X34134285Y-33483333D01*
X33943809Y-33483333D01*
X33848571Y-33530952D01*
X33800952Y-33578571D01*
X33753333Y-33673809D01*
X34515238Y-34197619D02*
X35277142Y-34197619D01*
X36039047Y-34102380D02*
X35467619Y-34102380D01*
X35753333Y-34102380D02*
X35753333Y-33102380D01*
X35658095Y-33245238D01*
X35562857Y-33340476D01*
X35467619Y-33388095D01*
X57542380Y-31289523D02*
X57542380Y-30718095D01*
X58542380Y-31003809D02*
X57542380Y-31003809D01*
X58494761Y-30003809D02*
X58542380Y-30099047D01*
X58542380Y-30289523D01*
X58494761Y-30384761D01*
X58399523Y-30432380D01*
X58018571Y-30432380D01*
X57923333Y-30384761D01*
X57875714Y-30289523D01*
X57875714Y-30099047D01*
X57923333Y-30003809D01*
X58018571Y-29956190D01*
X58113809Y-29956190D01*
X58209047Y-30432380D01*
X58542380Y-29527619D02*
X57875714Y-29527619D01*
X57970952Y-29527619D02*
X57923333Y-29480000D01*
X57875714Y-29384761D01*
X57875714Y-29241904D01*
X57923333Y-29146666D01*
X58018571Y-29099047D01*
X58542380Y-29099047D01*
X58018571Y-29099047D02*
X57923333Y-29051428D01*
X57875714Y-28956190D01*
X57875714Y-28813333D01*
X57923333Y-28718095D01*
X58018571Y-28670476D01*
X58542380Y-28670476D01*
X57875714Y-28194285D02*
X58875714Y-28194285D01*
X57923333Y-28194285D02*
X57875714Y-28099047D01*
X57875714Y-27908571D01*
X57923333Y-27813333D01*
X57970952Y-27765714D01*
X58066190Y-27718095D01*
X58351904Y-27718095D01*
X58447142Y-27765714D01*
X58494761Y-27813333D01*
X58542380Y-27908571D01*
X58542380Y-28099047D01*
X58494761Y-28194285D01*
X58542380Y-26765714D02*
X58542380Y-27337142D01*
X58542380Y-27051428D02*
X57542380Y-27051428D01*
X57685238Y-27146666D01*
X57780476Y-27241904D01*
X57828095Y-27337142D01*
M02*
