G04 #@! TF.GenerationSoftware,KiCad,Pcbnew,(5.0.0-rc2-dev-482-gf81c77cd4)*
G04 #@! TF.CreationDate,2018-05-18T00:15:41+02:00*
G04 #@! TF.ProjectId,ha_plattform,68615F706C617474666F726D2E6B6963,rev?*
G04 #@! TF.SameCoordinates,Original*
G04 #@! TF.FileFunction,Legend,Top*
G04 #@! TF.FilePolarity,Positive*
%FSLAX46Y46*%
G04 Gerber Fmt 4.6, Leading zero omitted, Abs format (unit mm)*
G04 Created by KiCad (PCBNEW (5.0.0-rc2-dev-482-gf81c77cd4)) date Fri May 18 00:15:41 2018*
%MOMM*%
%LPD*%
G01*
G04 APERTURE LIST*
%ADD10C,0.300000*%
%ADD11C,0.100000*%
%ADD12C,0.120000*%
%ADD13C,0.150000*%
%ADD14C,0.010000*%
G04 APERTURE END LIST*
D10*
X56561271Y-72058024D02*
X56632699Y-71986596D01*
X56775557Y-71915167D01*
X57132699Y-71915167D01*
X57275557Y-71986596D01*
X57346985Y-72058024D01*
X57418414Y-72200881D01*
X57418414Y-72343738D01*
X57346985Y-72558024D01*
X56489842Y-73415167D01*
X57418414Y-73415167D01*
X58346985Y-71915167D02*
X58489842Y-71915167D01*
X58632699Y-71986596D01*
X58704128Y-72058024D01*
X58775557Y-72200881D01*
X58846985Y-72486596D01*
X58846985Y-72843738D01*
X58775557Y-73129453D01*
X58704128Y-73272310D01*
X58632699Y-73343738D01*
X58489842Y-73415167D01*
X58346985Y-73415167D01*
X58204128Y-73343738D01*
X58132699Y-73272310D01*
X58061271Y-73129453D01*
X57989842Y-72843738D01*
X57989842Y-72486596D01*
X58061271Y-72200881D01*
X58132699Y-72058024D01*
X58204128Y-71986596D01*
X58346985Y-71915167D01*
X59489842Y-73272310D02*
X59561271Y-73343738D01*
X59489842Y-73415167D01*
X59418414Y-73343738D01*
X59489842Y-73272310D01*
X59489842Y-73415167D01*
X60846985Y-72415167D02*
X60846985Y-73415167D01*
X60489842Y-71843738D02*
X60132699Y-72915167D01*
X61061271Y-72915167D01*
X62275557Y-72415167D02*
X62275557Y-73415167D01*
X61918414Y-71843738D02*
X61561271Y-72915167D01*
X62489842Y-72915167D01*
X62918414Y-71915167D02*
X63918414Y-71915167D01*
X63275557Y-73415167D01*
X65632699Y-73415167D02*
X65632699Y-72415167D01*
X65632699Y-72558024D02*
X65704128Y-72486596D01*
X65846985Y-72415167D01*
X66061271Y-72415167D01*
X66204128Y-72486596D01*
X66275557Y-72629453D01*
X66275557Y-73415167D01*
X66275557Y-72629453D02*
X66346985Y-72486596D01*
X66489842Y-72415167D01*
X66704128Y-72415167D01*
X66846985Y-72486596D01*
X66918414Y-72629453D01*
X66918414Y-73415167D01*
X67632699Y-73415167D02*
X67632699Y-72415167D01*
X67632699Y-72558024D02*
X67704128Y-72486596D01*
X67846985Y-72415167D01*
X68061271Y-72415167D01*
X68204128Y-72486596D01*
X68275557Y-72629453D01*
X68275557Y-73415167D01*
X68275557Y-72629453D02*
X68346985Y-72486596D01*
X68489842Y-72415167D01*
X68704128Y-72415167D01*
X68846985Y-72486596D01*
X68918414Y-72629453D01*
X68918414Y-73415167D01*
X52552057Y-70636596D02*
X72999057Y-70636596D01*
X52552057Y-60730596D02*
X52552057Y-71223017D01*
X72999057Y-60730596D02*
X72999057Y-71223017D01*
X72999057Y-70636596D02*
X71872553Y-71223017D01*
X72999057Y-70636596D02*
X71872553Y-70050175D01*
X52552057Y-70636596D02*
X53678561Y-71223017D01*
X52552057Y-70636596D02*
X53678561Y-70050175D01*
X46044842Y-38308814D02*
X45187699Y-38308814D01*
X45616270Y-38308814D02*
X45616270Y-36808814D01*
X45473413Y-37023100D01*
X45330556Y-37165957D01*
X45187699Y-37237385D01*
X46616270Y-36951671D02*
X46687699Y-36880243D01*
X46830556Y-36808814D01*
X47187699Y-36808814D01*
X47330556Y-36880243D01*
X47401985Y-36951671D01*
X47473413Y-37094528D01*
X47473413Y-37237385D01*
X47401985Y-37451671D01*
X46544842Y-38308814D01*
X47473413Y-38308814D01*
X48116270Y-38165957D02*
X48187699Y-38237385D01*
X48116270Y-38308814D01*
X48044842Y-38237385D01*
X48116270Y-38165957D01*
X48116270Y-38308814D01*
X48687699Y-36808814D02*
X49616270Y-36808814D01*
X49116270Y-37380243D01*
X49330556Y-37380243D01*
X49473413Y-37451671D01*
X49544842Y-37523100D01*
X49616270Y-37665957D01*
X49616270Y-38023100D01*
X49544842Y-38165957D01*
X49473413Y-38237385D01*
X49330556Y-38308814D01*
X48901985Y-38308814D01*
X48759127Y-38237385D01*
X48687699Y-38165957D01*
X51044842Y-38308814D02*
X50187699Y-38308814D01*
X50616270Y-38308814D02*
X50616270Y-36808814D01*
X50473413Y-37023100D01*
X50330556Y-37165957D01*
X50187699Y-37237385D01*
X51759127Y-38308814D02*
X52044842Y-38308814D01*
X52187699Y-38237385D01*
X52259127Y-38165957D01*
X52401985Y-37951671D01*
X52473413Y-37665957D01*
X52473413Y-37094528D01*
X52401985Y-36951671D01*
X52330556Y-36880243D01*
X52187699Y-36808814D01*
X51901985Y-36808814D01*
X51759127Y-36880243D01*
X51687699Y-36951671D01*
X51616270Y-37094528D01*
X51616270Y-37451671D01*
X51687699Y-37594528D01*
X51759127Y-37665957D01*
X51901985Y-37737385D01*
X52187699Y-37737385D01*
X52330556Y-37665957D01*
X52401985Y-37594528D01*
X52473413Y-37451671D01*
X54259127Y-38308814D02*
X54259127Y-37308814D01*
X54259127Y-37451671D02*
X54330556Y-37380243D01*
X54473413Y-37308814D01*
X54687699Y-37308814D01*
X54830556Y-37380243D01*
X54901985Y-37523100D01*
X54901985Y-38308814D01*
X54901985Y-37523100D02*
X54973413Y-37380243D01*
X55116270Y-37308814D01*
X55330556Y-37308814D01*
X55473413Y-37380243D01*
X55544842Y-37523100D01*
X55544842Y-38308814D01*
X56259127Y-38308814D02*
X56259127Y-37308814D01*
X56259127Y-37451671D02*
X56330556Y-37380243D01*
X56473413Y-37308814D01*
X56687699Y-37308814D01*
X56830556Y-37380243D01*
X56901985Y-37523100D01*
X56901985Y-38308814D01*
X56901985Y-37523100D02*
X56973413Y-37380243D01*
X57116270Y-37308814D01*
X57330556Y-37308814D01*
X57473413Y-37380243D01*
X57544842Y-37523100D01*
X57544842Y-38308814D01*
X45242485Y-35530243D02*
X57561485Y-35530243D01*
X45242485Y-24100243D02*
X45242485Y-36116664D01*
X57561485Y-24100243D02*
X57561485Y-36116664D01*
X57561485Y-35530243D02*
X56434981Y-36116664D01*
X57561485Y-35530243D02*
X56434981Y-34943822D01*
X45242485Y-35530243D02*
X46368989Y-36116664D01*
X45242485Y-35530243D02*
X46368989Y-34943822D01*
X73396124Y-32225902D02*
X73399853Y-33154466D01*
X72826421Y-32656765D01*
X72827282Y-32871049D01*
X72756427Y-33014192D01*
X72685286Y-33085907D01*
X72542717Y-33157908D01*
X72185577Y-33159343D01*
X72042434Y-33088488D01*
X71970719Y-33017347D01*
X71898718Y-32874778D01*
X71896996Y-32446210D01*
X71967851Y-32303067D01*
X72038992Y-32231352D01*
X71905602Y-34589050D02*
X71902160Y-33731914D01*
X71903881Y-34160482D02*
X73403869Y-34154458D01*
X73189011Y-34012462D01*
X73045582Y-33870180D01*
X72973580Y-33727611D01*
X72051040Y-35231328D02*
X71979899Y-35303043D01*
X71908184Y-35231902D01*
X71979325Y-35160187D01*
X72051040Y-35231328D01*
X71908184Y-35231902D01*
X73413622Y-36583010D02*
X73412475Y-36297298D01*
X73340473Y-36154729D01*
X73268758Y-36083587D01*
X73053901Y-35941592D01*
X72767902Y-35871312D01*
X72196478Y-35873606D01*
X72053909Y-35945608D01*
X71982767Y-36017323D01*
X71911913Y-36160466D01*
X71913061Y-36446178D01*
X71985062Y-36588747D01*
X72056777Y-36659888D01*
X72199920Y-36730742D01*
X72557060Y-36729308D01*
X72699629Y-36657306D01*
X72770770Y-36585591D01*
X72841625Y-36442449D01*
X72840477Y-36156737D01*
X72768475Y-36014168D01*
X72696761Y-35943026D01*
X72553618Y-35872172D01*
X73273635Y-37297863D02*
X73345350Y-37369005D01*
X73417351Y-37511574D01*
X73418786Y-37868714D01*
X73347931Y-38011857D01*
X73276790Y-38083571D01*
X73134221Y-38155573D01*
X72991365Y-38156147D01*
X72776794Y-38085579D01*
X71916216Y-37231886D01*
X71919945Y-38160450D01*
X73421941Y-38654422D02*
X73425670Y-39582986D01*
X72852238Y-39085284D01*
X72853099Y-39299568D01*
X72782245Y-39442711D01*
X72711104Y-39514426D01*
X72568534Y-39586428D01*
X72211394Y-39587862D01*
X72068252Y-39517008D01*
X71996537Y-39445867D01*
X71924535Y-39303298D01*
X71922814Y-38874730D01*
X71993668Y-38731587D01*
X72064809Y-38659872D01*
X71932854Y-41374709D02*
X72932846Y-41370693D01*
X72789990Y-41371267D02*
X72861705Y-41442408D01*
X72933706Y-41584977D01*
X72934567Y-41799261D01*
X72863713Y-41942404D01*
X72721144Y-42014406D01*
X71935436Y-42017561D01*
X72721144Y-42014406D02*
X72864286Y-42085260D01*
X72936288Y-42227829D01*
X72937149Y-42442113D01*
X72866294Y-42585256D01*
X72723725Y-42657258D01*
X71938017Y-42660413D01*
X71940886Y-43374693D02*
X72940878Y-43370677D01*
X72798022Y-43371251D02*
X72869737Y-43442392D01*
X72941738Y-43584961D01*
X72942599Y-43799245D01*
X72871745Y-43942388D01*
X72729176Y-44014390D01*
X71943468Y-44017545D01*
X72729176Y-44014390D02*
X72872319Y-44085244D01*
X72944320Y-44227813D01*
X72945181Y-44442097D01*
X72874327Y-44585240D01*
X72731757Y-44657242D01*
X71946049Y-44660397D01*
X70436463Y-22711799D02*
X70563463Y-54334799D01*
X61547117Y-22747499D02*
X71022879Y-22709444D01*
X61674117Y-54370499D02*
X71149879Y-54332444D01*
X70563463Y-54334799D02*
X69972523Y-53210659D01*
X70563463Y-54334799D02*
X71145355Y-53205949D01*
X70436463Y-22711799D02*
X69854571Y-23840649D01*
X70436463Y-22711799D02*
X71027403Y-23835939D01*
D11*
X37736571Y-21661380D02*
X37736571Y-20661380D01*
X37736571Y-21137571D02*
X38308000Y-21137571D01*
X38308000Y-21661380D02*
X38308000Y-20661380D01*
X38736571Y-21375666D02*
X39212761Y-21375666D01*
X38641333Y-21661380D02*
X38974666Y-20661380D01*
X39308000Y-21661380D01*
X40403238Y-21661380D02*
X40403238Y-20661380D01*
X40784190Y-20661380D01*
X40879428Y-20709000D01*
X40927047Y-20756619D01*
X40974666Y-20851857D01*
X40974666Y-20994714D01*
X40927047Y-21089952D01*
X40879428Y-21137571D01*
X40784190Y-21185190D01*
X40403238Y-21185190D01*
X41546095Y-21661380D02*
X41450857Y-21613761D01*
X41403238Y-21518523D01*
X41403238Y-20661380D01*
X42355619Y-21661380D02*
X42355619Y-21137571D01*
X42308000Y-21042333D01*
X42212761Y-20994714D01*
X42022285Y-20994714D01*
X41927047Y-21042333D01*
X42355619Y-21613761D02*
X42260380Y-21661380D01*
X42022285Y-21661380D01*
X41927047Y-21613761D01*
X41879428Y-21518523D01*
X41879428Y-21423285D01*
X41927047Y-21328047D01*
X42022285Y-21280428D01*
X42260380Y-21280428D01*
X42355619Y-21232809D01*
X42688952Y-20994714D02*
X43069904Y-20994714D01*
X42831809Y-20661380D02*
X42831809Y-21518523D01*
X42879428Y-21613761D01*
X42974666Y-21661380D01*
X43069904Y-21661380D01*
X43260380Y-20994714D02*
X43641333Y-20994714D01*
X43403238Y-20661380D02*
X43403238Y-21518523D01*
X43450857Y-21613761D01*
X43546095Y-21661380D01*
X43641333Y-21661380D01*
X43831809Y-20994714D02*
X44212761Y-20994714D01*
X43974666Y-21661380D02*
X43974666Y-20804238D01*
X44022285Y-20709000D01*
X44117523Y-20661380D01*
X44212761Y-20661380D01*
X44688952Y-21661380D02*
X44593714Y-21613761D01*
X44546095Y-21566142D01*
X44498476Y-21470904D01*
X44498476Y-21185190D01*
X44546095Y-21089952D01*
X44593714Y-21042333D01*
X44688952Y-20994714D01*
X44831809Y-20994714D01*
X44927047Y-21042333D01*
X44974666Y-21089952D01*
X45022285Y-21185190D01*
X45022285Y-21470904D01*
X44974666Y-21566142D01*
X44927047Y-21613761D01*
X44831809Y-21661380D01*
X44688952Y-21661380D01*
X45450857Y-21661380D02*
X45450857Y-20994714D01*
X45450857Y-21185190D02*
X45498476Y-21089952D01*
X45546095Y-21042333D01*
X45641333Y-20994714D01*
X45736571Y-20994714D01*
X46069904Y-21661380D02*
X46069904Y-20994714D01*
X46069904Y-21089952D02*
X46117523Y-21042333D01*
X46212761Y-20994714D01*
X46355619Y-20994714D01*
X46450857Y-21042333D01*
X46498476Y-21137571D01*
X46498476Y-21661380D01*
X46498476Y-21137571D02*
X46546095Y-21042333D01*
X46641333Y-20994714D01*
X46784190Y-20994714D01*
X46879428Y-21042333D01*
X46927047Y-21137571D01*
X46927047Y-21661380D01*
X48022285Y-20661380D02*
X48355619Y-21661380D01*
X48688952Y-20661380D01*
X49212761Y-20661380D02*
X49308000Y-20661380D01*
X49403238Y-20709000D01*
X49450857Y-20756619D01*
X49498476Y-20851857D01*
X49546095Y-21042333D01*
X49546095Y-21280428D01*
X49498476Y-21470904D01*
X49450857Y-21566142D01*
X49403238Y-21613761D01*
X49308000Y-21661380D01*
X49212761Y-21661380D01*
X49117523Y-21613761D01*
X49069904Y-21566142D01*
X49022285Y-21470904D01*
X48974666Y-21280428D01*
X48974666Y-21042333D01*
X49022285Y-20851857D01*
X49069904Y-20756619D01*
X49117523Y-20709000D01*
X49212761Y-20661380D01*
X49974666Y-21566142D02*
X50022285Y-21613761D01*
X49974666Y-21661380D01*
X49927047Y-21613761D01*
X49974666Y-21566142D01*
X49974666Y-21661380D01*
X50403238Y-20756619D02*
X50450857Y-20709000D01*
X50546095Y-20661380D01*
X50784190Y-20661380D01*
X50879428Y-20709000D01*
X50927047Y-20756619D01*
X50974666Y-20851857D01*
X50974666Y-20947095D01*
X50927047Y-21089952D01*
X50355619Y-21661380D01*
X50974666Y-21661380D01*
X52450857Y-22042333D02*
X52403238Y-21994714D01*
X52308000Y-21851857D01*
X52260380Y-21756619D01*
X52212761Y-21613761D01*
X52165142Y-21375666D01*
X52165142Y-21185190D01*
X52212761Y-20947095D01*
X52260380Y-20804238D01*
X52308000Y-20709000D01*
X52403238Y-20566142D01*
X52450857Y-20518523D01*
X53260380Y-21613761D02*
X53165142Y-21661380D01*
X52974666Y-21661380D01*
X52879428Y-21613761D01*
X52831809Y-21566142D01*
X52784190Y-21470904D01*
X52784190Y-21185190D01*
X52831809Y-21089952D01*
X52879428Y-21042333D01*
X52974666Y-20994714D01*
X53165142Y-20994714D01*
X53260380Y-21042333D01*
X53593714Y-22042333D02*
X53641333Y-21994714D01*
X53736571Y-21851857D01*
X53784190Y-21756619D01*
X53831809Y-21613761D01*
X53879428Y-21375666D01*
X53879428Y-21185190D01*
X53831809Y-20947095D01*
X53784190Y-20804238D01*
X53736571Y-20709000D01*
X53641333Y-20566142D01*
X53593714Y-20518523D01*
X55069904Y-20756619D02*
X55117523Y-20709000D01*
X55212761Y-20661380D01*
X55450857Y-20661380D01*
X55546095Y-20709000D01*
X55593714Y-20756619D01*
X55641333Y-20851857D01*
X55641333Y-20947095D01*
X55593714Y-21089952D01*
X55022285Y-21661380D01*
X55641333Y-21661380D01*
X56260380Y-20661380D02*
X56355619Y-20661380D01*
X56450857Y-20709000D01*
X56498476Y-20756619D01*
X56546095Y-20851857D01*
X56593714Y-21042333D01*
X56593714Y-21280428D01*
X56546095Y-21470904D01*
X56498476Y-21566142D01*
X56450857Y-21613761D01*
X56355619Y-21661380D01*
X56260380Y-21661380D01*
X56165142Y-21613761D01*
X56117523Y-21566142D01*
X56069904Y-21470904D01*
X56022285Y-21280428D01*
X56022285Y-21042333D01*
X56069904Y-20851857D01*
X56117523Y-20756619D01*
X56165142Y-20709000D01*
X56260380Y-20661380D01*
X57546095Y-21661380D02*
X56974666Y-21661380D01*
X57260380Y-21661380D02*
X57260380Y-20661380D01*
X57165142Y-20804238D01*
X57069904Y-20899476D01*
X56974666Y-20947095D01*
X58117523Y-21089952D02*
X58022285Y-21042333D01*
X57974666Y-20994714D01*
X57927047Y-20899476D01*
X57927047Y-20851857D01*
X57974666Y-20756619D01*
X58022285Y-20709000D01*
X58117523Y-20661380D01*
X58307999Y-20661380D01*
X58403238Y-20709000D01*
X58450857Y-20756619D01*
X58498476Y-20851857D01*
X58498476Y-20899476D01*
X58450857Y-20994714D01*
X58403238Y-21042333D01*
X58307999Y-21089952D01*
X58117523Y-21089952D01*
X58022285Y-21137571D01*
X57974666Y-21185190D01*
X57927047Y-21280428D01*
X57927047Y-21470904D01*
X57974666Y-21566142D01*
X58022285Y-21613761D01*
X58117523Y-21661380D01*
X58307999Y-21661380D01*
X58403238Y-21613761D01*
X58450857Y-21566142D01*
X58498476Y-21470904D01*
X58498476Y-21280428D01*
X58450857Y-21185190D01*
X58403238Y-21137571D01*
X58307999Y-21089952D01*
X59641333Y-21375666D02*
X60117523Y-21375666D01*
X59546095Y-21661380D02*
X59879428Y-20661380D01*
X60212761Y-21661380D01*
X60546095Y-21566142D02*
X60593714Y-21613761D01*
X60546095Y-21661380D01*
X60498476Y-21613761D01*
X60546095Y-21566142D01*
X60546095Y-21661380D01*
X61784190Y-21661380D02*
X61784190Y-20661380D01*
X62117523Y-21375666D01*
X62450857Y-20661380D01*
X62450857Y-21661380D01*
X63069904Y-21661380D02*
X62974666Y-21613761D01*
X62927047Y-21566142D01*
X62879428Y-21470904D01*
X62879428Y-21185190D01*
X62927047Y-21089952D01*
X62974666Y-21042333D01*
X63069904Y-20994714D01*
X63212761Y-20994714D01*
X63307999Y-21042333D01*
X63355619Y-21089952D01*
X63403238Y-21185190D01*
X63403238Y-21470904D01*
X63355619Y-21566142D01*
X63307999Y-21613761D01*
X63212761Y-21661380D01*
X63069904Y-21661380D01*
X63831809Y-21661380D02*
X63831809Y-20661380D01*
X64260380Y-21661380D02*
X64260380Y-21137571D01*
X64212761Y-21042333D01*
X64117523Y-20994714D01*
X63974666Y-20994714D01*
X63879428Y-21042333D01*
X63831809Y-21089952D01*
X64736571Y-21661380D02*
X64736571Y-20994714D01*
X64736571Y-21185190D02*
X64784190Y-21089952D01*
X64831809Y-21042333D01*
X64927047Y-20994714D01*
X65022285Y-20994714D01*
D12*
X42660000Y-32480000D02*
G75*
G03X42660000Y-32480000I-7120000J0D01*
G01*
X35540000Y-25400000D02*
X35540000Y-39560000D01*
X35580000Y-25400000D02*
X35580000Y-39560000D01*
X35620000Y-25400000D02*
X35620000Y-39560000D01*
X35660000Y-25401000D02*
X35660000Y-39559000D01*
X35700000Y-25401000D02*
X35700000Y-39559000D01*
X35740000Y-25402000D02*
X35740000Y-39558000D01*
X35780000Y-25404000D02*
X35780000Y-39556000D01*
X35820000Y-25405000D02*
X35820000Y-39555000D01*
X35860000Y-25407000D02*
X35860000Y-39553000D01*
X35900000Y-25409000D02*
X35900000Y-39551000D01*
X35940000Y-25411000D02*
X35940000Y-39549000D01*
X35980000Y-25413000D02*
X35980000Y-39547000D01*
X36020000Y-25416000D02*
X36020000Y-39544000D01*
X36060000Y-25419000D02*
X36060000Y-39541000D01*
X36100000Y-25422000D02*
X36100000Y-39538000D01*
X36140000Y-25425000D02*
X36140000Y-39535000D01*
X36180000Y-25428000D02*
X36180000Y-39532000D01*
X36220000Y-25432000D02*
X36220000Y-39528000D01*
X36261000Y-25436000D02*
X36261000Y-39524000D01*
X36301000Y-25440000D02*
X36301000Y-39520000D01*
X36341000Y-25445000D02*
X36341000Y-39515000D01*
X36381000Y-25449000D02*
X36381000Y-39511000D01*
X36421000Y-25454000D02*
X36421000Y-39506000D01*
X36461000Y-25459000D02*
X36461000Y-39501000D01*
X36501000Y-25465000D02*
X36501000Y-39495000D01*
X36541000Y-25470000D02*
X36541000Y-39490000D01*
X36581000Y-25476000D02*
X36581000Y-39484000D01*
X36621000Y-25482000D02*
X36621000Y-31040000D01*
X36621000Y-33920000D02*
X36621000Y-39478000D01*
X36661000Y-25488000D02*
X36661000Y-31040000D01*
X36661000Y-33920000D02*
X36661000Y-39472000D01*
X36701000Y-25495000D02*
X36701000Y-31040000D01*
X36701000Y-33920000D02*
X36701000Y-39465000D01*
X36741000Y-25501000D02*
X36741000Y-31040000D01*
X36741000Y-33920000D02*
X36741000Y-39459000D01*
X36781000Y-25508000D02*
X36781000Y-31040000D01*
X36781000Y-33920000D02*
X36781000Y-39452000D01*
X36821000Y-25516000D02*
X36821000Y-31040000D01*
X36821000Y-33920000D02*
X36821000Y-39444000D01*
X36861000Y-25523000D02*
X36861000Y-31040000D01*
X36861000Y-33920000D02*
X36861000Y-39437000D01*
X36901000Y-25531000D02*
X36901000Y-31040000D01*
X36901000Y-33920000D02*
X36901000Y-39429000D01*
X36941000Y-25538000D02*
X36941000Y-31040000D01*
X36941000Y-33920000D02*
X36941000Y-39422000D01*
X36981000Y-25547000D02*
X36981000Y-31040000D01*
X36981000Y-33920000D02*
X36981000Y-39413000D01*
X37021000Y-25555000D02*
X37021000Y-31040000D01*
X37021000Y-33920000D02*
X37021000Y-39405000D01*
X37061000Y-25564000D02*
X37061000Y-31040000D01*
X37061000Y-33920000D02*
X37061000Y-39396000D01*
X37101000Y-25573000D02*
X37101000Y-31040000D01*
X37101000Y-33920000D02*
X37101000Y-39387000D01*
X37141000Y-25582000D02*
X37141000Y-31040000D01*
X37141000Y-33920000D02*
X37141000Y-39378000D01*
X37181000Y-25591000D02*
X37181000Y-31040000D01*
X37181000Y-33920000D02*
X37181000Y-39369000D01*
X37221000Y-25601000D02*
X37221000Y-31040000D01*
X37221000Y-33920000D02*
X37221000Y-39359000D01*
X37261000Y-25610000D02*
X37261000Y-31040000D01*
X37261000Y-33920000D02*
X37261000Y-39350000D01*
X37301000Y-25620000D02*
X37301000Y-31040000D01*
X37301000Y-33920000D02*
X37301000Y-39340000D01*
X37341000Y-25631000D02*
X37341000Y-31040000D01*
X37341000Y-33920000D02*
X37341000Y-39329000D01*
X37381000Y-25641000D02*
X37381000Y-31040000D01*
X37381000Y-33920000D02*
X37381000Y-39319000D01*
X37421000Y-25652000D02*
X37421000Y-31040000D01*
X37421000Y-33920000D02*
X37421000Y-39308000D01*
X37461000Y-25663000D02*
X37461000Y-31040000D01*
X37461000Y-33920000D02*
X37461000Y-39297000D01*
X37501000Y-25675000D02*
X37501000Y-31040000D01*
X37501000Y-33920000D02*
X37501000Y-39285000D01*
X37541000Y-25686000D02*
X37541000Y-31040000D01*
X37541000Y-33920000D02*
X37541000Y-39274000D01*
X37581000Y-25698000D02*
X37581000Y-31040000D01*
X37581000Y-33920000D02*
X37581000Y-39262000D01*
X37621000Y-25710000D02*
X37621000Y-31040000D01*
X37621000Y-33920000D02*
X37621000Y-39250000D01*
X37661000Y-25722000D02*
X37661000Y-31040000D01*
X37661000Y-33920000D02*
X37661000Y-39238000D01*
X37701000Y-25735000D02*
X37701000Y-31040000D01*
X37701000Y-33920000D02*
X37701000Y-39225000D01*
X37741000Y-25748000D02*
X37741000Y-31040000D01*
X37741000Y-33920000D02*
X37741000Y-39212000D01*
X37781000Y-25761000D02*
X37781000Y-31040000D01*
X37781000Y-33920000D02*
X37781000Y-39199000D01*
X37821000Y-25774000D02*
X37821000Y-31040000D01*
X37821000Y-33920000D02*
X37821000Y-39186000D01*
X37861000Y-25788000D02*
X37861000Y-31040000D01*
X37861000Y-33920000D02*
X37861000Y-39172000D01*
X37901000Y-25802000D02*
X37901000Y-31040000D01*
X37901000Y-33920000D02*
X37901000Y-39158000D01*
X37941000Y-25816000D02*
X37941000Y-31040000D01*
X37941000Y-33920000D02*
X37941000Y-39144000D01*
X37981000Y-25831000D02*
X37981000Y-31040000D01*
X37981000Y-33920000D02*
X37981000Y-39129000D01*
X38021000Y-25845000D02*
X38021000Y-31040000D01*
X38021000Y-33920000D02*
X38021000Y-39115000D01*
X38061000Y-25860000D02*
X38061000Y-31040000D01*
X38061000Y-33920000D02*
X38061000Y-39100000D01*
X38101000Y-25876000D02*
X38101000Y-31040000D01*
X38101000Y-33920000D02*
X38101000Y-39084000D01*
X38141000Y-25891000D02*
X38141000Y-31040000D01*
X38141000Y-33920000D02*
X38141000Y-39069000D01*
X38181000Y-25907000D02*
X38181000Y-31040000D01*
X38181000Y-33920000D02*
X38181000Y-39053000D01*
X38221000Y-25923000D02*
X38221000Y-31040000D01*
X38221000Y-33920000D02*
X38221000Y-39037000D01*
X38261000Y-25940000D02*
X38261000Y-31040000D01*
X38261000Y-33920000D02*
X38261000Y-39020000D01*
X38301000Y-25956000D02*
X38301000Y-31040000D01*
X38301000Y-33920000D02*
X38301000Y-39004000D01*
X38341000Y-25973000D02*
X38341000Y-31040000D01*
X38341000Y-33920000D02*
X38341000Y-38987000D01*
X38381000Y-25990000D02*
X38381000Y-31040000D01*
X38381000Y-33920000D02*
X38381000Y-38970000D01*
X38421000Y-26008000D02*
X38421000Y-31040000D01*
X38421000Y-33920000D02*
X38421000Y-38952000D01*
X38461000Y-26026000D02*
X38461000Y-31040000D01*
X38461000Y-33920000D02*
X38461000Y-38934000D01*
X38501000Y-26044000D02*
X38501000Y-31040000D01*
X38501000Y-33920000D02*
X38501000Y-38916000D01*
X38541000Y-26062000D02*
X38541000Y-31040000D01*
X38541000Y-33920000D02*
X38541000Y-38898000D01*
X38581000Y-26081000D02*
X38581000Y-31040000D01*
X38581000Y-33920000D02*
X38581000Y-38879000D01*
X38621000Y-26100000D02*
X38621000Y-31040000D01*
X38621000Y-33920000D02*
X38621000Y-38860000D01*
X38661000Y-26120000D02*
X38661000Y-31040000D01*
X38661000Y-33920000D02*
X38661000Y-38840000D01*
X38701000Y-26139000D02*
X38701000Y-31040000D01*
X38701000Y-33920000D02*
X38701000Y-38821000D01*
X38741000Y-26159000D02*
X38741000Y-31040000D01*
X38741000Y-33920000D02*
X38741000Y-38801000D01*
X38781000Y-26179000D02*
X38781000Y-31040000D01*
X38781000Y-33920000D02*
X38781000Y-38781000D01*
X38821000Y-26200000D02*
X38821000Y-31040000D01*
X38821000Y-33920000D02*
X38821000Y-38760000D01*
X38861000Y-26221000D02*
X38861000Y-31040000D01*
X38861000Y-33920000D02*
X38861000Y-38739000D01*
X38901000Y-26242000D02*
X38901000Y-31040000D01*
X38901000Y-33920000D02*
X38901000Y-38718000D01*
X38941000Y-26264000D02*
X38941000Y-31040000D01*
X38941000Y-33920000D02*
X38941000Y-38696000D01*
X38981000Y-26286000D02*
X38981000Y-31040000D01*
X38981000Y-33920000D02*
X38981000Y-38674000D01*
X39021000Y-26308000D02*
X39021000Y-31040000D01*
X39021000Y-33920000D02*
X39021000Y-38652000D01*
X39061000Y-26330000D02*
X39061000Y-31040000D01*
X39061000Y-33920000D02*
X39061000Y-38630000D01*
X39101000Y-26353000D02*
X39101000Y-31040000D01*
X39101000Y-33920000D02*
X39101000Y-38607000D01*
X39141000Y-26377000D02*
X39141000Y-31040000D01*
X39141000Y-33920000D02*
X39141000Y-38583000D01*
X39181000Y-26400000D02*
X39181000Y-31040000D01*
X39181000Y-33920000D02*
X39181000Y-38560000D01*
X39221000Y-26424000D02*
X39221000Y-31040000D01*
X39221000Y-33920000D02*
X39221000Y-38536000D01*
X39261000Y-26449000D02*
X39261000Y-31040000D01*
X39261000Y-33920000D02*
X39261000Y-38511000D01*
X39301000Y-26473000D02*
X39301000Y-31040000D01*
X39301000Y-33920000D02*
X39301000Y-38487000D01*
X39341000Y-26498000D02*
X39341000Y-31040000D01*
X39341000Y-33920000D02*
X39341000Y-38462000D01*
X39381000Y-26524000D02*
X39381000Y-31040000D01*
X39381000Y-33920000D02*
X39381000Y-38436000D01*
X39421000Y-26550000D02*
X39421000Y-31040000D01*
X39421000Y-33920000D02*
X39421000Y-38410000D01*
X39461000Y-26576000D02*
X39461000Y-31040000D01*
X39461000Y-33920000D02*
X39461000Y-38384000D01*
X39501000Y-26602000D02*
X39501000Y-38358000D01*
X39541000Y-26629000D02*
X39541000Y-38331000D01*
X39581000Y-26657000D02*
X39581000Y-38303000D01*
X39621000Y-26684000D02*
X39621000Y-38276000D01*
X39661000Y-26713000D02*
X39661000Y-38247000D01*
X39701000Y-26741000D02*
X39701000Y-38219000D01*
X39741000Y-26770000D02*
X39741000Y-38190000D01*
X39781000Y-26800000D02*
X39781000Y-38160000D01*
X39821000Y-26830000D02*
X39821000Y-38130000D01*
X39861000Y-26860000D02*
X39861000Y-38100000D01*
X39901000Y-26891000D02*
X39901000Y-38069000D01*
X39941000Y-26922000D02*
X39941000Y-38038000D01*
X39981000Y-26953000D02*
X39981000Y-38007000D01*
X40021000Y-26986000D02*
X40021000Y-37974000D01*
X40061000Y-27018000D02*
X40061000Y-37942000D01*
X40101000Y-27051000D02*
X40101000Y-37909000D01*
X40141000Y-27085000D02*
X40141000Y-37875000D01*
X40181000Y-27119000D02*
X40181000Y-37841000D01*
X40221000Y-27154000D02*
X40221000Y-37806000D01*
X40261000Y-27189000D02*
X40261000Y-37771000D01*
X40301000Y-27225000D02*
X40301000Y-37735000D01*
X40341000Y-27261000D02*
X40341000Y-37699000D01*
X40381000Y-27298000D02*
X40381000Y-37662000D01*
X40421000Y-27335000D02*
X40421000Y-37625000D01*
X40461000Y-27373000D02*
X40461000Y-37587000D01*
X40501000Y-27411000D02*
X40501000Y-37549000D01*
X40541000Y-27451000D02*
X40541000Y-37509000D01*
X40581000Y-27490000D02*
X40581000Y-37470000D01*
X40621000Y-27531000D02*
X40621000Y-37429000D01*
X40661000Y-27572000D02*
X40661000Y-37388000D01*
X40701000Y-27614000D02*
X40701000Y-37346000D01*
X40741000Y-27656000D02*
X40741000Y-37304000D01*
X40781000Y-27699000D02*
X40781000Y-37261000D01*
X40821000Y-27743000D02*
X40821000Y-37217000D01*
X40861000Y-27787000D02*
X40861000Y-37173000D01*
X40901000Y-27833000D02*
X40901000Y-37127000D01*
X40941000Y-27879000D02*
X40941000Y-37081000D01*
X40981000Y-27926000D02*
X40981000Y-37034000D01*
X41021000Y-27974000D02*
X41021000Y-36986000D01*
X41061000Y-28022000D02*
X41061000Y-36938000D01*
X41101000Y-28072000D02*
X41101000Y-36888000D01*
X41141000Y-28122000D02*
X41141000Y-36838000D01*
X41181000Y-28174000D02*
X41181000Y-36786000D01*
X41221000Y-28226000D02*
X41221000Y-36734000D01*
X41261000Y-28280000D02*
X41261000Y-36680000D01*
X41301000Y-28334000D02*
X41301000Y-36626000D01*
X41341000Y-28390000D02*
X41341000Y-36570000D01*
X41381000Y-28447000D02*
X41381000Y-36513000D01*
X41421000Y-28505000D02*
X41421000Y-36455000D01*
X41461000Y-28564000D02*
X41461000Y-36396000D01*
X41501000Y-28624000D02*
X41501000Y-36336000D01*
X41541000Y-28686000D02*
X41541000Y-36274000D01*
X41581000Y-28750000D02*
X41581000Y-36210000D01*
X41621000Y-28814000D02*
X41621000Y-36146000D01*
X41661000Y-28881000D02*
X41661000Y-36079000D01*
X41701000Y-28949000D02*
X41701000Y-36011000D01*
X41741000Y-29019000D02*
X41741000Y-35941000D01*
X41781000Y-29091000D02*
X41781000Y-35869000D01*
X41821000Y-29165000D02*
X41821000Y-35795000D01*
X41861000Y-29240000D02*
X41861000Y-35720000D01*
X41901000Y-29319000D02*
X41901000Y-35641000D01*
X41941000Y-29400000D02*
X41941000Y-35560000D01*
X41981000Y-29483000D02*
X41981000Y-35477000D01*
X42021000Y-29569000D02*
X42021000Y-35391000D01*
X42061000Y-29659000D02*
X42061000Y-35301000D01*
X42101000Y-29752000D02*
X42101000Y-35208000D01*
X42141000Y-29848000D02*
X42141000Y-35112000D01*
X42181000Y-29950000D02*
X42181000Y-35010000D01*
X42221000Y-30055000D02*
X42221000Y-34905000D01*
X42261000Y-30167000D02*
X42261000Y-34793000D01*
X42301000Y-30284000D02*
X42301000Y-34676000D01*
X42341000Y-30409000D02*
X42341000Y-34551000D01*
X42381000Y-30542000D02*
X42381000Y-34418000D01*
X42421000Y-30686000D02*
X42421000Y-34274000D01*
X42461000Y-30844000D02*
X42461000Y-34116000D01*
X42501000Y-31019000D02*
X42501000Y-33941000D01*
X42541000Y-31218000D02*
X42541000Y-33742000D01*
X42581000Y-31455000D02*
X42581000Y-33505000D01*
X42621000Y-31766000D02*
X42621000Y-33194000D01*
X27920457Y-28485000D02*
X29320457Y-28485000D01*
X28620457Y-27785000D02*
X28620457Y-29185000D01*
X37378000Y-73755000D02*
X27138000Y-73755000D01*
X37378000Y-69114000D02*
X27138000Y-69114000D01*
X37378000Y-73755000D02*
X37378000Y-69114000D01*
X27138000Y-73755000D02*
X27138000Y-69114000D01*
X37378000Y-72245000D02*
X27138000Y-72245000D01*
X34108000Y-73755000D02*
X34108000Y-72245000D01*
X30407000Y-73755000D02*
X30407000Y-72245000D01*
X53848000Y-54559000D02*
X53848000Y-53609000D01*
X53848000Y-48819000D02*
X53848000Y-49769000D01*
X54768000Y-53609000D02*
X54768000Y-49769000D01*
X52928000Y-53609000D02*
X54768000Y-53609000D01*
X52928000Y-49769000D02*
X52928000Y-53609000D01*
X54768000Y-49769000D02*
X52928000Y-49769000D01*
X20514000Y-73212000D02*
X25714000Y-73212000D01*
X20514000Y-24892000D02*
X20514000Y-73212000D01*
X25714000Y-22292000D02*
X25714000Y-73212000D01*
X20514000Y-24892000D02*
X23114000Y-24892000D01*
X23114000Y-24892000D02*
X23114000Y-22292000D01*
X23114000Y-22292000D02*
X25714000Y-22292000D01*
X20514000Y-23622000D02*
X20514000Y-22292000D01*
X20514000Y-22292000D02*
X21844000Y-22292000D01*
X67530000Y-23720000D02*
X67530000Y-33960000D01*
X62889000Y-23720000D02*
X62889000Y-33960000D01*
X67530000Y-23720000D02*
X62889000Y-23720000D01*
X67530000Y-33960000D02*
X62889000Y-33960000D01*
X66020000Y-23720000D02*
X66020000Y-33960000D01*
X67530000Y-26990000D02*
X66020000Y-26990000D01*
X67530000Y-30690000D02*
X66020000Y-30690000D01*
X57460000Y-63190000D02*
X67700000Y-63190000D01*
X57460000Y-67831000D02*
X67700000Y-67831000D01*
X57460000Y-63190000D02*
X57460000Y-67831000D01*
X67700000Y-63190000D02*
X67700000Y-67831000D01*
X57460000Y-64700000D02*
X67700000Y-64700000D01*
X60730000Y-63190000D02*
X60730000Y-64700000D01*
X64431000Y-63190000D02*
X64431000Y-64700000D01*
D13*
X30203000Y-43042000D02*
X30203000Y-42292000D01*
X30203000Y-59592000D02*
X30203000Y-58842000D01*
X49503000Y-59592000D02*
X30203000Y-59592000D01*
X49503000Y-55567000D02*
X49503000Y-59592000D01*
X49503000Y-42292000D02*
X49503000Y-48317000D01*
X30203000Y-42292000D02*
X49503000Y-42292000D01*
D12*
X40821000Y-68040000D02*
X40821000Y-66530000D01*
X44522000Y-68040000D02*
X44522000Y-66530000D01*
X47792000Y-66530000D02*
X37552000Y-66530000D01*
X37552000Y-68040000D02*
X37552000Y-63399000D01*
X47792000Y-68040000D02*
X47792000Y-63399000D01*
X47792000Y-63399000D02*
X37552000Y-63399000D01*
X47792000Y-68040000D02*
X37552000Y-68040000D01*
X51980000Y-34910000D02*
X51980000Y-24670000D01*
X56621000Y-34910000D02*
X56621000Y-24670000D01*
X51980000Y-34910000D02*
X56621000Y-34910000D01*
X51980000Y-24670000D02*
X56621000Y-24670000D01*
X53490000Y-34910000D02*
X53490000Y-24670000D01*
X51980000Y-31640000D02*
X53490000Y-31640000D01*
X51980000Y-27940000D02*
X53490000Y-27940000D01*
X50987000Y-74101000D02*
X50987000Y-71441000D01*
X48387000Y-74101000D02*
X50987000Y-74101000D01*
X48387000Y-71441000D02*
X50987000Y-71441000D01*
X48387000Y-74101000D02*
X48387000Y-71441000D01*
X47117000Y-74101000D02*
X45787000Y-74101000D01*
X45787000Y-74101000D02*
X45787000Y-72771000D01*
X38675000Y-74101000D02*
X38675000Y-72771000D01*
X40005000Y-74101000D02*
X38675000Y-74101000D01*
X41275000Y-74101000D02*
X41275000Y-71441000D01*
X41275000Y-71441000D02*
X43875000Y-71441000D01*
X41275000Y-74101000D02*
X43875000Y-74101000D01*
X43875000Y-74101000D02*
X43875000Y-71441000D01*
X28687000Y-21813000D02*
X32527000Y-21813000D01*
X28687000Y-23653000D02*
X32527000Y-23653000D01*
X58039000Y-48819000D02*
X58039000Y-49769000D01*
X58039000Y-54559000D02*
X58039000Y-53609000D01*
X57119000Y-49769000D02*
X57119000Y-53609000D01*
X58959000Y-49769000D02*
X57119000Y-49769000D01*
X58959000Y-53609000D02*
X58959000Y-49769000D01*
X57119000Y-53609000D02*
X58959000Y-53609000D01*
D14*
G36*
X61156964Y-39090018D02*
X61213812Y-39391570D01*
X61633338Y-39564512D01*
X61884984Y-39393395D01*
X61955458Y-39345750D01*
X62019163Y-39303210D01*
X62073126Y-39267715D01*
X62114373Y-39241210D01*
X62139934Y-39225636D01*
X62146895Y-39222278D01*
X62159435Y-39230914D01*
X62186231Y-39254792D01*
X62224280Y-39290859D01*
X62270579Y-39336067D01*
X62322123Y-39387364D01*
X62375909Y-39441701D01*
X62428935Y-39496028D01*
X62478195Y-39547295D01*
X62520687Y-39592451D01*
X62553407Y-39628446D01*
X62573351Y-39652230D01*
X62578119Y-39660190D01*
X62571257Y-39674865D01*
X62552020Y-39707014D01*
X62522430Y-39753492D01*
X62484510Y-39811156D01*
X62440282Y-39876860D01*
X62414654Y-39914336D01*
X62367941Y-39982768D01*
X62326432Y-40044520D01*
X62292140Y-40096519D01*
X62267080Y-40135692D01*
X62253264Y-40158965D01*
X62251188Y-40163855D01*
X62255895Y-40177755D01*
X62268723Y-40210150D01*
X62287738Y-40256485D01*
X62311003Y-40312206D01*
X62336584Y-40372758D01*
X62362545Y-40433586D01*
X62386950Y-40490136D01*
X62407863Y-40537852D01*
X62423349Y-40572181D01*
X62431472Y-40588568D01*
X62431952Y-40589212D01*
X62444707Y-40592341D01*
X62478677Y-40599321D01*
X62530340Y-40609467D01*
X62596176Y-40622092D01*
X62672664Y-40636509D01*
X62717290Y-40644823D01*
X62799021Y-40660384D01*
X62872843Y-40675192D01*
X62935021Y-40688436D01*
X62981822Y-40699305D01*
X63009509Y-40706989D01*
X63015074Y-40709427D01*
X63020526Y-40725930D01*
X63024924Y-40763200D01*
X63028272Y-40816880D01*
X63030574Y-40882612D01*
X63031832Y-40956037D01*
X63032048Y-41032796D01*
X63031227Y-41108532D01*
X63029371Y-41178886D01*
X63026482Y-41239500D01*
X63022565Y-41286016D01*
X63017622Y-41314075D01*
X63014657Y-41319916D01*
X62996934Y-41326917D01*
X62959381Y-41336927D01*
X62906964Y-41348769D01*
X62844652Y-41361267D01*
X62822900Y-41365310D01*
X62718024Y-41384520D01*
X62635180Y-41399991D01*
X62571630Y-41412337D01*
X62524637Y-41422173D01*
X62491463Y-41430114D01*
X62469371Y-41436776D01*
X62455624Y-41442773D01*
X62447484Y-41448719D01*
X62446345Y-41449894D01*
X62434977Y-41468826D01*
X62417635Y-41505669D01*
X62396050Y-41555913D01*
X62371954Y-41615046D01*
X62347079Y-41678556D01*
X62323157Y-41741932D01*
X62301919Y-41800662D01*
X62285097Y-41850235D01*
X62274422Y-41886139D01*
X62271627Y-41903862D01*
X62271860Y-41904483D01*
X62281331Y-41918970D01*
X62302818Y-41950844D01*
X62334063Y-41996789D01*
X62372807Y-42053485D01*
X62416793Y-42117617D01*
X62429319Y-42135842D01*
X62473984Y-42201914D01*
X62513288Y-42262200D01*
X62545088Y-42313235D01*
X62567245Y-42351560D01*
X62577617Y-42373711D01*
X62578119Y-42376432D01*
X62569405Y-42390736D01*
X62545325Y-42419072D01*
X62508976Y-42458396D01*
X62463453Y-42505661D01*
X62411852Y-42557823D01*
X62357267Y-42611835D01*
X62302794Y-42664653D01*
X62251529Y-42713231D01*
X62206567Y-42754523D01*
X62171004Y-42785485D01*
X62147935Y-42803070D01*
X62141554Y-42805941D01*
X62126699Y-42799178D01*
X62096286Y-42780939D01*
X62055268Y-42754297D01*
X62023709Y-42732852D01*
X61966525Y-42693503D01*
X61898806Y-42647171D01*
X61830880Y-42600913D01*
X61794361Y-42576155D01*
X61670752Y-42492547D01*
X61566991Y-42548650D01*
X61519720Y-42573228D01*
X61479523Y-42592331D01*
X61452326Y-42603227D01*
X61445402Y-42604743D01*
X61437077Y-42593549D01*
X61420654Y-42561917D01*
X61397357Y-42512765D01*
X61368414Y-42449010D01*
X61335050Y-42373571D01*
X61298491Y-42289364D01*
X61259964Y-42199308D01*
X61220694Y-42106321D01*
X61181908Y-42013320D01*
X61144830Y-41923223D01*
X61110689Y-41838948D01*
X61080708Y-41763413D01*
X61056116Y-41699534D01*
X61038136Y-41650231D01*
X61027997Y-41618421D01*
X61026366Y-41607496D01*
X61039291Y-41593561D01*
X61067589Y-41570940D01*
X61105346Y-41544333D01*
X61108515Y-41542228D01*
X61206100Y-41464114D01*
X61284786Y-41372982D01*
X61343891Y-41271745D01*
X61382732Y-41163318D01*
X61400628Y-41050614D01*
X61396897Y-40936548D01*
X61370857Y-40824034D01*
X61321825Y-40715985D01*
X61307400Y-40692345D01*
X61232369Y-40596887D01*
X61143730Y-40520232D01*
X61044549Y-40462780D01*
X60937895Y-40424929D01*
X60826836Y-40407078D01*
X60714439Y-40409625D01*
X60603773Y-40432970D01*
X60497906Y-40477510D01*
X60399905Y-40543645D01*
X60369590Y-40570487D01*
X60292438Y-40654512D01*
X60236218Y-40742966D01*
X60197653Y-40842115D01*
X60176174Y-40940303D01*
X60170872Y-41050697D01*
X60188552Y-41161640D01*
X60227419Y-41269381D01*
X60285677Y-41370169D01*
X60361531Y-41460256D01*
X60453183Y-41535892D01*
X60465228Y-41543864D01*
X60503389Y-41569974D01*
X60532399Y-41592595D01*
X60546268Y-41607039D01*
X60546469Y-41607496D01*
X60543492Y-41623121D01*
X60531689Y-41658582D01*
X60512286Y-41710962D01*
X60486512Y-41777345D01*
X60455591Y-41854814D01*
X60420751Y-41940450D01*
X60383217Y-42031337D01*
X60344217Y-42124559D01*
X60304977Y-42217197D01*
X60266724Y-42306335D01*
X60230683Y-42389055D01*
X60198083Y-42462441D01*
X60170148Y-42523575D01*
X60148105Y-42569541D01*
X60133182Y-42597421D01*
X60127172Y-42604743D01*
X60108809Y-42599041D01*
X60074448Y-42583749D01*
X60030016Y-42561599D01*
X60005583Y-42548650D01*
X59901822Y-42492547D01*
X59778213Y-42576155D01*
X59715114Y-42618987D01*
X59646030Y-42666122D01*
X59581293Y-42710503D01*
X59548866Y-42732852D01*
X59503259Y-42763477D01*
X59464640Y-42787747D01*
X59438048Y-42802587D01*
X59429410Y-42805724D01*
X59416839Y-42797261D01*
X59389016Y-42773636D01*
X59348639Y-42737302D01*
X59298405Y-42690711D01*
X59241012Y-42636317D01*
X59204714Y-42601392D01*
X59141210Y-42538996D01*
X59086327Y-42483188D01*
X59042286Y-42436354D01*
X59011305Y-42400882D01*
X58995602Y-42379161D01*
X58994095Y-42374752D01*
X59001086Y-42357985D01*
X59020406Y-42324082D01*
X59049909Y-42276476D01*
X59087455Y-42218599D01*
X59130900Y-42153884D01*
X59143255Y-42135842D01*
X59188273Y-42070267D01*
X59228660Y-42011228D01*
X59262160Y-41962042D01*
X59286514Y-41926028D01*
X59299464Y-41906502D01*
X59300715Y-41904483D01*
X59298844Y-41888922D01*
X59288913Y-41854709D01*
X59272653Y-41806355D01*
X59251795Y-41748371D01*
X59228073Y-41685270D01*
X59203216Y-41621563D01*
X59178958Y-41561761D01*
X59157029Y-41510376D01*
X59139162Y-41471919D01*
X59127087Y-41450902D01*
X59126229Y-41449894D01*
X59118846Y-41443888D01*
X59106375Y-41437948D01*
X59086080Y-41431460D01*
X59055222Y-41423809D01*
X59011066Y-41414380D01*
X58950874Y-41402559D01*
X58871907Y-41387729D01*
X58771430Y-41369277D01*
X58749675Y-41365310D01*
X58685198Y-41352853D01*
X58628989Y-41340666D01*
X58586013Y-41329926D01*
X58561240Y-41321809D01*
X58557918Y-41319916D01*
X58552444Y-41303138D01*
X58547994Y-41265645D01*
X58544572Y-41211794D01*
X58542181Y-41145944D01*
X58540823Y-41072453D01*
X58540501Y-40995680D01*
X58541219Y-40919983D01*
X58542979Y-40849720D01*
X58545784Y-40789250D01*
X58549638Y-40742930D01*
X58554543Y-40715119D01*
X58557500Y-40709427D01*
X58573963Y-40703686D01*
X58611449Y-40694345D01*
X58666225Y-40682215D01*
X58734555Y-40668107D01*
X58812706Y-40652830D01*
X58855284Y-40644823D01*
X58936071Y-40629721D01*
X59008113Y-40616040D01*
X59067889Y-40604467D01*
X59111879Y-40595687D01*
X59136561Y-40590387D01*
X59140623Y-40589212D01*
X59147489Y-40575965D01*
X59162002Y-40544057D01*
X59182229Y-40498047D01*
X59206234Y-40442492D01*
X59232082Y-40381953D01*
X59257840Y-40320986D01*
X59281573Y-40264151D01*
X59301346Y-40216006D01*
X59315224Y-40181110D01*
X59321274Y-40164021D01*
X59321386Y-40163274D01*
X59314528Y-40149793D01*
X59295302Y-40118770D01*
X59265728Y-40073289D01*
X59227827Y-40016432D01*
X59183620Y-39951283D01*
X59157921Y-39913862D01*
X59111093Y-39845247D01*
X59069501Y-39782952D01*
X59035175Y-39730129D01*
X59010143Y-39689927D01*
X58996435Y-39665500D01*
X58994456Y-39660024D01*
X59002966Y-39647278D01*
X59026493Y-39620063D01*
X59062032Y-39581428D01*
X59106577Y-39534423D01*
X59157123Y-39482095D01*
X59210664Y-39427495D01*
X59264195Y-39373670D01*
X59314711Y-39323670D01*
X59359206Y-39280543D01*
X59394675Y-39247339D01*
X59418113Y-39227106D01*
X59425954Y-39222278D01*
X59438720Y-39229067D01*
X59469256Y-39248142D01*
X59514590Y-39277561D01*
X59571756Y-39315381D01*
X59637784Y-39359661D01*
X59687590Y-39393395D01*
X59939236Y-39564512D01*
X60148999Y-39478041D01*
X60358763Y-39391570D01*
X60415611Y-39090018D01*
X60472460Y-38788466D01*
X61100115Y-38788466D01*
X61156964Y-39090018D01*
X61156964Y-39090018D01*
G37*
X61156964Y-39090018D02*
X61213812Y-39391570D01*
X61633338Y-39564512D01*
X61884984Y-39393395D01*
X61955458Y-39345750D01*
X62019163Y-39303210D01*
X62073126Y-39267715D01*
X62114373Y-39241210D01*
X62139934Y-39225636D01*
X62146895Y-39222278D01*
X62159435Y-39230914D01*
X62186231Y-39254792D01*
X62224280Y-39290859D01*
X62270579Y-39336067D01*
X62322123Y-39387364D01*
X62375909Y-39441701D01*
X62428935Y-39496028D01*
X62478195Y-39547295D01*
X62520687Y-39592451D01*
X62553407Y-39628446D01*
X62573351Y-39652230D01*
X62578119Y-39660190D01*
X62571257Y-39674865D01*
X62552020Y-39707014D01*
X62522430Y-39753492D01*
X62484510Y-39811156D01*
X62440282Y-39876860D01*
X62414654Y-39914336D01*
X62367941Y-39982768D01*
X62326432Y-40044520D01*
X62292140Y-40096519D01*
X62267080Y-40135692D01*
X62253264Y-40158965D01*
X62251188Y-40163855D01*
X62255895Y-40177755D01*
X62268723Y-40210150D01*
X62287738Y-40256485D01*
X62311003Y-40312206D01*
X62336584Y-40372758D01*
X62362545Y-40433586D01*
X62386950Y-40490136D01*
X62407863Y-40537852D01*
X62423349Y-40572181D01*
X62431472Y-40588568D01*
X62431952Y-40589212D01*
X62444707Y-40592341D01*
X62478677Y-40599321D01*
X62530340Y-40609467D01*
X62596176Y-40622092D01*
X62672664Y-40636509D01*
X62717290Y-40644823D01*
X62799021Y-40660384D01*
X62872843Y-40675192D01*
X62935021Y-40688436D01*
X62981822Y-40699305D01*
X63009509Y-40706989D01*
X63015074Y-40709427D01*
X63020526Y-40725930D01*
X63024924Y-40763200D01*
X63028272Y-40816880D01*
X63030574Y-40882612D01*
X63031832Y-40956037D01*
X63032048Y-41032796D01*
X63031227Y-41108532D01*
X63029371Y-41178886D01*
X63026482Y-41239500D01*
X63022565Y-41286016D01*
X63017622Y-41314075D01*
X63014657Y-41319916D01*
X62996934Y-41326917D01*
X62959381Y-41336927D01*
X62906964Y-41348769D01*
X62844652Y-41361267D01*
X62822900Y-41365310D01*
X62718024Y-41384520D01*
X62635180Y-41399991D01*
X62571630Y-41412337D01*
X62524637Y-41422173D01*
X62491463Y-41430114D01*
X62469371Y-41436776D01*
X62455624Y-41442773D01*
X62447484Y-41448719D01*
X62446345Y-41449894D01*
X62434977Y-41468826D01*
X62417635Y-41505669D01*
X62396050Y-41555913D01*
X62371954Y-41615046D01*
X62347079Y-41678556D01*
X62323157Y-41741932D01*
X62301919Y-41800662D01*
X62285097Y-41850235D01*
X62274422Y-41886139D01*
X62271627Y-41903862D01*
X62271860Y-41904483D01*
X62281331Y-41918970D01*
X62302818Y-41950844D01*
X62334063Y-41996789D01*
X62372807Y-42053485D01*
X62416793Y-42117617D01*
X62429319Y-42135842D01*
X62473984Y-42201914D01*
X62513288Y-42262200D01*
X62545088Y-42313235D01*
X62567245Y-42351560D01*
X62577617Y-42373711D01*
X62578119Y-42376432D01*
X62569405Y-42390736D01*
X62545325Y-42419072D01*
X62508976Y-42458396D01*
X62463453Y-42505661D01*
X62411852Y-42557823D01*
X62357267Y-42611835D01*
X62302794Y-42664653D01*
X62251529Y-42713231D01*
X62206567Y-42754523D01*
X62171004Y-42785485D01*
X62147935Y-42803070D01*
X62141554Y-42805941D01*
X62126699Y-42799178D01*
X62096286Y-42780939D01*
X62055268Y-42754297D01*
X62023709Y-42732852D01*
X61966525Y-42693503D01*
X61898806Y-42647171D01*
X61830880Y-42600913D01*
X61794361Y-42576155D01*
X61670752Y-42492547D01*
X61566991Y-42548650D01*
X61519720Y-42573228D01*
X61479523Y-42592331D01*
X61452326Y-42603227D01*
X61445402Y-42604743D01*
X61437077Y-42593549D01*
X61420654Y-42561917D01*
X61397357Y-42512765D01*
X61368414Y-42449010D01*
X61335050Y-42373571D01*
X61298491Y-42289364D01*
X61259964Y-42199308D01*
X61220694Y-42106321D01*
X61181908Y-42013320D01*
X61144830Y-41923223D01*
X61110689Y-41838948D01*
X61080708Y-41763413D01*
X61056116Y-41699534D01*
X61038136Y-41650231D01*
X61027997Y-41618421D01*
X61026366Y-41607496D01*
X61039291Y-41593561D01*
X61067589Y-41570940D01*
X61105346Y-41544333D01*
X61108515Y-41542228D01*
X61206100Y-41464114D01*
X61284786Y-41372982D01*
X61343891Y-41271745D01*
X61382732Y-41163318D01*
X61400628Y-41050614D01*
X61396897Y-40936548D01*
X61370857Y-40824034D01*
X61321825Y-40715985D01*
X61307400Y-40692345D01*
X61232369Y-40596887D01*
X61143730Y-40520232D01*
X61044549Y-40462780D01*
X60937895Y-40424929D01*
X60826836Y-40407078D01*
X60714439Y-40409625D01*
X60603773Y-40432970D01*
X60497906Y-40477510D01*
X60399905Y-40543645D01*
X60369590Y-40570487D01*
X60292438Y-40654512D01*
X60236218Y-40742966D01*
X60197653Y-40842115D01*
X60176174Y-40940303D01*
X60170872Y-41050697D01*
X60188552Y-41161640D01*
X60227419Y-41269381D01*
X60285677Y-41370169D01*
X60361531Y-41460256D01*
X60453183Y-41535892D01*
X60465228Y-41543864D01*
X60503389Y-41569974D01*
X60532399Y-41592595D01*
X60546268Y-41607039D01*
X60546469Y-41607496D01*
X60543492Y-41623121D01*
X60531689Y-41658582D01*
X60512286Y-41710962D01*
X60486512Y-41777345D01*
X60455591Y-41854814D01*
X60420751Y-41940450D01*
X60383217Y-42031337D01*
X60344217Y-42124559D01*
X60304977Y-42217197D01*
X60266724Y-42306335D01*
X60230683Y-42389055D01*
X60198083Y-42462441D01*
X60170148Y-42523575D01*
X60148105Y-42569541D01*
X60133182Y-42597421D01*
X60127172Y-42604743D01*
X60108809Y-42599041D01*
X60074448Y-42583749D01*
X60030016Y-42561599D01*
X60005583Y-42548650D01*
X59901822Y-42492547D01*
X59778213Y-42576155D01*
X59715114Y-42618987D01*
X59646030Y-42666122D01*
X59581293Y-42710503D01*
X59548866Y-42732852D01*
X59503259Y-42763477D01*
X59464640Y-42787747D01*
X59438048Y-42802587D01*
X59429410Y-42805724D01*
X59416839Y-42797261D01*
X59389016Y-42773636D01*
X59348639Y-42737302D01*
X59298405Y-42690711D01*
X59241012Y-42636317D01*
X59204714Y-42601392D01*
X59141210Y-42538996D01*
X59086327Y-42483188D01*
X59042286Y-42436354D01*
X59011305Y-42400882D01*
X58995602Y-42379161D01*
X58994095Y-42374752D01*
X59001086Y-42357985D01*
X59020406Y-42324082D01*
X59049909Y-42276476D01*
X59087455Y-42218599D01*
X59130900Y-42153884D01*
X59143255Y-42135842D01*
X59188273Y-42070267D01*
X59228660Y-42011228D01*
X59262160Y-41962042D01*
X59286514Y-41926028D01*
X59299464Y-41906502D01*
X59300715Y-41904483D01*
X59298844Y-41888922D01*
X59288913Y-41854709D01*
X59272653Y-41806355D01*
X59251795Y-41748371D01*
X59228073Y-41685270D01*
X59203216Y-41621563D01*
X59178958Y-41561761D01*
X59157029Y-41510376D01*
X59139162Y-41471919D01*
X59127087Y-41450902D01*
X59126229Y-41449894D01*
X59118846Y-41443888D01*
X59106375Y-41437948D01*
X59086080Y-41431460D01*
X59055222Y-41423809D01*
X59011066Y-41414380D01*
X58950874Y-41402559D01*
X58871907Y-41387729D01*
X58771430Y-41369277D01*
X58749675Y-41365310D01*
X58685198Y-41352853D01*
X58628989Y-41340666D01*
X58586013Y-41329926D01*
X58561240Y-41321809D01*
X58557918Y-41319916D01*
X58552444Y-41303138D01*
X58547994Y-41265645D01*
X58544572Y-41211794D01*
X58542181Y-41145944D01*
X58540823Y-41072453D01*
X58540501Y-40995680D01*
X58541219Y-40919983D01*
X58542979Y-40849720D01*
X58545784Y-40789250D01*
X58549638Y-40742930D01*
X58554543Y-40715119D01*
X58557500Y-40709427D01*
X58573963Y-40703686D01*
X58611449Y-40694345D01*
X58666225Y-40682215D01*
X58734555Y-40668107D01*
X58812706Y-40652830D01*
X58855284Y-40644823D01*
X58936071Y-40629721D01*
X59008113Y-40616040D01*
X59067889Y-40604467D01*
X59111879Y-40595687D01*
X59136561Y-40590387D01*
X59140623Y-40589212D01*
X59147489Y-40575965D01*
X59162002Y-40544057D01*
X59182229Y-40498047D01*
X59206234Y-40442492D01*
X59232082Y-40381953D01*
X59257840Y-40320986D01*
X59281573Y-40264151D01*
X59301346Y-40216006D01*
X59315224Y-40181110D01*
X59321274Y-40164021D01*
X59321386Y-40163274D01*
X59314528Y-40149793D01*
X59295302Y-40118770D01*
X59265728Y-40073289D01*
X59227827Y-40016432D01*
X59183620Y-39951283D01*
X59157921Y-39913862D01*
X59111093Y-39845247D01*
X59069501Y-39782952D01*
X59035175Y-39730129D01*
X59010143Y-39689927D01*
X58996435Y-39665500D01*
X58994456Y-39660024D01*
X59002966Y-39647278D01*
X59026493Y-39620063D01*
X59062032Y-39581428D01*
X59106577Y-39534423D01*
X59157123Y-39482095D01*
X59210664Y-39427495D01*
X59264195Y-39373670D01*
X59314711Y-39323670D01*
X59359206Y-39280543D01*
X59394675Y-39247339D01*
X59418113Y-39227106D01*
X59425954Y-39222278D01*
X59438720Y-39229067D01*
X59469256Y-39248142D01*
X59514590Y-39277561D01*
X59571756Y-39315381D01*
X59637784Y-39359661D01*
X59687590Y-39393395D01*
X59939236Y-39564512D01*
X60148999Y-39478041D01*
X60358763Y-39391570D01*
X60415611Y-39090018D01*
X60472460Y-38788466D01*
X61100115Y-38788466D01*
X61156964Y-39090018D01*
G36*
X62579460Y-43258030D02*
X62622711Y-43271245D01*
X62650558Y-43287941D01*
X62659629Y-43301145D01*
X62657132Y-43316797D01*
X62640931Y-43341385D01*
X62627232Y-43358800D01*
X62598992Y-43390283D01*
X62577775Y-43403529D01*
X62559688Y-43402664D01*
X62506035Y-43389010D01*
X62466630Y-43389630D01*
X62434632Y-43405104D01*
X62423890Y-43414161D01*
X62389505Y-43446027D01*
X62389505Y-43862179D01*
X62251188Y-43862179D01*
X62251188Y-43258614D01*
X62320347Y-43258614D01*
X62361869Y-43260256D01*
X62383291Y-43266087D01*
X62389502Y-43277461D01*
X62389505Y-43277798D01*
X62392439Y-43289713D01*
X62405704Y-43288159D01*
X62424084Y-43279563D01*
X62462046Y-43263568D01*
X62492872Y-43253945D01*
X62532536Y-43251478D01*
X62579460Y-43258030D01*
X62579460Y-43258030D01*
G37*
X62579460Y-43258030D02*
X62622711Y-43271245D01*
X62650558Y-43287941D01*
X62659629Y-43301145D01*
X62657132Y-43316797D01*
X62640931Y-43341385D01*
X62627232Y-43358800D01*
X62598992Y-43390283D01*
X62577775Y-43403529D01*
X62559688Y-43402664D01*
X62506035Y-43389010D01*
X62466630Y-43389630D01*
X62434632Y-43405104D01*
X62423890Y-43414161D01*
X62389505Y-43446027D01*
X62389505Y-43862179D01*
X62251188Y-43862179D01*
X62251188Y-43258614D01*
X62320347Y-43258614D01*
X62361869Y-43260256D01*
X62383291Y-43266087D01*
X62389502Y-43277461D01*
X62389505Y-43277798D01*
X62392439Y-43289713D01*
X62405704Y-43288159D01*
X62424084Y-43279563D01*
X62462046Y-43263568D01*
X62492872Y-43253945D01*
X62532536Y-43251478D01*
X62579460Y-43258030D01*
G36*
X60025988Y-43269002D02*
X60057283Y-43283950D01*
X60087591Y-43305541D01*
X60110682Y-43330391D01*
X60127500Y-43362087D01*
X60138994Y-43404214D01*
X60146109Y-43460358D01*
X60149793Y-43534106D01*
X60150992Y-43629044D01*
X60151011Y-43638985D01*
X60151287Y-43862179D01*
X60012970Y-43862179D01*
X60012970Y-43656418D01*
X60012872Y-43580189D01*
X60012191Y-43524939D01*
X60010349Y-43486501D01*
X60006767Y-43460706D01*
X60000868Y-43443384D01*
X59992073Y-43430368D01*
X59979820Y-43417507D01*
X59936953Y-43389873D01*
X59890157Y-43384745D01*
X59845576Y-43402217D01*
X59830072Y-43415221D01*
X59818690Y-43427447D01*
X59810519Y-43440540D01*
X59805026Y-43458615D01*
X59801680Y-43485787D01*
X59799949Y-43526170D01*
X59799303Y-43583879D01*
X59799208Y-43654132D01*
X59799208Y-43862179D01*
X59660891Y-43862179D01*
X59660891Y-43258614D01*
X59730050Y-43258614D01*
X59771572Y-43260256D01*
X59792994Y-43266087D01*
X59799205Y-43277461D01*
X59799208Y-43277798D01*
X59802090Y-43288938D01*
X59814801Y-43287674D01*
X59840074Y-43275434D01*
X59897395Y-43257424D01*
X59962963Y-43255421D01*
X60025988Y-43269002D01*
X60025988Y-43269002D01*
G37*
X60025988Y-43269002D02*
X60057283Y-43283950D01*
X60087591Y-43305541D01*
X60110682Y-43330391D01*
X60127500Y-43362087D01*
X60138994Y-43404214D01*
X60146109Y-43460358D01*
X60149793Y-43534106D01*
X60150992Y-43629044D01*
X60151011Y-43638985D01*
X60151287Y-43862179D01*
X60012970Y-43862179D01*
X60012970Y-43656418D01*
X60012872Y-43580189D01*
X60012191Y-43524939D01*
X60010349Y-43486501D01*
X60006767Y-43460706D01*
X60000868Y-43443384D01*
X59992073Y-43430368D01*
X59979820Y-43417507D01*
X59936953Y-43389873D01*
X59890157Y-43384745D01*
X59845576Y-43402217D01*
X59830072Y-43415221D01*
X59818690Y-43427447D01*
X59810519Y-43440540D01*
X59805026Y-43458615D01*
X59801680Y-43485787D01*
X59799949Y-43526170D01*
X59799303Y-43583879D01*
X59799208Y-43654132D01*
X59799208Y-43862179D01*
X59660891Y-43862179D01*
X59660891Y-43258614D01*
X59730050Y-43258614D01*
X59771572Y-43260256D01*
X59792994Y-43266087D01*
X59799205Y-43277461D01*
X59799208Y-43277798D01*
X59802090Y-43288938D01*
X59814801Y-43287674D01*
X59840074Y-43275434D01*
X59897395Y-43257424D01*
X59962963Y-43255421D01*
X60025988Y-43269002D01*
G36*
X63457898Y-43256457D02*
X63490096Y-43264279D01*
X63551825Y-43292921D01*
X63604610Y-43336667D01*
X63641141Y-43389117D01*
X63646160Y-43400893D01*
X63653045Y-43431740D01*
X63657864Y-43477371D01*
X63659505Y-43523492D01*
X63659505Y-43610693D01*
X63477178Y-43610693D01*
X63401979Y-43610978D01*
X63349003Y-43612704D01*
X63315325Y-43617181D01*
X63298020Y-43625720D01*
X63294163Y-43639630D01*
X63300829Y-43660222D01*
X63312770Y-43684315D01*
X63346080Y-43724525D01*
X63392368Y-43744558D01*
X63448944Y-43743905D01*
X63513031Y-43722101D01*
X63568417Y-43695193D01*
X63614375Y-43731532D01*
X63660333Y-43767872D01*
X63617096Y-43807819D01*
X63559374Y-43845563D01*
X63488386Y-43868320D01*
X63412029Y-43874688D01*
X63338199Y-43863268D01*
X63326287Y-43859393D01*
X63261399Y-43825506D01*
X63213130Y-43774986D01*
X63180465Y-43706325D01*
X63162385Y-43618014D01*
X63162175Y-43616121D01*
X63160556Y-43519878D01*
X63167100Y-43485542D01*
X63294852Y-43485542D01*
X63306584Y-43490822D01*
X63338438Y-43494867D01*
X63385397Y-43497176D01*
X63415154Y-43497525D01*
X63470648Y-43497306D01*
X63505346Y-43495916D01*
X63523601Y-43492251D01*
X63529766Y-43485210D01*
X63528195Y-43473690D01*
X63526878Y-43469233D01*
X63504382Y-43427355D01*
X63469003Y-43393604D01*
X63437780Y-43378773D01*
X63396301Y-43379668D01*
X63354269Y-43398164D01*
X63319012Y-43428786D01*
X63297854Y-43466062D01*
X63294852Y-43485542D01*
X63167100Y-43485542D01*
X63176690Y-43435229D01*
X63208698Y-43364191D01*
X63254701Y-43308779D01*
X63312821Y-43271009D01*
X63381180Y-43252896D01*
X63457898Y-43256457D01*
X63457898Y-43256457D01*
G37*
X63457898Y-43256457D02*
X63490096Y-43264279D01*
X63551825Y-43292921D01*
X63604610Y-43336667D01*
X63641141Y-43389117D01*
X63646160Y-43400893D01*
X63653045Y-43431740D01*
X63657864Y-43477371D01*
X63659505Y-43523492D01*
X63659505Y-43610693D01*
X63477178Y-43610693D01*
X63401979Y-43610978D01*
X63349003Y-43612704D01*
X63315325Y-43617181D01*
X63298020Y-43625720D01*
X63294163Y-43639630D01*
X63300829Y-43660222D01*
X63312770Y-43684315D01*
X63346080Y-43724525D01*
X63392368Y-43744558D01*
X63448944Y-43743905D01*
X63513031Y-43722101D01*
X63568417Y-43695193D01*
X63614375Y-43731532D01*
X63660333Y-43767872D01*
X63617096Y-43807819D01*
X63559374Y-43845563D01*
X63488386Y-43868320D01*
X63412029Y-43874688D01*
X63338199Y-43863268D01*
X63326287Y-43859393D01*
X63261399Y-43825506D01*
X63213130Y-43774986D01*
X63180465Y-43706325D01*
X63162385Y-43618014D01*
X63162175Y-43616121D01*
X63160556Y-43519878D01*
X63167100Y-43485542D01*
X63294852Y-43485542D01*
X63306584Y-43490822D01*
X63338438Y-43494867D01*
X63385397Y-43497176D01*
X63415154Y-43497525D01*
X63470648Y-43497306D01*
X63505346Y-43495916D01*
X63523601Y-43492251D01*
X63529766Y-43485210D01*
X63528195Y-43473690D01*
X63526878Y-43469233D01*
X63504382Y-43427355D01*
X63469003Y-43393604D01*
X63437780Y-43378773D01*
X63396301Y-43379668D01*
X63354269Y-43398164D01*
X63319012Y-43428786D01*
X63297854Y-43466062D01*
X63294852Y-43485542D01*
X63167100Y-43485542D01*
X63176690Y-43435229D01*
X63208698Y-43364191D01*
X63254701Y-43308779D01*
X63312821Y-43271009D01*
X63381180Y-43252896D01*
X63457898Y-43256457D01*
G36*
X62997226Y-43263880D02*
X63070080Y-43294830D01*
X63093027Y-43309895D01*
X63122354Y-43333048D01*
X63140764Y-43351253D01*
X63143961Y-43357183D01*
X63134935Y-43370340D01*
X63111837Y-43392667D01*
X63093344Y-43408250D01*
X63042728Y-43448926D01*
X63002760Y-43415295D01*
X62971874Y-43393584D01*
X62941759Y-43386090D01*
X62907292Y-43387920D01*
X62852561Y-43401528D01*
X62814886Y-43429772D01*
X62791991Y-43475433D01*
X62781597Y-43541289D01*
X62781595Y-43541331D01*
X62782494Y-43614939D01*
X62796463Y-43668946D01*
X62824328Y-43705716D01*
X62843325Y-43718168D01*
X62893776Y-43733673D01*
X62947663Y-43733683D01*
X62994546Y-43718638D01*
X63005644Y-43711287D01*
X63033476Y-43692511D01*
X63055236Y-43689434D01*
X63078704Y-43703409D01*
X63104649Y-43728510D01*
X63145716Y-43770880D01*
X63100121Y-43808464D01*
X63029674Y-43850882D01*
X62950233Y-43871785D01*
X62867215Y-43870272D01*
X62812694Y-43856411D01*
X62748970Y-43822135D01*
X62698005Y-43768212D01*
X62674851Y-43730149D01*
X62656099Y-43675536D01*
X62646715Y-43606369D01*
X62646643Y-43531407D01*
X62655824Y-43459409D01*
X62674199Y-43399137D01*
X62677093Y-43392958D01*
X62719952Y-43332351D01*
X62777979Y-43288224D01*
X62846591Y-43261493D01*
X62921201Y-43253073D01*
X62997226Y-43263880D01*
X62997226Y-43263880D01*
G37*
X62997226Y-43263880D02*
X63070080Y-43294830D01*
X63093027Y-43309895D01*
X63122354Y-43333048D01*
X63140764Y-43351253D01*
X63143961Y-43357183D01*
X63134935Y-43370340D01*
X63111837Y-43392667D01*
X63093344Y-43408250D01*
X63042728Y-43448926D01*
X63002760Y-43415295D01*
X62971874Y-43393584D01*
X62941759Y-43386090D01*
X62907292Y-43387920D01*
X62852561Y-43401528D01*
X62814886Y-43429772D01*
X62791991Y-43475433D01*
X62781597Y-43541289D01*
X62781595Y-43541331D01*
X62782494Y-43614939D01*
X62796463Y-43668946D01*
X62824328Y-43705716D01*
X62843325Y-43718168D01*
X62893776Y-43733673D01*
X62947663Y-43733683D01*
X62994546Y-43718638D01*
X63005644Y-43711287D01*
X63033476Y-43692511D01*
X63055236Y-43689434D01*
X63078704Y-43703409D01*
X63104649Y-43728510D01*
X63145716Y-43770880D01*
X63100121Y-43808464D01*
X63029674Y-43850882D01*
X62950233Y-43871785D01*
X62867215Y-43870272D01*
X62812694Y-43856411D01*
X62748970Y-43822135D01*
X62698005Y-43768212D01*
X62674851Y-43730149D01*
X62656099Y-43675536D01*
X62646715Y-43606369D01*
X62646643Y-43531407D01*
X62655824Y-43459409D01*
X62674199Y-43399137D01*
X62677093Y-43392958D01*
X62719952Y-43332351D01*
X62777979Y-43288224D01*
X62846591Y-43261493D01*
X62921201Y-43253073D01*
X62997226Y-43263880D01*
G36*
X61773367Y-43454342D02*
X61774555Y-43546563D01*
X61778897Y-43616610D01*
X61787558Y-43667381D01*
X61801704Y-43701772D01*
X61822500Y-43722679D01*
X61851110Y-43733000D01*
X61886535Y-43735636D01*
X61923636Y-43732682D01*
X61951818Y-43721889D01*
X61972243Y-43700360D01*
X61986079Y-43665199D01*
X61994491Y-43613510D01*
X61998643Y-43542394D01*
X61999703Y-43454342D01*
X61999703Y-43258614D01*
X62138020Y-43258614D01*
X62138020Y-43862179D01*
X62068862Y-43862179D01*
X62027170Y-43860489D01*
X62005701Y-43854556D01*
X61999703Y-43843293D01*
X61996091Y-43833261D01*
X61981714Y-43835383D01*
X61952736Y-43849580D01*
X61886319Y-43871480D01*
X61815875Y-43869928D01*
X61748377Y-43846147D01*
X61716233Y-43827362D01*
X61691715Y-43807022D01*
X61673804Y-43781573D01*
X61661479Y-43747458D01*
X61653723Y-43701121D01*
X61649516Y-43639007D01*
X61647840Y-43557561D01*
X61647624Y-43494578D01*
X61647624Y-43258614D01*
X61773367Y-43258614D01*
X61773367Y-43454342D01*
X61773367Y-43454342D01*
G37*
X61773367Y-43454342D02*
X61774555Y-43546563D01*
X61778897Y-43616610D01*
X61787558Y-43667381D01*
X61801704Y-43701772D01*
X61822500Y-43722679D01*
X61851110Y-43733000D01*
X61886535Y-43735636D01*
X61923636Y-43732682D01*
X61951818Y-43721889D01*
X61972243Y-43700360D01*
X61986079Y-43665199D01*
X61994491Y-43613510D01*
X61998643Y-43542394D01*
X61999703Y-43454342D01*
X61999703Y-43258614D01*
X62138020Y-43258614D01*
X62138020Y-43862179D01*
X62068862Y-43862179D01*
X62027170Y-43860489D01*
X62005701Y-43854556D01*
X61999703Y-43843293D01*
X61996091Y-43833261D01*
X61981714Y-43835383D01*
X61952736Y-43849580D01*
X61886319Y-43871480D01*
X61815875Y-43869928D01*
X61748377Y-43846147D01*
X61716233Y-43827362D01*
X61691715Y-43807022D01*
X61673804Y-43781573D01*
X61661479Y-43747458D01*
X61653723Y-43701121D01*
X61649516Y-43639007D01*
X61647840Y-43557561D01*
X61647624Y-43494578D01*
X61647624Y-43258614D01*
X61773367Y-43258614D01*
X61773367Y-43454342D01*
G36*
X61390762Y-43266055D02*
X61454363Y-43300692D01*
X61504123Y-43355372D01*
X61527568Y-43399842D01*
X61537634Y-43439121D01*
X61544156Y-43495116D01*
X61546951Y-43559621D01*
X61545836Y-43624429D01*
X61540626Y-43681334D01*
X61534541Y-43711727D01*
X61514014Y-43753306D01*
X61478463Y-43797468D01*
X61435619Y-43836087D01*
X61393211Y-43861034D01*
X61392177Y-43861430D01*
X61339553Y-43872331D01*
X61277188Y-43872601D01*
X61217924Y-43862676D01*
X61195040Y-43854722D01*
X61136102Y-43821300D01*
X61093890Y-43777511D01*
X61066156Y-43719538D01*
X61050651Y-43643565D01*
X61047143Y-43603771D01*
X61047590Y-43553766D01*
X61182376Y-43553766D01*
X61186917Y-43626732D01*
X61199986Y-43682334D01*
X61220756Y-43717861D01*
X61235552Y-43728020D01*
X61273464Y-43735104D01*
X61318527Y-43733007D01*
X61357487Y-43722812D01*
X61367704Y-43717204D01*
X61394659Y-43684538D01*
X61412451Y-43634545D01*
X61420024Y-43573705D01*
X61416325Y-43508497D01*
X61408057Y-43469253D01*
X61384320Y-43423805D01*
X61346849Y-43395396D01*
X61301720Y-43385573D01*
X61255011Y-43395887D01*
X61219132Y-43421112D01*
X61200277Y-43441925D01*
X61189272Y-43462439D01*
X61184026Y-43490203D01*
X61182449Y-43532762D01*
X61182376Y-43553766D01*
X61047590Y-43553766D01*
X61048094Y-43497580D01*
X61065388Y-43410501D01*
X61099029Y-43342530D01*
X61149018Y-43293664D01*
X61215356Y-43263899D01*
X61229601Y-43260448D01*
X61315210Y-43252345D01*
X61390762Y-43266055D01*
X61390762Y-43266055D01*
G37*
X61390762Y-43266055D02*
X61454363Y-43300692D01*
X61504123Y-43355372D01*
X61527568Y-43399842D01*
X61537634Y-43439121D01*
X61544156Y-43495116D01*
X61546951Y-43559621D01*
X61545836Y-43624429D01*
X61540626Y-43681334D01*
X61534541Y-43711727D01*
X61514014Y-43753306D01*
X61478463Y-43797468D01*
X61435619Y-43836087D01*
X61393211Y-43861034D01*
X61392177Y-43861430D01*
X61339553Y-43872331D01*
X61277188Y-43872601D01*
X61217924Y-43862676D01*
X61195040Y-43854722D01*
X61136102Y-43821300D01*
X61093890Y-43777511D01*
X61066156Y-43719538D01*
X61050651Y-43643565D01*
X61047143Y-43603771D01*
X61047590Y-43553766D01*
X61182376Y-43553766D01*
X61186917Y-43626732D01*
X61199986Y-43682334D01*
X61220756Y-43717861D01*
X61235552Y-43728020D01*
X61273464Y-43735104D01*
X61318527Y-43733007D01*
X61357487Y-43722812D01*
X61367704Y-43717204D01*
X61394659Y-43684538D01*
X61412451Y-43634545D01*
X61420024Y-43573705D01*
X61416325Y-43508497D01*
X61408057Y-43469253D01*
X61384320Y-43423805D01*
X61346849Y-43395396D01*
X61301720Y-43385573D01*
X61255011Y-43395887D01*
X61219132Y-43421112D01*
X61200277Y-43441925D01*
X61189272Y-43462439D01*
X61184026Y-43490203D01*
X61182449Y-43532762D01*
X61182376Y-43553766D01*
X61047590Y-43553766D01*
X61048094Y-43497580D01*
X61065388Y-43410501D01*
X61099029Y-43342530D01*
X61149018Y-43293664D01*
X61215356Y-43263899D01*
X61229601Y-43260448D01*
X61315210Y-43252345D01*
X61390762Y-43266055D01*
G36*
X60794017Y-43256452D02*
X60841634Y-43265482D01*
X60891034Y-43284370D01*
X60896312Y-43286777D01*
X60933774Y-43306476D01*
X60959717Y-43324781D01*
X60968103Y-43336508D01*
X60960117Y-43355632D01*
X60940720Y-43383850D01*
X60932110Y-43394384D01*
X60896628Y-43435847D01*
X60850885Y-43408858D01*
X60807350Y-43390878D01*
X60757050Y-43381267D01*
X60708812Y-43380660D01*
X60671467Y-43389691D01*
X60662505Y-43395327D01*
X60645437Y-43421171D01*
X60643363Y-43450941D01*
X60656134Y-43474197D01*
X60663688Y-43478708D01*
X60686325Y-43484309D01*
X60726115Y-43490892D01*
X60775166Y-43497183D01*
X60784215Y-43498170D01*
X60862996Y-43511798D01*
X60920136Y-43534946D01*
X60958030Y-43569752D01*
X60979079Y-43618354D01*
X60985635Y-43677718D01*
X60976577Y-43745198D01*
X60947164Y-43798188D01*
X60897278Y-43836783D01*
X60826800Y-43861081D01*
X60748565Y-43870667D01*
X60684766Y-43870552D01*
X60633016Y-43861845D01*
X60597673Y-43849825D01*
X60553017Y-43828880D01*
X60511747Y-43804574D01*
X60497079Y-43793876D01*
X60459357Y-43763084D01*
X60504852Y-43717049D01*
X60550347Y-43671013D01*
X60602072Y-43705243D01*
X60653952Y-43730952D01*
X60709351Y-43744399D01*
X60762605Y-43745818D01*
X60808049Y-43735443D01*
X60840016Y-43713507D01*
X60850338Y-43694998D01*
X60848789Y-43665314D01*
X60823140Y-43642615D01*
X60773460Y-43626940D01*
X60719031Y-43619695D01*
X60635264Y-43605873D01*
X60573033Y-43579796D01*
X60531507Y-43540699D01*
X60509853Y-43487820D01*
X60506853Y-43425126D01*
X60521671Y-43359642D01*
X60555454Y-43310144D01*
X60608505Y-43276408D01*
X60681126Y-43258207D01*
X60734928Y-43254639D01*
X60794017Y-43256452D01*
X60794017Y-43256452D01*
G37*
X60794017Y-43256452D02*
X60841634Y-43265482D01*
X60891034Y-43284370D01*
X60896312Y-43286777D01*
X60933774Y-43306476D01*
X60959717Y-43324781D01*
X60968103Y-43336508D01*
X60960117Y-43355632D01*
X60940720Y-43383850D01*
X60932110Y-43394384D01*
X60896628Y-43435847D01*
X60850885Y-43408858D01*
X60807350Y-43390878D01*
X60757050Y-43381267D01*
X60708812Y-43380660D01*
X60671467Y-43389691D01*
X60662505Y-43395327D01*
X60645437Y-43421171D01*
X60643363Y-43450941D01*
X60656134Y-43474197D01*
X60663688Y-43478708D01*
X60686325Y-43484309D01*
X60726115Y-43490892D01*
X60775166Y-43497183D01*
X60784215Y-43498170D01*
X60862996Y-43511798D01*
X60920136Y-43534946D01*
X60958030Y-43569752D01*
X60979079Y-43618354D01*
X60985635Y-43677718D01*
X60976577Y-43745198D01*
X60947164Y-43798188D01*
X60897278Y-43836783D01*
X60826800Y-43861081D01*
X60748565Y-43870667D01*
X60684766Y-43870552D01*
X60633016Y-43861845D01*
X60597673Y-43849825D01*
X60553017Y-43828880D01*
X60511747Y-43804574D01*
X60497079Y-43793876D01*
X60459357Y-43763084D01*
X60504852Y-43717049D01*
X60550347Y-43671013D01*
X60602072Y-43705243D01*
X60653952Y-43730952D01*
X60709351Y-43744399D01*
X60762605Y-43745818D01*
X60808049Y-43735443D01*
X60840016Y-43713507D01*
X60850338Y-43694998D01*
X60848789Y-43665314D01*
X60823140Y-43642615D01*
X60773460Y-43626940D01*
X60719031Y-43619695D01*
X60635264Y-43605873D01*
X60573033Y-43579796D01*
X60531507Y-43540699D01*
X60509853Y-43487820D01*
X60506853Y-43425126D01*
X60521671Y-43359642D01*
X60555454Y-43310144D01*
X60608505Y-43276408D01*
X60681126Y-43258207D01*
X60734928Y-43254639D01*
X60794017Y-43256452D01*
G36*
X59423301Y-43272614D02*
X59435832Y-43278514D01*
X59479201Y-43310283D01*
X59520210Y-43356646D01*
X59550832Y-43407696D01*
X59559541Y-43431166D01*
X59567488Y-43473091D01*
X59572226Y-43523757D01*
X59572801Y-43544679D01*
X59572871Y-43610693D01*
X59192917Y-43610693D01*
X59201017Y-43645273D01*
X59220896Y-43686170D01*
X59255653Y-43721514D01*
X59297002Y-43744282D01*
X59323351Y-43749010D01*
X59359084Y-43743273D01*
X59401718Y-43728882D01*
X59416201Y-43722262D01*
X59469760Y-43695513D01*
X59515467Y-43730376D01*
X59541842Y-43753955D01*
X59555876Y-43773417D01*
X59556586Y-43779129D01*
X59544049Y-43792973D01*
X59516572Y-43814012D01*
X59491634Y-43830425D01*
X59424336Y-43859930D01*
X59348890Y-43873284D01*
X59274112Y-43869812D01*
X59214505Y-43851663D01*
X59153059Y-43812784D01*
X59109392Y-43761595D01*
X59082074Y-43695367D01*
X59069678Y-43611371D01*
X59068579Y-43572936D01*
X59072978Y-43484861D01*
X59073518Y-43482299D01*
X59199418Y-43482299D01*
X59202885Y-43490558D01*
X59217137Y-43495113D01*
X59246530Y-43497065D01*
X59295425Y-43497517D01*
X59314252Y-43497525D01*
X59371533Y-43496843D01*
X59407859Y-43494364D01*
X59427396Y-43489443D01*
X59434310Y-43481434D01*
X59434555Y-43478862D01*
X59426664Y-43458423D01*
X59406915Y-43429789D01*
X59398425Y-43419763D01*
X59366906Y-43391408D01*
X59334051Y-43380259D01*
X59316349Y-43379327D01*
X59268461Y-43390981D01*
X59228301Y-43422285D01*
X59202827Y-43467752D01*
X59202375Y-43469233D01*
X59199418Y-43482299D01*
X59073518Y-43482299D01*
X59087608Y-43415510D01*
X59113962Y-43360025D01*
X59146193Y-43320639D01*
X59205783Y-43277931D01*
X59275832Y-43255109D01*
X59350339Y-43253046D01*
X59423301Y-43272614D01*
X59423301Y-43272614D01*
G37*
X59423301Y-43272614D02*
X59435832Y-43278514D01*
X59479201Y-43310283D01*
X59520210Y-43356646D01*
X59550832Y-43407696D01*
X59559541Y-43431166D01*
X59567488Y-43473091D01*
X59572226Y-43523757D01*
X59572801Y-43544679D01*
X59572871Y-43610693D01*
X59192917Y-43610693D01*
X59201017Y-43645273D01*
X59220896Y-43686170D01*
X59255653Y-43721514D01*
X59297002Y-43744282D01*
X59323351Y-43749010D01*
X59359084Y-43743273D01*
X59401718Y-43728882D01*
X59416201Y-43722262D01*
X59469760Y-43695513D01*
X59515467Y-43730376D01*
X59541842Y-43753955D01*
X59555876Y-43773417D01*
X59556586Y-43779129D01*
X59544049Y-43792973D01*
X59516572Y-43814012D01*
X59491634Y-43830425D01*
X59424336Y-43859930D01*
X59348890Y-43873284D01*
X59274112Y-43869812D01*
X59214505Y-43851663D01*
X59153059Y-43812784D01*
X59109392Y-43761595D01*
X59082074Y-43695367D01*
X59069678Y-43611371D01*
X59068579Y-43572936D01*
X59072978Y-43484861D01*
X59073518Y-43482299D01*
X59199418Y-43482299D01*
X59202885Y-43490558D01*
X59217137Y-43495113D01*
X59246530Y-43497065D01*
X59295425Y-43497517D01*
X59314252Y-43497525D01*
X59371533Y-43496843D01*
X59407859Y-43494364D01*
X59427396Y-43489443D01*
X59434310Y-43481434D01*
X59434555Y-43478862D01*
X59426664Y-43458423D01*
X59406915Y-43429789D01*
X59398425Y-43419763D01*
X59366906Y-43391408D01*
X59334051Y-43380259D01*
X59316349Y-43379327D01*
X59268461Y-43390981D01*
X59228301Y-43422285D01*
X59202827Y-43467752D01*
X59202375Y-43469233D01*
X59199418Y-43482299D01*
X59073518Y-43482299D01*
X59087608Y-43415510D01*
X59113962Y-43360025D01*
X59146193Y-43320639D01*
X59205783Y-43277931D01*
X59275832Y-43255109D01*
X59350339Y-43253046D01*
X59423301Y-43272614D01*
G36*
X58241739Y-43265148D02*
X58307521Y-43294231D01*
X58357460Y-43342793D01*
X58391626Y-43410908D01*
X58410093Y-43498651D01*
X58411417Y-43512351D01*
X58412454Y-43608939D01*
X58399007Y-43693602D01*
X58371892Y-43762221D01*
X58357373Y-43784294D01*
X58306799Y-43831011D01*
X58242391Y-43861268D01*
X58170334Y-43873824D01*
X58096815Y-43867439D01*
X58040928Y-43847772D01*
X57992868Y-43814629D01*
X57953588Y-43771175D01*
X57952908Y-43770158D01*
X57936956Y-43743338D01*
X57926590Y-43716368D01*
X57920312Y-43682332D01*
X57916627Y-43634310D01*
X57915003Y-43594931D01*
X57914328Y-43559219D01*
X58040045Y-43559219D01*
X58041274Y-43594770D01*
X58045734Y-43642094D01*
X58053603Y-43672465D01*
X58067793Y-43694072D01*
X58081083Y-43706694D01*
X58128198Y-43733122D01*
X58177495Y-43736653D01*
X58223407Y-43717639D01*
X58246362Y-43696331D01*
X58262904Y-43674859D01*
X58272579Y-43654313D01*
X58276826Y-43627574D01*
X58277080Y-43587523D01*
X58275772Y-43550638D01*
X58272957Y-43497947D01*
X58268495Y-43463772D01*
X58260452Y-43441480D01*
X58246897Y-43424442D01*
X58236155Y-43414703D01*
X58191223Y-43389123D01*
X58142751Y-43387847D01*
X58102106Y-43402999D01*
X58067433Y-43434642D01*
X58046776Y-43486620D01*
X58040045Y-43559219D01*
X57914328Y-43559219D01*
X57913521Y-43516621D01*
X57916052Y-43458056D01*
X57923638Y-43414007D01*
X57937319Y-43379248D01*
X57958135Y-43348551D01*
X57965853Y-43339436D01*
X58014111Y-43294021D01*
X58065872Y-43267493D01*
X58129172Y-43256379D01*
X58160039Y-43255471D01*
X58241739Y-43265148D01*
X58241739Y-43265148D01*
G37*
X58241739Y-43265148D02*
X58307521Y-43294231D01*
X58357460Y-43342793D01*
X58391626Y-43410908D01*
X58410093Y-43498651D01*
X58411417Y-43512351D01*
X58412454Y-43608939D01*
X58399007Y-43693602D01*
X58371892Y-43762221D01*
X58357373Y-43784294D01*
X58306799Y-43831011D01*
X58242391Y-43861268D01*
X58170334Y-43873824D01*
X58096815Y-43867439D01*
X58040928Y-43847772D01*
X57992868Y-43814629D01*
X57953588Y-43771175D01*
X57952908Y-43770158D01*
X57936956Y-43743338D01*
X57926590Y-43716368D01*
X57920312Y-43682332D01*
X57916627Y-43634310D01*
X57915003Y-43594931D01*
X57914328Y-43559219D01*
X58040045Y-43559219D01*
X58041274Y-43594770D01*
X58045734Y-43642094D01*
X58053603Y-43672465D01*
X58067793Y-43694072D01*
X58081083Y-43706694D01*
X58128198Y-43733122D01*
X58177495Y-43736653D01*
X58223407Y-43717639D01*
X58246362Y-43696331D01*
X58262904Y-43674859D01*
X58272579Y-43654313D01*
X58276826Y-43627574D01*
X58277080Y-43587523D01*
X58275772Y-43550638D01*
X58272957Y-43497947D01*
X58268495Y-43463772D01*
X58260452Y-43441480D01*
X58246897Y-43424442D01*
X58236155Y-43414703D01*
X58191223Y-43389123D01*
X58142751Y-43387847D01*
X58102106Y-43402999D01*
X58067433Y-43434642D01*
X58046776Y-43486620D01*
X58040045Y-43559219D01*
X57914328Y-43559219D01*
X57913521Y-43516621D01*
X57916052Y-43458056D01*
X57923638Y-43414007D01*
X57937319Y-43379248D01*
X57958135Y-43348551D01*
X57965853Y-43339436D01*
X58014111Y-43294021D01*
X58065872Y-43267493D01*
X58129172Y-43256379D01*
X58160039Y-43255471D01*
X58241739Y-43265148D01*
G36*
X62812581Y-44204970D02*
X62872685Y-44220597D01*
X62923021Y-44252848D01*
X62947393Y-44276940D01*
X62987345Y-44333895D01*
X63010242Y-44399965D01*
X63018108Y-44481182D01*
X63018148Y-44487748D01*
X63018218Y-44553763D01*
X62638264Y-44553763D01*
X62646363Y-44588342D01*
X62660987Y-44619659D01*
X62686581Y-44652291D01*
X62691935Y-44657500D01*
X62737943Y-44685694D01*
X62790410Y-44690475D01*
X62850803Y-44671926D01*
X62861040Y-44666931D01*
X62892439Y-44651745D01*
X62913470Y-44643094D01*
X62917139Y-44642293D01*
X62929948Y-44650063D01*
X62954378Y-44669072D01*
X62966779Y-44679460D01*
X62992476Y-44703321D01*
X63000915Y-44719077D01*
X62995058Y-44733571D01*
X62991928Y-44737534D01*
X62970725Y-44754879D01*
X62935738Y-44775959D01*
X62911337Y-44788265D01*
X62842072Y-44809946D01*
X62765388Y-44816971D01*
X62692765Y-44808647D01*
X62672426Y-44802686D01*
X62609476Y-44768952D01*
X62562815Y-44717045D01*
X62532173Y-44646459D01*
X62517282Y-44556692D01*
X62515647Y-44509753D01*
X62520421Y-44441413D01*
X62640990Y-44441413D01*
X62652652Y-44446465D01*
X62683998Y-44450429D01*
X62729571Y-44452768D01*
X62760446Y-44453169D01*
X62815981Y-44452783D01*
X62851033Y-44450975D01*
X62870262Y-44446773D01*
X62878330Y-44439203D01*
X62879901Y-44428218D01*
X62869121Y-44394381D01*
X62841980Y-44360940D01*
X62806277Y-44335272D01*
X62770560Y-44324772D01*
X62722048Y-44334086D01*
X62680053Y-44361013D01*
X62650936Y-44399827D01*
X62640990Y-44441413D01*
X62520421Y-44441413D01*
X62522599Y-44410236D01*
X62544055Y-44330949D01*
X62580470Y-44271263D01*
X62632297Y-44230549D01*
X62699990Y-44208179D01*
X62736662Y-44203871D01*
X62812581Y-44204970D01*
X62812581Y-44204970D01*
G37*
X62812581Y-44204970D02*
X62872685Y-44220597D01*
X62923021Y-44252848D01*
X62947393Y-44276940D01*
X62987345Y-44333895D01*
X63010242Y-44399965D01*
X63018108Y-44481182D01*
X63018148Y-44487748D01*
X63018218Y-44553763D01*
X62638264Y-44553763D01*
X62646363Y-44588342D01*
X62660987Y-44619659D01*
X62686581Y-44652291D01*
X62691935Y-44657500D01*
X62737943Y-44685694D01*
X62790410Y-44690475D01*
X62850803Y-44671926D01*
X62861040Y-44666931D01*
X62892439Y-44651745D01*
X62913470Y-44643094D01*
X62917139Y-44642293D01*
X62929948Y-44650063D01*
X62954378Y-44669072D01*
X62966779Y-44679460D01*
X62992476Y-44703321D01*
X63000915Y-44719077D01*
X62995058Y-44733571D01*
X62991928Y-44737534D01*
X62970725Y-44754879D01*
X62935738Y-44775959D01*
X62911337Y-44788265D01*
X62842072Y-44809946D01*
X62765388Y-44816971D01*
X62692765Y-44808647D01*
X62672426Y-44802686D01*
X62609476Y-44768952D01*
X62562815Y-44717045D01*
X62532173Y-44646459D01*
X62517282Y-44556692D01*
X62515647Y-44509753D01*
X62520421Y-44441413D01*
X62640990Y-44441413D01*
X62652652Y-44446465D01*
X62683998Y-44450429D01*
X62729571Y-44452768D01*
X62760446Y-44453169D01*
X62815981Y-44452783D01*
X62851033Y-44450975D01*
X62870262Y-44446773D01*
X62878330Y-44439203D01*
X62879901Y-44428218D01*
X62869121Y-44394381D01*
X62841980Y-44360940D01*
X62806277Y-44335272D01*
X62770560Y-44324772D01*
X62722048Y-44334086D01*
X62680053Y-44361013D01*
X62650936Y-44399827D01*
X62640990Y-44441413D01*
X62520421Y-44441413D01*
X62522599Y-44410236D01*
X62544055Y-44330949D01*
X62580470Y-44271263D01*
X62632297Y-44230549D01*
X62699990Y-44208179D01*
X62736662Y-44203871D01*
X62812581Y-44204970D01*
G36*
X62415255Y-44201486D02*
X62463595Y-44211015D01*
X62491114Y-44225125D01*
X62520064Y-44248568D01*
X62478876Y-44300571D01*
X62453482Y-44332064D01*
X62436238Y-44347428D01*
X62419102Y-44349776D01*
X62394027Y-44342217D01*
X62382257Y-44337941D01*
X62334270Y-44331631D01*
X62290324Y-44345156D01*
X62258060Y-44375710D01*
X62252819Y-44385452D01*
X62247112Y-44411258D01*
X62242706Y-44458817D01*
X62239811Y-44524758D01*
X62238631Y-44605710D01*
X62238614Y-44617226D01*
X62238614Y-44817822D01*
X62100297Y-44817822D01*
X62100297Y-44201683D01*
X62169456Y-44201683D01*
X62209333Y-44202725D01*
X62230107Y-44207358D01*
X62237789Y-44217849D01*
X62238614Y-44227745D01*
X62238614Y-44253806D01*
X62271745Y-44227745D01*
X62309735Y-44209965D01*
X62360770Y-44201174D01*
X62415255Y-44201486D01*
X62415255Y-44201486D01*
G37*
X62415255Y-44201486D02*
X62463595Y-44211015D01*
X62491114Y-44225125D01*
X62520064Y-44248568D01*
X62478876Y-44300571D01*
X62453482Y-44332064D01*
X62436238Y-44347428D01*
X62419102Y-44349776D01*
X62394027Y-44342217D01*
X62382257Y-44337941D01*
X62334270Y-44331631D01*
X62290324Y-44345156D01*
X62258060Y-44375710D01*
X62252819Y-44385452D01*
X62247112Y-44411258D01*
X62242706Y-44458817D01*
X62239811Y-44524758D01*
X62238631Y-44605710D01*
X62238614Y-44617226D01*
X62238614Y-44817822D01*
X62100297Y-44817822D01*
X62100297Y-44201683D01*
X62169456Y-44201683D01*
X62209333Y-44202725D01*
X62230107Y-44207358D01*
X62237789Y-44217849D01*
X62238614Y-44227745D01*
X62238614Y-44253806D01*
X62271745Y-44227745D01*
X62309735Y-44209965D01*
X62360770Y-44201174D01*
X62415255Y-44201486D01*
G36*
X61818411Y-44205417D02*
X61871411Y-44218290D01*
X61886731Y-44225110D01*
X61916428Y-44242974D01*
X61939220Y-44263093D01*
X61956083Y-44288962D01*
X61967998Y-44324073D01*
X61975942Y-44371920D01*
X61980894Y-44435996D01*
X61983831Y-44519794D01*
X61984947Y-44575768D01*
X61989052Y-44817822D01*
X61918932Y-44817822D01*
X61876393Y-44816038D01*
X61854476Y-44809942D01*
X61848812Y-44799706D01*
X61845821Y-44788637D01*
X61832451Y-44790754D01*
X61814233Y-44799629D01*
X61768624Y-44813233D01*
X61710007Y-44816899D01*
X61648354Y-44810903D01*
X61593638Y-44795521D01*
X61588730Y-44793386D01*
X61538723Y-44758255D01*
X61505756Y-44709419D01*
X61490587Y-44652333D01*
X61491746Y-44631824D01*
X61615508Y-44631824D01*
X61626413Y-44659425D01*
X61658745Y-44679204D01*
X61710910Y-44689819D01*
X61738787Y-44691228D01*
X61785247Y-44687620D01*
X61816129Y-44673597D01*
X61823664Y-44666931D01*
X61844076Y-44630666D01*
X61848812Y-44597773D01*
X61848812Y-44553763D01*
X61787513Y-44553763D01*
X61716256Y-44557395D01*
X61666276Y-44568818D01*
X61634696Y-44588824D01*
X61627626Y-44597743D01*
X61615508Y-44631824D01*
X61491746Y-44631824D01*
X61493971Y-44592456D01*
X61516663Y-44535244D01*
X61547624Y-44496580D01*
X61566376Y-44479864D01*
X61584733Y-44468878D01*
X61608619Y-44462180D01*
X61643957Y-44458326D01*
X61696669Y-44455873D01*
X61717577Y-44455168D01*
X61848812Y-44450879D01*
X61848620Y-44411158D01*
X61843537Y-44369405D01*
X61825162Y-44344158D01*
X61788039Y-44328030D01*
X61787043Y-44327742D01*
X61734410Y-44321400D01*
X61682906Y-44329684D01*
X61644630Y-44349827D01*
X61629272Y-44359773D01*
X61612730Y-44358397D01*
X61587275Y-44343987D01*
X61572328Y-44333817D01*
X61543091Y-44312088D01*
X61524980Y-44295800D01*
X61522074Y-44291137D01*
X61534040Y-44267005D01*
X61569396Y-44238185D01*
X61584753Y-44228461D01*
X61628901Y-44211714D01*
X61688398Y-44202227D01*
X61754487Y-44200095D01*
X61818411Y-44205417D01*
X61818411Y-44205417D01*
G37*
X61818411Y-44205417D02*
X61871411Y-44218290D01*
X61886731Y-44225110D01*
X61916428Y-44242974D01*
X61939220Y-44263093D01*
X61956083Y-44288962D01*
X61967998Y-44324073D01*
X61975942Y-44371920D01*
X61980894Y-44435996D01*
X61983831Y-44519794D01*
X61984947Y-44575768D01*
X61989052Y-44817822D01*
X61918932Y-44817822D01*
X61876393Y-44816038D01*
X61854476Y-44809942D01*
X61848812Y-44799706D01*
X61845821Y-44788637D01*
X61832451Y-44790754D01*
X61814233Y-44799629D01*
X61768624Y-44813233D01*
X61710007Y-44816899D01*
X61648354Y-44810903D01*
X61593638Y-44795521D01*
X61588730Y-44793386D01*
X61538723Y-44758255D01*
X61505756Y-44709419D01*
X61490587Y-44652333D01*
X61491746Y-44631824D01*
X61615508Y-44631824D01*
X61626413Y-44659425D01*
X61658745Y-44679204D01*
X61710910Y-44689819D01*
X61738787Y-44691228D01*
X61785247Y-44687620D01*
X61816129Y-44673597D01*
X61823664Y-44666931D01*
X61844076Y-44630666D01*
X61848812Y-44597773D01*
X61848812Y-44553763D01*
X61787513Y-44553763D01*
X61716256Y-44557395D01*
X61666276Y-44568818D01*
X61634696Y-44588824D01*
X61627626Y-44597743D01*
X61615508Y-44631824D01*
X61491746Y-44631824D01*
X61493971Y-44592456D01*
X61516663Y-44535244D01*
X61547624Y-44496580D01*
X61566376Y-44479864D01*
X61584733Y-44468878D01*
X61608619Y-44462180D01*
X61643957Y-44458326D01*
X61696669Y-44455873D01*
X61717577Y-44455168D01*
X61848812Y-44450879D01*
X61848620Y-44411158D01*
X61843537Y-44369405D01*
X61825162Y-44344158D01*
X61788039Y-44328030D01*
X61787043Y-44327742D01*
X61734410Y-44321400D01*
X61682906Y-44329684D01*
X61644630Y-44349827D01*
X61629272Y-44359773D01*
X61612730Y-44358397D01*
X61587275Y-44343987D01*
X61572328Y-44333817D01*
X61543091Y-44312088D01*
X61524980Y-44295800D01*
X61522074Y-44291137D01*
X61534040Y-44267005D01*
X61569396Y-44238185D01*
X61584753Y-44228461D01*
X61628901Y-44211714D01*
X61688398Y-44202227D01*
X61754487Y-44200095D01*
X61818411Y-44205417D01*
G36*
X61061524Y-44204237D02*
X61111255Y-44207971D01*
X61241291Y-44597773D01*
X61261678Y-44528614D01*
X61273946Y-44485874D01*
X61290085Y-44428115D01*
X61307512Y-44364625D01*
X61316726Y-44330570D01*
X61351388Y-44201683D01*
X61494391Y-44201683D01*
X61451646Y-44336857D01*
X61430596Y-44403342D01*
X61405167Y-44483539D01*
X61378610Y-44567193D01*
X61354902Y-44641782D01*
X61300902Y-44811535D01*
X61242598Y-44815328D01*
X61184295Y-44819122D01*
X61152679Y-44714734D01*
X61133182Y-44649889D01*
X61111904Y-44578400D01*
X61093308Y-44515263D01*
X61092574Y-44512750D01*
X61078684Y-44469969D01*
X61066429Y-44440779D01*
X61057846Y-44429741D01*
X61056082Y-44431018D01*
X61049891Y-44448130D01*
X61038128Y-44484787D01*
X61022225Y-44536378D01*
X61003614Y-44598294D01*
X60993543Y-44632352D01*
X60939007Y-44817822D01*
X60823264Y-44817822D01*
X60730737Y-44525471D01*
X60704744Y-44443462D01*
X60681066Y-44368987D01*
X60660820Y-44305544D01*
X60645126Y-44256632D01*
X60635102Y-44225749D01*
X60632055Y-44216726D01*
X60634467Y-44207487D01*
X60653408Y-44203441D01*
X60692823Y-44203846D01*
X60698993Y-44204152D01*
X60772086Y-44207971D01*
X60819957Y-44384010D01*
X60837553Y-44448211D01*
X60853277Y-44504649D01*
X60865746Y-44548422D01*
X60873574Y-44574630D01*
X60875020Y-44578903D01*
X60881014Y-44573990D01*
X60893101Y-44548532D01*
X60909893Y-44505997D01*
X60930003Y-44449850D01*
X60947003Y-44399130D01*
X61011794Y-44200504D01*
X61061524Y-44204237D01*
X61061524Y-44204237D01*
G37*
X61061524Y-44204237D02*
X61111255Y-44207971D01*
X61241291Y-44597773D01*
X61261678Y-44528614D01*
X61273946Y-44485874D01*
X61290085Y-44428115D01*
X61307512Y-44364625D01*
X61316726Y-44330570D01*
X61351388Y-44201683D01*
X61494391Y-44201683D01*
X61451646Y-44336857D01*
X61430596Y-44403342D01*
X61405167Y-44483539D01*
X61378610Y-44567193D01*
X61354902Y-44641782D01*
X61300902Y-44811535D01*
X61242598Y-44815328D01*
X61184295Y-44819122D01*
X61152679Y-44714734D01*
X61133182Y-44649889D01*
X61111904Y-44578400D01*
X61093308Y-44515263D01*
X61092574Y-44512750D01*
X61078684Y-44469969D01*
X61066429Y-44440779D01*
X61057846Y-44429741D01*
X61056082Y-44431018D01*
X61049891Y-44448130D01*
X61038128Y-44484787D01*
X61022225Y-44536378D01*
X61003614Y-44598294D01*
X60993543Y-44632352D01*
X60939007Y-44817822D01*
X60823264Y-44817822D01*
X60730737Y-44525471D01*
X60704744Y-44443462D01*
X60681066Y-44368987D01*
X60660820Y-44305544D01*
X60645126Y-44256632D01*
X60635102Y-44225749D01*
X60632055Y-44216726D01*
X60634467Y-44207487D01*
X60653408Y-44203441D01*
X60692823Y-44203846D01*
X60698993Y-44204152D01*
X60772086Y-44207971D01*
X60819957Y-44384010D01*
X60837553Y-44448211D01*
X60853277Y-44504649D01*
X60865746Y-44548422D01*
X60873574Y-44574630D01*
X60875020Y-44578903D01*
X60881014Y-44573990D01*
X60893101Y-44548532D01*
X60909893Y-44505997D01*
X60930003Y-44449850D01*
X60947003Y-44399130D01*
X61011794Y-44200504D01*
X61061524Y-44204237D01*
G36*
X60578812Y-44817822D02*
X60509654Y-44817822D01*
X60469512Y-44816645D01*
X60448606Y-44811772D01*
X60441078Y-44801186D01*
X60440495Y-44794029D01*
X60439226Y-44779676D01*
X60431221Y-44776923D01*
X60410185Y-44785771D01*
X60393827Y-44794029D01*
X60331023Y-44813597D01*
X60262752Y-44814729D01*
X60207248Y-44800135D01*
X60155562Y-44764877D01*
X60116162Y-44712835D01*
X60094587Y-44651450D01*
X60094038Y-44648018D01*
X60090833Y-44610571D01*
X60089239Y-44556813D01*
X60089367Y-44516155D01*
X60226721Y-44516155D01*
X60229903Y-44570194D01*
X60237141Y-44614735D01*
X60246940Y-44639888D01*
X60284011Y-44674260D01*
X60328026Y-44686582D01*
X60373416Y-44676618D01*
X60412203Y-44646895D01*
X60426892Y-44626905D01*
X60435481Y-44603050D01*
X60439504Y-44568230D01*
X60440495Y-44515930D01*
X60438722Y-44464139D01*
X60434037Y-44418634D01*
X60427397Y-44388181D01*
X60426290Y-44385452D01*
X60399509Y-44353000D01*
X60360421Y-44335183D01*
X60316685Y-44332306D01*
X60275962Y-44344674D01*
X60245913Y-44372593D01*
X60242796Y-44378148D01*
X60233039Y-44412022D01*
X60227723Y-44460728D01*
X60226721Y-44516155D01*
X60089367Y-44516155D01*
X60089432Y-44495540D01*
X60090336Y-44462563D01*
X60096486Y-44380981D01*
X60109267Y-44319730D01*
X60130529Y-44274449D01*
X60162122Y-44240779D01*
X60192793Y-44221014D01*
X60235646Y-44207120D01*
X60288944Y-44202354D01*
X60343520Y-44206236D01*
X60390208Y-44218282D01*
X60414876Y-44232693D01*
X60440495Y-44255878D01*
X60440495Y-43962773D01*
X60578812Y-43962773D01*
X60578812Y-44817822D01*
X60578812Y-44817822D01*
G37*
X60578812Y-44817822D02*
X60509654Y-44817822D01*
X60469512Y-44816645D01*
X60448606Y-44811772D01*
X60441078Y-44801186D01*
X60440495Y-44794029D01*
X60439226Y-44779676D01*
X60431221Y-44776923D01*
X60410185Y-44785771D01*
X60393827Y-44794029D01*
X60331023Y-44813597D01*
X60262752Y-44814729D01*
X60207248Y-44800135D01*
X60155562Y-44764877D01*
X60116162Y-44712835D01*
X60094587Y-44651450D01*
X60094038Y-44648018D01*
X60090833Y-44610571D01*
X60089239Y-44556813D01*
X60089367Y-44516155D01*
X60226721Y-44516155D01*
X60229903Y-44570194D01*
X60237141Y-44614735D01*
X60246940Y-44639888D01*
X60284011Y-44674260D01*
X60328026Y-44686582D01*
X60373416Y-44676618D01*
X60412203Y-44646895D01*
X60426892Y-44626905D01*
X60435481Y-44603050D01*
X60439504Y-44568230D01*
X60440495Y-44515930D01*
X60438722Y-44464139D01*
X60434037Y-44418634D01*
X60427397Y-44388181D01*
X60426290Y-44385452D01*
X60399509Y-44353000D01*
X60360421Y-44335183D01*
X60316685Y-44332306D01*
X60275962Y-44344674D01*
X60245913Y-44372593D01*
X60242796Y-44378148D01*
X60233039Y-44412022D01*
X60227723Y-44460728D01*
X60226721Y-44516155D01*
X60089367Y-44516155D01*
X60089432Y-44495540D01*
X60090336Y-44462563D01*
X60096486Y-44380981D01*
X60109267Y-44319730D01*
X60130529Y-44274449D01*
X60162122Y-44240779D01*
X60192793Y-44221014D01*
X60235646Y-44207120D01*
X60288944Y-44202354D01*
X60343520Y-44206236D01*
X60390208Y-44218282D01*
X60414876Y-44232693D01*
X60440495Y-44255878D01*
X60440495Y-43962773D01*
X60578812Y-43962773D01*
X60578812Y-44817822D01*
G36*
X59786644Y-44203020D02*
X59805461Y-44208660D01*
X59811527Y-44221053D01*
X59811782Y-44226647D01*
X59812871Y-44242230D01*
X59820368Y-44244676D01*
X59840619Y-44233993D01*
X59852649Y-44226694D01*
X59890600Y-44211063D01*
X59935928Y-44203334D01*
X59983456Y-44202740D01*
X60028005Y-44208513D01*
X60064398Y-44219884D01*
X60087457Y-44236088D01*
X60092004Y-44256355D01*
X60089709Y-44261843D01*
X60072980Y-44284626D01*
X60047037Y-44312647D01*
X60042345Y-44317177D01*
X60017617Y-44338005D01*
X59996282Y-44344735D01*
X59966445Y-44340038D01*
X59954492Y-44336917D01*
X59917295Y-44329421D01*
X59891141Y-44332792D01*
X59869054Y-44344681D01*
X59848822Y-44360635D01*
X59833921Y-44380700D01*
X59823566Y-44408702D01*
X59816971Y-44448467D01*
X59813351Y-44503823D01*
X59811922Y-44578594D01*
X59811782Y-44623740D01*
X59811782Y-44817822D01*
X59686040Y-44817822D01*
X59686040Y-44201683D01*
X59748911Y-44201683D01*
X59786644Y-44203020D01*
X59786644Y-44203020D01*
G37*
X59786644Y-44203020D02*
X59805461Y-44208660D01*
X59811527Y-44221053D01*
X59811782Y-44226647D01*
X59812871Y-44242230D01*
X59820368Y-44244676D01*
X59840619Y-44233993D01*
X59852649Y-44226694D01*
X59890600Y-44211063D01*
X59935928Y-44203334D01*
X59983456Y-44202740D01*
X60028005Y-44208513D01*
X60064398Y-44219884D01*
X60087457Y-44236088D01*
X60092004Y-44256355D01*
X60089709Y-44261843D01*
X60072980Y-44284626D01*
X60047037Y-44312647D01*
X60042345Y-44317177D01*
X60017617Y-44338005D01*
X59996282Y-44344735D01*
X59966445Y-44340038D01*
X59954492Y-44336917D01*
X59917295Y-44329421D01*
X59891141Y-44332792D01*
X59869054Y-44344681D01*
X59848822Y-44360635D01*
X59833921Y-44380700D01*
X59823566Y-44408702D01*
X59816971Y-44448467D01*
X59813351Y-44503823D01*
X59811922Y-44578594D01*
X59811782Y-44623740D01*
X59811782Y-44817822D01*
X59686040Y-44817822D01*
X59686040Y-44201683D01*
X59748911Y-44201683D01*
X59786644Y-44203020D01*
G36*
X59395790Y-44206555D02*
X59454945Y-44222339D01*
X59499977Y-44250948D01*
X59531754Y-44288419D01*
X59541634Y-44304411D01*
X59548927Y-44321163D01*
X59554026Y-44342592D01*
X59557321Y-44372616D01*
X59559203Y-44415154D01*
X59560063Y-44474122D01*
X59560293Y-44553440D01*
X59560297Y-44574484D01*
X59560297Y-44817822D01*
X59499941Y-44817822D01*
X59461443Y-44815126D01*
X59432977Y-44808295D01*
X59425845Y-44804083D01*
X59406348Y-44796813D01*
X59386434Y-44804083D01*
X59353647Y-44813160D01*
X59306022Y-44816813D01*
X59253236Y-44815228D01*
X59204964Y-44808589D01*
X59176782Y-44800072D01*
X59122247Y-44765063D01*
X59088165Y-44716479D01*
X59072843Y-44651882D01*
X59072701Y-44650223D01*
X59074045Y-44621566D01*
X59195644Y-44621566D01*
X59206274Y-44654161D01*
X59223590Y-44672505D01*
X59258348Y-44686379D01*
X59304227Y-44691917D01*
X59351012Y-44689191D01*
X59388486Y-44678274D01*
X59398985Y-44671269D01*
X59417332Y-44638904D01*
X59421980Y-44602111D01*
X59421980Y-44553763D01*
X59352418Y-44553763D01*
X59286333Y-44558850D01*
X59236236Y-44573263D01*
X59205071Y-44595729D01*
X59195644Y-44621566D01*
X59074045Y-44621566D01*
X59076013Y-44579647D01*
X59099290Y-44523845D01*
X59143052Y-44481647D01*
X59149101Y-44477808D01*
X59175093Y-44465309D01*
X59207265Y-44457740D01*
X59252240Y-44454061D01*
X59305669Y-44453216D01*
X59421980Y-44453169D01*
X59421980Y-44404411D01*
X59417047Y-44366581D01*
X59404457Y-44341236D01*
X59402983Y-44339887D01*
X59374966Y-44328800D01*
X59332674Y-44324503D01*
X59285936Y-44326615D01*
X59244582Y-44334756D01*
X59220043Y-44346965D01*
X59206747Y-44356746D01*
X59192706Y-44358613D01*
X59173329Y-44350600D01*
X59144024Y-44330739D01*
X59100197Y-44297063D01*
X59096175Y-44293909D01*
X59098236Y-44282236D01*
X59115432Y-44262822D01*
X59141567Y-44241248D01*
X59170448Y-44223096D01*
X59179522Y-44218809D01*
X59212620Y-44210256D01*
X59261120Y-44204155D01*
X59315305Y-44201708D01*
X59317839Y-44201703D01*
X59395790Y-44206555D01*
X59395790Y-44206555D01*
G37*
X59395790Y-44206555D02*
X59454945Y-44222339D01*
X59499977Y-44250948D01*
X59531754Y-44288419D01*
X59541634Y-44304411D01*
X59548927Y-44321163D01*
X59554026Y-44342592D01*
X59557321Y-44372616D01*
X59559203Y-44415154D01*
X59560063Y-44474122D01*
X59560293Y-44553440D01*
X59560297Y-44574484D01*
X59560297Y-44817822D01*
X59499941Y-44817822D01*
X59461443Y-44815126D01*
X59432977Y-44808295D01*
X59425845Y-44804083D01*
X59406348Y-44796813D01*
X59386434Y-44804083D01*
X59353647Y-44813160D01*
X59306022Y-44816813D01*
X59253236Y-44815228D01*
X59204964Y-44808589D01*
X59176782Y-44800072D01*
X59122247Y-44765063D01*
X59088165Y-44716479D01*
X59072843Y-44651882D01*
X59072701Y-44650223D01*
X59074045Y-44621566D01*
X59195644Y-44621566D01*
X59206274Y-44654161D01*
X59223590Y-44672505D01*
X59258348Y-44686379D01*
X59304227Y-44691917D01*
X59351012Y-44689191D01*
X59388486Y-44678274D01*
X59398985Y-44671269D01*
X59417332Y-44638904D01*
X59421980Y-44602111D01*
X59421980Y-44553763D01*
X59352418Y-44553763D01*
X59286333Y-44558850D01*
X59236236Y-44573263D01*
X59205071Y-44595729D01*
X59195644Y-44621566D01*
X59074045Y-44621566D01*
X59076013Y-44579647D01*
X59099290Y-44523845D01*
X59143052Y-44481647D01*
X59149101Y-44477808D01*
X59175093Y-44465309D01*
X59207265Y-44457740D01*
X59252240Y-44454061D01*
X59305669Y-44453216D01*
X59421980Y-44453169D01*
X59421980Y-44404411D01*
X59417047Y-44366581D01*
X59404457Y-44341236D01*
X59402983Y-44339887D01*
X59374966Y-44328800D01*
X59332674Y-44324503D01*
X59285936Y-44326615D01*
X59244582Y-44334756D01*
X59220043Y-44346965D01*
X59206747Y-44356746D01*
X59192706Y-44358613D01*
X59173329Y-44350600D01*
X59144024Y-44330739D01*
X59100197Y-44297063D01*
X59096175Y-44293909D01*
X59098236Y-44282236D01*
X59115432Y-44262822D01*
X59141567Y-44241248D01*
X59170448Y-44223096D01*
X59179522Y-44218809D01*
X59212620Y-44210256D01*
X59261120Y-44204155D01*
X59315305Y-44201708D01*
X59317839Y-44201703D01*
X59395790Y-44206555D01*
G36*
X58871241Y-43269184D02*
X58897753Y-43282282D01*
X58930447Y-43305106D01*
X58954275Y-43329996D01*
X58970594Y-43361249D01*
X58980760Y-43403166D01*
X58986128Y-43460044D01*
X58988056Y-43536184D01*
X58988169Y-43568917D01*
X58987839Y-43640656D01*
X58986473Y-43691927D01*
X58983500Y-43727404D01*
X58978351Y-43751763D01*
X58970457Y-43769680D01*
X58962243Y-43781902D01*
X58909813Y-43833905D01*
X58848070Y-43865184D01*
X58781464Y-43874592D01*
X58714442Y-43860980D01*
X58693208Y-43851354D01*
X58642376Y-43824859D01*
X58642376Y-44240052D01*
X58679475Y-44220868D01*
X58728357Y-44206025D01*
X58788439Y-44202222D01*
X58848436Y-44209243D01*
X58893744Y-44225013D01*
X58931325Y-44255047D01*
X58963436Y-44298024D01*
X58965850Y-44302436D01*
X58976033Y-44323221D01*
X58983470Y-44344170D01*
X58988589Y-44369548D01*
X58991819Y-44403618D01*
X58993587Y-44450641D01*
X58994323Y-44514882D01*
X58994456Y-44587176D01*
X58994456Y-44817822D01*
X58856139Y-44817822D01*
X58856139Y-44392533D01*
X58817451Y-44359979D01*
X58777262Y-44333940D01*
X58739203Y-44329205D01*
X58700934Y-44341389D01*
X58680538Y-44353320D01*
X58665358Y-44370313D01*
X58654562Y-44395995D01*
X58647317Y-44433991D01*
X58642792Y-44487926D01*
X58640156Y-44561425D01*
X58639228Y-44610347D01*
X58636089Y-44811535D01*
X58570074Y-44815336D01*
X58504060Y-44819136D01*
X58504060Y-43570650D01*
X58642376Y-43570650D01*
X58645903Y-43640254D01*
X58657785Y-43688569D01*
X58679980Y-43718631D01*
X58714441Y-43733471D01*
X58749258Y-43736436D01*
X58788671Y-43733028D01*
X58814829Y-43719617D01*
X58831186Y-43701896D01*
X58844063Y-43682835D01*
X58851728Y-43661601D01*
X58855139Y-43631849D01*
X58855251Y-43587236D01*
X58854103Y-43549880D01*
X58851468Y-43493604D01*
X58847544Y-43456658D01*
X58840937Y-43433223D01*
X58830251Y-43417480D01*
X58820167Y-43408380D01*
X58778030Y-43388537D01*
X58728160Y-43385332D01*
X58699524Y-43392168D01*
X58671172Y-43416464D01*
X58652391Y-43463728D01*
X58643288Y-43533624D01*
X58642376Y-43570650D01*
X58504060Y-43570650D01*
X58504060Y-43258614D01*
X58573218Y-43258614D01*
X58614740Y-43260256D01*
X58636162Y-43266087D01*
X58642374Y-43277461D01*
X58642376Y-43277798D01*
X58645258Y-43288938D01*
X58657970Y-43287673D01*
X58683243Y-43275433D01*
X58742131Y-43256707D01*
X58808385Y-43254739D01*
X58871241Y-43269184D01*
X58871241Y-43269184D01*
G37*
X58871241Y-43269184D02*
X58897753Y-43282282D01*
X58930447Y-43305106D01*
X58954275Y-43329996D01*
X58970594Y-43361249D01*
X58980760Y-43403166D01*
X58986128Y-43460044D01*
X58988056Y-43536184D01*
X58988169Y-43568917D01*
X58987839Y-43640656D01*
X58986473Y-43691927D01*
X58983500Y-43727404D01*
X58978351Y-43751763D01*
X58970457Y-43769680D01*
X58962243Y-43781902D01*
X58909813Y-43833905D01*
X58848070Y-43865184D01*
X58781464Y-43874592D01*
X58714442Y-43860980D01*
X58693208Y-43851354D01*
X58642376Y-43824859D01*
X58642376Y-44240052D01*
X58679475Y-44220868D01*
X58728357Y-44206025D01*
X58788439Y-44202222D01*
X58848436Y-44209243D01*
X58893744Y-44225013D01*
X58931325Y-44255047D01*
X58963436Y-44298024D01*
X58965850Y-44302436D01*
X58976033Y-44323221D01*
X58983470Y-44344170D01*
X58988589Y-44369548D01*
X58991819Y-44403618D01*
X58993587Y-44450641D01*
X58994323Y-44514882D01*
X58994456Y-44587176D01*
X58994456Y-44817822D01*
X58856139Y-44817822D01*
X58856139Y-44392533D01*
X58817451Y-44359979D01*
X58777262Y-44333940D01*
X58739203Y-44329205D01*
X58700934Y-44341389D01*
X58680538Y-44353320D01*
X58665358Y-44370313D01*
X58654562Y-44395995D01*
X58647317Y-44433991D01*
X58642792Y-44487926D01*
X58640156Y-44561425D01*
X58639228Y-44610347D01*
X58636089Y-44811535D01*
X58570074Y-44815336D01*
X58504060Y-44819136D01*
X58504060Y-43570650D01*
X58642376Y-43570650D01*
X58645903Y-43640254D01*
X58657785Y-43688569D01*
X58679980Y-43718631D01*
X58714441Y-43733471D01*
X58749258Y-43736436D01*
X58788671Y-43733028D01*
X58814829Y-43719617D01*
X58831186Y-43701896D01*
X58844063Y-43682835D01*
X58851728Y-43661601D01*
X58855139Y-43631849D01*
X58855251Y-43587236D01*
X58854103Y-43549880D01*
X58851468Y-43493604D01*
X58847544Y-43456658D01*
X58840937Y-43433223D01*
X58830251Y-43417480D01*
X58820167Y-43408380D01*
X58778030Y-43388537D01*
X58728160Y-43385332D01*
X58699524Y-43392168D01*
X58671172Y-43416464D01*
X58652391Y-43463728D01*
X58643288Y-43533624D01*
X58642376Y-43570650D01*
X58504060Y-43570650D01*
X58504060Y-43258614D01*
X58573218Y-43258614D01*
X58614740Y-43260256D01*
X58636162Y-43266087D01*
X58642374Y-43277461D01*
X58642376Y-43277798D01*
X58645258Y-43288938D01*
X58657970Y-43287673D01*
X58683243Y-43275433D01*
X58742131Y-43256707D01*
X58808385Y-43254739D01*
X58871241Y-43269184D01*
G36*
X69384430Y-38824848D02*
X69383811Y-38911931D01*
X68932086Y-39370891D01*
X68480361Y-39829852D01*
X68480032Y-40040471D01*
X68479703Y-40251089D01*
X68204610Y-40251089D01*
X68197522Y-40304530D01*
X68194838Y-40328888D01*
X68190313Y-40374759D01*
X68184191Y-40439405D01*
X68176712Y-40520091D01*
X68168119Y-40614081D01*
X68158654Y-40718637D01*
X68148558Y-40831025D01*
X68138074Y-40948507D01*
X68127444Y-41068348D01*
X68116909Y-41187811D01*
X68106713Y-41304159D01*
X68097095Y-41414657D01*
X68088300Y-41516569D01*
X68080568Y-41607158D01*
X68074142Y-41683687D01*
X68069263Y-41743421D01*
X68066175Y-41783624D01*
X68065117Y-41801559D01*
X68065118Y-41801644D01*
X68072827Y-41816035D01*
X68095981Y-41845748D01*
X68134895Y-41891131D01*
X68189884Y-41952529D01*
X68261264Y-42030288D01*
X68349349Y-42124754D01*
X68454454Y-42236272D01*
X68576895Y-42365188D01*
X68611310Y-42401287D01*
X69157137Y-42973416D01*
X69068881Y-43061436D01*
X68997485Y-42983758D01*
X68971366Y-42955686D01*
X68930566Y-42912274D01*
X68877777Y-42856366D01*
X68815691Y-42790808D01*
X68747000Y-42718441D01*
X68674396Y-42642112D01*
X68630960Y-42596524D01*
X68549416Y-42511119D01*
X68483504Y-42442710D01*
X68431544Y-42390053D01*
X68391855Y-42351905D01*
X68362757Y-42327020D01*
X68342569Y-42314156D01*
X68329610Y-42312068D01*
X68322200Y-42319513D01*
X68318658Y-42335246D01*
X68317303Y-42358023D01*
X68317121Y-42364239D01*
X68307703Y-42407061D01*
X68284497Y-42458819D01*
X68252136Y-42511328D01*
X68215252Y-42556403D01*
X68200493Y-42570328D01*
X68124767Y-42619047D01*
X68036308Y-42646306D01*
X67958100Y-42652773D01*
X67869468Y-42640576D01*
X67787612Y-42604813D01*
X67715164Y-42546722D01*
X67701797Y-42532262D01*
X67652918Y-42476733D01*
X66807326Y-42476733D01*
X66807326Y-42652773D01*
X66580990Y-42652773D01*
X66580990Y-42570531D01*
X66578150Y-42514386D01*
X66568607Y-42475416D01*
X66557009Y-42454219D01*
X66548723Y-42439052D01*
X66541627Y-42417062D01*
X66535252Y-42384987D01*
X66529128Y-42339569D01*
X66522784Y-42277548D01*
X66515750Y-42195662D01*
X66510934Y-42134746D01*
X66488839Y-41849343D01*
X65946435Y-42398805D01*
X65848363Y-42498228D01*
X65754216Y-42593815D01*
X65665715Y-42683810D01*
X65584580Y-42766457D01*
X65512531Y-42840001D01*
X65451288Y-42902684D01*
X65402573Y-42952752D01*
X65368104Y-42988448D01*
X65349621Y-43007995D01*
X65319257Y-43038944D01*
X65293929Y-43060530D01*
X65280305Y-43067723D01*
X65262905Y-43059297D01*
X65237540Y-43038245D01*
X65228942Y-43029671D01*
X65192486Y-42991620D01*
X65393198Y-42787658D01*
X65444404Y-42735699D01*
X65510431Y-42668820D01*
X65588382Y-42589950D01*
X65675362Y-42502014D01*
X65768474Y-42407941D01*
X65864821Y-42310658D01*
X65961508Y-42213093D01*
X66030866Y-42143145D01*
X66136297Y-42036550D01*
X66224871Y-41946307D01*
X66297719Y-41871192D01*
X66355977Y-41809986D01*
X66400775Y-41761466D01*
X66422979Y-41736129D01*
X66601276Y-41736129D01*
X66623599Y-42021555D01*
X66630331Y-42105219D01*
X66636843Y-42181727D01*
X66642766Y-42247081D01*
X66647732Y-42297281D01*
X66651371Y-42328329D01*
X66652542Y-42335273D01*
X66659162Y-42363565D01*
X67608636Y-42363565D01*
X67614974Y-42284606D01*
X67634110Y-42191315D01*
X67674154Y-42108791D01*
X67732582Y-42040038D01*
X67806871Y-41988063D01*
X67890252Y-41956863D01*
X67917302Y-41942228D01*
X67930844Y-41910819D01*
X67931128Y-41909434D01*
X67932753Y-41896174D01*
X67930744Y-41882595D01*
X67923142Y-41866181D01*
X67907984Y-41844411D01*
X67883312Y-41814767D01*
X67847164Y-41774732D01*
X67797580Y-41721785D01*
X67732599Y-41653409D01*
X67728401Y-41649005D01*
X67658507Y-41575611D01*
X67584200Y-41497437D01*
X67510586Y-41419864D01*
X67442771Y-41348275D01*
X67385860Y-41288051D01*
X67373168Y-41274587D01*
X67324513Y-41223820D01*
X67281291Y-41180375D01*
X67246605Y-41147241D01*
X67223556Y-41127405D01*
X67215818Y-41123046D01*
X67204278Y-41132170D01*
X67177290Y-41157200D01*
X67136979Y-41196052D01*
X67085471Y-41246643D01*
X67024891Y-41306888D01*
X66957364Y-41374704D01*
X66902174Y-41430565D01*
X66601276Y-41736129D01*
X66422979Y-41736129D01*
X66433249Y-41724411D01*
X66454529Y-41697599D01*
X66465749Y-41679808D01*
X66468246Y-41671570D01*
X66467300Y-41653590D01*
X66464427Y-41612892D01*
X66459813Y-41551819D01*
X66453642Y-41472713D01*
X66446102Y-41377914D01*
X66437379Y-41269767D01*
X66427657Y-41150612D01*
X66417124Y-41022791D01*
X66408635Y-40920635D01*
X66360604Y-40344674D01*
X66484195Y-40344674D01*
X66484727Y-40357104D01*
X66487231Y-40392110D01*
X66491504Y-40447215D01*
X66497347Y-40519943D01*
X66504557Y-40607814D01*
X66512934Y-40708351D01*
X66522277Y-40819077D01*
X66531242Y-40924205D01*
X66541398Y-41043483D01*
X66550858Y-41156080D01*
X66559404Y-41259305D01*
X66566821Y-41350473D01*
X66572892Y-41426895D01*
X66577399Y-41485883D01*
X66580127Y-41524749D01*
X66580884Y-41539844D01*
X66582065Y-41549238D01*
X66586744Y-41552966D01*
X66596724Y-41549471D01*
X66613810Y-41537199D01*
X66639804Y-41514594D01*
X66676510Y-41480100D01*
X66725733Y-41432162D01*
X66789274Y-41369224D01*
X66856695Y-41301968D01*
X67132399Y-41026477D01*
X67130467Y-41024406D01*
X67312710Y-41024406D01*
X67321016Y-41035780D01*
X67344267Y-41062563D01*
X67380135Y-41102292D01*
X67426287Y-41152507D01*
X67480394Y-41210746D01*
X67540126Y-41274547D01*
X67603152Y-41341449D01*
X67667142Y-41408990D01*
X67729764Y-41474710D01*
X67788690Y-41536146D01*
X67841588Y-41590837D01*
X67886128Y-41636322D01*
X67919980Y-41670138D01*
X67940812Y-41689826D01*
X67946494Y-41693837D01*
X67948366Y-41680891D01*
X67952254Y-41645134D01*
X67957943Y-41588804D01*
X67965219Y-41514140D01*
X67973869Y-41423380D01*
X67983678Y-41318762D01*
X67994434Y-41202526D01*
X68005921Y-41076908D01*
X68015093Y-40975618D01*
X68026826Y-40844279D01*
X68037665Y-40720552D01*
X68047430Y-40606681D01*
X68055937Y-40504911D01*
X68063005Y-40417487D01*
X68068451Y-40346653D01*
X68072092Y-40294653D01*
X68073747Y-40263732D01*
X68073558Y-40255703D01*
X68063666Y-40262854D01*
X68038476Y-40285841D01*
X68000190Y-40322439D01*
X67951011Y-40370422D01*
X67893139Y-40427566D01*
X67828778Y-40491647D01*
X67760129Y-40560438D01*
X67689395Y-40631716D01*
X67618778Y-40703255D01*
X67550480Y-40772830D01*
X67486704Y-40838217D01*
X67429650Y-40897191D01*
X67381522Y-40947527D01*
X67344522Y-40986999D01*
X67320852Y-41013383D01*
X67312710Y-41024406D01*
X67130467Y-41024406D01*
X67029591Y-40916295D01*
X66977232Y-40860377D01*
X66918465Y-40797948D01*
X66855615Y-40731443D01*
X66791005Y-40663298D01*
X66726958Y-40595948D01*
X66665797Y-40531828D01*
X66609847Y-40473372D01*
X66561430Y-40423018D01*
X66522870Y-40383198D01*
X66496491Y-40356350D01*
X66484616Y-40344908D01*
X66484195Y-40344674D01*
X66360604Y-40344674D01*
X66348599Y-40200726D01*
X65748062Y-39569158D01*
X65147525Y-38937589D01*
X65147966Y-38849315D01*
X65148408Y-38761040D01*
X65245417Y-38864666D01*
X65299709Y-38922463D01*
X65363808Y-38990368D01*
X65435984Y-39066572D01*
X65514508Y-39149269D01*
X65597651Y-39236653D01*
X65683681Y-39326915D01*
X65770870Y-39418250D01*
X65857487Y-39508849D01*
X65941803Y-39596907D01*
X66022088Y-39680615D01*
X66096613Y-39758167D01*
X66163646Y-39827757D01*
X66221459Y-39887576D01*
X66268321Y-39935818D01*
X66302504Y-39970676D01*
X66322276Y-39990343D01*
X66326610Y-39994116D01*
X66326908Y-39980992D01*
X66325269Y-39947389D01*
X66321977Y-39897880D01*
X66317318Y-39837037D01*
X66315318Y-39812732D01*
X66300423Y-39634951D01*
X66417045Y-39634951D01*
X66423066Y-39663243D01*
X66426137Y-39685618D01*
X66430452Y-39727717D01*
X66435512Y-39784178D01*
X66440819Y-39849635D01*
X66442656Y-39873862D01*
X66448073Y-39943421D01*
X66453541Y-40008018D01*
X66458512Y-40061548D01*
X66462439Y-40097910D01*
X66463325Y-40104509D01*
X66466666Y-40118056D01*
X66473899Y-40133914D01*
X66486560Y-40153861D01*
X66506189Y-40179673D01*
X66534322Y-40213129D01*
X66572498Y-40256007D01*
X66622254Y-40310083D01*
X66685129Y-40377136D01*
X66762659Y-40458943D01*
X66841749Y-40541950D01*
X66920436Y-40624094D01*
X66993888Y-40700169D01*
X67060276Y-40768325D01*
X67117773Y-40826712D01*
X67164549Y-40873481D01*
X67198776Y-40906782D01*
X67218627Y-40924767D01*
X67222860Y-40927442D01*
X67233997Y-40917741D01*
X67260029Y-40892441D01*
X67298430Y-40854082D01*
X67346672Y-40805200D01*
X67402230Y-40748334D01*
X67442408Y-40706906D01*
X67652169Y-40490000D01*
X67033663Y-40490000D01*
X67033663Y-40251089D01*
X67788119Y-40251089D01*
X67788119Y-40357542D01*
X67926435Y-40219654D01*
X68024553Y-40121840D01*
X68215643Y-40121840D01*
X68217471Y-40137270D01*
X68226723Y-40145867D01*
X68249050Y-40149613D01*
X68290105Y-40150489D01*
X68297376Y-40150495D01*
X68379109Y-40150495D01*
X68379109Y-39931172D01*
X68297376Y-40012179D01*
X68251270Y-40061428D01*
X68223694Y-40099159D01*
X68215643Y-40121840D01*
X68024553Y-40121840D01*
X68064752Y-40081766D01*
X68064752Y-39958952D01*
X68065137Y-39902450D01*
X68066900Y-39866505D01*
X68070950Y-39846530D01*
X68078199Y-39837937D01*
X68089130Y-39836139D01*
X68101288Y-39833498D01*
X68110273Y-39822912D01*
X68117174Y-39800381D01*
X68123076Y-39761909D01*
X68129065Y-39703498D01*
X68130987Y-39682104D01*
X68135148Y-39634951D01*
X66417045Y-39634951D01*
X66300423Y-39634951D01*
X66140891Y-39634951D01*
X66140891Y-39521782D01*
X66208686Y-39521782D01*
X66248338Y-39520696D01*
X66269884Y-39515454D01*
X66272520Y-39512334D01*
X66411384Y-39512334D01*
X66418692Y-39519462D01*
X66444007Y-39521662D01*
X66461092Y-39521782D01*
X66518119Y-39521782D01*
X66730779Y-39521782D01*
X68145302Y-39521782D01*
X68097458Y-39472786D01*
X68023150Y-39412324D01*
X67931184Y-39365691D01*
X67820002Y-39332249D01*
X67709529Y-39313753D01*
X67637227Y-39305122D01*
X67637227Y-39396040D01*
X67058812Y-39396040D01*
X67058812Y-39292893D01*
X66973935Y-39301496D01*
X66914632Y-39308756D01*
X66851449Y-39318379D01*
X66813614Y-39325252D01*
X66738168Y-39340407D01*
X66734474Y-39431095D01*
X66730779Y-39521782D01*
X66518119Y-39521782D01*
X66518119Y-39471485D01*
X66516456Y-39439976D01*
X66512303Y-39422463D01*
X66510629Y-39421188D01*
X66492013Y-39429254D01*
X66464817Y-39448820D01*
X66437552Y-39472944D01*
X66418733Y-39494682D01*
X66417057Y-39497508D01*
X66411384Y-39512334D01*
X66272520Y-39512334D01*
X66280338Y-39503081D01*
X66284558Y-39489604D01*
X66301781Y-39454627D01*
X66334862Y-39412579D01*
X66378107Y-39369356D01*
X66425826Y-39330854D01*
X66457170Y-39310801D01*
X66492877Y-39288851D01*
X66511181Y-39270411D01*
X66517612Y-39248668D01*
X66518106Y-39235718D01*
X66518106Y-39232575D01*
X67159406Y-39232575D01*
X67159406Y-39295446D01*
X67536633Y-39295446D01*
X67536633Y-39232575D01*
X67159406Y-39232575D01*
X66518106Y-39232575D01*
X66518119Y-39194852D01*
X66623952Y-39194852D01*
X66672645Y-39196029D01*
X66710595Y-39199165D01*
X66731692Y-39203671D01*
X66733977Y-39205495D01*
X66747359Y-39208295D01*
X66779926Y-39207148D01*
X66826084Y-39202393D01*
X66857624Y-39198003D01*
X66914812Y-39189378D01*
X66967114Y-39181591D01*
X67006418Y-39175847D01*
X67017945Y-39174215D01*
X67048063Y-39164888D01*
X67058812Y-39150272D01*
X67062080Y-39144320D01*
X67073770Y-39139778D01*
X67096712Y-39136470D01*
X67133735Y-39134215D01*
X67187668Y-39132834D01*
X67261340Y-39132150D01*
X67348020Y-39131980D01*
X67440529Y-39132077D01*
X67510906Y-39132530D01*
X67562164Y-39133590D01*
X67597320Y-39135503D01*
X67619389Y-39138519D01*
X67631385Y-39142885D01*
X67636324Y-39148849D01*
X67637227Y-39155784D01*
X67644921Y-39177795D01*
X67670121Y-39190321D01*
X67716009Y-39194788D01*
X67724264Y-39194852D01*
X67801973Y-39202868D01*
X67890233Y-39224936D01*
X67981085Y-39258084D01*
X68066570Y-39299339D01*
X68138726Y-39345731D01*
X68148072Y-39353082D01*
X68178533Y-39376998D01*
X68196572Y-39386576D01*
X68209169Y-39383480D01*
X68222100Y-39370704D01*
X68260293Y-39345678D01*
X68309998Y-39336071D01*
X68363524Y-39341067D01*
X68413178Y-39359851D01*
X68451267Y-39391606D01*
X68454025Y-39395297D01*
X68482526Y-39454575D01*
X68487828Y-39515934D01*
X68470518Y-39574427D01*
X68431180Y-39625104D01*
X68426370Y-39629289D01*
X68398440Y-39649167D01*
X68370102Y-39657921D01*
X68330263Y-39658553D01*
X68320311Y-39657992D01*
X68281332Y-39656562D01*
X68261254Y-39659839D01*
X68253985Y-39669728D01*
X68253240Y-39678961D01*
X68251716Y-39705744D01*
X68247935Y-39746025D01*
X68245218Y-39770124D01*
X68241277Y-39808401D01*
X68242916Y-39827996D01*
X68252421Y-39835158D01*
X68269351Y-39836139D01*
X68279392Y-39832901D01*
X68295590Y-39822420D01*
X68319145Y-39803548D01*
X68351257Y-39775135D01*
X68393128Y-39736035D01*
X68445957Y-39685097D01*
X68510945Y-39621173D01*
X68589291Y-39543114D01*
X68682197Y-39449772D01*
X68790863Y-39339998D01*
X68843231Y-39286952D01*
X69385049Y-38737767D01*
X69384430Y-38824848D01*
X69384430Y-38824848D01*
G37*
X69384430Y-38824848D02*
X69383811Y-38911931D01*
X68932086Y-39370891D01*
X68480361Y-39829852D01*
X68480032Y-40040471D01*
X68479703Y-40251089D01*
X68204610Y-40251089D01*
X68197522Y-40304530D01*
X68194838Y-40328888D01*
X68190313Y-40374759D01*
X68184191Y-40439405D01*
X68176712Y-40520091D01*
X68168119Y-40614081D01*
X68158654Y-40718637D01*
X68148558Y-40831025D01*
X68138074Y-40948507D01*
X68127444Y-41068348D01*
X68116909Y-41187811D01*
X68106713Y-41304159D01*
X68097095Y-41414657D01*
X68088300Y-41516569D01*
X68080568Y-41607158D01*
X68074142Y-41683687D01*
X68069263Y-41743421D01*
X68066175Y-41783624D01*
X68065117Y-41801559D01*
X68065118Y-41801644D01*
X68072827Y-41816035D01*
X68095981Y-41845748D01*
X68134895Y-41891131D01*
X68189884Y-41952529D01*
X68261264Y-42030288D01*
X68349349Y-42124754D01*
X68454454Y-42236272D01*
X68576895Y-42365188D01*
X68611310Y-42401287D01*
X69157137Y-42973416D01*
X69068881Y-43061436D01*
X68997485Y-42983758D01*
X68971366Y-42955686D01*
X68930566Y-42912274D01*
X68877777Y-42856366D01*
X68815691Y-42790808D01*
X68747000Y-42718441D01*
X68674396Y-42642112D01*
X68630960Y-42596524D01*
X68549416Y-42511119D01*
X68483504Y-42442710D01*
X68431544Y-42390053D01*
X68391855Y-42351905D01*
X68362757Y-42327020D01*
X68342569Y-42314156D01*
X68329610Y-42312068D01*
X68322200Y-42319513D01*
X68318658Y-42335246D01*
X68317303Y-42358023D01*
X68317121Y-42364239D01*
X68307703Y-42407061D01*
X68284497Y-42458819D01*
X68252136Y-42511328D01*
X68215252Y-42556403D01*
X68200493Y-42570328D01*
X68124767Y-42619047D01*
X68036308Y-42646306D01*
X67958100Y-42652773D01*
X67869468Y-42640576D01*
X67787612Y-42604813D01*
X67715164Y-42546722D01*
X67701797Y-42532262D01*
X67652918Y-42476733D01*
X66807326Y-42476733D01*
X66807326Y-42652773D01*
X66580990Y-42652773D01*
X66580990Y-42570531D01*
X66578150Y-42514386D01*
X66568607Y-42475416D01*
X66557009Y-42454219D01*
X66548723Y-42439052D01*
X66541627Y-42417062D01*
X66535252Y-42384987D01*
X66529128Y-42339569D01*
X66522784Y-42277548D01*
X66515750Y-42195662D01*
X66510934Y-42134746D01*
X66488839Y-41849343D01*
X65946435Y-42398805D01*
X65848363Y-42498228D01*
X65754216Y-42593815D01*
X65665715Y-42683810D01*
X65584580Y-42766457D01*
X65512531Y-42840001D01*
X65451288Y-42902684D01*
X65402573Y-42952752D01*
X65368104Y-42988448D01*
X65349621Y-43007995D01*
X65319257Y-43038944D01*
X65293929Y-43060530D01*
X65280305Y-43067723D01*
X65262905Y-43059297D01*
X65237540Y-43038245D01*
X65228942Y-43029671D01*
X65192486Y-42991620D01*
X65393198Y-42787658D01*
X65444404Y-42735699D01*
X65510431Y-42668820D01*
X65588382Y-42589950D01*
X65675362Y-42502014D01*
X65768474Y-42407941D01*
X65864821Y-42310658D01*
X65961508Y-42213093D01*
X66030866Y-42143145D01*
X66136297Y-42036550D01*
X66224871Y-41946307D01*
X66297719Y-41871192D01*
X66355977Y-41809986D01*
X66400775Y-41761466D01*
X66422979Y-41736129D01*
X66601276Y-41736129D01*
X66623599Y-42021555D01*
X66630331Y-42105219D01*
X66636843Y-42181727D01*
X66642766Y-42247081D01*
X66647732Y-42297281D01*
X66651371Y-42328329D01*
X66652542Y-42335273D01*
X66659162Y-42363565D01*
X67608636Y-42363565D01*
X67614974Y-42284606D01*
X67634110Y-42191315D01*
X67674154Y-42108791D01*
X67732582Y-42040038D01*
X67806871Y-41988063D01*
X67890252Y-41956863D01*
X67917302Y-41942228D01*
X67930844Y-41910819D01*
X67931128Y-41909434D01*
X67932753Y-41896174D01*
X67930744Y-41882595D01*
X67923142Y-41866181D01*
X67907984Y-41844411D01*
X67883312Y-41814767D01*
X67847164Y-41774732D01*
X67797580Y-41721785D01*
X67732599Y-41653409D01*
X67728401Y-41649005D01*
X67658507Y-41575611D01*
X67584200Y-41497437D01*
X67510586Y-41419864D01*
X67442771Y-41348275D01*
X67385860Y-41288051D01*
X67373168Y-41274587D01*
X67324513Y-41223820D01*
X67281291Y-41180375D01*
X67246605Y-41147241D01*
X67223556Y-41127405D01*
X67215818Y-41123046D01*
X67204278Y-41132170D01*
X67177290Y-41157200D01*
X67136979Y-41196052D01*
X67085471Y-41246643D01*
X67024891Y-41306888D01*
X66957364Y-41374704D01*
X66902174Y-41430565D01*
X66601276Y-41736129D01*
X66422979Y-41736129D01*
X66433249Y-41724411D01*
X66454529Y-41697599D01*
X66465749Y-41679808D01*
X66468246Y-41671570D01*
X66467300Y-41653590D01*
X66464427Y-41612892D01*
X66459813Y-41551819D01*
X66453642Y-41472713D01*
X66446102Y-41377914D01*
X66437379Y-41269767D01*
X66427657Y-41150612D01*
X66417124Y-41022791D01*
X66408635Y-40920635D01*
X66360604Y-40344674D01*
X66484195Y-40344674D01*
X66484727Y-40357104D01*
X66487231Y-40392110D01*
X66491504Y-40447215D01*
X66497347Y-40519943D01*
X66504557Y-40607814D01*
X66512934Y-40708351D01*
X66522277Y-40819077D01*
X66531242Y-40924205D01*
X66541398Y-41043483D01*
X66550858Y-41156080D01*
X66559404Y-41259305D01*
X66566821Y-41350473D01*
X66572892Y-41426895D01*
X66577399Y-41485883D01*
X66580127Y-41524749D01*
X66580884Y-41539844D01*
X66582065Y-41549238D01*
X66586744Y-41552966D01*
X66596724Y-41549471D01*
X66613810Y-41537199D01*
X66639804Y-41514594D01*
X66676510Y-41480100D01*
X66725733Y-41432162D01*
X66789274Y-41369224D01*
X66856695Y-41301968D01*
X67132399Y-41026477D01*
X67130467Y-41024406D01*
X67312710Y-41024406D01*
X67321016Y-41035780D01*
X67344267Y-41062563D01*
X67380135Y-41102292D01*
X67426287Y-41152507D01*
X67480394Y-41210746D01*
X67540126Y-41274547D01*
X67603152Y-41341449D01*
X67667142Y-41408990D01*
X67729764Y-41474710D01*
X67788690Y-41536146D01*
X67841588Y-41590837D01*
X67886128Y-41636322D01*
X67919980Y-41670138D01*
X67940812Y-41689826D01*
X67946494Y-41693837D01*
X67948366Y-41680891D01*
X67952254Y-41645134D01*
X67957943Y-41588804D01*
X67965219Y-41514140D01*
X67973869Y-41423380D01*
X67983678Y-41318762D01*
X67994434Y-41202526D01*
X68005921Y-41076908D01*
X68015093Y-40975618D01*
X68026826Y-40844279D01*
X68037665Y-40720552D01*
X68047430Y-40606681D01*
X68055937Y-40504911D01*
X68063005Y-40417487D01*
X68068451Y-40346653D01*
X68072092Y-40294653D01*
X68073747Y-40263732D01*
X68073558Y-40255703D01*
X68063666Y-40262854D01*
X68038476Y-40285841D01*
X68000190Y-40322439D01*
X67951011Y-40370422D01*
X67893139Y-40427566D01*
X67828778Y-40491647D01*
X67760129Y-40560438D01*
X67689395Y-40631716D01*
X67618778Y-40703255D01*
X67550480Y-40772830D01*
X67486704Y-40838217D01*
X67429650Y-40897191D01*
X67381522Y-40947527D01*
X67344522Y-40986999D01*
X67320852Y-41013383D01*
X67312710Y-41024406D01*
X67130467Y-41024406D01*
X67029591Y-40916295D01*
X66977232Y-40860377D01*
X66918465Y-40797948D01*
X66855615Y-40731443D01*
X66791005Y-40663298D01*
X66726958Y-40595948D01*
X66665797Y-40531828D01*
X66609847Y-40473372D01*
X66561430Y-40423018D01*
X66522870Y-40383198D01*
X66496491Y-40356350D01*
X66484616Y-40344908D01*
X66484195Y-40344674D01*
X66360604Y-40344674D01*
X66348599Y-40200726D01*
X65748062Y-39569158D01*
X65147525Y-38937589D01*
X65147966Y-38849315D01*
X65148408Y-38761040D01*
X65245417Y-38864666D01*
X65299709Y-38922463D01*
X65363808Y-38990368D01*
X65435984Y-39066572D01*
X65514508Y-39149269D01*
X65597651Y-39236653D01*
X65683681Y-39326915D01*
X65770870Y-39418250D01*
X65857487Y-39508849D01*
X65941803Y-39596907D01*
X66022088Y-39680615D01*
X66096613Y-39758167D01*
X66163646Y-39827757D01*
X66221459Y-39887576D01*
X66268321Y-39935818D01*
X66302504Y-39970676D01*
X66322276Y-39990343D01*
X66326610Y-39994116D01*
X66326908Y-39980992D01*
X66325269Y-39947389D01*
X66321977Y-39897880D01*
X66317318Y-39837037D01*
X66315318Y-39812732D01*
X66300423Y-39634951D01*
X66417045Y-39634951D01*
X66423066Y-39663243D01*
X66426137Y-39685618D01*
X66430452Y-39727717D01*
X66435512Y-39784178D01*
X66440819Y-39849635D01*
X66442656Y-39873862D01*
X66448073Y-39943421D01*
X66453541Y-40008018D01*
X66458512Y-40061548D01*
X66462439Y-40097910D01*
X66463325Y-40104509D01*
X66466666Y-40118056D01*
X66473899Y-40133914D01*
X66486560Y-40153861D01*
X66506189Y-40179673D01*
X66534322Y-40213129D01*
X66572498Y-40256007D01*
X66622254Y-40310083D01*
X66685129Y-40377136D01*
X66762659Y-40458943D01*
X66841749Y-40541950D01*
X66920436Y-40624094D01*
X66993888Y-40700169D01*
X67060276Y-40768325D01*
X67117773Y-40826712D01*
X67164549Y-40873481D01*
X67198776Y-40906782D01*
X67218627Y-40924767D01*
X67222860Y-40927442D01*
X67233997Y-40917741D01*
X67260029Y-40892441D01*
X67298430Y-40854082D01*
X67346672Y-40805200D01*
X67402230Y-40748334D01*
X67442408Y-40706906D01*
X67652169Y-40490000D01*
X67033663Y-40490000D01*
X67033663Y-40251089D01*
X67788119Y-40251089D01*
X67788119Y-40357542D01*
X67926435Y-40219654D01*
X68024553Y-40121840D01*
X68215643Y-40121840D01*
X68217471Y-40137270D01*
X68226723Y-40145867D01*
X68249050Y-40149613D01*
X68290105Y-40150489D01*
X68297376Y-40150495D01*
X68379109Y-40150495D01*
X68379109Y-39931172D01*
X68297376Y-40012179D01*
X68251270Y-40061428D01*
X68223694Y-40099159D01*
X68215643Y-40121840D01*
X68024553Y-40121840D01*
X68064752Y-40081766D01*
X68064752Y-39958952D01*
X68065137Y-39902450D01*
X68066900Y-39866505D01*
X68070950Y-39846530D01*
X68078199Y-39837937D01*
X68089130Y-39836139D01*
X68101288Y-39833498D01*
X68110273Y-39822912D01*
X68117174Y-39800381D01*
X68123076Y-39761909D01*
X68129065Y-39703498D01*
X68130987Y-39682104D01*
X68135148Y-39634951D01*
X66417045Y-39634951D01*
X66300423Y-39634951D01*
X66140891Y-39634951D01*
X66140891Y-39521782D01*
X66208686Y-39521782D01*
X66248338Y-39520696D01*
X66269884Y-39515454D01*
X66272520Y-39512334D01*
X66411384Y-39512334D01*
X66418692Y-39519462D01*
X66444007Y-39521662D01*
X66461092Y-39521782D01*
X66518119Y-39521782D01*
X66730779Y-39521782D01*
X68145302Y-39521782D01*
X68097458Y-39472786D01*
X68023150Y-39412324D01*
X67931184Y-39365691D01*
X67820002Y-39332249D01*
X67709529Y-39313753D01*
X67637227Y-39305122D01*
X67637227Y-39396040D01*
X67058812Y-39396040D01*
X67058812Y-39292893D01*
X66973935Y-39301496D01*
X66914632Y-39308756D01*
X66851449Y-39318379D01*
X66813614Y-39325252D01*
X66738168Y-39340407D01*
X66734474Y-39431095D01*
X66730779Y-39521782D01*
X66518119Y-39521782D01*
X66518119Y-39471485D01*
X66516456Y-39439976D01*
X66512303Y-39422463D01*
X66510629Y-39421188D01*
X66492013Y-39429254D01*
X66464817Y-39448820D01*
X66437552Y-39472944D01*
X66418733Y-39494682D01*
X66417057Y-39497508D01*
X66411384Y-39512334D01*
X66272520Y-39512334D01*
X66280338Y-39503081D01*
X66284558Y-39489604D01*
X66301781Y-39454627D01*
X66334862Y-39412579D01*
X66378107Y-39369356D01*
X66425826Y-39330854D01*
X66457170Y-39310801D01*
X66492877Y-39288851D01*
X66511181Y-39270411D01*
X66517612Y-39248668D01*
X66518106Y-39235718D01*
X66518106Y-39232575D01*
X67159406Y-39232575D01*
X67159406Y-39295446D01*
X67536633Y-39295446D01*
X67536633Y-39232575D01*
X67159406Y-39232575D01*
X66518106Y-39232575D01*
X66518119Y-39194852D01*
X66623952Y-39194852D01*
X66672645Y-39196029D01*
X66710595Y-39199165D01*
X66731692Y-39203671D01*
X66733977Y-39205495D01*
X66747359Y-39208295D01*
X66779926Y-39207148D01*
X66826084Y-39202393D01*
X66857624Y-39198003D01*
X66914812Y-39189378D01*
X66967114Y-39181591D01*
X67006418Y-39175847D01*
X67017945Y-39174215D01*
X67048063Y-39164888D01*
X67058812Y-39150272D01*
X67062080Y-39144320D01*
X67073770Y-39139778D01*
X67096712Y-39136470D01*
X67133735Y-39134215D01*
X67187668Y-39132834D01*
X67261340Y-39132150D01*
X67348020Y-39131980D01*
X67440529Y-39132077D01*
X67510906Y-39132530D01*
X67562164Y-39133590D01*
X67597320Y-39135503D01*
X67619389Y-39138519D01*
X67631385Y-39142885D01*
X67636324Y-39148849D01*
X67637227Y-39155784D01*
X67644921Y-39177795D01*
X67670121Y-39190321D01*
X67716009Y-39194788D01*
X67724264Y-39194852D01*
X67801973Y-39202868D01*
X67890233Y-39224936D01*
X67981085Y-39258084D01*
X68066570Y-39299339D01*
X68138726Y-39345731D01*
X68148072Y-39353082D01*
X68178533Y-39376998D01*
X68196572Y-39386576D01*
X68209169Y-39383480D01*
X68222100Y-39370704D01*
X68260293Y-39345678D01*
X68309998Y-39336071D01*
X68363524Y-39341067D01*
X68413178Y-39359851D01*
X68451267Y-39391606D01*
X68454025Y-39395297D01*
X68482526Y-39454575D01*
X68487828Y-39515934D01*
X68470518Y-39574427D01*
X68431180Y-39625104D01*
X68426370Y-39629289D01*
X68398440Y-39649167D01*
X68370102Y-39657921D01*
X68330263Y-39658553D01*
X68320311Y-39657992D01*
X68281332Y-39656562D01*
X68261254Y-39659839D01*
X68253985Y-39669728D01*
X68253240Y-39678961D01*
X68251716Y-39705744D01*
X68247935Y-39746025D01*
X68245218Y-39770124D01*
X68241277Y-39808401D01*
X68242916Y-39827996D01*
X68252421Y-39835158D01*
X68269351Y-39836139D01*
X68279392Y-39832901D01*
X68295590Y-39822420D01*
X68319145Y-39803548D01*
X68351257Y-39775135D01*
X68393128Y-39736035D01*
X68445957Y-39685097D01*
X68510945Y-39621173D01*
X68589291Y-39543114D01*
X68682197Y-39449772D01*
X68790863Y-39339998D01*
X68843231Y-39286952D01*
X69385049Y-38737767D01*
X69384430Y-38824848D01*
G36*
X69007822Y-44777822D02*
X65487029Y-44777822D01*
X65487029Y-43910198D01*
X69007822Y-43910198D01*
X69007822Y-44777822D01*
X69007822Y-44777822D01*
G37*
X69007822Y-44777822D02*
X65487029Y-44777822D01*
X65487029Y-43910198D01*
X69007822Y-43910198D01*
X69007822Y-44777822D01*
D13*
X38247142Y-24957142D02*
X38199523Y-25004761D01*
X38056666Y-25052380D01*
X37961428Y-25052380D01*
X37818571Y-25004761D01*
X37723333Y-24909523D01*
X37675714Y-24814285D01*
X37628095Y-24623809D01*
X37628095Y-24480952D01*
X37675714Y-24290476D01*
X37723333Y-24195238D01*
X37818571Y-24100000D01*
X37961428Y-24052380D01*
X38056666Y-24052380D01*
X38199523Y-24100000D01*
X38247142Y-24147619D01*
X38437619Y-25147619D02*
X39199523Y-25147619D01*
X39628095Y-24052380D02*
X39723333Y-24052380D01*
X39818571Y-24100000D01*
X39866190Y-24147619D01*
X39913809Y-24242857D01*
X39961428Y-24433333D01*
X39961428Y-24671428D01*
X39913809Y-24861904D01*
X39866190Y-24957142D01*
X39818571Y-25004761D01*
X39723333Y-25052380D01*
X39628095Y-25052380D01*
X39532857Y-25004761D01*
X39485238Y-24957142D01*
X39437619Y-24861904D01*
X39390000Y-24671428D01*
X39390000Y-24433333D01*
X39437619Y-24242857D01*
X39485238Y-24147619D01*
X39532857Y-24100000D01*
X39628095Y-24052380D01*
X40390000Y-24957142D02*
X40437619Y-25004761D01*
X40390000Y-25052380D01*
X40342380Y-25004761D01*
X40390000Y-24957142D01*
X40390000Y-25052380D01*
X40818571Y-24147619D02*
X40866190Y-24100000D01*
X40961428Y-24052380D01*
X41199523Y-24052380D01*
X41294761Y-24100000D01*
X41342380Y-24147619D01*
X41390000Y-24242857D01*
X41390000Y-24338095D01*
X41342380Y-24480952D01*
X40770952Y-25052380D01*
X41390000Y-25052380D01*
X41770952Y-24147619D02*
X41818571Y-24100000D01*
X41913809Y-24052380D01*
X42151904Y-24052380D01*
X42247142Y-24100000D01*
X42294761Y-24147619D01*
X42342380Y-24242857D01*
X42342380Y-24338095D01*
X42294761Y-24480952D01*
X41723333Y-25052380D01*
X42342380Y-25052380D01*
X43104285Y-24528571D02*
X42770952Y-24528571D01*
X42770952Y-25052380D02*
X42770952Y-24052380D01*
X43247142Y-24052380D01*
X44151904Y-25052380D02*
X43580476Y-25052380D01*
X43866190Y-25052380D02*
X43866190Y-24052380D01*
X43770952Y-24195238D01*
X43675714Y-24290476D01*
X43580476Y-24338095D01*
X28659523Y-67352380D02*
X29230952Y-67352380D01*
X28945238Y-68352380D02*
X28945238Y-67352380D01*
X29516666Y-68304761D02*
X29659523Y-68352380D01*
X29897619Y-68352380D01*
X29992857Y-68304761D01*
X30040476Y-68257142D01*
X30088095Y-68161904D01*
X30088095Y-68066666D01*
X30040476Y-67971428D01*
X29992857Y-67923809D01*
X29897619Y-67876190D01*
X29707142Y-67828571D01*
X29611904Y-67780952D01*
X29564285Y-67733333D01*
X29516666Y-67638095D01*
X29516666Y-67542857D01*
X29564285Y-67447619D01*
X29611904Y-67400000D01*
X29707142Y-67352380D01*
X29945238Y-67352380D01*
X30088095Y-67400000D01*
X30707142Y-67352380D02*
X30897619Y-67352380D01*
X30992857Y-67400000D01*
X31088095Y-67495238D01*
X31135714Y-67685714D01*
X31135714Y-68019047D01*
X31088095Y-68209523D01*
X30992857Y-68304761D01*
X30897619Y-68352380D01*
X30707142Y-68352380D01*
X30611904Y-68304761D01*
X30516666Y-68209523D01*
X30469047Y-68019047D01*
X30469047Y-67685714D01*
X30516666Y-67495238D01*
X30611904Y-67400000D01*
X30707142Y-67352380D01*
X31564285Y-68352380D02*
X31564285Y-67352380D01*
X31945238Y-67352380D01*
X32040476Y-67400000D01*
X32088095Y-67447619D01*
X32135714Y-67542857D01*
X32135714Y-67685714D01*
X32088095Y-67780952D01*
X32040476Y-67828571D01*
X31945238Y-67876190D01*
X31564285Y-67876190D01*
X32992857Y-67685714D02*
X32992857Y-68352380D01*
X32754761Y-67304761D02*
X32516666Y-68019047D01*
X33135714Y-68019047D01*
X33659523Y-67780952D02*
X33564285Y-67733333D01*
X33516666Y-67685714D01*
X33469047Y-67590476D01*
X33469047Y-67542857D01*
X33516666Y-67447619D01*
X33564285Y-67400000D01*
X33659523Y-67352380D01*
X33850000Y-67352380D01*
X33945238Y-67400000D01*
X33992857Y-67447619D01*
X34040476Y-67542857D01*
X34040476Y-67590476D01*
X33992857Y-67685714D01*
X33945238Y-67733333D01*
X33850000Y-67780952D01*
X33659523Y-67780952D01*
X33564285Y-67828571D01*
X33516666Y-67876190D01*
X33469047Y-67971428D01*
X33469047Y-68161904D01*
X33516666Y-68257142D01*
X33564285Y-68304761D01*
X33659523Y-68352380D01*
X33850000Y-68352380D01*
X33945238Y-68304761D01*
X33992857Y-68257142D01*
X34040476Y-68161904D01*
X34040476Y-67971428D01*
X33992857Y-67876190D01*
X33945238Y-67828571D01*
X33850000Y-67780952D01*
X34373809Y-67352380D02*
X35040476Y-68352380D01*
X35040476Y-67352380D02*
X34373809Y-68352380D01*
X35326190Y-67352380D02*
X35992857Y-68352380D01*
X35992857Y-67352380D02*
X35326190Y-68352380D01*
X52522380Y-49529809D02*
X52046190Y-49863142D01*
X52522380Y-50101238D02*
X51522380Y-50101238D01*
X51522380Y-49720285D01*
X51570000Y-49625047D01*
X51617619Y-49577428D01*
X51712857Y-49529809D01*
X51855714Y-49529809D01*
X51950952Y-49577428D01*
X51998571Y-49625047D01*
X52046190Y-49720285D01*
X52046190Y-50101238D01*
X52522380Y-48577428D02*
X52522380Y-49148857D01*
X52522380Y-48863142D02*
X51522380Y-48863142D01*
X51665238Y-48958380D01*
X51760476Y-49053619D01*
X51808095Y-49148857D01*
X51522380Y-47958380D02*
X51522380Y-47863142D01*
X51570000Y-47767904D01*
X51617619Y-47720285D01*
X51712857Y-47672666D01*
X51903333Y-47625047D01*
X52141428Y-47625047D01*
X52331904Y-47672666D01*
X52427142Y-47720285D01*
X52474761Y-47767904D01*
X52522380Y-47863142D01*
X52522380Y-47958380D01*
X52474761Y-48053619D01*
X52427142Y-48101238D01*
X52331904Y-48148857D01*
X52141428Y-48196476D01*
X51903333Y-48196476D01*
X51712857Y-48148857D01*
X51617619Y-48101238D01*
X51570000Y-48053619D01*
X51522380Y-47958380D01*
X52522380Y-47196476D02*
X51522380Y-47196476D01*
X52141428Y-47101238D02*
X52522380Y-46815523D01*
X51855714Y-46815523D02*
X52236666Y-47196476D01*
X52522380Y-45863142D02*
X52522380Y-46434571D01*
X52522380Y-46148857D02*
X51522380Y-46148857D01*
X51665238Y-46244095D01*
X51760476Y-46339333D01*
X51808095Y-46434571D01*
X22780666Y-20744380D02*
X22780666Y-21458666D01*
X22733047Y-21601523D01*
X22637809Y-21696761D01*
X22494952Y-21744380D01*
X22399714Y-21744380D01*
X23161619Y-20744380D02*
X23780666Y-20744380D01*
X23447333Y-21125333D01*
X23590190Y-21125333D01*
X23685428Y-21172952D01*
X23733047Y-21220571D01*
X23780666Y-21315809D01*
X23780666Y-21553904D01*
X23733047Y-21649142D01*
X23685428Y-21696761D01*
X23590190Y-21744380D01*
X23304476Y-21744380D01*
X23209238Y-21696761D01*
X23161619Y-21649142D01*
X68315714Y-31435238D02*
X68982380Y-31435238D01*
X67934761Y-31673333D02*
X68649047Y-31911428D01*
X68649047Y-31292380D01*
X67982380Y-31006666D02*
X67982380Y-30387619D01*
X68363333Y-30720952D01*
X68363333Y-30578095D01*
X68410952Y-30482857D01*
X68458571Y-30435238D01*
X68553809Y-30387619D01*
X68791904Y-30387619D01*
X68887142Y-30435238D01*
X68934761Y-30482857D01*
X68982380Y-30578095D01*
X68982380Y-30863809D01*
X68934761Y-30959047D01*
X68887142Y-31006666D01*
X67982380Y-30054285D02*
X67982380Y-29435238D01*
X68363333Y-29768571D01*
X68363333Y-29625714D01*
X68410952Y-29530476D01*
X68458571Y-29482857D01*
X68553809Y-29435238D01*
X68791904Y-29435238D01*
X68887142Y-29482857D01*
X68934761Y-29530476D01*
X68982380Y-29625714D01*
X68982380Y-29911428D01*
X68934761Y-30006666D01*
X68887142Y-30054285D01*
X69077619Y-29244761D02*
X69077619Y-28482857D01*
X68982380Y-27673333D02*
X68506190Y-28006666D01*
X68982380Y-28244761D02*
X67982380Y-28244761D01*
X67982380Y-27863809D01*
X68030000Y-27768571D01*
X68077619Y-27720952D01*
X68172857Y-27673333D01*
X68315714Y-27673333D01*
X68410952Y-27720952D01*
X68458571Y-27768571D01*
X68506190Y-27863809D01*
X68506190Y-28244761D01*
X67982380Y-27340000D02*
X68982380Y-26673333D01*
X67982380Y-26673333D02*
X68982380Y-27340000D01*
X68982380Y-25768571D02*
X68982380Y-26340000D01*
X68982380Y-26054285D02*
X67982380Y-26054285D01*
X68125238Y-26149523D01*
X68220476Y-26244761D01*
X68268095Y-26340000D01*
X60103809Y-61975714D02*
X60103809Y-62642380D01*
X59865714Y-61594761D02*
X59627619Y-62309047D01*
X60246666Y-62309047D01*
X60532380Y-61642380D02*
X61151428Y-61642380D01*
X60818095Y-62023333D01*
X60960952Y-62023333D01*
X61056190Y-62070952D01*
X61103809Y-62118571D01*
X61151428Y-62213809D01*
X61151428Y-62451904D01*
X61103809Y-62547142D01*
X61056190Y-62594761D01*
X60960952Y-62642380D01*
X60675238Y-62642380D01*
X60580000Y-62594761D01*
X60532380Y-62547142D01*
X61484761Y-61642380D02*
X62103809Y-61642380D01*
X61770476Y-62023333D01*
X61913333Y-62023333D01*
X62008571Y-62070952D01*
X62056190Y-62118571D01*
X62103809Y-62213809D01*
X62103809Y-62451904D01*
X62056190Y-62547142D01*
X62008571Y-62594761D01*
X61913333Y-62642380D01*
X61627619Y-62642380D01*
X61532380Y-62594761D01*
X61484761Y-62547142D01*
X62294285Y-62737619D02*
X63056190Y-62737619D01*
X63151428Y-61642380D02*
X63722857Y-61642380D01*
X63437142Y-62642380D02*
X63437142Y-61642380D01*
X63960952Y-61642380D02*
X64627619Y-62642380D01*
X64627619Y-61642380D02*
X63960952Y-62642380D01*
X65532380Y-62642380D02*
X64960952Y-62642380D01*
X65246666Y-62642380D02*
X65246666Y-61642380D01*
X65151428Y-61785238D01*
X65056190Y-61880476D01*
X64960952Y-61928095D01*
X28399142Y-52910238D02*
X28446761Y-52957857D01*
X28494380Y-53100714D01*
X28494380Y-53195952D01*
X28446761Y-53338809D01*
X28351523Y-53434047D01*
X28256285Y-53481666D01*
X28065809Y-53529285D01*
X27922952Y-53529285D01*
X27732476Y-53481666D01*
X27637238Y-53434047D01*
X27542000Y-53338809D01*
X27494380Y-53195952D01*
X27494380Y-53100714D01*
X27542000Y-52957857D01*
X27589619Y-52910238D01*
X28399142Y-51910238D02*
X28446761Y-51957857D01*
X28494380Y-52100714D01*
X28494380Y-52195952D01*
X28446761Y-52338809D01*
X28351523Y-52434047D01*
X28256285Y-52481666D01*
X28065809Y-52529285D01*
X27922952Y-52529285D01*
X27732476Y-52481666D01*
X27637238Y-52434047D01*
X27542000Y-52338809D01*
X27494380Y-52195952D01*
X27494380Y-52100714D01*
X27542000Y-51957857D01*
X27589619Y-51910238D01*
X28494380Y-50957857D02*
X28494380Y-51529285D01*
X28494380Y-51243571D02*
X27494380Y-51243571D01*
X27637238Y-51338809D01*
X27732476Y-51434047D01*
X27780095Y-51529285D01*
X28494380Y-50005476D02*
X28494380Y-50576904D01*
X28494380Y-50291190D02*
X27494380Y-50291190D01*
X27637238Y-50386428D01*
X27732476Y-50481666D01*
X27780095Y-50576904D01*
X27494380Y-49386428D02*
X27494380Y-49291190D01*
X27542000Y-49195952D01*
X27589619Y-49148333D01*
X27684857Y-49100714D01*
X27875333Y-49053095D01*
X28113428Y-49053095D01*
X28303904Y-49100714D01*
X28399142Y-49148333D01*
X28446761Y-49195952D01*
X28494380Y-49291190D01*
X28494380Y-49386428D01*
X28446761Y-49481666D01*
X28399142Y-49529285D01*
X28303904Y-49576904D01*
X28113428Y-49624523D01*
X27875333Y-49624523D01*
X27684857Y-49576904D01*
X27589619Y-49529285D01*
X27542000Y-49481666D01*
X27494380Y-49386428D01*
X28494380Y-48100714D02*
X28494380Y-48672142D01*
X28494380Y-48386428D02*
X27494380Y-48386428D01*
X27637238Y-48481666D01*
X27732476Y-48576904D01*
X27780095Y-48672142D01*
X39965761Y-63063380D02*
X39965761Y-62063380D01*
X40346714Y-62063380D01*
X40441952Y-62111000D01*
X40489571Y-62158619D01*
X40537190Y-62253857D01*
X40537190Y-62396714D01*
X40489571Y-62491952D01*
X40441952Y-62539571D01*
X40346714Y-62587190D01*
X39965761Y-62587190D01*
X40965761Y-63063380D02*
X40965761Y-62063380D01*
X41537190Y-63063380D01*
X41537190Y-62063380D01*
X41965761Y-62158619D02*
X42013380Y-62111000D01*
X42108619Y-62063380D01*
X42346714Y-62063380D01*
X42441952Y-62111000D01*
X42489571Y-62158619D01*
X42537190Y-62253857D01*
X42537190Y-62349095D01*
X42489571Y-62491952D01*
X41918142Y-63063380D01*
X42537190Y-63063380D01*
X42918142Y-62158619D02*
X42965761Y-62111000D01*
X43061000Y-62063380D01*
X43299095Y-62063380D01*
X43394333Y-62111000D01*
X43441952Y-62158619D01*
X43489571Y-62253857D01*
X43489571Y-62349095D01*
X43441952Y-62491952D01*
X42870523Y-63063380D01*
X43489571Y-63063380D01*
X43870523Y-62158619D02*
X43918142Y-62111000D01*
X44013380Y-62063380D01*
X44251476Y-62063380D01*
X44346714Y-62111000D01*
X44394333Y-62158619D01*
X44441952Y-62253857D01*
X44441952Y-62349095D01*
X44394333Y-62491952D01*
X43822904Y-63063380D01*
X44441952Y-63063380D01*
X44822904Y-62158619D02*
X44870523Y-62111000D01*
X44965761Y-62063380D01*
X45203857Y-62063380D01*
X45299095Y-62111000D01*
X45346714Y-62158619D01*
X45394333Y-62253857D01*
X45394333Y-62349095D01*
X45346714Y-62491952D01*
X44775285Y-63063380D01*
X45394333Y-63063380D01*
X45775285Y-62777666D02*
X46251476Y-62777666D01*
X45680047Y-63063380D02*
X46013380Y-62063380D01*
X46346714Y-63063380D01*
X47203857Y-63063380D02*
X46632428Y-63063380D01*
X46918142Y-63063380D02*
X46918142Y-62063380D01*
X46822904Y-62206238D01*
X46727666Y-62301476D01*
X46632428Y-62349095D01*
X50432380Y-32099523D02*
X50432380Y-31528095D01*
X51432380Y-31813809D02*
X50432380Y-31813809D01*
X51384761Y-30813809D02*
X51432380Y-30909047D01*
X51432380Y-31099523D01*
X51384761Y-31194761D01*
X51289523Y-31242380D01*
X50908571Y-31242380D01*
X50813333Y-31194761D01*
X50765714Y-31099523D01*
X50765714Y-30909047D01*
X50813333Y-30813809D01*
X50908571Y-30766190D01*
X51003809Y-30766190D01*
X51099047Y-31242380D01*
X51432380Y-30337619D02*
X50765714Y-30337619D01*
X50860952Y-30337619D02*
X50813333Y-30290000D01*
X50765714Y-30194761D01*
X50765714Y-30051904D01*
X50813333Y-29956666D01*
X50908571Y-29909047D01*
X51432380Y-29909047D01*
X50908571Y-29909047D02*
X50813333Y-29861428D01*
X50765714Y-29766190D01*
X50765714Y-29623333D01*
X50813333Y-29528095D01*
X50908571Y-29480476D01*
X51432380Y-29480476D01*
X50765714Y-29004285D02*
X51765714Y-29004285D01*
X50813333Y-29004285D02*
X50765714Y-28909047D01*
X50765714Y-28718571D01*
X50813333Y-28623333D01*
X50860952Y-28575714D01*
X50956190Y-28528095D01*
X51241904Y-28528095D01*
X51337142Y-28575714D01*
X51384761Y-28623333D01*
X51432380Y-28718571D01*
X51432380Y-28909047D01*
X51384761Y-29004285D01*
X51432380Y-27575714D02*
X51432380Y-28147142D01*
X51432380Y-27861428D02*
X50432380Y-27861428D01*
X50575238Y-27956666D01*
X50670476Y-28051904D01*
X50718095Y-28147142D01*
X46275857Y-70683380D02*
X46275857Y-69683380D01*
X47323476Y-70683380D02*
X46990142Y-70207190D01*
X46752047Y-70683380D02*
X46752047Y-69683380D01*
X47133000Y-69683380D01*
X47228238Y-69731000D01*
X47275857Y-69778619D01*
X47323476Y-69873857D01*
X47323476Y-70016714D01*
X47275857Y-70111952D01*
X47228238Y-70159571D01*
X47133000Y-70207190D01*
X46752047Y-70207190D01*
X47513952Y-70778619D02*
X48275857Y-70778619D01*
X48513952Y-70683380D02*
X48513952Y-69683380D01*
X48752047Y-69683380D01*
X48894904Y-69731000D01*
X48990142Y-69826238D01*
X49037761Y-69921476D01*
X49085380Y-70111952D01*
X49085380Y-70254809D01*
X49037761Y-70445285D01*
X48990142Y-70540523D01*
X48894904Y-70635761D01*
X48752047Y-70683380D01*
X48513952Y-70683380D01*
X50037761Y-70683380D02*
X49466333Y-70683380D01*
X49752047Y-70683380D02*
X49752047Y-69683380D01*
X49656809Y-69826238D01*
X49561571Y-69921476D01*
X49466333Y-69969095D01*
X39290857Y-70683380D02*
X39290857Y-69683380D01*
X40338476Y-70683380D02*
X40005142Y-70207190D01*
X39767047Y-70683380D02*
X39767047Y-69683380D01*
X40148000Y-69683380D01*
X40243238Y-69731000D01*
X40290857Y-69778619D01*
X40338476Y-69873857D01*
X40338476Y-70016714D01*
X40290857Y-70111952D01*
X40243238Y-70159571D01*
X40148000Y-70207190D01*
X39767047Y-70207190D01*
X40528952Y-70778619D02*
X41290857Y-70778619D01*
X41528952Y-70683380D02*
X41528952Y-69683380D01*
X41767047Y-69683380D01*
X41909904Y-69731000D01*
X42005142Y-69826238D01*
X42052761Y-69921476D01*
X42100380Y-70111952D01*
X42100380Y-70254809D01*
X42052761Y-70445285D01*
X42005142Y-70540523D01*
X41909904Y-70635761D01*
X41767047Y-70683380D01*
X41528952Y-70683380D01*
X42481333Y-69778619D02*
X42528952Y-69731000D01*
X42624190Y-69683380D01*
X42862285Y-69683380D01*
X42957523Y-69731000D01*
X43005142Y-69778619D01*
X43052761Y-69873857D01*
X43052761Y-69969095D01*
X43005142Y-70111952D01*
X42433714Y-70683380D01*
X43052761Y-70683380D01*
X29440333Y-21265380D02*
X28964142Y-21265380D01*
X28964142Y-20265380D01*
X29773666Y-21265380D02*
X29773666Y-20265380D01*
X30011761Y-20265380D01*
X30154619Y-20313000D01*
X30249857Y-20408238D01*
X30297476Y-20503476D01*
X30345095Y-20693952D01*
X30345095Y-20836809D01*
X30297476Y-21027285D01*
X30249857Y-21122523D01*
X30154619Y-21217761D01*
X30011761Y-21265380D01*
X29773666Y-21265380D01*
X31345095Y-21265380D02*
X31011761Y-20789190D01*
X30773666Y-21265380D02*
X30773666Y-20265380D01*
X31154619Y-20265380D01*
X31249857Y-20313000D01*
X31297476Y-20360619D01*
X31345095Y-20455857D01*
X31345095Y-20598714D01*
X31297476Y-20693952D01*
X31249857Y-20741571D01*
X31154619Y-20789190D01*
X30773666Y-20789190D01*
X32297476Y-21265380D02*
X31726047Y-21265380D01*
X32011761Y-21265380D02*
X32011761Y-20265380D01*
X31916523Y-20408238D01*
X31821285Y-20503476D01*
X31726047Y-20551095D01*
X56586380Y-49252000D02*
X56110190Y-49585333D01*
X56586380Y-49823428D02*
X55586380Y-49823428D01*
X55586380Y-49442476D01*
X55634000Y-49347238D01*
X55681619Y-49299619D01*
X55776857Y-49252000D01*
X55919714Y-49252000D01*
X56014952Y-49299619D01*
X56062571Y-49347238D01*
X56110190Y-49442476D01*
X56110190Y-49823428D01*
X55586380Y-48347238D02*
X55586380Y-48823428D01*
X56062571Y-48871047D01*
X56014952Y-48823428D01*
X55967333Y-48728190D01*
X55967333Y-48490095D01*
X56014952Y-48394857D01*
X56062571Y-48347238D01*
X56157809Y-48299619D01*
X56395904Y-48299619D01*
X56491142Y-48347238D01*
X56538761Y-48394857D01*
X56586380Y-48490095D01*
X56586380Y-48728190D01*
X56538761Y-48823428D01*
X56491142Y-48871047D01*
X55586380Y-47442476D02*
X55586380Y-47632952D01*
X55634000Y-47728190D01*
X55681619Y-47775809D01*
X55824476Y-47871047D01*
X56014952Y-47918666D01*
X56395904Y-47918666D01*
X56491142Y-47871047D01*
X56538761Y-47823428D01*
X56586380Y-47728190D01*
X56586380Y-47537714D01*
X56538761Y-47442476D01*
X56491142Y-47394857D01*
X56395904Y-47347238D01*
X56157809Y-47347238D01*
X56062571Y-47394857D01*
X56014952Y-47442476D01*
X55967333Y-47537714D01*
X55967333Y-47728190D01*
X56014952Y-47823428D01*
X56062571Y-47871047D01*
X56157809Y-47918666D01*
X56681619Y-47156761D02*
X56681619Y-46394857D01*
X56586380Y-45632952D02*
X56586380Y-46204380D01*
X56586380Y-45918666D02*
X55586380Y-45918666D01*
X55729238Y-46013904D01*
X55824476Y-46109142D01*
X55872095Y-46204380D01*
M02*
