G04 #@! TF.GenerationSoftware,KiCad,Pcbnew,(5.0.0-rc2-dev-482-gf81c77cd4)*
G04 #@! TF.CreationDate,2018-04-20T23:01:05+02:00*
G04 #@! TF.ProjectId,ha_plattform,68615F706C617474666F726D2E6B6963,rev?*
G04 #@! TF.SameCoordinates,Original*
G04 #@! TF.FileFunction,Copper,L1,Top*
G04 #@! TF.FilePolarity,Positive*
%FSLAX46Y46*%
G04 Gerber Fmt 4.6, Leading zero omitted, Abs format (unit mm)*
G04 Created by KiCad (PCBNEW (5.0.0-rc2-dev-482-gf81c77cd4)) date Fri Apr 20 23:01:05 2018*
%MOMM*%
%LPD*%
G01*
G04 APERTURE LIST*
%ADD10R,1.700000X1.700000*%
%ADD11O,1.700000X1.700000*%
%ADD12R,2.000000X1.905000*%
%ADD13O,2.000000X1.905000*%
%ADD14R,2.000000X2.000000*%
%ADD15C,2.000000*%
%ADD16O,1.750000X1.300000*%
%ADD17C,1.750000*%
%ADD18R,1.800000X1.800000*%
%ADD19O,1.800000X1.800000*%
%ADD20O,1.905000X2.000000*%
%ADD21R,1.905000X2.000000*%
%ADD22O,1.000000X1.000000*%
%ADD23R,1.000000X1.000000*%
%ADD24C,0.250000*%
G04 APERTURE END LIST*
D10*
X21844000Y-23622000D03*
D11*
X24384000Y-23622000D03*
X21844000Y-26162000D03*
X24384000Y-26162000D03*
X21844000Y-28702000D03*
X24384000Y-28702000D03*
X21844000Y-31242000D03*
X24384000Y-31242000D03*
X21844000Y-33782000D03*
X24384000Y-33782000D03*
X21844000Y-36322000D03*
X24384000Y-36322000D03*
X21844000Y-38862000D03*
X24384000Y-38862000D03*
X21844000Y-41402000D03*
X24384000Y-41402000D03*
X21844000Y-43942000D03*
X24384000Y-43942000D03*
X21844000Y-46482000D03*
X24384000Y-46482000D03*
X21844000Y-49022000D03*
X24384000Y-49022000D03*
X21844000Y-51562000D03*
X24384000Y-51562000D03*
X21844000Y-54102000D03*
X24384000Y-54102000D03*
X21844000Y-56642000D03*
X24384000Y-56642000D03*
X21844000Y-59182000D03*
X24384000Y-59182000D03*
X21844000Y-61722000D03*
X24384000Y-61722000D03*
X21844000Y-64262000D03*
X24384000Y-64262000D03*
X21844000Y-66802000D03*
X24384000Y-66802000D03*
X21844000Y-69342000D03*
X24384000Y-69342000D03*
X21844000Y-71882000D03*
X24384000Y-71882000D03*
D12*
X73914000Y-41402000D03*
D13*
X73914000Y-43942000D03*
X73914000Y-46482000D03*
X73914000Y-49022000D03*
D12*
X61214000Y-56642000D03*
D13*
X61214000Y-54102000D03*
X61214000Y-51562000D03*
D14*
X38354000Y-33782000D03*
D15*
X43354000Y-33782000D03*
D16*
X30124000Y-47102000D03*
X30124000Y-49102000D03*
X30124000Y-51102000D03*
X30124000Y-53102000D03*
X30124000Y-55102000D03*
X30124000Y-57102000D03*
X30124000Y-59102000D03*
X30124000Y-61102000D03*
D17*
X49124000Y-57602000D03*
X49124000Y-55102000D03*
X49124000Y-52602000D03*
D18*
X52324000Y-23622000D03*
D19*
X54864000Y-23622000D03*
X59944000Y-23622000D03*
D18*
X62484000Y-23622000D03*
D20*
X43434000Y-71882000D03*
X40894000Y-71882000D03*
D21*
X38354000Y-71882000D03*
D22*
X34544000Y-23622000D03*
D23*
X34544000Y-22352000D03*
D21*
X57404000Y-33782000D03*
D20*
X59944000Y-33782000D03*
X62484000Y-33782000D03*
D23*
X57404000Y-41402000D03*
D22*
X57404000Y-42672000D03*
D13*
X73914000Y-29972000D03*
X73914000Y-27432000D03*
X73914000Y-24892000D03*
D12*
X73914000Y-22352000D03*
D24*
X22693999Y-40552001D02*
X21844000Y-41402000D01*
X23019001Y-40226999D02*
X22693999Y-40552001D01*
X55478999Y-40226999D02*
X23019001Y-40226999D01*
X56654000Y-41402000D02*
X55478999Y-40226999D01*
X57404000Y-41402000D02*
X56654000Y-41402000D01*
X28194000Y-22352000D02*
X24384000Y-26162000D01*
X34544000Y-22352000D02*
X28194000Y-22352000D01*
X38354000Y-27432000D02*
X34544000Y-23622000D01*
X38354000Y-33782000D02*
X38354000Y-27432000D01*
X26924000Y-33782000D02*
X24384000Y-36322000D01*
X38354000Y-33782000D02*
X26924000Y-33782000D01*
X43354000Y-33782000D02*
X57404000Y-33782000D01*
X58111106Y-42672000D02*
X57404000Y-42672000D01*
X59944000Y-40839106D02*
X58111106Y-42672000D01*
X59944000Y-33782000D02*
X59944000Y-40839106D01*
X57404000Y-33782000D02*
X59944000Y-33782000D01*
X38274000Y-38862000D02*
X24384000Y-38862000D01*
X43354000Y-33782000D02*
X38274000Y-38862000D01*
X49124000Y-57302000D02*
X49124000Y-57602000D01*
X50324001Y-56101999D02*
X49124000Y-57302000D01*
X50324001Y-53802001D02*
X50324001Y-56101999D01*
X49124000Y-52602000D02*
X50324001Y-53802001D01*
X22693999Y-52411999D02*
X21844000Y-51562000D01*
X23019001Y-52737001D02*
X22693999Y-52411999D01*
X24758003Y-52737001D02*
X23019001Y-52737001D01*
X25123002Y-53102000D02*
X24758003Y-52737001D01*
X30124000Y-53102000D02*
X25123002Y-53102000D01*
X25554001Y-47657001D02*
X23019001Y-47657001D01*
X22693999Y-47331999D02*
X21844000Y-46482000D01*
X23019001Y-47657001D02*
X22693999Y-47331999D01*
X28999000Y-51102000D02*
X25554001Y-47657001D01*
X30124000Y-51102000D02*
X28999000Y-51102000D01*
X52324000Y-22472000D02*
X52324000Y-23622000D01*
X52399001Y-22396999D02*
X52324000Y-22472000D01*
X58718999Y-22396999D02*
X52399001Y-22396999D01*
X59944000Y-23622000D02*
X58718999Y-22396999D01*
X26479001Y-21526999D02*
X25233999Y-22772001D01*
X35304001Y-21526999D02*
X26479001Y-21526999D01*
X25233999Y-22772001D02*
X24384000Y-23622000D01*
X38624003Y-24847001D02*
X35304001Y-21526999D01*
X53638999Y-24847001D02*
X38624003Y-24847001D01*
X54864000Y-23622000D02*
X53638999Y-24847001D01*
X62484000Y-23622000D02*
X62484000Y-33782000D01*
X40894000Y-71882000D02*
X40894000Y-71929500D01*
X25586081Y-64262000D02*
X24384000Y-64262000D01*
X33321500Y-64262000D02*
X25586081Y-64262000D01*
X40894000Y-71834500D02*
X33321500Y-64262000D01*
X40894000Y-71882000D02*
X40894000Y-71834500D01*
X38354000Y-71882000D02*
X24384000Y-71882000D01*
X75239010Y-23629510D02*
X75239010Y-38874490D01*
X73914000Y-40199500D02*
X73914000Y-41402000D01*
X73961500Y-22352000D02*
X75239010Y-23629510D01*
X75239010Y-38874490D02*
X73914000Y-40199500D01*
X73914000Y-22352000D02*
X73961500Y-22352000D01*
X61261500Y-54102000D02*
X61214000Y-54102000D01*
X73914000Y-41402000D02*
X73961500Y-41402000D01*
X43434000Y-71834500D02*
X43434000Y-71882000D01*
X61166500Y-54102000D02*
X43434000Y-71834500D01*
X61214000Y-54102000D02*
X61166500Y-54102000D01*
X22693999Y-44791999D02*
X21844000Y-43942000D01*
X23208999Y-45306999D02*
X22693999Y-44791999D01*
X28999000Y-47102000D02*
X27203999Y-45306999D01*
X27203999Y-45306999D02*
X23208999Y-45306999D01*
X30124000Y-47102000D02*
X28999000Y-47102000D01*
X73914000Y-42604500D02*
X73914000Y-41402000D01*
X73854010Y-42664490D02*
X73914000Y-42604500D01*
X72699010Y-42664490D02*
X73854010Y-42664490D01*
X66961500Y-47102000D02*
X67611500Y-47752000D01*
X30124000Y-47102000D02*
X66961500Y-47102000D01*
X72699010Y-42664490D02*
X67611500Y-47752000D01*
X67611500Y-47752000D02*
X61261500Y-54102000D01*
X73914000Y-50224500D02*
X73914000Y-49022000D01*
X67496500Y-56642000D02*
X73914000Y-50224500D01*
X61214000Y-56642000D02*
X67496500Y-56642000D01*
X22693999Y-63412001D02*
X21844000Y-64262000D01*
X23019001Y-63086999D02*
X22693999Y-63412001D01*
X47834830Y-63086999D02*
X23019001Y-63086999D01*
X59359829Y-51562000D02*
X47834830Y-63086999D01*
X61214000Y-51562000D02*
X59359829Y-51562000D01*
M02*
