G04 #@! TF.GenerationSoftware,KiCad,Pcbnew,(5.0.0-rc2-dev-482-gf81c77cd4)*
G04 #@! TF.CreationDate,2018-04-23T20:39:35+02:00*
G04 #@! TF.ProjectId,ha_plattform,68615F706C617474666F726D2E6B6963,rev?*
G04 #@! TF.SameCoordinates,Original*
G04 #@! TF.FileFunction,Soldermask,Top*
G04 #@! TF.FilePolarity,Negative*
%FSLAX46Y46*%
G04 Gerber Fmt 4.6, Leading zero omitted, Abs format (unit mm)*
G04 Created by KiCad (PCBNEW (5.0.0-rc2-dev-482-gf81c77cd4)) date Mon Apr 23 20:39:35 2018*
%MOMM*%
%LPD*%
G01*
G04 APERTURE LIST*
%ADD10R,2.100000X2.100000*%
%ADD11O,2.100000X2.100000*%
%ADD12R,2.400000X2.305000*%
%ADD13O,2.400000X2.305000*%
%ADD14R,2.400000X2.400000*%
%ADD15C,2.400000*%
%ADD16O,2.150000X1.700000*%
%ADD17C,2.150000*%
%ADD18O,2.305000X2.400000*%
%ADD19R,2.305000X2.400000*%
%ADD20C,1.800000*%
%ADD21O,1.800000X1.800000*%
G04 APERTURE END LIST*
D10*
X21844000Y-23622000D03*
D11*
X24384000Y-23622000D03*
X21844000Y-26162000D03*
X24384000Y-26162000D03*
X21844000Y-28702000D03*
X24384000Y-28702000D03*
X21844000Y-31242000D03*
X24384000Y-31242000D03*
X21844000Y-33782000D03*
X24384000Y-33782000D03*
X21844000Y-36322000D03*
X24384000Y-36322000D03*
X21844000Y-38862000D03*
X24384000Y-38862000D03*
X21844000Y-41402000D03*
X24384000Y-41402000D03*
X21844000Y-43942000D03*
X24384000Y-43942000D03*
X21844000Y-46482000D03*
X24384000Y-46482000D03*
X21844000Y-49022000D03*
X24384000Y-49022000D03*
X21844000Y-51562000D03*
X24384000Y-51562000D03*
X21844000Y-54102000D03*
X24384000Y-54102000D03*
X21844000Y-56642000D03*
X24384000Y-56642000D03*
X21844000Y-59182000D03*
X24384000Y-59182000D03*
X21844000Y-61722000D03*
X24384000Y-61722000D03*
X21844000Y-64262000D03*
X24384000Y-64262000D03*
X21844000Y-66802000D03*
X24384000Y-66802000D03*
X21844000Y-69342000D03*
X24384000Y-69342000D03*
X21844000Y-71882000D03*
X24384000Y-71882000D03*
D12*
X73914000Y-41402000D03*
D13*
X73914000Y-43942000D03*
X73914000Y-46482000D03*
X73914000Y-49022000D03*
D12*
X61214000Y-56642000D03*
D13*
X61214000Y-54102000D03*
X61214000Y-51562000D03*
D14*
X38354000Y-33782000D03*
D15*
X43354000Y-33782000D03*
D16*
X30124000Y-47102000D03*
X30124000Y-49102000D03*
X30124000Y-51102000D03*
X30124000Y-53102000D03*
X30124000Y-55102000D03*
X30124000Y-57102000D03*
X30124000Y-59102000D03*
X30124000Y-61102000D03*
D17*
X49124000Y-57602000D03*
X49124000Y-55102000D03*
X49124000Y-52602000D03*
D18*
X43434000Y-70739000D03*
X40894000Y-70739000D03*
D19*
X38354000Y-70739000D03*
X57404000Y-33782000D03*
D18*
X59944000Y-33782000D03*
X62484000Y-33782000D03*
D13*
X73914000Y-29972000D03*
X73914000Y-27432000D03*
X73914000Y-24892000D03*
D12*
X73914000Y-22352000D03*
D10*
X51054000Y-22352000D03*
D11*
X51054000Y-24892000D03*
X56134000Y-22352000D03*
D10*
X56134000Y-24892000D03*
D20*
X57404000Y-41402000D03*
D21*
X65024000Y-41402000D03*
D20*
X32004000Y-23622000D03*
D21*
X37084000Y-23622000D03*
M02*
