G04 #@! TF.GenerationSoftware,KiCad,Pcbnew,(5.0.0-rc2-dev-482-gf81c77cd4)*
G04 #@! TF.CreationDate,2018-05-18T00:15:41+02:00*
G04 #@! TF.ProjectId,ha_plattform,68615F706C617474666F726D2E6B6963,rev?*
G04 #@! TF.SameCoordinates,Original*
G04 #@! TF.FileFunction,Soldermask,Top*
G04 #@! TF.FilePolarity,Negative*
%FSLAX46Y46*%
G04 Gerber Fmt 4.6, Leading zero omitted, Abs format (unit mm)*
G04 Created by KiCad (PCBNEW (5.0.0-rc2-dev-482-gf81c77cd4)) date Fri May 18 00:15:41 2018*
%MOMM*%
%LPD*%
G01*
G04 APERTURE LIST*
%ADD10R,2.800000X2.800000*%
%ADD11C,2.800000*%
%ADD12R,2.305000X2.400000*%
%ADD13O,2.305000X2.400000*%
%ADD14O,1.800000X1.800000*%
%ADD15C,1.800000*%
%ADD16R,2.100000X2.100000*%
%ADD17O,2.100000X2.100000*%
%ADD18R,2.400000X2.305000*%
%ADD19O,2.400000X2.305000*%
%ADD20O,2.150000X1.700000*%
%ADD21C,2.150000*%
G04 APERTURE END LIST*
D10*
X33040000Y-32480000D03*
D11*
X38040000Y-32480000D03*
D12*
X34798000Y-70485000D03*
D13*
X32258000Y-70485000D03*
X29718000Y-70485000D03*
D14*
X53848000Y-55499000D03*
D15*
X53848000Y-47879000D03*
D16*
X21844000Y-23622000D03*
D17*
X24384000Y-23622000D03*
X21844000Y-26162000D03*
X24384000Y-26162000D03*
X21844000Y-28702000D03*
X24384000Y-28702000D03*
X21844000Y-31242000D03*
X24384000Y-31242000D03*
X21844000Y-33782000D03*
X24384000Y-33782000D03*
X21844000Y-36322000D03*
X24384000Y-36322000D03*
X21844000Y-38862000D03*
X24384000Y-38862000D03*
X21844000Y-41402000D03*
X24384000Y-41402000D03*
X21844000Y-43942000D03*
X24384000Y-43942000D03*
X21844000Y-46482000D03*
X24384000Y-46482000D03*
X21844000Y-49022000D03*
X24384000Y-49022000D03*
X21844000Y-51562000D03*
X24384000Y-51562000D03*
X21844000Y-54102000D03*
X24384000Y-54102000D03*
X21844000Y-56642000D03*
X24384000Y-56642000D03*
X21844000Y-59182000D03*
X24384000Y-59182000D03*
X21844000Y-61722000D03*
X24384000Y-61722000D03*
X21844000Y-64262000D03*
X24384000Y-64262000D03*
X21844000Y-66802000D03*
X24384000Y-66802000D03*
X21844000Y-69342000D03*
X24384000Y-69342000D03*
X21844000Y-71882000D03*
X24384000Y-71882000D03*
D18*
X64260000Y-25030000D03*
D19*
X64260000Y-27570000D03*
X64260000Y-30110000D03*
X64260000Y-32650000D03*
D12*
X60040000Y-66460000D03*
D13*
X62580000Y-66460000D03*
X65120000Y-66460000D03*
D20*
X30353000Y-43942000D03*
X30353000Y-45942000D03*
X30353000Y-47942000D03*
X30353000Y-49942000D03*
X30353000Y-51942000D03*
X30353000Y-53942000D03*
X30353000Y-55942000D03*
X30353000Y-57942000D03*
D21*
X49353000Y-54442000D03*
X49353000Y-51942000D03*
X49353000Y-49442000D03*
D13*
X40132000Y-64770000D03*
X42672000Y-64770000D03*
D12*
X45212000Y-64770000D03*
D18*
X55250000Y-33600000D03*
D19*
X55250000Y-31060000D03*
X55250000Y-28520000D03*
X55250000Y-25980000D03*
D16*
X47117000Y-72771000D03*
D17*
X49657000Y-72771000D03*
X42545000Y-72771000D03*
D16*
X40005000Y-72771000D03*
D15*
X28067000Y-22733000D03*
D14*
X33147000Y-22733000D03*
X58039000Y-47879000D03*
D15*
X58039000Y-55499000D03*
M02*
