M48
;DRILL file {KiCad (5.0.0-rc2-dev-482-gf81c77cd4)} date Fri Apr 20 23:01:55 2018
;FORMAT={-:-/ absolute / metric / decimal}
FMAT,2
METRIC,TZ
T1C0.650
T2C0.900
T3C1.000
T4C1.100
T5C1.200
T6C1.300
%
G90
G05
M71
T1
X57.404Y-41.402
X57.404Y-42.672
X34.544Y-22.352
X34.544Y-23.622
T2
X59.944Y-23.622
X62.484Y-23.622
X52.324Y-23.622
X54.864Y-23.622
T3
X21.844Y-23.622
X21.844Y-26.162
X21.844Y-28.702
X21.844Y-31.242
X21.844Y-33.782
X21.844Y-36.322
X21.844Y-38.862
X21.844Y-41.402
X21.844Y-43.942
X21.844Y-46.482
X21.844Y-49.022
X21.844Y-51.562
X21.844Y-54.102
X21.844Y-56.642
X21.844Y-59.182
X21.844Y-61.722
X21.844Y-64.262
X21.844Y-66.802
X21.844Y-69.342
X21.844Y-71.882
X24.384Y-23.622
X24.384Y-26.162
X24.384Y-28.702
X24.384Y-31.242
X24.384Y-33.782
X24.384Y-36.322
X24.384Y-38.862
X24.384Y-41.402
X24.384Y-43.942
X24.384Y-46.482
X24.384Y-49.022
X24.384Y-51.562
X24.384Y-54.102
X24.384Y-56.642
X24.384Y-59.182
X24.384Y-61.722
X24.384Y-64.262
X24.384Y-66.802
X24.384Y-69.342
X24.384Y-71.882
T4
X73.914Y-41.402
X73.914Y-43.942
X73.914Y-46.482
X73.914Y-49.022
X73.914Y-22.352
X73.914Y-24.892
X73.914Y-27.432
X73.914Y-29.972
X57.404Y-33.782
X59.944Y-33.782
X62.484Y-33.782
X61.214Y-51.562
X61.214Y-54.102
X61.214Y-56.642
X38.354Y-71.882
X40.894Y-71.882
X43.434Y-71.882
T5
X30.124Y-47.102
X30.124Y-49.102
X30.124Y-51.102
X30.124Y-53.102
X30.124Y-55.102
X30.124Y-57.102
X30.124Y-59.102
X30.124Y-61.102
X49.124Y-52.602
X49.124Y-55.102
X49.124Y-57.602
T6
X38.354Y-33.782
X43.354Y-33.782
T0
M30
