G04 #@! TF.GenerationSoftware,KiCad,Pcbnew,(5.0.0-rc2-dev-482-gf81c77cd4)*
G04 #@! TF.CreationDate,2018-04-20T23:01:05+02:00*
G04 #@! TF.ProjectId,ha_plattform,68615F706C617474666F726D2E6B6963,rev?*
G04 #@! TF.SameCoordinates,Original*
G04 #@! TF.FileFunction,Legend,Top*
G04 #@! TF.FilePolarity,Positive*
%FSLAX46Y46*%
G04 Gerber Fmt 4.6, Leading zero omitted, Abs format (unit mm)*
G04 Created by KiCad (PCBNEW (5.0.0-rc2-dev-482-gf81c77cd4)) date Fri Apr 20 23:01:05 2018*
%MOMM*%
%LPD*%
G01*
G04 APERTURE LIST*
%ADD10C,0.120000*%
%ADD11C,0.150000*%
G04 APERTURE END LIST*
D10*
X20514000Y-73212000D02*
X25714000Y-73212000D01*
X20514000Y-24892000D02*
X20514000Y-73212000D01*
X25714000Y-22292000D02*
X25714000Y-73212000D01*
X20514000Y-24892000D02*
X23114000Y-24892000D01*
X23114000Y-24892000D02*
X23114000Y-22292000D01*
X23114000Y-22292000D02*
X25714000Y-22292000D01*
X20514000Y-23622000D02*
X20514000Y-22292000D01*
X20514000Y-22292000D02*
X21844000Y-22292000D01*
X77184000Y-40092000D02*
X77184000Y-50332000D01*
X72543000Y-40092000D02*
X72543000Y-50332000D01*
X77184000Y-40092000D02*
X72543000Y-40092000D01*
X77184000Y-50332000D02*
X72543000Y-50332000D01*
X75674000Y-40092000D02*
X75674000Y-50332000D01*
X77184000Y-43362000D02*
X75674000Y-43362000D01*
X77184000Y-47062000D02*
X75674000Y-47062000D01*
X57944000Y-59222000D02*
X57944000Y-48982000D01*
X62585000Y-59222000D02*
X62585000Y-48982000D01*
X57944000Y-59222000D02*
X62585000Y-59222000D01*
X57944000Y-48982000D02*
X62585000Y-48982000D01*
X59454000Y-59222000D02*
X59454000Y-48982000D01*
X57944000Y-55952000D02*
X59454000Y-55952000D01*
X57944000Y-52251000D02*
X59454000Y-52251000D01*
X45974000Y-33782000D02*
G75*
G03X45974000Y-33782000I-5120000J0D01*
G01*
X40854000Y-28702000D02*
X40854000Y-38862000D01*
X40894000Y-28702000D02*
X40894000Y-38862000D01*
X40934000Y-28702000D02*
X40934000Y-38862000D01*
X40974000Y-28703000D02*
X40974000Y-38861000D01*
X41014000Y-28704000D02*
X41014000Y-38860000D01*
X41054000Y-28705000D02*
X41054000Y-38859000D01*
X41094000Y-28707000D02*
X41094000Y-38857000D01*
X41134000Y-28709000D02*
X41134000Y-38855000D01*
X41174000Y-28712000D02*
X41174000Y-38852000D01*
X41214000Y-28714000D02*
X41214000Y-38850000D01*
X41254000Y-28717000D02*
X41254000Y-38847000D01*
X41294000Y-28720000D02*
X41294000Y-38844000D01*
X41334000Y-28724000D02*
X41334000Y-38840000D01*
X41374000Y-28728000D02*
X41374000Y-38836000D01*
X41414000Y-28732000D02*
X41414000Y-38832000D01*
X41454000Y-28737000D02*
X41454000Y-38827000D01*
X41494000Y-28742000D02*
X41494000Y-38822000D01*
X41534000Y-28747000D02*
X41534000Y-38817000D01*
X41575000Y-28752000D02*
X41575000Y-38812000D01*
X41615000Y-28758000D02*
X41615000Y-38806000D01*
X41655000Y-28764000D02*
X41655000Y-38800000D01*
X41695000Y-28771000D02*
X41695000Y-38793000D01*
X41735000Y-28778000D02*
X41735000Y-38786000D01*
X41775000Y-28785000D02*
X41775000Y-38779000D01*
X41815000Y-28792000D02*
X41815000Y-38772000D01*
X41855000Y-28800000D02*
X41855000Y-38764000D01*
X41895000Y-28808000D02*
X41895000Y-38756000D01*
X41935000Y-28817000D02*
X41935000Y-38747000D01*
X41975000Y-28826000D02*
X41975000Y-38738000D01*
X42015000Y-28835000D02*
X42015000Y-38729000D01*
X42055000Y-28844000D02*
X42055000Y-38720000D01*
X42095000Y-28854000D02*
X42095000Y-38710000D01*
X42135000Y-28864000D02*
X42135000Y-32541000D01*
X42135000Y-35023000D02*
X42135000Y-38700000D01*
X42175000Y-28875000D02*
X42175000Y-32541000D01*
X42175000Y-35023000D02*
X42175000Y-38689000D01*
X42215000Y-28885000D02*
X42215000Y-32541000D01*
X42215000Y-35023000D02*
X42215000Y-38679000D01*
X42255000Y-28897000D02*
X42255000Y-32541000D01*
X42255000Y-35023000D02*
X42255000Y-38667000D01*
X42295000Y-28908000D02*
X42295000Y-32541000D01*
X42295000Y-35023000D02*
X42295000Y-38656000D01*
X42335000Y-28920000D02*
X42335000Y-32541000D01*
X42335000Y-35023000D02*
X42335000Y-38644000D01*
X42375000Y-28932000D02*
X42375000Y-32541000D01*
X42375000Y-35023000D02*
X42375000Y-38632000D01*
X42415000Y-28945000D02*
X42415000Y-32541000D01*
X42415000Y-35023000D02*
X42415000Y-38619000D01*
X42455000Y-28958000D02*
X42455000Y-32541000D01*
X42455000Y-35023000D02*
X42455000Y-38606000D01*
X42495000Y-28971000D02*
X42495000Y-32541000D01*
X42495000Y-35023000D02*
X42495000Y-38593000D01*
X42535000Y-28985000D02*
X42535000Y-32541000D01*
X42535000Y-35023000D02*
X42535000Y-38579000D01*
X42575000Y-28999000D02*
X42575000Y-32541000D01*
X42575000Y-35023000D02*
X42575000Y-38565000D01*
X42615000Y-29014000D02*
X42615000Y-32541000D01*
X42615000Y-35023000D02*
X42615000Y-38550000D01*
X42655000Y-29028000D02*
X42655000Y-32541000D01*
X42655000Y-35023000D02*
X42655000Y-38536000D01*
X42695000Y-29044000D02*
X42695000Y-32541000D01*
X42695000Y-35023000D02*
X42695000Y-38520000D01*
X42735000Y-29059000D02*
X42735000Y-32541000D01*
X42735000Y-35023000D02*
X42735000Y-38505000D01*
X42775000Y-29075000D02*
X42775000Y-32541000D01*
X42775000Y-35023000D02*
X42775000Y-38489000D01*
X42815000Y-29092000D02*
X42815000Y-32541000D01*
X42815000Y-35023000D02*
X42815000Y-38472000D01*
X42855000Y-29108000D02*
X42855000Y-32541000D01*
X42855000Y-35023000D02*
X42855000Y-38456000D01*
X42895000Y-29125000D02*
X42895000Y-32541000D01*
X42895000Y-35023000D02*
X42895000Y-38439000D01*
X42935000Y-29143000D02*
X42935000Y-32541000D01*
X42935000Y-35023000D02*
X42935000Y-38421000D01*
X42975000Y-29161000D02*
X42975000Y-32541000D01*
X42975000Y-35023000D02*
X42975000Y-38403000D01*
X43015000Y-29179000D02*
X43015000Y-32541000D01*
X43015000Y-35023000D02*
X43015000Y-38385000D01*
X43055000Y-29198000D02*
X43055000Y-32541000D01*
X43055000Y-35023000D02*
X43055000Y-38366000D01*
X43095000Y-29218000D02*
X43095000Y-32541000D01*
X43095000Y-35023000D02*
X43095000Y-38346000D01*
X43135000Y-29237000D02*
X43135000Y-32541000D01*
X43135000Y-35023000D02*
X43135000Y-38327000D01*
X43175000Y-29257000D02*
X43175000Y-32541000D01*
X43175000Y-35023000D02*
X43175000Y-38307000D01*
X43215000Y-29278000D02*
X43215000Y-32541000D01*
X43215000Y-35023000D02*
X43215000Y-38286000D01*
X43255000Y-29299000D02*
X43255000Y-32541000D01*
X43255000Y-35023000D02*
X43255000Y-38265000D01*
X43295000Y-29320000D02*
X43295000Y-32541000D01*
X43295000Y-35023000D02*
X43295000Y-38244000D01*
X43335000Y-29342000D02*
X43335000Y-32541000D01*
X43335000Y-35023000D02*
X43335000Y-38222000D01*
X43375000Y-29365000D02*
X43375000Y-32541000D01*
X43375000Y-35023000D02*
X43375000Y-38199000D01*
X43415000Y-29387000D02*
X43415000Y-32541000D01*
X43415000Y-35023000D02*
X43415000Y-38177000D01*
X43455000Y-29411000D02*
X43455000Y-32541000D01*
X43455000Y-35023000D02*
X43455000Y-38153000D01*
X43495000Y-29435000D02*
X43495000Y-32541000D01*
X43495000Y-35023000D02*
X43495000Y-38129000D01*
X43535000Y-29459000D02*
X43535000Y-32541000D01*
X43535000Y-35023000D02*
X43535000Y-38105000D01*
X43575000Y-29484000D02*
X43575000Y-32541000D01*
X43575000Y-35023000D02*
X43575000Y-38080000D01*
X43615000Y-29509000D02*
X43615000Y-32541000D01*
X43615000Y-35023000D02*
X43615000Y-38055000D01*
X43655000Y-29535000D02*
X43655000Y-32541000D01*
X43655000Y-35023000D02*
X43655000Y-38029000D01*
X43695000Y-29561000D02*
X43695000Y-32541000D01*
X43695000Y-35023000D02*
X43695000Y-38003000D01*
X43735000Y-29588000D02*
X43735000Y-32541000D01*
X43735000Y-35023000D02*
X43735000Y-37976000D01*
X43775000Y-29616000D02*
X43775000Y-32541000D01*
X43775000Y-35023000D02*
X43775000Y-37948000D01*
X43815000Y-29644000D02*
X43815000Y-32541000D01*
X43815000Y-35023000D02*
X43815000Y-37920000D01*
X43855000Y-29672000D02*
X43855000Y-32541000D01*
X43855000Y-35023000D02*
X43855000Y-37892000D01*
X43895000Y-29702000D02*
X43895000Y-32541000D01*
X43895000Y-35023000D02*
X43895000Y-37862000D01*
X43935000Y-29732000D02*
X43935000Y-32541000D01*
X43935000Y-35023000D02*
X43935000Y-37832000D01*
X43975000Y-29762000D02*
X43975000Y-32541000D01*
X43975000Y-35023000D02*
X43975000Y-37802000D01*
X44015000Y-29793000D02*
X44015000Y-32541000D01*
X44015000Y-35023000D02*
X44015000Y-37771000D01*
X44055000Y-29825000D02*
X44055000Y-32541000D01*
X44055000Y-35023000D02*
X44055000Y-37739000D01*
X44095000Y-29857000D02*
X44095000Y-32541000D01*
X44095000Y-35023000D02*
X44095000Y-37707000D01*
X44135000Y-29890000D02*
X44135000Y-32541000D01*
X44135000Y-35023000D02*
X44135000Y-37674000D01*
X44175000Y-29924000D02*
X44175000Y-32541000D01*
X44175000Y-35023000D02*
X44175000Y-37640000D01*
X44215000Y-29958000D02*
X44215000Y-32541000D01*
X44215000Y-35023000D02*
X44215000Y-37606000D01*
X44255000Y-29993000D02*
X44255000Y-32541000D01*
X44255000Y-35023000D02*
X44255000Y-37571000D01*
X44295000Y-30029000D02*
X44295000Y-32541000D01*
X44295000Y-35023000D02*
X44295000Y-37535000D01*
X44335000Y-30066000D02*
X44335000Y-32541000D01*
X44335000Y-35023000D02*
X44335000Y-37498000D01*
X44375000Y-30103000D02*
X44375000Y-32541000D01*
X44375000Y-35023000D02*
X44375000Y-37461000D01*
X44415000Y-30142000D02*
X44415000Y-32541000D01*
X44415000Y-35023000D02*
X44415000Y-37422000D01*
X44455000Y-30181000D02*
X44455000Y-32541000D01*
X44455000Y-35023000D02*
X44455000Y-37383000D01*
X44495000Y-30221000D02*
X44495000Y-32541000D01*
X44495000Y-35023000D02*
X44495000Y-37343000D01*
X44535000Y-30262000D02*
X44535000Y-32541000D01*
X44535000Y-35023000D02*
X44535000Y-37302000D01*
X44575000Y-30304000D02*
X44575000Y-32541000D01*
X44575000Y-35023000D02*
X44575000Y-37260000D01*
X44615000Y-30346000D02*
X44615000Y-37218000D01*
X44655000Y-30390000D02*
X44655000Y-37174000D01*
X44695000Y-30435000D02*
X44695000Y-37129000D01*
X44735000Y-30481000D02*
X44735000Y-37083000D01*
X44775000Y-30528000D02*
X44775000Y-37036000D01*
X44815000Y-30576000D02*
X44815000Y-36988000D01*
X44855000Y-30626000D02*
X44855000Y-36938000D01*
X44895000Y-30676000D02*
X44895000Y-36888000D01*
X44935000Y-30728000D02*
X44935000Y-36836000D01*
X44975000Y-30782000D02*
X44975000Y-36782000D01*
X45015000Y-30837000D02*
X45015000Y-36727000D01*
X45055000Y-30893000D02*
X45055000Y-36671000D01*
X45095000Y-30952000D02*
X45095000Y-36612000D01*
X45135000Y-31012000D02*
X45135000Y-36552000D01*
X45175000Y-31073000D02*
X45175000Y-36491000D01*
X45215000Y-31137000D02*
X45215000Y-36427000D01*
X45255000Y-31203000D02*
X45255000Y-36361000D01*
X45295000Y-31272000D02*
X45295000Y-36292000D01*
X45335000Y-31343000D02*
X45335000Y-36221000D01*
X45375000Y-31417000D02*
X45375000Y-36147000D01*
X45415000Y-31493000D02*
X45415000Y-36071000D01*
X45455000Y-31573000D02*
X45455000Y-35991000D01*
X45495000Y-31657000D02*
X45495000Y-35907000D01*
X45535000Y-31745000D02*
X45535000Y-35819000D01*
X45575000Y-31838000D02*
X45575000Y-35726000D01*
X45615000Y-31936000D02*
X45615000Y-35628000D01*
X45655000Y-32040000D02*
X45655000Y-35524000D01*
X45695000Y-32152000D02*
X45695000Y-35412000D01*
X45735000Y-32272000D02*
X45735000Y-35292000D01*
X45775000Y-32404000D02*
X45775000Y-35160000D01*
X45815000Y-32552000D02*
X45815000Y-35012000D01*
X45855000Y-32720000D02*
X45855000Y-34844000D01*
X45895000Y-32920000D02*
X45895000Y-34644000D01*
X45935000Y-33183000D02*
X45935000Y-34381000D01*
X35374354Y-30907000D02*
X36374354Y-30907000D01*
X35874354Y-30407000D02*
X35874354Y-31407000D01*
D11*
X29974000Y-46202000D02*
X29974000Y-45452000D01*
X29974000Y-62752000D02*
X29974000Y-62002000D01*
X49274000Y-62752000D02*
X29974000Y-62752000D01*
X49274000Y-58727000D02*
X49274000Y-62752000D01*
X49274000Y-45452000D02*
X49274000Y-51477000D01*
X29974000Y-45452000D02*
X49274000Y-45452000D01*
D10*
X53810150Y-24590866D02*
G75*
G03X53750761Y-22722000I1053850J968866D01*
G01*
X60997850Y-22653134D02*
G75*
G03X61057239Y-24522000I-1053850J-968866D01*
G01*
X42745000Y-68612000D02*
X42745000Y-70122000D01*
X39044000Y-68612000D02*
X39044000Y-70122000D01*
X35774000Y-70122000D02*
X46014000Y-70122000D01*
X46014000Y-68612000D02*
X46014000Y-73253000D01*
X35774000Y-68612000D02*
X35774000Y-73253000D01*
X35774000Y-73253000D02*
X46014000Y-73253000D01*
X35774000Y-68612000D02*
X46014000Y-68612000D01*
X33434000Y-21592000D02*
X34544000Y-21592000D01*
X33434000Y-22352000D02*
X33434000Y-21592000D01*
X35107471Y-23112000D02*
X35654000Y-23112000D01*
X33434000Y-23112000D02*
X33980529Y-23112000D01*
X35654000Y-23112000D02*
X35654000Y-24317000D01*
X33434000Y-23112000D02*
X33434000Y-24317000D01*
X34851530Y-24317000D02*
X35654000Y-24317000D01*
X33434000Y-24317000D02*
X34236470Y-24317000D01*
X54824000Y-30512000D02*
X65064000Y-30512000D01*
X54824000Y-35153000D02*
X65064000Y-35153000D01*
X54824000Y-30512000D02*
X54824000Y-35153000D01*
X65064000Y-30512000D02*
X65064000Y-35153000D01*
X54824000Y-32022000D02*
X65064000Y-32022000D01*
X58094000Y-30512000D02*
X58094000Y-32022000D01*
X61795000Y-30512000D02*
X61795000Y-32022000D01*
X56294000Y-43367000D02*
X57096470Y-43367000D01*
X57711530Y-43367000D02*
X58514000Y-43367000D01*
X56294000Y-42162000D02*
X56294000Y-43367000D01*
X58514000Y-42162000D02*
X58514000Y-43367000D01*
X56294000Y-42162000D02*
X56840529Y-42162000D01*
X57967471Y-42162000D02*
X58514000Y-42162000D01*
X56294000Y-41402000D02*
X56294000Y-40642000D01*
X56294000Y-40642000D02*
X57404000Y-40642000D01*
X77184000Y-28012000D02*
X75674000Y-28012000D01*
X77184000Y-24312000D02*
X75674000Y-24312000D01*
X75674000Y-21042000D02*
X75674000Y-31282000D01*
X77184000Y-31282000D02*
X72543000Y-31282000D01*
X77184000Y-21042000D02*
X72543000Y-21042000D01*
X72543000Y-21042000D02*
X72543000Y-31282000D01*
X77184000Y-21042000D02*
X77184000Y-31282000D01*
D11*
X22780666Y-20744380D02*
X22780666Y-21458666D01*
X22733047Y-21601523D01*
X22637809Y-21696761D01*
X22494952Y-21744380D01*
X22399714Y-21744380D01*
X23161619Y-20744380D02*
X23780666Y-20744380D01*
X23447333Y-21125333D01*
X23590190Y-21125333D01*
X23685428Y-21172952D01*
X23733047Y-21220571D01*
X23780666Y-21315809D01*
X23780666Y-21553904D01*
X23733047Y-21649142D01*
X23685428Y-21696761D01*
X23590190Y-21744380D01*
X23304476Y-21744380D01*
X23209238Y-21696761D01*
X23161619Y-21649142D01*
X77969714Y-47807238D02*
X78636380Y-47807238D01*
X77588761Y-48045333D02*
X78303047Y-48283428D01*
X78303047Y-47664380D01*
X77636380Y-47378666D02*
X77636380Y-46759619D01*
X78017333Y-47092952D01*
X78017333Y-46950095D01*
X78064952Y-46854857D01*
X78112571Y-46807238D01*
X78207809Y-46759619D01*
X78445904Y-46759619D01*
X78541142Y-46807238D01*
X78588761Y-46854857D01*
X78636380Y-46950095D01*
X78636380Y-47235809D01*
X78588761Y-47331047D01*
X78541142Y-47378666D01*
X77636380Y-46426285D02*
X77636380Y-45807238D01*
X78017333Y-46140571D01*
X78017333Y-45997714D01*
X78064952Y-45902476D01*
X78112571Y-45854857D01*
X78207809Y-45807238D01*
X78445904Y-45807238D01*
X78541142Y-45854857D01*
X78588761Y-45902476D01*
X78636380Y-45997714D01*
X78636380Y-46283428D01*
X78588761Y-46378666D01*
X78541142Y-46426285D01*
X78731619Y-45616761D02*
X78731619Y-44854857D01*
X78636380Y-44045333D02*
X78160190Y-44378666D01*
X78636380Y-44616761D02*
X77636380Y-44616761D01*
X77636380Y-44235809D01*
X77684000Y-44140571D01*
X77731619Y-44092952D01*
X77826857Y-44045333D01*
X77969714Y-44045333D01*
X78064952Y-44092952D01*
X78112571Y-44140571D01*
X78160190Y-44235809D01*
X78160190Y-44616761D01*
X77636380Y-43712000D02*
X78636380Y-43045333D01*
X77636380Y-43045333D02*
X78636380Y-43712000D01*
X78636380Y-42140571D02*
X78636380Y-42712000D01*
X78636380Y-42426285D02*
X77636380Y-42426285D01*
X77779238Y-42521523D01*
X77874476Y-42616761D01*
X77922095Y-42712000D01*
X56729714Y-56578190D02*
X57396380Y-56578190D01*
X56348761Y-56816285D02*
X57063047Y-57054380D01*
X57063047Y-56435333D01*
X56396380Y-56149619D02*
X56396380Y-55530571D01*
X56777333Y-55863904D01*
X56777333Y-55721047D01*
X56824952Y-55625809D01*
X56872571Y-55578190D01*
X56967809Y-55530571D01*
X57205904Y-55530571D01*
X57301142Y-55578190D01*
X57348761Y-55625809D01*
X57396380Y-55721047D01*
X57396380Y-56006761D01*
X57348761Y-56102000D01*
X57301142Y-56149619D01*
X56396380Y-55197238D02*
X56396380Y-54578190D01*
X56777333Y-54911523D01*
X56777333Y-54768666D01*
X56824952Y-54673428D01*
X56872571Y-54625809D01*
X56967809Y-54578190D01*
X57205904Y-54578190D01*
X57301142Y-54625809D01*
X57348761Y-54673428D01*
X57396380Y-54768666D01*
X57396380Y-55054380D01*
X57348761Y-55149619D01*
X57301142Y-55197238D01*
X57491619Y-54387714D02*
X57491619Y-53625809D01*
X56396380Y-53530571D02*
X56396380Y-52959142D01*
X57396380Y-53244857D02*
X56396380Y-53244857D01*
X56396380Y-52721047D02*
X57396380Y-52054380D01*
X56396380Y-52054380D02*
X57396380Y-52721047D01*
X57396380Y-51149619D02*
X57396380Y-51721047D01*
X57396380Y-51435333D02*
X56396380Y-51435333D01*
X56539238Y-51530571D01*
X56634476Y-51625809D01*
X56682095Y-51721047D01*
X38211142Y-27769142D02*
X38163523Y-27816761D01*
X38020666Y-27864380D01*
X37925428Y-27864380D01*
X37782571Y-27816761D01*
X37687333Y-27721523D01*
X37639714Y-27626285D01*
X37592095Y-27435809D01*
X37592095Y-27292952D01*
X37639714Y-27102476D01*
X37687333Y-27007238D01*
X37782571Y-26912000D01*
X37925428Y-26864380D01*
X38020666Y-26864380D01*
X38163523Y-26912000D01*
X38211142Y-26959619D01*
X38401619Y-27959619D02*
X39163523Y-27959619D01*
X39592095Y-26864380D02*
X39687333Y-26864380D01*
X39782571Y-26912000D01*
X39830190Y-26959619D01*
X39877809Y-27054857D01*
X39925428Y-27245333D01*
X39925428Y-27483428D01*
X39877809Y-27673904D01*
X39830190Y-27769142D01*
X39782571Y-27816761D01*
X39687333Y-27864380D01*
X39592095Y-27864380D01*
X39496857Y-27816761D01*
X39449238Y-27769142D01*
X39401619Y-27673904D01*
X39354000Y-27483428D01*
X39354000Y-27245333D01*
X39401619Y-27054857D01*
X39449238Y-26959619D01*
X39496857Y-26912000D01*
X39592095Y-26864380D01*
X40354000Y-27769142D02*
X40401619Y-27816761D01*
X40354000Y-27864380D01*
X40306380Y-27816761D01*
X40354000Y-27769142D01*
X40354000Y-27864380D01*
X40782571Y-26959619D02*
X40830190Y-26912000D01*
X40925428Y-26864380D01*
X41163523Y-26864380D01*
X41258761Y-26912000D01*
X41306380Y-26959619D01*
X41354000Y-27054857D01*
X41354000Y-27150095D01*
X41306380Y-27292952D01*
X40734952Y-27864380D01*
X41354000Y-27864380D01*
X41734952Y-26959619D02*
X41782571Y-26912000D01*
X41877809Y-26864380D01*
X42115904Y-26864380D01*
X42211142Y-26912000D01*
X42258761Y-26959619D01*
X42306380Y-27054857D01*
X42306380Y-27150095D01*
X42258761Y-27292952D01*
X41687333Y-27864380D01*
X42306380Y-27864380D01*
X43068285Y-27340571D02*
X42734952Y-27340571D01*
X42734952Y-27864380D02*
X42734952Y-26864380D01*
X43211142Y-26864380D01*
X44115904Y-27864380D02*
X43544476Y-27864380D01*
X43830190Y-27864380D02*
X43830190Y-26864380D01*
X43734952Y-27007238D01*
X43639714Y-27102476D01*
X43544476Y-27150095D01*
X37528761Y-54459142D02*
X37481142Y-54506761D01*
X37338285Y-54554380D01*
X37243047Y-54554380D01*
X37100190Y-54506761D01*
X37004952Y-54411523D01*
X36957333Y-54316285D01*
X36909714Y-54125809D01*
X36909714Y-53982952D01*
X36957333Y-53792476D01*
X37004952Y-53697238D01*
X37100190Y-53602000D01*
X37243047Y-53554380D01*
X37338285Y-53554380D01*
X37481142Y-53602000D01*
X37528761Y-53649619D01*
X38528761Y-54459142D02*
X38481142Y-54506761D01*
X38338285Y-54554380D01*
X38243047Y-54554380D01*
X38100190Y-54506761D01*
X38004952Y-54411523D01*
X37957333Y-54316285D01*
X37909714Y-54125809D01*
X37909714Y-53982952D01*
X37957333Y-53792476D01*
X38004952Y-53697238D01*
X38100190Y-53602000D01*
X38243047Y-53554380D01*
X38338285Y-53554380D01*
X38481142Y-53602000D01*
X38528761Y-53649619D01*
X39481142Y-54554380D02*
X38909714Y-54554380D01*
X39195428Y-54554380D02*
X39195428Y-53554380D01*
X39100190Y-53697238D01*
X39004952Y-53792476D01*
X38909714Y-53840095D01*
X40433523Y-54554380D02*
X39862095Y-54554380D01*
X40147809Y-54554380D02*
X40147809Y-53554380D01*
X40052571Y-53697238D01*
X39957333Y-53792476D01*
X39862095Y-53840095D01*
X41052571Y-53554380D02*
X41147809Y-53554380D01*
X41243047Y-53602000D01*
X41290666Y-53649619D01*
X41338285Y-53744857D01*
X41385904Y-53935333D01*
X41385904Y-54173428D01*
X41338285Y-54363904D01*
X41290666Y-54459142D01*
X41243047Y-54506761D01*
X41147809Y-54554380D01*
X41052571Y-54554380D01*
X40957333Y-54506761D01*
X40909714Y-54459142D01*
X40862095Y-54363904D01*
X40814476Y-54173428D01*
X40814476Y-53935333D01*
X40862095Y-53744857D01*
X40909714Y-53649619D01*
X40957333Y-53602000D01*
X41052571Y-53554380D01*
X42338285Y-54554380D02*
X41766857Y-54554380D01*
X42052571Y-54554380D02*
X42052571Y-53554380D01*
X41957333Y-53697238D01*
X41862095Y-53792476D01*
X41766857Y-53840095D01*
X51736857Y-21604380D02*
X51736857Y-20604380D01*
X52784476Y-21604380D02*
X52451142Y-21128190D01*
X52213047Y-21604380D02*
X52213047Y-20604380D01*
X52594000Y-20604380D01*
X52689238Y-20652000D01*
X52736857Y-20699619D01*
X52784476Y-20794857D01*
X52784476Y-20937714D01*
X52736857Y-21032952D01*
X52689238Y-21080571D01*
X52594000Y-21128190D01*
X52213047Y-21128190D01*
X52974952Y-21699619D02*
X53736857Y-21699619D01*
X53974952Y-21604380D02*
X53974952Y-20604380D01*
X54213047Y-20604380D01*
X54355904Y-20652000D01*
X54451142Y-20747238D01*
X54498761Y-20842476D01*
X54546380Y-21032952D01*
X54546380Y-21175809D01*
X54498761Y-21366285D01*
X54451142Y-21461523D01*
X54355904Y-21556761D01*
X54213047Y-21604380D01*
X53974952Y-21604380D01*
X55498761Y-21604380D02*
X54927333Y-21604380D01*
X55213047Y-21604380D02*
X55213047Y-20604380D01*
X55117809Y-20747238D01*
X55022571Y-20842476D01*
X54927333Y-20890095D01*
X50162095Y-24074380D02*
X50162095Y-23074380D01*
X50733523Y-24074380D02*
X50304952Y-23502952D01*
X50733523Y-23074380D02*
X50162095Y-23645809D01*
X59356857Y-26544380D02*
X59356857Y-25544380D01*
X60404476Y-26544380D02*
X60071142Y-26068190D01*
X59833047Y-26544380D02*
X59833047Y-25544380D01*
X60214000Y-25544380D01*
X60309238Y-25592000D01*
X60356857Y-25639619D01*
X60404476Y-25734857D01*
X60404476Y-25877714D01*
X60356857Y-25972952D01*
X60309238Y-26020571D01*
X60214000Y-26068190D01*
X59833047Y-26068190D01*
X60594952Y-26639619D02*
X61356857Y-26639619D01*
X61594952Y-26544380D02*
X61594952Y-25544380D01*
X61833047Y-25544380D01*
X61975904Y-25592000D01*
X62071142Y-25687238D01*
X62118761Y-25782476D01*
X62166380Y-25972952D01*
X62166380Y-26115809D01*
X62118761Y-26306285D01*
X62071142Y-26401523D01*
X61975904Y-26496761D01*
X61833047Y-26544380D01*
X61594952Y-26544380D01*
X62547333Y-25639619D02*
X62594952Y-25592000D01*
X62690190Y-25544380D01*
X62928285Y-25544380D01*
X63023523Y-25592000D01*
X63071142Y-25639619D01*
X63118761Y-25734857D01*
X63118761Y-25830095D01*
X63071142Y-25972952D01*
X62499714Y-26544380D01*
X63118761Y-26544380D01*
X64122095Y-24074380D02*
X64122095Y-23074380D01*
X64693523Y-24074380D02*
X64264952Y-23502952D01*
X64693523Y-23074380D02*
X64122095Y-23645809D01*
X37655904Y-68064380D02*
X37655904Y-67064380D01*
X38703523Y-68064380D02*
X38370190Y-67588190D01*
X38132095Y-68064380D02*
X38132095Y-67064380D01*
X38513047Y-67064380D01*
X38608285Y-67112000D01*
X38655904Y-67159619D01*
X38703523Y-67254857D01*
X38703523Y-67397714D01*
X38655904Y-67492952D01*
X38608285Y-67540571D01*
X38513047Y-67588190D01*
X38132095Y-67588190D01*
X38894000Y-68159619D02*
X39655904Y-68159619D01*
X39894000Y-68064380D02*
X39894000Y-67064380D01*
X40370190Y-67397714D02*
X40370190Y-68064380D01*
X40370190Y-67492952D02*
X40417809Y-67445333D01*
X40513047Y-67397714D01*
X40655904Y-67397714D01*
X40751142Y-67445333D01*
X40798761Y-67540571D01*
X40798761Y-68064380D01*
X41274952Y-67397714D02*
X41274952Y-68397714D01*
X41274952Y-67445333D02*
X41370190Y-67397714D01*
X41560666Y-67397714D01*
X41655904Y-67445333D01*
X41703523Y-67492952D01*
X41751142Y-67588190D01*
X41751142Y-67873904D01*
X41703523Y-67969142D01*
X41655904Y-68016761D01*
X41560666Y-68064380D01*
X41370190Y-68064380D01*
X41274952Y-68016761D01*
X42608285Y-67397714D02*
X42608285Y-68064380D01*
X42179714Y-67397714D02*
X42179714Y-67921523D01*
X42227333Y-68016761D01*
X42322571Y-68064380D01*
X42465428Y-68064380D01*
X42560666Y-68016761D01*
X42608285Y-67969142D01*
X42941619Y-67397714D02*
X43322571Y-67397714D01*
X43084476Y-67064380D02*
X43084476Y-67921523D01*
X43132095Y-68016761D01*
X43227333Y-68064380D01*
X43322571Y-68064380D01*
X44179714Y-68064380D02*
X43608285Y-68064380D01*
X43894000Y-68064380D02*
X43894000Y-67064380D01*
X43798761Y-67207238D01*
X43703523Y-67302476D01*
X43608285Y-67350095D01*
X33377333Y-21109380D02*
X32901142Y-21109380D01*
X32901142Y-20109380D01*
X33710666Y-21109380D02*
X33710666Y-20109380D01*
X33948761Y-20109380D01*
X34091619Y-20157000D01*
X34186857Y-20252238D01*
X34234476Y-20347476D01*
X34282095Y-20537952D01*
X34282095Y-20680809D01*
X34234476Y-20871285D01*
X34186857Y-20966523D01*
X34091619Y-21061761D01*
X33948761Y-21109380D01*
X33710666Y-21109380D01*
X35282095Y-21109380D02*
X34948761Y-20633190D01*
X34710666Y-21109380D02*
X34710666Y-20109380D01*
X35091619Y-20109380D01*
X35186857Y-20157000D01*
X35234476Y-20204619D01*
X35282095Y-20299857D01*
X35282095Y-20442714D01*
X35234476Y-20537952D01*
X35186857Y-20585571D01*
X35091619Y-20633190D01*
X34710666Y-20633190D01*
X36234476Y-21109380D02*
X35663047Y-21109380D01*
X35948761Y-21109380D02*
X35948761Y-20109380D01*
X35853523Y-20252238D01*
X35758285Y-20347476D01*
X35663047Y-20395095D01*
X56348761Y-29964380D02*
X56348761Y-28964380D01*
X56729714Y-28964380D01*
X56824952Y-29012000D01*
X56872571Y-29059619D01*
X56920190Y-29154857D01*
X56920190Y-29297714D01*
X56872571Y-29392952D01*
X56824952Y-29440571D01*
X56729714Y-29488190D01*
X56348761Y-29488190D01*
X57348761Y-29964380D02*
X57348761Y-28964380D01*
X57920190Y-29964380D01*
X57920190Y-28964380D01*
X58348761Y-29059619D02*
X58396380Y-29012000D01*
X58491619Y-28964380D01*
X58729714Y-28964380D01*
X58824952Y-29012000D01*
X58872571Y-29059619D01*
X58920190Y-29154857D01*
X58920190Y-29250095D01*
X58872571Y-29392952D01*
X58301142Y-29964380D01*
X58920190Y-29964380D01*
X59301142Y-29059619D02*
X59348761Y-29012000D01*
X59444000Y-28964380D01*
X59682095Y-28964380D01*
X59777333Y-29012000D01*
X59824952Y-29059619D01*
X59872571Y-29154857D01*
X59872571Y-29250095D01*
X59824952Y-29392952D01*
X59253523Y-29964380D01*
X59872571Y-29964380D01*
X60253523Y-29059619D02*
X60301142Y-29012000D01*
X60396380Y-28964380D01*
X60634476Y-28964380D01*
X60729714Y-29012000D01*
X60777333Y-29059619D01*
X60824952Y-29154857D01*
X60824952Y-29250095D01*
X60777333Y-29392952D01*
X60205904Y-29964380D01*
X60824952Y-29964380D01*
X61205904Y-29059619D02*
X61253523Y-29012000D01*
X61348761Y-28964380D01*
X61586857Y-28964380D01*
X61682095Y-29012000D01*
X61729714Y-29059619D01*
X61777333Y-29154857D01*
X61777333Y-29250095D01*
X61729714Y-29392952D01*
X61158285Y-29964380D01*
X61777333Y-29964380D01*
X62158285Y-29678666D02*
X62634476Y-29678666D01*
X62063047Y-29964380D02*
X62396380Y-28964380D01*
X62729714Y-29964380D01*
X63586857Y-29964380D02*
X63015428Y-29964380D01*
X63301142Y-29964380D02*
X63301142Y-28964380D01*
X63205904Y-29107238D01*
X63110666Y-29202476D01*
X63015428Y-29250095D01*
X55880190Y-40159380D02*
X55546857Y-39683190D01*
X55308761Y-40159380D02*
X55308761Y-39159380D01*
X55689714Y-39159380D01*
X55784952Y-39207000D01*
X55832571Y-39254619D01*
X55880190Y-39349857D01*
X55880190Y-39492714D01*
X55832571Y-39587952D01*
X55784952Y-39635571D01*
X55689714Y-39683190D01*
X55308761Y-39683190D01*
X56832571Y-40159380D02*
X56261142Y-40159380D01*
X56546857Y-40159380D02*
X56546857Y-39159380D01*
X56451619Y-39302238D01*
X56356380Y-39397476D01*
X56261142Y-39445095D01*
X57451619Y-39159380D02*
X57546857Y-39159380D01*
X57642095Y-39207000D01*
X57689714Y-39254619D01*
X57737333Y-39349857D01*
X57784952Y-39540333D01*
X57784952Y-39778428D01*
X57737333Y-39968904D01*
X57689714Y-40064142D01*
X57642095Y-40111761D01*
X57546857Y-40159380D01*
X57451619Y-40159380D01*
X57356380Y-40111761D01*
X57308761Y-40064142D01*
X57261142Y-39968904D01*
X57213523Y-39778428D01*
X57213523Y-39540333D01*
X57261142Y-39349857D01*
X57308761Y-39254619D01*
X57356380Y-39207000D01*
X57451619Y-39159380D01*
X58213523Y-40159380D02*
X58213523Y-39159380D01*
X58308761Y-39778428D02*
X58594476Y-40159380D01*
X58594476Y-39492714D02*
X58213523Y-39873666D01*
X59546857Y-40159380D02*
X58975428Y-40159380D01*
X59261142Y-40159380D02*
X59261142Y-39159380D01*
X59165904Y-39302238D01*
X59070666Y-39397476D01*
X58975428Y-39445095D01*
X77636380Y-28471523D02*
X77636380Y-27900095D01*
X78636380Y-28185809D02*
X77636380Y-28185809D01*
X78588761Y-27185809D02*
X78636380Y-27281047D01*
X78636380Y-27471523D01*
X78588761Y-27566761D01*
X78493523Y-27614380D01*
X78112571Y-27614380D01*
X78017333Y-27566761D01*
X77969714Y-27471523D01*
X77969714Y-27281047D01*
X78017333Y-27185809D01*
X78112571Y-27138190D01*
X78207809Y-27138190D01*
X78303047Y-27614380D01*
X78636380Y-26709619D02*
X77969714Y-26709619D01*
X78064952Y-26709619D02*
X78017333Y-26662000D01*
X77969714Y-26566761D01*
X77969714Y-26423904D01*
X78017333Y-26328666D01*
X78112571Y-26281047D01*
X78636380Y-26281047D01*
X78112571Y-26281047D02*
X78017333Y-26233428D01*
X77969714Y-26138190D01*
X77969714Y-25995333D01*
X78017333Y-25900095D01*
X78112571Y-25852476D01*
X78636380Y-25852476D01*
X77969714Y-25376285D02*
X78969714Y-25376285D01*
X78017333Y-25376285D02*
X77969714Y-25281047D01*
X77969714Y-25090571D01*
X78017333Y-24995333D01*
X78064952Y-24947714D01*
X78160190Y-24900095D01*
X78445904Y-24900095D01*
X78541142Y-24947714D01*
X78588761Y-24995333D01*
X78636380Y-25090571D01*
X78636380Y-25281047D01*
X78588761Y-25376285D01*
X78636380Y-23947714D02*
X78636380Y-24519142D01*
X78636380Y-24233428D02*
X77636380Y-24233428D01*
X77779238Y-24328666D01*
X77874476Y-24423904D01*
X77922095Y-24519142D01*
M02*
