M48
;DRILL file {KiCad (5.0.0-rc2-dev-482-gf81c77cd4)} date Mon Apr 23 16:38:14 2018
;FORMAT={-:-/ absolute / inch / decimal}
FMAT,2
INCH,TZ
T1C0.0276
T2C0.0394
T3C0.0433
T4C0.0472
T5C0.0512
%
G90
G05
M72
T1
X2.26Y-1.63
X2.56Y-1.63
X1.26Y-0.93
X1.46Y-0.93
T2
X2.21Y-0.88
X2.21Y-0.98
X0.86Y-0.93
X0.86Y-1.03
X0.86Y-1.13
X0.86Y-1.23
X0.86Y-1.33
X0.86Y-1.43
X0.86Y-1.53
X0.86Y-1.63
X0.86Y-1.73
X0.86Y-1.83
X0.86Y-1.93
X0.86Y-2.03
X0.86Y-2.13
X0.86Y-2.23
X0.86Y-2.33
X0.86Y-2.43
X0.86Y-2.53
X0.86Y-2.63
X0.86Y-2.73
X0.86Y-2.83
X0.96Y-0.93
X0.96Y-1.03
X0.96Y-1.13
X0.96Y-1.23
X0.96Y-1.33
X0.96Y-1.43
X0.96Y-1.53
X0.96Y-1.63
X0.96Y-1.73
X0.96Y-1.83
X0.96Y-1.93
X0.96Y-2.03
X0.96Y-2.13
X0.96Y-2.23
X0.96Y-2.33
X0.96Y-2.43
X0.96Y-2.53
X0.96Y-2.63
X0.96Y-2.73
X0.96Y-2.83
X2.01Y-0.88
X2.01Y-0.98
T3
X2.91Y-0.88
X2.91Y-0.98
X2.91Y-1.08
X2.91Y-1.18
X2.41Y-2.03
X2.41Y-2.13
X2.41Y-2.23
X2.26Y-1.33
X2.36Y-1.33
X2.46Y-1.33
X2.91Y-1.63
X2.91Y-1.73
X2.91Y-1.83
X2.91Y-1.93
X1.51Y-2.785
X1.61Y-2.785
X1.71Y-2.785
T4
X1.186Y-1.8544
X1.186Y-1.9331
X1.186Y-2.0119
X1.186Y-2.0906
X1.186Y-2.1694
X1.186Y-2.2481
X1.186Y-2.3269
X1.186Y-2.4056
X1.934Y-2.0709
X1.934Y-2.1694
X1.934Y-2.2678
T5
X1.51Y-1.33
X1.7069Y-1.33
T0
M30
