G04 #@! TF.GenerationSoftware,KiCad,Pcbnew,(5.0.0-rc2-dev-482-gf81c77cd4)*
G04 #@! TF.CreationDate,2018-06-08T20:02:40+02:00*
G04 #@! TF.ProjectId,ha_plattform,68615F706C617474666F726D2E6B6963,rev?*
G04 #@! TF.SameCoordinates,Original*
G04 #@! TF.FileFunction,Copper,L1,Top,Signal*
G04 #@! TF.FilePolarity,Positive*
%FSLAX46Y46*%
G04 Gerber Fmt 4.6, Leading zero omitted, Abs format (unit mm)*
G04 Created by KiCad (PCBNEW (5.0.0-rc2-dev-482-gf81c77cd4)) date Fri Jun  8 20:02:40 2018*
%MOMM*%
%LPD*%
G01*
G04 APERTURE LIST*
%ADD10R,1.600000X1.600000*%
%ADD11C,1.600000*%
%ADD12R,1.800000X1.800000*%
%ADD13C,1.800000*%
%ADD14O,1.750000X1.300000*%
%ADD15C,1.750000*%
%ADD16O,1.700000X1.700000*%
%ADD17R,1.700000X1.700000*%
%ADD18O,2.032000X1.727200*%
%ADD19R,2.032000X1.727200*%
%ADD20R,1.727200X2.032000*%
%ADD21O,1.727200X2.032000*%
%ADD22R,2.000000X1.905000*%
%ADD23O,2.000000X1.905000*%
%ADD24C,1.400000*%
%ADD25O,1.400000X1.400000*%
%ADD26R,1.905000X2.000000*%
%ADD27O,1.905000X2.000000*%
%ADD28C,1.270000*%
%ADD29C,0.250000*%
G04 APERTURE END LIST*
D10*
X53040000Y-71450000D03*
D11*
X55540000Y-71450000D03*
D12*
X40010000Y-21460000D03*
D13*
X37470000Y-21460000D03*
D12*
X45730000Y-21410000D03*
D13*
X43190000Y-21410000D03*
D14*
X59230000Y-55510000D03*
X59230000Y-53510000D03*
X59230000Y-51510000D03*
X59230000Y-49510000D03*
X59230000Y-47510000D03*
X59230000Y-45510000D03*
X59230000Y-43510000D03*
X59230000Y-41510000D03*
D15*
X40230000Y-45010000D03*
X40230000Y-47510000D03*
X40230000Y-50010000D03*
D16*
X71690000Y-71700000D03*
X69150000Y-71700000D03*
X71690000Y-69160000D03*
X69150000Y-69160000D03*
X71690000Y-66620000D03*
X69150000Y-66620000D03*
X71690000Y-64080000D03*
X69150000Y-64080000D03*
X71690000Y-61540000D03*
X69150000Y-61540000D03*
X71690000Y-59000000D03*
X69150000Y-59000000D03*
X71690000Y-56460000D03*
X69150000Y-56460000D03*
X71690000Y-53920000D03*
X69150000Y-53920000D03*
X71690000Y-51380000D03*
X69150000Y-51380000D03*
X71690000Y-48840000D03*
X69150000Y-48840000D03*
X71690000Y-46300000D03*
X69150000Y-46300000D03*
X71690000Y-43760000D03*
X69150000Y-43760000D03*
X71690000Y-41220000D03*
X69150000Y-41220000D03*
X71690000Y-38680000D03*
X69150000Y-38680000D03*
X71690000Y-36140000D03*
X69150000Y-36140000D03*
X71690000Y-33600000D03*
X69150000Y-33600000D03*
X71690000Y-31060000D03*
X69150000Y-31060000D03*
X71690000Y-28520000D03*
X69150000Y-28520000D03*
X71690000Y-25980000D03*
X69150000Y-25980000D03*
X71690000Y-23440000D03*
D17*
X69150000Y-23440000D03*
D18*
X27754229Y-42900707D03*
X27754229Y-45440707D03*
X27754229Y-47980707D03*
D19*
X27754229Y-50520707D03*
D20*
X38150000Y-71360000D03*
D21*
X35610000Y-71360000D03*
X33070000Y-71360000D03*
D22*
X63700000Y-70310000D03*
D23*
X63700000Y-67770000D03*
X63700000Y-65230000D03*
D24*
X41830000Y-64440000D03*
D25*
X46910000Y-64440000D03*
D26*
X30340000Y-24520000D03*
D27*
X27800000Y-24520000D03*
X25260000Y-24520000D03*
D24*
X30480000Y-29390000D03*
D25*
X22860000Y-29390000D03*
X30730000Y-33470000D03*
D24*
X23110000Y-33470000D03*
D23*
X62360000Y-25170000D03*
X62360000Y-27710000D03*
X62360000Y-30250000D03*
D22*
X62360000Y-32790000D03*
D28*
X34527010Y-31492990D02*
X34910000Y-31110000D01*
X34527010Y-31492990D02*
X35482990Y-30537010D01*
X43810000Y-32190000D02*
X46355980Y-34735980D01*
X42157010Y-30537010D02*
X43810000Y-32190000D01*
X35482990Y-30537010D02*
X42157010Y-30537010D01*
X46355980Y-34735980D02*
X67595980Y-34735980D01*
D29*
X67595980Y-34735980D02*
X68555980Y-34735980D01*
X68555980Y-34735980D02*
X68680000Y-34860000D01*
X70410000Y-34860000D02*
X71690000Y-36140000D01*
X68680000Y-34860000D02*
X70410000Y-34860000D01*
D28*
X39125670Y-58920000D02*
X34527010Y-54321340D01*
X39160000Y-58920000D02*
X39125670Y-58920000D01*
X34527010Y-35119596D02*
X34527010Y-31492990D01*
X34527010Y-54321340D02*
X34527010Y-35119596D01*
X46910000Y-64440000D02*
X44680000Y-64440000D01*
X44680000Y-64440000D02*
X39160000Y-58920000D01*
X59230000Y-41510000D02*
X62564330Y-41510000D01*
X64180000Y-43125670D02*
X64180000Y-47404330D01*
X62564330Y-41510000D02*
X64180000Y-43125670D01*
X64180000Y-47404330D02*
X64218660Y-47442990D01*
X64218660Y-47442990D02*
X67500000Y-47442990D01*
D29*
X70690000Y-50380000D02*
X71690000Y-51380000D01*
X70410000Y-50100000D02*
X70690000Y-50380000D01*
X67607010Y-47550000D02*
X69826960Y-47550000D01*
X67500000Y-47442990D02*
X67607010Y-47550000D01*
X69826960Y-47550000D02*
X70252001Y-47975041D01*
X70252001Y-47975041D02*
X70252001Y-47992001D01*
X70252001Y-47992001D02*
X70410000Y-48150000D01*
X70410000Y-48150000D02*
X70410000Y-50100000D01*
D28*
X69150000Y-48840000D02*
X63640000Y-48840000D01*
X62310000Y-47510000D02*
X59230000Y-47510000D01*
X63640000Y-48840000D02*
X62310000Y-47510000D01*
X67947919Y-51380000D02*
X69150000Y-51380000D01*
X63245000Y-51380000D02*
X67947919Y-51380000D01*
X61375000Y-49510000D02*
X63245000Y-51380000D01*
X59230000Y-49510000D02*
X61375000Y-49510000D01*
X26070000Y-21490000D02*
X25260000Y-22300000D01*
X25260000Y-22300000D02*
X25260000Y-24520000D01*
D29*
X73162990Y-25709091D02*
X73162990Y-22150000D01*
X72892081Y-25980000D02*
X73162990Y-25709091D01*
X71690000Y-25980000D02*
X72892081Y-25980000D01*
D28*
X33130000Y-54900000D02*
X39220000Y-60990000D01*
X33130001Y-30914329D02*
X34904330Y-29140000D01*
X33130000Y-34540936D02*
X33130001Y-30914329D01*
X39220000Y-60990000D02*
X39254330Y-60990000D01*
X41130001Y-62900001D02*
X39220000Y-60990000D01*
X41130001Y-63740001D02*
X41130001Y-62900001D01*
X41830000Y-64440000D02*
X41130001Y-63740001D01*
X33070000Y-68870000D02*
X33070000Y-71360000D01*
X35377600Y-68840000D02*
X33100000Y-68840000D01*
X35407600Y-68870000D02*
X35377600Y-68840000D01*
X35648641Y-68870000D02*
X35407600Y-68870000D01*
X33100000Y-68840000D02*
X33070000Y-68870000D01*
X67947919Y-64080000D02*
X66347919Y-62480000D01*
X69150000Y-64080000D02*
X67947919Y-64080000D01*
X53750000Y-62480000D02*
X47550000Y-68680000D01*
X66347919Y-62480000D02*
X53750000Y-62480000D01*
X47550000Y-68680000D02*
X35838641Y-68680000D01*
X35838641Y-68680000D02*
X35648641Y-68870000D01*
D29*
X70430000Y-60280000D02*
X71690000Y-61540000D01*
X68480000Y-60280000D02*
X70430000Y-60280000D01*
X66926579Y-61082990D02*
X67677010Y-61082990D01*
X67677010Y-61082990D02*
X68480000Y-60280000D01*
D28*
X66492990Y-36132990D02*
X67570000Y-37210000D01*
D29*
X67810000Y-37450000D02*
X67570000Y-37210000D01*
X71690000Y-38680000D02*
X70460000Y-37450000D01*
X70460000Y-37450000D02*
X67810000Y-37450000D01*
D28*
X71690000Y-73990000D02*
X71690000Y-71700000D01*
X71720000Y-74020000D02*
X71690000Y-73990000D01*
X64867010Y-74020000D02*
X71720000Y-74020000D01*
X63700000Y-70310000D02*
X63700000Y-72852990D01*
X63700000Y-72852990D02*
X64867010Y-74020000D01*
X33023697Y-44043697D02*
X33130000Y-44150000D01*
X29503697Y-44043697D02*
X33023697Y-44043697D01*
X28360707Y-42900707D02*
X29503697Y-44043697D01*
X27754229Y-42900707D02*
X28360707Y-42900707D01*
X33130000Y-34540936D02*
X33130000Y-44150000D01*
X33130000Y-44150000D02*
X33130000Y-54900000D01*
X27800000Y-24567500D02*
X27770000Y-24597500D01*
X27800000Y-24520000D02*
X27800000Y-24567500D01*
X27770000Y-24597500D02*
X27770000Y-27120000D01*
X25500000Y-29390000D02*
X22860000Y-29390000D01*
X27770000Y-27120000D02*
X25500000Y-29390000D01*
X53171340Y-61082990D02*
X46971340Y-67282990D01*
X66926579Y-61082990D02*
X53171340Y-61082990D01*
X36910000Y-67282990D02*
X36910000Y-60655670D01*
X36910000Y-60655670D02*
X31732990Y-55478660D01*
X46971340Y-67282990D02*
X36910000Y-67282990D01*
X27754229Y-45440707D02*
X31683697Y-45440707D01*
X31732990Y-45490000D02*
X31732990Y-55478660D01*
X31683697Y-45440707D02*
X31732990Y-45490000D01*
X43730000Y-53510000D02*
X40230000Y-50010000D01*
X59230000Y-53510000D02*
X43730000Y-53510000D01*
X26070000Y-21490000D02*
X31520000Y-21490000D01*
X31520000Y-21490000D02*
X34310000Y-24280000D01*
X40010000Y-23630000D02*
X40010000Y-21460000D01*
X39360000Y-24280000D02*
X40010000Y-23630000D01*
X34310000Y-24280000D02*
X39360000Y-24280000D01*
X43190000Y-28740000D02*
X43590000Y-29140000D01*
X43190000Y-21410000D02*
X43190000Y-28740000D01*
X34904330Y-29140000D02*
X43590000Y-29140000D01*
X56882990Y-20837010D02*
X73162990Y-20837010D01*
X43590000Y-29140000D02*
X48580000Y-29140000D01*
X73162990Y-20837010D02*
X73162990Y-22150000D01*
X48580000Y-29140000D02*
X56882990Y-20837010D01*
X30272183Y-24520000D02*
X29880000Y-24912183D01*
X30340000Y-24520000D02*
X30272183Y-24520000D01*
X29880000Y-26985670D02*
X26078660Y-30787010D01*
X26078660Y-30787010D02*
X24262990Y-30787010D01*
X23110000Y-31940000D02*
X23110000Y-33470000D01*
X24262990Y-30787010D02*
X23110000Y-31940000D01*
X30340000Y-26790000D02*
X30340000Y-24520000D01*
X30144330Y-26985670D02*
X30340000Y-26790000D01*
X29880000Y-26985670D02*
X30144330Y-26985670D01*
X55540000Y-72581370D02*
X55540000Y-71450000D01*
X47128398Y-71360000D02*
X49931388Y-74162990D01*
X53958380Y-74162990D02*
X55540000Y-72581370D01*
X49931388Y-74162990D02*
X53958380Y-74162990D01*
X38150000Y-71360000D02*
X47128398Y-71360000D01*
X47869574Y-36132990D02*
X48080000Y-36132990D01*
X40230000Y-43772564D02*
X47869574Y-36132990D01*
X40230000Y-45010000D02*
X40230000Y-43772564D01*
X48080000Y-36132990D02*
X66492990Y-36132990D01*
X67030000Y-23440000D02*
X69150000Y-23440000D01*
X64630000Y-30567500D02*
X64630000Y-25840000D01*
X64630000Y-25840000D02*
X67030000Y-23440000D01*
X62407500Y-32790000D02*
X64630000Y-30567500D01*
X62360000Y-32790000D02*
X62407500Y-32790000D01*
M02*
