G04 #@! TF.GenerationSoftware,KiCad,Pcbnew,(5.0.0-rc2-dev-482-gf81c77cd4)*
G04 #@! TF.CreationDate,2018-06-29T22:25:28+02:00*
G04 #@! TF.ProjectId,ha_plattform,68615F706C617474666F726D2E6B6963,rev?*
G04 #@! TF.SameCoordinates,Original*
G04 #@! TF.FileFunction,Legend,Top*
G04 #@! TF.FilePolarity,Positive*
%FSLAX46Y46*%
G04 Gerber Fmt 4.6, Leading zero omitted, Abs format (unit mm)*
G04 Created by KiCad (PCBNEW (5.0.0-rc2-dev-482-gf81c77cd4)) date Fri Jun 29 22:25:28 2018*
%MOMM*%
%LPD*%
G01*
G04 APERTURE LIST*
%ADD10C,0.100000*%
%ADD11C,0.120000*%
%ADD12C,0.150000*%
%ADD13C,0.010000*%
G04 APERTURE END LIST*
D10*
X21762380Y-58621428D02*
X20762380Y-58621428D01*
X21238571Y-58621428D02*
X21238571Y-58050000D01*
X21762380Y-58050000D02*
X20762380Y-58050000D01*
X21476666Y-57621428D02*
X21476666Y-57145238D01*
X21762380Y-57716666D02*
X20762380Y-57383333D01*
X21762380Y-57050000D01*
X21762380Y-55954761D02*
X20762380Y-55954761D01*
X20762380Y-55573809D01*
X20810000Y-55478571D01*
X20857619Y-55430952D01*
X20952857Y-55383333D01*
X21095714Y-55383333D01*
X21190952Y-55430952D01*
X21238571Y-55478571D01*
X21286190Y-55573809D01*
X21286190Y-55954761D01*
X21762380Y-54811904D02*
X21714761Y-54907142D01*
X21619523Y-54954761D01*
X20762380Y-54954761D01*
X21762380Y-54002380D02*
X21238571Y-54002380D01*
X21143333Y-54050000D01*
X21095714Y-54145238D01*
X21095714Y-54335714D01*
X21143333Y-54430952D01*
X21714761Y-54002380D02*
X21762380Y-54097619D01*
X21762380Y-54335714D01*
X21714761Y-54430952D01*
X21619523Y-54478571D01*
X21524285Y-54478571D01*
X21429047Y-54430952D01*
X21381428Y-54335714D01*
X21381428Y-54097619D01*
X21333809Y-54002380D01*
X21095714Y-53669047D02*
X21095714Y-53288095D01*
X20762380Y-53526190D02*
X21619523Y-53526190D01*
X21714761Y-53478571D01*
X21762380Y-53383333D01*
X21762380Y-53288095D01*
X21095714Y-53097619D02*
X21095714Y-52716666D01*
X20762380Y-52954761D02*
X21619523Y-52954761D01*
X21714761Y-52907142D01*
X21762380Y-52811904D01*
X21762380Y-52716666D01*
X21095714Y-52526190D02*
X21095714Y-52145238D01*
X21762380Y-52383333D02*
X20905238Y-52383333D01*
X20810000Y-52335714D01*
X20762380Y-52240476D01*
X20762380Y-52145238D01*
X21762380Y-51669047D02*
X21714761Y-51764285D01*
X21667142Y-51811904D01*
X21571904Y-51859523D01*
X21286190Y-51859523D01*
X21190952Y-51811904D01*
X21143333Y-51764285D01*
X21095714Y-51669047D01*
X21095714Y-51526190D01*
X21143333Y-51430952D01*
X21190952Y-51383333D01*
X21286190Y-51335714D01*
X21571904Y-51335714D01*
X21667142Y-51383333D01*
X21714761Y-51430952D01*
X21762380Y-51526190D01*
X21762380Y-51669047D01*
X21762380Y-50907142D02*
X21095714Y-50907142D01*
X21286190Y-50907142D02*
X21190952Y-50859523D01*
X21143333Y-50811904D01*
X21095714Y-50716666D01*
X21095714Y-50621428D01*
X21762380Y-50288095D02*
X21095714Y-50288095D01*
X21190952Y-50288095D02*
X21143333Y-50240476D01*
X21095714Y-50145238D01*
X21095714Y-50002380D01*
X21143333Y-49907142D01*
X21238571Y-49859523D01*
X21762380Y-49859523D01*
X21238571Y-49859523D02*
X21143333Y-49811904D01*
X21095714Y-49716666D01*
X21095714Y-49573809D01*
X21143333Y-49478571D01*
X21238571Y-49430952D01*
X21762380Y-49430952D01*
X20762380Y-48335714D02*
X21762380Y-48002380D01*
X20762380Y-47669047D01*
X20762380Y-47145238D02*
X20762380Y-47050000D01*
X20810000Y-46954761D01*
X20857619Y-46907142D01*
X20952857Y-46859523D01*
X21143333Y-46811904D01*
X21381428Y-46811904D01*
X21571904Y-46859523D01*
X21667142Y-46907142D01*
X21714761Y-46954761D01*
X21762380Y-47050000D01*
X21762380Y-47145238D01*
X21714761Y-47240476D01*
X21667142Y-47288095D01*
X21571904Y-47335714D01*
X21381428Y-47383333D01*
X21143333Y-47383333D01*
X20952857Y-47335714D01*
X20857619Y-47288095D01*
X20810000Y-47240476D01*
X20762380Y-47145238D01*
X21667142Y-46383333D02*
X21714761Y-46335714D01*
X21762380Y-46383333D01*
X21714761Y-46430952D01*
X21667142Y-46383333D01*
X21762380Y-46383333D01*
X21095714Y-45478571D02*
X21762380Y-45478571D01*
X20714761Y-45716666D02*
X21429047Y-45954761D01*
X21429047Y-45335714D01*
X22143333Y-43907142D02*
X22095714Y-43954761D01*
X21952857Y-44050000D01*
X21857619Y-44097619D01*
X21714761Y-44145238D01*
X21476666Y-44192857D01*
X21286190Y-44192857D01*
X21048095Y-44145238D01*
X20905238Y-44097619D01*
X20810000Y-44050000D01*
X20667142Y-43954761D01*
X20619523Y-43907142D01*
X21714761Y-43097619D02*
X21762380Y-43192857D01*
X21762380Y-43383333D01*
X21714761Y-43478571D01*
X21667142Y-43526190D01*
X21571904Y-43573809D01*
X21286190Y-43573809D01*
X21190952Y-43526190D01*
X21143333Y-43478571D01*
X21095714Y-43383333D01*
X21095714Y-43192857D01*
X21143333Y-43097619D01*
X22143333Y-42764285D02*
X22095714Y-42716666D01*
X21952857Y-42621428D01*
X21857619Y-42573809D01*
X21714761Y-42526190D01*
X21476666Y-42478571D01*
X21286190Y-42478571D01*
X21048095Y-42526190D01*
X20905238Y-42573809D01*
X20810000Y-42621428D01*
X20667142Y-42716666D01*
X20619523Y-42764285D01*
X20857619Y-41288095D02*
X20810000Y-41240476D01*
X20762380Y-41145238D01*
X20762380Y-40907142D01*
X20810000Y-40811904D01*
X20857619Y-40764285D01*
X20952857Y-40716666D01*
X21048095Y-40716666D01*
X21190952Y-40764285D01*
X21762380Y-41335714D01*
X21762380Y-40716666D01*
X20762380Y-40097619D02*
X20762380Y-40002380D01*
X20810000Y-39907142D01*
X20857619Y-39859523D01*
X20952857Y-39811904D01*
X21143333Y-39764285D01*
X21381428Y-39764285D01*
X21571904Y-39811904D01*
X21667142Y-39859523D01*
X21714761Y-39907142D01*
X21762380Y-40002380D01*
X21762380Y-40097619D01*
X21714761Y-40192857D01*
X21667142Y-40240476D01*
X21571904Y-40288095D01*
X21381428Y-40335714D01*
X21143333Y-40335714D01*
X20952857Y-40288095D01*
X20857619Y-40240476D01*
X20810000Y-40192857D01*
X20762380Y-40097619D01*
X21762380Y-38811904D02*
X21762380Y-39383333D01*
X21762380Y-39097619D02*
X20762380Y-39097619D01*
X20905238Y-39192857D01*
X21000476Y-39288095D01*
X21048095Y-39383333D01*
X21190952Y-38240476D02*
X21143333Y-38335714D01*
X21095714Y-38383333D01*
X21000476Y-38430952D01*
X20952857Y-38430952D01*
X20857619Y-38383333D01*
X20810000Y-38335714D01*
X20762380Y-38240476D01*
X20762380Y-38050000D01*
X20810000Y-37954761D01*
X20857619Y-37907142D01*
X20952857Y-37859523D01*
X21000476Y-37859523D01*
X21095714Y-37907142D01*
X21143333Y-37954761D01*
X21190952Y-38050000D01*
X21190952Y-38240476D01*
X21238571Y-38335714D01*
X21286190Y-38383333D01*
X21381428Y-38430952D01*
X21571904Y-38430952D01*
X21667142Y-38383333D01*
X21714761Y-38335714D01*
X21762380Y-38240476D01*
X21762380Y-38050000D01*
X21714761Y-37954761D01*
X21667142Y-37907142D01*
X21571904Y-37859523D01*
X21381428Y-37859523D01*
X21286190Y-37907142D01*
X21238571Y-37954761D01*
X21190952Y-38050000D01*
X21476666Y-36716666D02*
X21476666Y-36240476D01*
X21762380Y-36811904D02*
X20762380Y-36478571D01*
X21762380Y-36145238D01*
X21667142Y-35811904D02*
X21714761Y-35764285D01*
X21762380Y-35811904D01*
X21714761Y-35859523D01*
X21667142Y-35811904D01*
X21762380Y-35811904D01*
X21762380Y-34573809D02*
X20762380Y-34573809D01*
X21476666Y-34240476D01*
X20762380Y-33907142D01*
X21762380Y-33907142D01*
X21762380Y-33288095D02*
X21714761Y-33383333D01*
X21667142Y-33430952D01*
X21571904Y-33478571D01*
X21286190Y-33478571D01*
X21190952Y-33430952D01*
X21143333Y-33383333D01*
X21095714Y-33288095D01*
X21095714Y-33145238D01*
X21143333Y-33050000D01*
X21190952Y-33002380D01*
X21286190Y-32954761D01*
X21571904Y-32954761D01*
X21667142Y-33002380D01*
X21714761Y-33050000D01*
X21762380Y-33145238D01*
X21762380Y-33288095D01*
X21762380Y-32526190D02*
X20762380Y-32526190D01*
X21762380Y-32097619D02*
X21238571Y-32097619D01*
X21143333Y-32145238D01*
X21095714Y-32240476D01*
X21095714Y-32383333D01*
X21143333Y-32478571D01*
X21190952Y-32526190D01*
X21762380Y-31621428D02*
X21095714Y-31621428D01*
X21286190Y-31621428D02*
X21190952Y-31573809D01*
X21143333Y-31526190D01*
X21095714Y-31430952D01*
X21095714Y-31335714D01*
D11*
X46211000Y-65720000D02*
X46211000Y-67230000D01*
X42510000Y-65720000D02*
X42510000Y-67230000D01*
X39240000Y-67230000D02*
X49480000Y-67230000D01*
X49480000Y-65720000D02*
X49480000Y-70361000D01*
X39240000Y-65720000D02*
X39240000Y-70361000D01*
X39240000Y-70361000D02*
X49480000Y-70361000D01*
X39240000Y-65720000D02*
X49480000Y-65720000D01*
X28560000Y-41630000D02*
X27050000Y-41630000D01*
X28560000Y-37930000D02*
X27050000Y-37930000D01*
X27050000Y-34660000D02*
X27050000Y-44900000D01*
X28560000Y-44900000D02*
X23919000Y-44900000D01*
X28560000Y-34660000D02*
X23919000Y-34660000D01*
X23919000Y-34660000D02*
X23919000Y-44900000D01*
X28560000Y-34660000D02*
X28560000Y-44900000D01*
X60430000Y-65919000D02*
X61940000Y-65919000D01*
X60430000Y-69620000D02*
X61940000Y-69620000D01*
X61940000Y-72890000D02*
X61940000Y-62650000D01*
X60430000Y-62650000D02*
X65071000Y-62650000D01*
X60430000Y-72890000D02*
X65071000Y-72890000D01*
X65071000Y-72890000D02*
X65071000Y-62650000D01*
X60430000Y-72890000D02*
X60430000Y-62650000D01*
X26019000Y-25410000D02*
X26019000Y-23900000D01*
X29720000Y-25410000D02*
X29720000Y-23900000D01*
X32990000Y-23900000D02*
X22750000Y-23900000D01*
X22750000Y-25410000D02*
X22750000Y-20769000D01*
X32990000Y-25410000D02*
X32990000Y-20769000D01*
X32990000Y-20769000D02*
X22750000Y-20769000D01*
X32990000Y-25410000D02*
X22750000Y-25410000D01*
X59920000Y-57670000D02*
G75*
G03X59920000Y-57670000I-2620000J0D01*
G01*
X57300000Y-55090000D02*
X57300000Y-60250000D01*
X57340000Y-55090000D02*
X57340000Y-60250000D01*
X57380000Y-55091000D02*
X57380000Y-60249000D01*
X57420000Y-55092000D02*
X57420000Y-60248000D01*
X57460000Y-55094000D02*
X57460000Y-60246000D01*
X57500000Y-55097000D02*
X57500000Y-60243000D01*
X57540000Y-55101000D02*
X57540000Y-56630000D01*
X57540000Y-58710000D02*
X57540000Y-60239000D01*
X57580000Y-55105000D02*
X57580000Y-56630000D01*
X57580000Y-58710000D02*
X57580000Y-60235000D01*
X57620000Y-55109000D02*
X57620000Y-56630000D01*
X57620000Y-58710000D02*
X57620000Y-60231000D01*
X57660000Y-55114000D02*
X57660000Y-56630000D01*
X57660000Y-58710000D02*
X57660000Y-60226000D01*
X57700000Y-55120000D02*
X57700000Y-56630000D01*
X57700000Y-58710000D02*
X57700000Y-60220000D01*
X57740000Y-55127000D02*
X57740000Y-56630000D01*
X57740000Y-58710000D02*
X57740000Y-60213000D01*
X57780000Y-55134000D02*
X57780000Y-56630000D01*
X57780000Y-58710000D02*
X57780000Y-60206000D01*
X57820000Y-55142000D02*
X57820000Y-56630000D01*
X57820000Y-58710000D02*
X57820000Y-60198000D01*
X57860000Y-55150000D02*
X57860000Y-56630000D01*
X57860000Y-58710000D02*
X57860000Y-60190000D01*
X57900000Y-55159000D02*
X57900000Y-56630000D01*
X57900000Y-58710000D02*
X57900000Y-60181000D01*
X57940000Y-55169000D02*
X57940000Y-56630000D01*
X57940000Y-58710000D02*
X57940000Y-60171000D01*
X57980000Y-55179000D02*
X57980000Y-56630000D01*
X57980000Y-58710000D02*
X57980000Y-60161000D01*
X58021000Y-55190000D02*
X58021000Y-56630000D01*
X58021000Y-58710000D02*
X58021000Y-60150000D01*
X58061000Y-55202000D02*
X58061000Y-56630000D01*
X58061000Y-58710000D02*
X58061000Y-60138000D01*
X58101000Y-55215000D02*
X58101000Y-56630000D01*
X58101000Y-58710000D02*
X58101000Y-60125000D01*
X58141000Y-55228000D02*
X58141000Y-56630000D01*
X58141000Y-58710000D02*
X58141000Y-60112000D01*
X58181000Y-55242000D02*
X58181000Y-56630000D01*
X58181000Y-58710000D02*
X58181000Y-60098000D01*
X58221000Y-55256000D02*
X58221000Y-56630000D01*
X58221000Y-58710000D02*
X58221000Y-60084000D01*
X58261000Y-55272000D02*
X58261000Y-56630000D01*
X58261000Y-58710000D02*
X58261000Y-60068000D01*
X58301000Y-55288000D02*
X58301000Y-56630000D01*
X58301000Y-58710000D02*
X58301000Y-60052000D01*
X58341000Y-55305000D02*
X58341000Y-56630000D01*
X58341000Y-58710000D02*
X58341000Y-60035000D01*
X58381000Y-55322000D02*
X58381000Y-56630000D01*
X58381000Y-58710000D02*
X58381000Y-60018000D01*
X58421000Y-55341000D02*
X58421000Y-56630000D01*
X58421000Y-58710000D02*
X58421000Y-59999000D01*
X58461000Y-55360000D02*
X58461000Y-56630000D01*
X58461000Y-58710000D02*
X58461000Y-59980000D01*
X58501000Y-55380000D02*
X58501000Y-56630000D01*
X58501000Y-58710000D02*
X58501000Y-59960000D01*
X58541000Y-55402000D02*
X58541000Y-56630000D01*
X58541000Y-58710000D02*
X58541000Y-59938000D01*
X58581000Y-55423000D02*
X58581000Y-56630000D01*
X58581000Y-58710000D02*
X58581000Y-59917000D01*
X58621000Y-55446000D02*
X58621000Y-56630000D01*
X58621000Y-58710000D02*
X58621000Y-59894000D01*
X58661000Y-55470000D02*
X58661000Y-56630000D01*
X58661000Y-58710000D02*
X58661000Y-59870000D01*
X58701000Y-55495000D02*
X58701000Y-56630000D01*
X58701000Y-58710000D02*
X58701000Y-59845000D01*
X58741000Y-55521000D02*
X58741000Y-56630000D01*
X58741000Y-58710000D02*
X58741000Y-59819000D01*
X58781000Y-55548000D02*
X58781000Y-56630000D01*
X58781000Y-58710000D02*
X58781000Y-59792000D01*
X58821000Y-55575000D02*
X58821000Y-56630000D01*
X58821000Y-58710000D02*
X58821000Y-59765000D01*
X58861000Y-55605000D02*
X58861000Y-56630000D01*
X58861000Y-58710000D02*
X58861000Y-59735000D01*
X58901000Y-55635000D02*
X58901000Y-56630000D01*
X58901000Y-58710000D02*
X58901000Y-59705000D01*
X58941000Y-55666000D02*
X58941000Y-56630000D01*
X58941000Y-58710000D02*
X58941000Y-59674000D01*
X58981000Y-55699000D02*
X58981000Y-56630000D01*
X58981000Y-58710000D02*
X58981000Y-59641000D01*
X59021000Y-55733000D02*
X59021000Y-56630000D01*
X59021000Y-58710000D02*
X59021000Y-59607000D01*
X59061000Y-55769000D02*
X59061000Y-56630000D01*
X59061000Y-58710000D02*
X59061000Y-59571000D01*
X59101000Y-55806000D02*
X59101000Y-56630000D01*
X59101000Y-58710000D02*
X59101000Y-59534000D01*
X59141000Y-55844000D02*
X59141000Y-56630000D01*
X59141000Y-58710000D02*
X59141000Y-59496000D01*
X59181000Y-55885000D02*
X59181000Y-56630000D01*
X59181000Y-58710000D02*
X59181000Y-59455000D01*
X59221000Y-55927000D02*
X59221000Y-56630000D01*
X59221000Y-58710000D02*
X59221000Y-59413000D01*
X59261000Y-55971000D02*
X59261000Y-56630000D01*
X59261000Y-58710000D02*
X59261000Y-59369000D01*
X59301000Y-56017000D02*
X59301000Y-56630000D01*
X59301000Y-58710000D02*
X59301000Y-59323000D01*
X59341000Y-56065000D02*
X59341000Y-56630000D01*
X59341000Y-58710000D02*
X59341000Y-59275000D01*
X59381000Y-56116000D02*
X59381000Y-56630000D01*
X59381000Y-58710000D02*
X59381000Y-59224000D01*
X59421000Y-56170000D02*
X59421000Y-56630000D01*
X59421000Y-58710000D02*
X59421000Y-59170000D01*
X59461000Y-56227000D02*
X59461000Y-56630000D01*
X59461000Y-58710000D02*
X59461000Y-59113000D01*
X59501000Y-56287000D02*
X59501000Y-56630000D01*
X59501000Y-58710000D02*
X59501000Y-59053000D01*
X59541000Y-56351000D02*
X59541000Y-56630000D01*
X59541000Y-58710000D02*
X59541000Y-58989000D01*
X59581000Y-56419000D02*
X59581000Y-56630000D01*
X59581000Y-58710000D02*
X59581000Y-58921000D01*
X59621000Y-56492000D02*
X59621000Y-58848000D01*
X59661000Y-56572000D02*
X59661000Y-58768000D01*
X59701000Y-56659000D02*
X59701000Y-58681000D01*
X59741000Y-56755000D02*
X59741000Y-58585000D01*
X59781000Y-56865000D02*
X59781000Y-58475000D01*
X59821000Y-56993000D02*
X59821000Y-58347000D01*
X59861000Y-57152000D02*
X59861000Y-58188000D01*
X59901000Y-57386000D02*
X59901000Y-57954000D01*
X54495225Y-56195000D02*
X54995225Y-56195000D01*
X54745225Y-55945000D02*
X54745225Y-56445000D01*
X37180000Y-11310000D02*
G75*
G02X40300000Y-11310000I1560000J0D01*
G01*
X40300000Y-15170000D02*
X40300000Y-11310000D01*
X37180000Y-15170000D02*
X37180000Y-11310000D01*
X40300000Y-15170000D02*
X37180000Y-15170000D01*
X36780000Y-15170000D02*
X36780000Y-14050000D01*
X36780000Y-14050000D02*
X37180000Y-14050000D01*
X37180000Y-14050000D02*
X37180000Y-15170000D01*
X37180000Y-15170000D02*
X36780000Y-15170000D01*
X40010000Y-20380000D02*
X40010000Y-15170000D01*
X40010000Y-15170000D02*
X40010000Y-15170000D01*
X40010000Y-15170000D02*
X40010000Y-20380000D01*
X40010000Y-20380000D02*
X40010000Y-20380000D01*
X37470000Y-20380000D02*
X37470000Y-15170000D01*
X37470000Y-15170000D02*
X37470000Y-15170000D01*
X37470000Y-15170000D02*
X37470000Y-20380000D01*
X37470000Y-20380000D02*
X37470000Y-20380000D01*
X42900000Y-11260000D02*
G75*
G02X46020000Y-11260000I1560000J0D01*
G01*
X46020000Y-15120000D02*
X46020000Y-11260000D01*
X42900000Y-15120000D02*
X42900000Y-11260000D01*
X46020000Y-15120000D02*
X42900000Y-15120000D01*
X42500000Y-15120000D02*
X42500000Y-14000000D01*
X42500000Y-14000000D02*
X42900000Y-14000000D01*
X42900000Y-14000000D02*
X42900000Y-15120000D01*
X42900000Y-15120000D02*
X42500000Y-15120000D01*
X45730000Y-20330000D02*
X45730000Y-15120000D01*
X45730000Y-15120000D02*
X45730000Y-15120000D01*
X45730000Y-15120000D02*
X45730000Y-20330000D01*
X45730000Y-20330000D02*
X45730000Y-20330000D01*
X43190000Y-20330000D02*
X43190000Y-15120000D01*
X43190000Y-15120000D02*
X43190000Y-15120000D01*
X43190000Y-15120000D02*
X43190000Y-20330000D01*
X43190000Y-20330000D02*
X43190000Y-20330000D01*
D12*
X60070000Y-51200000D02*
X60070000Y-51950000D01*
X60070000Y-34650000D02*
X60070000Y-35400000D01*
X40770000Y-34650000D02*
X60070000Y-34650000D01*
X40770000Y-38675000D02*
X40770000Y-34650000D01*
X40770000Y-51950000D02*
X40770000Y-45925000D01*
X60070000Y-51950000D02*
X40770000Y-51950000D01*
D11*
X67820000Y-22110000D02*
X69150000Y-22110000D01*
X67820000Y-23440000D02*
X67820000Y-22110000D01*
X70420000Y-22110000D02*
X73020000Y-22110000D01*
X70420000Y-24710000D02*
X70420000Y-22110000D01*
X67820000Y-24710000D02*
X70420000Y-24710000D01*
X73020000Y-22110000D02*
X73020000Y-73030000D01*
X67820000Y-24710000D02*
X67820000Y-73030000D01*
X67820000Y-73030000D02*
X73020000Y-73030000D01*
X63500000Y-58070000D02*
X63500000Y-54230000D01*
X65340000Y-58070000D02*
X65340000Y-54230000D01*
X29900000Y-28120000D02*
X29900000Y-26280000D01*
X29900000Y-26280000D02*
X26060000Y-26280000D01*
X26060000Y-26280000D02*
X26060000Y-28120000D01*
X26060000Y-28120000D02*
X29900000Y-28120000D01*
X30850000Y-27200000D02*
X29900000Y-27200000D01*
X25110000Y-27200000D02*
X26060000Y-27200000D01*
X30760000Y-30190000D02*
X29810000Y-30190000D01*
X25020000Y-30190000D02*
X25970000Y-30190000D01*
X29810000Y-29270000D02*
X25970000Y-29270000D01*
X29810000Y-31110000D02*
X29810000Y-29270000D01*
X25970000Y-31110000D02*
X29810000Y-31110000D01*
X25970000Y-29270000D02*
X25970000Y-31110000D01*
X59130000Y-24870000D02*
X60640000Y-24870000D01*
X59130000Y-28570000D02*
X60640000Y-28570000D01*
X60640000Y-31840000D02*
X60640000Y-21600000D01*
X59130000Y-21600000D02*
X63771000Y-21600000D01*
X59130000Y-31840000D02*
X63771000Y-31840000D01*
X63771000Y-31840000D02*
X63771000Y-21600000D01*
X59130000Y-31840000D02*
X59130000Y-21600000D01*
D13*
G36*
X32226535Y-63073172D02*
X32339117Y-63670363D01*
X32754531Y-63841610D01*
X33169944Y-64012857D01*
X33668302Y-63673978D01*
X33807868Y-63579622D01*
X33934028Y-63495375D01*
X34040895Y-63425083D01*
X34122582Y-63372592D01*
X34173201Y-63341749D01*
X34186986Y-63335098D01*
X34211820Y-63352203D01*
X34264888Y-63399489D01*
X34340240Y-63470917D01*
X34431929Y-63560445D01*
X34534007Y-63662034D01*
X34640526Y-63769643D01*
X34745536Y-63877232D01*
X34843091Y-63978760D01*
X34927242Y-64068186D01*
X34992040Y-64139471D01*
X35031538Y-64186573D01*
X35040980Y-64202337D01*
X35027391Y-64231398D01*
X34989293Y-64295066D01*
X34930694Y-64387112D01*
X34855597Y-64501309D01*
X34768009Y-64631429D01*
X34717254Y-64705646D01*
X34624745Y-64841167D01*
X34542540Y-64963461D01*
X34474630Y-65066440D01*
X34425000Y-65144018D01*
X34397640Y-65190106D01*
X34393529Y-65199792D01*
X34402849Y-65227319D01*
X34428254Y-65291473D01*
X34465911Y-65383235D01*
X34511986Y-65493584D01*
X34562646Y-65613500D01*
X34614059Y-65733964D01*
X34662389Y-65845954D01*
X34703806Y-65940452D01*
X34734474Y-66008437D01*
X34750562Y-66040888D01*
X34751511Y-66042165D01*
X34776772Y-66048362D01*
X34844046Y-66062185D01*
X34946360Y-66082277D01*
X35076741Y-66107279D01*
X35228216Y-66135831D01*
X35316594Y-66152296D01*
X35478452Y-66183114D01*
X35624649Y-66212439D01*
X35747787Y-66238666D01*
X35840469Y-66260191D01*
X35895301Y-66275410D01*
X35906323Y-66280238D01*
X35917119Y-66312919D01*
X35925829Y-66386730D01*
X35932460Y-66493037D01*
X35937018Y-66623212D01*
X35939509Y-66768621D01*
X35939938Y-66920635D01*
X35938311Y-67070622D01*
X35934635Y-67209951D01*
X35928915Y-67329990D01*
X35921158Y-67422110D01*
X35911368Y-67477677D01*
X35905496Y-67489245D01*
X35870399Y-67503110D01*
X35796028Y-67522933D01*
X35692223Y-67546384D01*
X35568819Y-67571136D01*
X35525741Y-67579143D01*
X35318047Y-67617186D01*
X35153984Y-67647824D01*
X35028130Y-67672274D01*
X34935065Y-67691754D01*
X34869367Y-67707481D01*
X34825617Y-67720673D01*
X34798392Y-67732549D01*
X34782272Y-67744325D01*
X34780017Y-67746653D01*
X34757503Y-67784145D01*
X34723158Y-67857110D01*
X34680411Y-67956612D01*
X34632692Y-68073718D01*
X34583430Y-68199493D01*
X34536055Y-68325002D01*
X34493995Y-68441310D01*
X34460680Y-68539484D01*
X34439541Y-68610588D01*
X34434005Y-68645687D01*
X34434466Y-68646917D01*
X34453223Y-68675606D01*
X34495776Y-68738730D01*
X34557653Y-68829718D01*
X34634382Y-68942000D01*
X34721491Y-69069005D01*
X34746299Y-69105098D01*
X34834753Y-69235948D01*
X34912588Y-69355336D01*
X34975566Y-69456407D01*
X35019445Y-69532304D01*
X35039985Y-69576172D01*
X35040980Y-69581562D01*
X35023722Y-69609889D01*
X34976036Y-69666006D01*
X34904050Y-69743882D01*
X34813897Y-69837485D01*
X34711705Y-69940786D01*
X34603606Y-70047751D01*
X34495728Y-70152351D01*
X34394204Y-70248554D01*
X34305162Y-70330329D01*
X34234733Y-70391645D01*
X34189047Y-70426471D01*
X34176409Y-70432157D01*
X34146991Y-70418765D01*
X34086761Y-70382644D01*
X34005530Y-70329881D01*
X33943030Y-70287412D01*
X33829785Y-70209485D01*
X33695674Y-70117729D01*
X33561155Y-70026120D01*
X33488833Y-69977091D01*
X33244038Y-69811515D01*
X33038551Y-69922620D01*
X32944936Y-69971293D01*
X32865330Y-70009126D01*
X32811467Y-70030703D01*
X32797757Y-70033706D01*
X32781270Y-70011538D01*
X32748745Y-69948894D01*
X32702609Y-69851554D01*
X32645290Y-69725294D01*
X32579216Y-69575895D01*
X32506815Y-69409133D01*
X32430516Y-69230787D01*
X32352746Y-69046636D01*
X32275934Y-68862457D01*
X32202506Y-68684030D01*
X32134892Y-68517132D01*
X32075520Y-68367542D01*
X32026816Y-68241038D01*
X31991210Y-68143399D01*
X31971130Y-68080402D01*
X31967900Y-68058766D01*
X31993496Y-68031169D01*
X32049539Y-67986370D01*
X32124311Y-67933679D01*
X32130587Y-67929510D01*
X32323845Y-67774814D01*
X32479674Y-67594336D01*
X32596724Y-67393847D01*
X32673645Y-67179119D01*
X32709086Y-66955922D01*
X32701697Y-66730026D01*
X32650127Y-66507204D01*
X32553026Y-66293224D01*
X32524458Y-66246409D01*
X32375868Y-66057363D01*
X32200327Y-65905557D01*
X32003910Y-65791779D01*
X31792693Y-65716820D01*
X31572753Y-65681467D01*
X31350163Y-65686512D01*
X31131001Y-65732744D01*
X30921342Y-65820951D01*
X30727261Y-65951924D01*
X30667226Y-66005082D01*
X30514435Y-66171484D01*
X30403097Y-66346657D01*
X30326723Y-66543011D01*
X30284187Y-66737462D01*
X30273686Y-66956087D01*
X30308701Y-67175797D01*
X30385673Y-67389165D01*
X30501047Y-67588767D01*
X30651266Y-67767174D01*
X30832773Y-67916962D01*
X30856627Y-67932751D01*
X30932201Y-67984457D01*
X30989651Y-68029257D01*
X31017117Y-68057862D01*
X31017517Y-68058766D01*
X31011620Y-68089709D01*
X30988245Y-68159936D01*
X30949821Y-68263670D01*
X30898777Y-68395135D01*
X30837542Y-68548552D01*
X30768544Y-68718146D01*
X30694214Y-68898138D01*
X30616978Y-69082753D01*
X30539268Y-69266213D01*
X30463511Y-69442741D01*
X30392137Y-69606559D01*
X30327574Y-69751892D01*
X30272252Y-69872962D01*
X30228600Y-69963992D01*
X30199046Y-70019205D01*
X30187144Y-70033706D01*
X30150777Y-70022414D01*
X30082730Y-69992130D01*
X29994737Y-69948265D01*
X29946351Y-69922620D01*
X29740863Y-69811515D01*
X29496068Y-69977091D01*
X29371106Y-70061915D01*
X29234295Y-70155261D01*
X29106089Y-70243153D01*
X29041871Y-70287412D01*
X28951551Y-70348063D01*
X28875071Y-70396126D01*
X28822407Y-70425515D01*
X28805302Y-70431727D01*
X28780405Y-70414968D01*
X28725305Y-70368181D01*
X28645343Y-70296225D01*
X28545861Y-70203957D01*
X28432200Y-70096235D01*
X28360315Y-70027071D01*
X28234551Y-69903502D01*
X28125863Y-69792979D01*
X28038645Y-69700230D01*
X27977289Y-69629982D01*
X27946191Y-69586965D01*
X27943208Y-69578235D01*
X27957053Y-69545029D01*
X27995312Y-69477887D01*
X28053742Y-69383608D01*
X28128097Y-69268990D01*
X28214135Y-69140828D01*
X28238603Y-69105098D01*
X28327755Y-68975234D01*
X28407738Y-68858314D01*
X28474080Y-68760907D01*
X28522311Y-68689584D01*
X28547957Y-68650915D01*
X28550435Y-68646917D01*
X28546729Y-68616100D01*
X28527061Y-68548344D01*
X28494860Y-68452584D01*
X28453555Y-68337754D01*
X28406575Y-68212789D01*
X28357349Y-68086624D01*
X28309308Y-67968193D01*
X28265881Y-67866430D01*
X28230496Y-67790271D01*
X28206584Y-67748649D01*
X28204884Y-67746653D01*
X28190262Y-67734758D01*
X28165565Y-67722995D01*
X28125372Y-67710146D01*
X28064263Y-67694994D01*
X27976817Y-67676321D01*
X27857612Y-67652910D01*
X27701227Y-67623542D01*
X27502243Y-67587000D01*
X27459160Y-67579143D01*
X27331471Y-67554472D01*
X27220153Y-67530338D01*
X27135045Y-67509069D01*
X27085983Y-67492993D01*
X27079405Y-67489245D01*
X27068564Y-67456018D01*
X27059753Y-67381766D01*
X27052976Y-67275121D01*
X27048240Y-67144712D01*
X27045550Y-66999172D01*
X27044913Y-66847131D01*
X27046334Y-66697221D01*
X27049820Y-66558073D01*
X27055376Y-66438317D01*
X27063008Y-66346586D01*
X27072722Y-66291511D01*
X27078578Y-66280238D01*
X27111180Y-66268868D01*
X27185418Y-66250369D01*
X27293896Y-66226347D01*
X27429217Y-66198407D01*
X27583985Y-66168153D01*
X27668308Y-66152296D01*
X27828296Y-66122389D01*
X27970967Y-66095295D01*
X28089348Y-66072376D01*
X28176465Y-66054988D01*
X28225345Y-66044492D01*
X28233390Y-66042165D01*
X28246987Y-66015931D01*
X28275729Y-65952740D01*
X28315785Y-65861622D01*
X28363324Y-65751602D01*
X28414515Y-65631710D01*
X28465526Y-65510972D01*
X28512526Y-65398416D01*
X28551684Y-65303071D01*
X28579169Y-65233962D01*
X28591149Y-65200119D01*
X28591372Y-65198640D01*
X28577791Y-65171942D01*
X28539715Y-65110505D01*
X28481147Y-65020434D01*
X28406088Y-64907835D01*
X28318540Y-64778815D01*
X28267647Y-64704706D01*
X28174909Y-64568822D01*
X28092541Y-64445454D01*
X28024561Y-64340842D01*
X27974988Y-64261228D01*
X27947842Y-64212852D01*
X27943921Y-64202007D01*
X27960775Y-64176765D01*
X28007368Y-64122869D01*
X28077749Y-64046358D01*
X28165965Y-63953268D01*
X28266065Y-63849640D01*
X28372098Y-63741509D01*
X28478111Y-63634915D01*
X28578152Y-63535895D01*
X28666270Y-63450487D01*
X28736513Y-63384730D01*
X28782928Y-63344661D01*
X28798456Y-63335098D01*
X28823739Y-63348545D01*
X28884211Y-63386320D01*
X28973992Y-63444580D01*
X29087203Y-63519479D01*
X29217964Y-63607170D01*
X29316600Y-63673978D01*
X29814957Y-64012857D01*
X30230371Y-63841610D01*
X30645784Y-63670363D01*
X30758366Y-63073172D01*
X30870949Y-62475980D01*
X32113952Y-62475980D01*
X32226535Y-63073172D01*
X32226535Y-63073172D01*
G37*
X32226535Y-63073172D02*
X32339117Y-63670363D01*
X32754531Y-63841610D01*
X33169944Y-64012857D01*
X33668302Y-63673978D01*
X33807868Y-63579622D01*
X33934028Y-63495375D01*
X34040895Y-63425083D01*
X34122582Y-63372592D01*
X34173201Y-63341749D01*
X34186986Y-63335098D01*
X34211820Y-63352203D01*
X34264888Y-63399489D01*
X34340240Y-63470917D01*
X34431929Y-63560445D01*
X34534007Y-63662034D01*
X34640526Y-63769643D01*
X34745536Y-63877232D01*
X34843091Y-63978760D01*
X34927242Y-64068186D01*
X34992040Y-64139471D01*
X35031538Y-64186573D01*
X35040980Y-64202337D01*
X35027391Y-64231398D01*
X34989293Y-64295066D01*
X34930694Y-64387112D01*
X34855597Y-64501309D01*
X34768009Y-64631429D01*
X34717254Y-64705646D01*
X34624745Y-64841167D01*
X34542540Y-64963461D01*
X34474630Y-65066440D01*
X34425000Y-65144018D01*
X34397640Y-65190106D01*
X34393529Y-65199792D01*
X34402849Y-65227319D01*
X34428254Y-65291473D01*
X34465911Y-65383235D01*
X34511986Y-65493584D01*
X34562646Y-65613500D01*
X34614059Y-65733964D01*
X34662389Y-65845954D01*
X34703806Y-65940452D01*
X34734474Y-66008437D01*
X34750562Y-66040888D01*
X34751511Y-66042165D01*
X34776772Y-66048362D01*
X34844046Y-66062185D01*
X34946360Y-66082277D01*
X35076741Y-66107279D01*
X35228216Y-66135831D01*
X35316594Y-66152296D01*
X35478452Y-66183114D01*
X35624649Y-66212439D01*
X35747787Y-66238666D01*
X35840469Y-66260191D01*
X35895301Y-66275410D01*
X35906323Y-66280238D01*
X35917119Y-66312919D01*
X35925829Y-66386730D01*
X35932460Y-66493037D01*
X35937018Y-66623212D01*
X35939509Y-66768621D01*
X35939938Y-66920635D01*
X35938311Y-67070622D01*
X35934635Y-67209951D01*
X35928915Y-67329990D01*
X35921158Y-67422110D01*
X35911368Y-67477677D01*
X35905496Y-67489245D01*
X35870399Y-67503110D01*
X35796028Y-67522933D01*
X35692223Y-67546384D01*
X35568819Y-67571136D01*
X35525741Y-67579143D01*
X35318047Y-67617186D01*
X35153984Y-67647824D01*
X35028130Y-67672274D01*
X34935065Y-67691754D01*
X34869367Y-67707481D01*
X34825617Y-67720673D01*
X34798392Y-67732549D01*
X34782272Y-67744325D01*
X34780017Y-67746653D01*
X34757503Y-67784145D01*
X34723158Y-67857110D01*
X34680411Y-67956612D01*
X34632692Y-68073718D01*
X34583430Y-68199493D01*
X34536055Y-68325002D01*
X34493995Y-68441310D01*
X34460680Y-68539484D01*
X34439541Y-68610588D01*
X34434005Y-68645687D01*
X34434466Y-68646917D01*
X34453223Y-68675606D01*
X34495776Y-68738730D01*
X34557653Y-68829718D01*
X34634382Y-68942000D01*
X34721491Y-69069005D01*
X34746299Y-69105098D01*
X34834753Y-69235948D01*
X34912588Y-69355336D01*
X34975566Y-69456407D01*
X35019445Y-69532304D01*
X35039985Y-69576172D01*
X35040980Y-69581562D01*
X35023722Y-69609889D01*
X34976036Y-69666006D01*
X34904050Y-69743882D01*
X34813897Y-69837485D01*
X34711705Y-69940786D01*
X34603606Y-70047751D01*
X34495728Y-70152351D01*
X34394204Y-70248554D01*
X34305162Y-70330329D01*
X34234733Y-70391645D01*
X34189047Y-70426471D01*
X34176409Y-70432157D01*
X34146991Y-70418765D01*
X34086761Y-70382644D01*
X34005530Y-70329881D01*
X33943030Y-70287412D01*
X33829785Y-70209485D01*
X33695674Y-70117729D01*
X33561155Y-70026120D01*
X33488833Y-69977091D01*
X33244038Y-69811515D01*
X33038551Y-69922620D01*
X32944936Y-69971293D01*
X32865330Y-70009126D01*
X32811467Y-70030703D01*
X32797757Y-70033706D01*
X32781270Y-70011538D01*
X32748745Y-69948894D01*
X32702609Y-69851554D01*
X32645290Y-69725294D01*
X32579216Y-69575895D01*
X32506815Y-69409133D01*
X32430516Y-69230787D01*
X32352746Y-69046636D01*
X32275934Y-68862457D01*
X32202506Y-68684030D01*
X32134892Y-68517132D01*
X32075520Y-68367542D01*
X32026816Y-68241038D01*
X31991210Y-68143399D01*
X31971130Y-68080402D01*
X31967900Y-68058766D01*
X31993496Y-68031169D01*
X32049539Y-67986370D01*
X32124311Y-67933679D01*
X32130587Y-67929510D01*
X32323845Y-67774814D01*
X32479674Y-67594336D01*
X32596724Y-67393847D01*
X32673645Y-67179119D01*
X32709086Y-66955922D01*
X32701697Y-66730026D01*
X32650127Y-66507204D01*
X32553026Y-66293224D01*
X32524458Y-66246409D01*
X32375868Y-66057363D01*
X32200327Y-65905557D01*
X32003910Y-65791779D01*
X31792693Y-65716820D01*
X31572753Y-65681467D01*
X31350163Y-65686512D01*
X31131001Y-65732744D01*
X30921342Y-65820951D01*
X30727261Y-65951924D01*
X30667226Y-66005082D01*
X30514435Y-66171484D01*
X30403097Y-66346657D01*
X30326723Y-66543011D01*
X30284187Y-66737462D01*
X30273686Y-66956087D01*
X30308701Y-67175797D01*
X30385673Y-67389165D01*
X30501047Y-67588767D01*
X30651266Y-67767174D01*
X30832773Y-67916962D01*
X30856627Y-67932751D01*
X30932201Y-67984457D01*
X30989651Y-68029257D01*
X31017117Y-68057862D01*
X31017517Y-68058766D01*
X31011620Y-68089709D01*
X30988245Y-68159936D01*
X30949821Y-68263670D01*
X30898777Y-68395135D01*
X30837542Y-68548552D01*
X30768544Y-68718146D01*
X30694214Y-68898138D01*
X30616978Y-69082753D01*
X30539268Y-69266213D01*
X30463511Y-69442741D01*
X30392137Y-69606559D01*
X30327574Y-69751892D01*
X30272252Y-69872962D01*
X30228600Y-69963992D01*
X30199046Y-70019205D01*
X30187144Y-70033706D01*
X30150777Y-70022414D01*
X30082730Y-69992130D01*
X29994737Y-69948265D01*
X29946351Y-69922620D01*
X29740863Y-69811515D01*
X29496068Y-69977091D01*
X29371106Y-70061915D01*
X29234295Y-70155261D01*
X29106089Y-70243153D01*
X29041871Y-70287412D01*
X28951551Y-70348063D01*
X28875071Y-70396126D01*
X28822407Y-70425515D01*
X28805302Y-70431727D01*
X28780405Y-70414968D01*
X28725305Y-70368181D01*
X28645343Y-70296225D01*
X28545861Y-70203957D01*
X28432200Y-70096235D01*
X28360315Y-70027071D01*
X28234551Y-69903502D01*
X28125863Y-69792979D01*
X28038645Y-69700230D01*
X27977289Y-69629982D01*
X27946191Y-69586965D01*
X27943208Y-69578235D01*
X27957053Y-69545029D01*
X27995312Y-69477887D01*
X28053742Y-69383608D01*
X28128097Y-69268990D01*
X28214135Y-69140828D01*
X28238603Y-69105098D01*
X28327755Y-68975234D01*
X28407738Y-68858314D01*
X28474080Y-68760907D01*
X28522311Y-68689584D01*
X28547957Y-68650915D01*
X28550435Y-68646917D01*
X28546729Y-68616100D01*
X28527061Y-68548344D01*
X28494860Y-68452584D01*
X28453555Y-68337754D01*
X28406575Y-68212789D01*
X28357349Y-68086624D01*
X28309308Y-67968193D01*
X28265881Y-67866430D01*
X28230496Y-67790271D01*
X28206584Y-67748649D01*
X28204884Y-67746653D01*
X28190262Y-67734758D01*
X28165565Y-67722995D01*
X28125372Y-67710146D01*
X28064263Y-67694994D01*
X27976817Y-67676321D01*
X27857612Y-67652910D01*
X27701227Y-67623542D01*
X27502243Y-67587000D01*
X27459160Y-67579143D01*
X27331471Y-67554472D01*
X27220153Y-67530338D01*
X27135045Y-67509069D01*
X27085983Y-67492993D01*
X27079405Y-67489245D01*
X27068564Y-67456018D01*
X27059753Y-67381766D01*
X27052976Y-67275121D01*
X27048240Y-67144712D01*
X27045550Y-66999172D01*
X27044913Y-66847131D01*
X27046334Y-66697221D01*
X27049820Y-66558073D01*
X27055376Y-66438317D01*
X27063008Y-66346586D01*
X27072722Y-66291511D01*
X27078578Y-66280238D01*
X27111180Y-66268868D01*
X27185418Y-66250369D01*
X27293896Y-66226347D01*
X27429217Y-66198407D01*
X27583985Y-66168153D01*
X27668308Y-66152296D01*
X27828296Y-66122389D01*
X27970967Y-66095295D01*
X28089348Y-66072376D01*
X28176465Y-66054988D01*
X28225345Y-66044492D01*
X28233390Y-66042165D01*
X28246987Y-66015931D01*
X28275729Y-65952740D01*
X28315785Y-65861622D01*
X28363324Y-65751602D01*
X28414515Y-65631710D01*
X28465526Y-65510972D01*
X28512526Y-65398416D01*
X28551684Y-65303071D01*
X28579169Y-65233962D01*
X28591149Y-65200119D01*
X28591372Y-65198640D01*
X28577791Y-65171942D01*
X28539715Y-65110505D01*
X28481147Y-65020434D01*
X28406088Y-64907835D01*
X28318540Y-64778815D01*
X28267647Y-64704706D01*
X28174909Y-64568822D01*
X28092541Y-64445454D01*
X28024561Y-64340842D01*
X27974988Y-64261228D01*
X27947842Y-64212852D01*
X27943921Y-64202007D01*
X27960775Y-64176765D01*
X28007368Y-64122869D01*
X28077749Y-64046358D01*
X28165965Y-63953268D01*
X28266065Y-63849640D01*
X28372098Y-63741509D01*
X28478111Y-63634915D01*
X28578152Y-63535895D01*
X28666270Y-63450487D01*
X28736513Y-63384730D01*
X28782928Y-63344661D01*
X28798456Y-63335098D01*
X28823739Y-63348545D01*
X28884211Y-63386320D01*
X28973992Y-63444580D01*
X29087203Y-63519479D01*
X29217964Y-63607170D01*
X29316600Y-63673978D01*
X29814957Y-64012857D01*
X30230371Y-63841610D01*
X30645784Y-63670363D01*
X30758366Y-63073172D01*
X30870949Y-62475980D01*
X32113952Y-62475980D01*
X32226535Y-63073172D01*
G36*
X35043637Y-71327472D02*
X35129290Y-71353641D01*
X35184437Y-71386707D01*
X35202401Y-71412855D01*
X35197457Y-71443852D01*
X35165372Y-71492547D01*
X35138243Y-71527035D01*
X35082317Y-71589383D01*
X35040299Y-71615615D01*
X35004480Y-71613903D01*
X34898224Y-71586863D01*
X34820189Y-71588091D01*
X34756820Y-71618735D01*
X34735546Y-71636670D01*
X34667451Y-71699779D01*
X34667451Y-72523922D01*
X34393529Y-72523922D01*
X34393529Y-71328628D01*
X34530490Y-71328628D01*
X34612719Y-71331879D01*
X34655144Y-71343426D01*
X34667445Y-71365952D01*
X34667451Y-71366620D01*
X34673260Y-71390215D01*
X34699531Y-71387138D01*
X34735931Y-71370115D01*
X34811111Y-71338439D01*
X34872158Y-71319381D01*
X34950708Y-71314496D01*
X35043637Y-71327472D01*
X35043637Y-71327472D01*
G37*
X35043637Y-71327472D02*
X35129290Y-71353641D01*
X35184437Y-71386707D01*
X35202401Y-71412855D01*
X35197457Y-71443852D01*
X35165372Y-71492547D01*
X35138243Y-71527035D01*
X35082317Y-71589383D01*
X35040299Y-71615615D01*
X35004480Y-71613903D01*
X34898224Y-71586863D01*
X34820189Y-71588091D01*
X34756820Y-71618735D01*
X34735546Y-71636670D01*
X34667451Y-71699779D01*
X34667451Y-72523922D01*
X34393529Y-72523922D01*
X34393529Y-71328628D01*
X34530490Y-71328628D01*
X34612719Y-71331879D01*
X34655144Y-71343426D01*
X34667445Y-71365952D01*
X34667451Y-71366620D01*
X34673260Y-71390215D01*
X34699531Y-71387138D01*
X34735931Y-71370115D01*
X34811111Y-71338439D01*
X34872158Y-71319381D01*
X34950708Y-71314496D01*
X35043637Y-71327472D01*
G36*
X29986760Y-71349199D02*
X30048736Y-71378802D01*
X30108759Y-71421561D01*
X30154486Y-71470775D01*
X30187793Y-71533544D01*
X30210555Y-71616971D01*
X30224647Y-71728159D01*
X30231942Y-71874209D01*
X30234318Y-72062223D01*
X30234355Y-72081912D01*
X30234902Y-72523922D01*
X29960980Y-72523922D01*
X29960980Y-72116435D01*
X29960785Y-71965471D01*
X29959436Y-71856056D01*
X29955788Y-71779933D01*
X29948696Y-71728848D01*
X29937013Y-71694545D01*
X29919594Y-71668768D01*
X29895329Y-71643298D01*
X29810435Y-71588571D01*
X29717761Y-71578416D01*
X29629473Y-71613017D01*
X29598770Y-71638770D01*
X29576229Y-71662982D01*
X29560046Y-71688912D01*
X29549168Y-71724708D01*
X29542542Y-71778519D01*
X29539115Y-71858493D01*
X29537834Y-71972779D01*
X29537647Y-72111907D01*
X29537647Y-72523922D01*
X29263725Y-72523922D01*
X29263725Y-71328628D01*
X29400686Y-71328628D01*
X29482916Y-71331879D01*
X29525340Y-71343426D01*
X29537641Y-71365952D01*
X29537647Y-71366620D01*
X29543354Y-71388681D01*
X29568527Y-71386177D01*
X29618578Y-71361937D01*
X29732094Y-71326271D01*
X29861945Y-71322305D01*
X29986760Y-71349199D01*
X29986760Y-71349199D01*
G37*
X29986760Y-71349199D02*
X30048736Y-71378802D01*
X30108759Y-71421561D01*
X30154486Y-71470775D01*
X30187793Y-71533544D01*
X30210555Y-71616971D01*
X30224647Y-71728159D01*
X30231942Y-71874209D01*
X30234318Y-72062223D01*
X30234355Y-72081912D01*
X30234902Y-72523922D01*
X29960980Y-72523922D01*
X29960980Y-72116435D01*
X29960785Y-71965471D01*
X29959436Y-71856056D01*
X29955788Y-71779933D01*
X29948696Y-71728848D01*
X29937013Y-71694545D01*
X29919594Y-71668768D01*
X29895329Y-71643298D01*
X29810435Y-71588571D01*
X29717761Y-71578416D01*
X29629473Y-71613017D01*
X29598770Y-71638770D01*
X29576229Y-71662982D01*
X29560046Y-71688912D01*
X29549168Y-71724708D01*
X29542542Y-71778519D01*
X29539115Y-71858493D01*
X29537834Y-71972779D01*
X29537647Y-72111907D01*
X29537647Y-72523922D01*
X29263725Y-72523922D01*
X29263725Y-71328628D01*
X29400686Y-71328628D01*
X29482916Y-71331879D01*
X29525340Y-71343426D01*
X29537641Y-71365952D01*
X29537647Y-71366620D01*
X29543354Y-71388681D01*
X29568527Y-71386177D01*
X29618578Y-71361937D01*
X29732094Y-71326271D01*
X29861945Y-71322305D01*
X29986760Y-71349199D01*
G36*
X36783287Y-71324355D02*
X36847051Y-71339845D01*
X36969300Y-71396569D01*
X37073834Y-71483202D01*
X37146180Y-71587074D01*
X37156119Y-71610396D01*
X37169754Y-71671484D01*
X37179298Y-71761853D01*
X37182549Y-71853190D01*
X37182549Y-72025882D01*
X36821470Y-72025882D01*
X36672546Y-72026445D01*
X36567632Y-72029864D01*
X36500937Y-72038731D01*
X36466666Y-72055641D01*
X36459028Y-72083189D01*
X36472229Y-72123968D01*
X36495877Y-72171683D01*
X36561843Y-72251314D01*
X36653512Y-72290987D01*
X36765555Y-72289695D01*
X36892472Y-72246514D01*
X37002158Y-72193224D01*
X37093173Y-72265191D01*
X37184188Y-72337157D01*
X37098563Y-72416269D01*
X36984250Y-72491017D01*
X36843666Y-72536084D01*
X36692449Y-72548696D01*
X36546236Y-72526079D01*
X36522647Y-72518405D01*
X36394141Y-72451296D01*
X36298551Y-72351247D01*
X36233861Y-72215271D01*
X36198057Y-72040380D01*
X36197640Y-72036632D01*
X36194434Y-71846032D01*
X36207393Y-71778035D01*
X36460392Y-71778035D01*
X36483627Y-71788491D01*
X36546710Y-71796500D01*
X36639706Y-71801073D01*
X36698638Y-71801765D01*
X36808537Y-71801332D01*
X36877252Y-71798578D01*
X36913405Y-71791321D01*
X36925615Y-71777376D01*
X36922504Y-71754562D01*
X36919894Y-71745735D01*
X36875344Y-71662800D01*
X36805279Y-71595960D01*
X36743446Y-71566589D01*
X36661301Y-71568362D01*
X36578062Y-71604990D01*
X36508238Y-71665634D01*
X36466337Y-71739456D01*
X36460392Y-71778035D01*
X36207393Y-71778035D01*
X36226385Y-71678395D01*
X36289773Y-71537711D01*
X36380878Y-71427974D01*
X36495978Y-71353174D01*
X36631355Y-71317304D01*
X36783287Y-71324355D01*
X36783287Y-71324355D01*
G37*
X36783287Y-71324355D02*
X36847051Y-71339845D01*
X36969300Y-71396569D01*
X37073834Y-71483202D01*
X37146180Y-71587074D01*
X37156119Y-71610396D01*
X37169754Y-71671484D01*
X37179298Y-71761853D01*
X37182549Y-71853190D01*
X37182549Y-72025882D01*
X36821470Y-72025882D01*
X36672546Y-72026445D01*
X36567632Y-72029864D01*
X36500937Y-72038731D01*
X36466666Y-72055641D01*
X36459028Y-72083189D01*
X36472229Y-72123968D01*
X36495877Y-72171683D01*
X36561843Y-72251314D01*
X36653512Y-72290987D01*
X36765555Y-72289695D01*
X36892472Y-72246514D01*
X37002158Y-72193224D01*
X37093173Y-72265191D01*
X37184188Y-72337157D01*
X37098563Y-72416269D01*
X36984250Y-72491017D01*
X36843666Y-72536084D01*
X36692449Y-72548696D01*
X36546236Y-72526079D01*
X36522647Y-72518405D01*
X36394141Y-72451296D01*
X36298551Y-72351247D01*
X36233861Y-72215271D01*
X36198057Y-72040380D01*
X36197640Y-72036632D01*
X36194434Y-71846032D01*
X36207393Y-71778035D01*
X36460392Y-71778035D01*
X36483627Y-71788491D01*
X36546710Y-71796500D01*
X36639706Y-71801073D01*
X36698638Y-71801765D01*
X36808537Y-71801332D01*
X36877252Y-71798578D01*
X36913405Y-71791321D01*
X36925615Y-71777376D01*
X36922504Y-71754562D01*
X36919894Y-71745735D01*
X36875344Y-71662800D01*
X36805279Y-71595960D01*
X36743446Y-71566589D01*
X36661301Y-71568362D01*
X36578062Y-71604990D01*
X36508238Y-71665634D01*
X36466337Y-71739456D01*
X36460392Y-71778035D01*
X36207393Y-71778035D01*
X36226385Y-71678395D01*
X36289773Y-71537711D01*
X36380878Y-71427974D01*
X36495978Y-71353174D01*
X36631355Y-71317304D01*
X36783287Y-71324355D01*
G36*
X35870976Y-71339056D02*
X36015256Y-71400348D01*
X36060699Y-71430185D01*
X36118779Y-71476036D01*
X36155238Y-71512089D01*
X36161568Y-71523832D01*
X36143693Y-71549889D01*
X36097950Y-71594105D01*
X36061328Y-71624965D01*
X35961088Y-71705520D01*
X35881935Y-71638918D01*
X35820769Y-71595921D01*
X35761129Y-71581079D01*
X35692872Y-71584704D01*
X35584482Y-71611652D01*
X35509872Y-71667587D01*
X35464530Y-71758014D01*
X35443947Y-71888435D01*
X35443942Y-71888517D01*
X35445722Y-72034290D01*
X35473387Y-72141245D01*
X35528571Y-72214064D01*
X35566192Y-72238723D01*
X35666105Y-72269431D01*
X35772822Y-72269449D01*
X35865669Y-72239655D01*
X35887647Y-72225098D01*
X35942765Y-72187914D01*
X35985859Y-72181820D01*
X36032335Y-72209496D01*
X36083716Y-72259205D01*
X36165046Y-72343116D01*
X36074749Y-72417546D01*
X35935236Y-72501549D01*
X35777912Y-72542947D01*
X35613503Y-72539950D01*
X35505531Y-72512500D01*
X35379331Y-72444620D01*
X35278401Y-72337831D01*
X35232548Y-72262451D01*
X35195410Y-72154297D01*
X35176827Y-72017318D01*
X35176684Y-71868864D01*
X35194865Y-71726281D01*
X35231255Y-71606918D01*
X35236987Y-71594680D01*
X35321865Y-71474655D01*
X35436782Y-71387267D01*
X35572659Y-71334329D01*
X35720417Y-71317654D01*
X35870976Y-71339056D01*
X35870976Y-71339056D01*
G37*
X35870976Y-71339056D02*
X36015256Y-71400348D01*
X36060699Y-71430185D01*
X36118779Y-71476036D01*
X36155238Y-71512089D01*
X36161568Y-71523832D01*
X36143693Y-71549889D01*
X36097950Y-71594105D01*
X36061328Y-71624965D01*
X35961088Y-71705520D01*
X35881935Y-71638918D01*
X35820769Y-71595921D01*
X35761129Y-71581079D01*
X35692872Y-71584704D01*
X35584482Y-71611652D01*
X35509872Y-71667587D01*
X35464530Y-71758014D01*
X35443947Y-71888435D01*
X35443942Y-71888517D01*
X35445722Y-72034290D01*
X35473387Y-72141245D01*
X35528571Y-72214064D01*
X35566192Y-72238723D01*
X35666105Y-72269431D01*
X35772822Y-72269449D01*
X35865669Y-72239655D01*
X35887647Y-72225098D01*
X35942765Y-72187914D01*
X35985859Y-72181820D01*
X36032335Y-72209496D01*
X36083716Y-72259205D01*
X36165046Y-72343116D01*
X36074749Y-72417546D01*
X35935236Y-72501549D01*
X35777912Y-72542947D01*
X35613503Y-72539950D01*
X35505531Y-72512500D01*
X35379331Y-72444620D01*
X35278401Y-72337831D01*
X35232548Y-72262451D01*
X35195410Y-72154297D01*
X35176827Y-72017318D01*
X35176684Y-71868864D01*
X35194865Y-71726281D01*
X35231255Y-71606918D01*
X35236987Y-71594680D01*
X35321865Y-71474655D01*
X35436782Y-71387267D01*
X35572659Y-71334329D01*
X35720417Y-71317654D01*
X35870976Y-71339056D01*
G36*
X33447254Y-71716245D02*
X33449608Y-71898879D01*
X33458207Y-72037600D01*
X33475360Y-72138147D01*
X33503374Y-72206254D01*
X33544557Y-72247659D01*
X33601217Y-72268097D01*
X33671372Y-72273318D01*
X33744848Y-72267468D01*
X33800657Y-72246093D01*
X33841109Y-72203458D01*
X33868509Y-72133825D01*
X33885167Y-72031460D01*
X33893389Y-71890624D01*
X33895490Y-71716245D01*
X33895490Y-71328628D01*
X34169411Y-71328628D01*
X34169411Y-72523922D01*
X34032451Y-72523922D01*
X33949884Y-72520576D01*
X33907368Y-72508826D01*
X33895490Y-72486520D01*
X33888336Y-72466654D01*
X33859865Y-72470857D01*
X33802476Y-72498971D01*
X33670945Y-72542342D01*
X33531438Y-72539270D01*
X33397765Y-72492174D01*
X33334108Y-72454971D01*
X33285553Y-72414691D01*
X33250081Y-72364291D01*
X33225674Y-72296729D01*
X33210313Y-72204965D01*
X33201982Y-72081955D01*
X33198662Y-71920659D01*
X33198235Y-71795928D01*
X33198235Y-71328628D01*
X33447254Y-71328628D01*
X33447254Y-71716245D01*
X33447254Y-71716245D01*
G37*
X33447254Y-71716245D02*
X33449608Y-71898879D01*
X33458207Y-72037600D01*
X33475360Y-72138147D01*
X33503374Y-72206254D01*
X33544557Y-72247659D01*
X33601217Y-72268097D01*
X33671372Y-72273318D01*
X33744848Y-72267468D01*
X33800657Y-72246093D01*
X33841109Y-72203458D01*
X33868509Y-72133825D01*
X33885167Y-72031460D01*
X33893389Y-71890624D01*
X33895490Y-71716245D01*
X33895490Y-71328628D01*
X34169411Y-71328628D01*
X34169411Y-72523922D01*
X34032451Y-72523922D01*
X33949884Y-72520576D01*
X33907368Y-72508826D01*
X33895490Y-72486520D01*
X33888336Y-72466654D01*
X33859865Y-72470857D01*
X33802476Y-72498971D01*
X33670945Y-72542342D01*
X33531438Y-72539270D01*
X33397765Y-72492174D01*
X33334108Y-72454971D01*
X33285553Y-72414691D01*
X33250081Y-72364291D01*
X33225674Y-72296729D01*
X33210313Y-72204965D01*
X33201982Y-72081955D01*
X33198662Y-71920659D01*
X33198235Y-71795928D01*
X33198235Y-71328628D01*
X33447254Y-71328628D01*
X33447254Y-71716245D01*
G36*
X32689547Y-71343364D02*
X32815502Y-71411959D01*
X32914047Y-71520245D01*
X32960478Y-71608315D01*
X32980412Y-71686101D01*
X32993328Y-71796993D01*
X32998863Y-71924738D01*
X32996654Y-72053084D01*
X32986337Y-72165779D01*
X32974286Y-72225969D01*
X32933634Y-72308311D01*
X32863230Y-72395770D01*
X32778382Y-72472251D01*
X32694397Y-72521655D01*
X32692349Y-72522439D01*
X32588134Y-72544027D01*
X32464627Y-72544562D01*
X32347261Y-72524908D01*
X32301942Y-72509155D01*
X32185220Y-72442966D01*
X32101624Y-72356246D01*
X32046701Y-72241438D01*
X32015995Y-72090982D01*
X32009047Y-72012173D01*
X32009933Y-71913145D01*
X32276862Y-71913145D01*
X32285854Y-72057645D01*
X32311736Y-72167760D01*
X32352868Y-72238116D01*
X32382172Y-72258235D01*
X32457251Y-72272265D01*
X32546494Y-72268111D01*
X32623650Y-72247922D01*
X32643883Y-72236815D01*
X32697265Y-72172123D01*
X32732500Y-72073119D01*
X32747498Y-71952632D01*
X32740172Y-71823494D01*
X32723799Y-71745775D01*
X32676790Y-71655771D01*
X32602582Y-71599509D01*
X32513209Y-71580057D01*
X32420707Y-71600481D01*
X32349653Y-71650437D01*
X32312312Y-71691655D01*
X32290518Y-71732281D01*
X32280130Y-71787264D01*
X32277006Y-71871549D01*
X32276862Y-71913145D01*
X32009933Y-71913145D01*
X32010930Y-71801874D01*
X32045180Y-71629423D01*
X32111802Y-71494814D01*
X32210799Y-71398040D01*
X32342175Y-71339094D01*
X32370385Y-71332259D01*
X32539926Y-71316213D01*
X32689547Y-71343364D01*
X32689547Y-71343364D01*
G37*
X32689547Y-71343364D02*
X32815502Y-71411959D01*
X32914047Y-71520245D01*
X32960478Y-71608315D01*
X32980412Y-71686101D01*
X32993328Y-71796993D01*
X32998863Y-71924738D01*
X32996654Y-72053084D01*
X32986337Y-72165779D01*
X32974286Y-72225969D01*
X32933634Y-72308311D01*
X32863230Y-72395770D01*
X32778382Y-72472251D01*
X32694397Y-72521655D01*
X32692349Y-72522439D01*
X32588134Y-72544027D01*
X32464627Y-72544562D01*
X32347261Y-72524908D01*
X32301942Y-72509155D01*
X32185220Y-72442966D01*
X32101624Y-72356246D01*
X32046701Y-72241438D01*
X32015995Y-72090982D01*
X32009047Y-72012173D01*
X32009933Y-71913145D01*
X32276862Y-71913145D01*
X32285854Y-72057645D01*
X32311736Y-72167760D01*
X32352868Y-72238116D01*
X32382172Y-72258235D01*
X32457251Y-72272265D01*
X32546494Y-72268111D01*
X32623650Y-72247922D01*
X32643883Y-72236815D01*
X32697265Y-72172123D01*
X32732500Y-72073119D01*
X32747498Y-71952632D01*
X32740172Y-71823494D01*
X32723799Y-71745775D01*
X32676790Y-71655771D01*
X32602582Y-71599509D01*
X32513209Y-71580057D01*
X32420707Y-71600481D01*
X32349653Y-71650437D01*
X32312312Y-71691655D01*
X32290518Y-71732281D01*
X32280130Y-71787264D01*
X32277006Y-71871549D01*
X32276862Y-71913145D01*
X32009933Y-71913145D01*
X32010930Y-71801874D01*
X32045180Y-71629423D01*
X32111802Y-71494814D01*
X32210799Y-71398040D01*
X32342175Y-71339094D01*
X32370385Y-71332259D01*
X32539926Y-71316213D01*
X32689547Y-71343364D01*
G36*
X31507759Y-71324345D02*
X31602059Y-71342229D01*
X31699890Y-71379633D01*
X31710343Y-71384402D01*
X31784531Y-71423412D01*
X31835910Y-71459664D01*
X31852517Y-71482887D01*
X31836702Y-71520761D01*
X31798288Y-71576644D01*
X31781237Y-71597505D01*
X31710969Y-71679618D01*
X31620379Y-71626168D01*
X31534164Y-71590561D01*
X31434549Y-71571529D01*
X31339019Y-71570326D01*
X31265061Y-71588210D01*
X31247312Y-71599373D01*
X31213512Y-71650553D01*
X31209404Y-71709509D01*
X31234696Y-71755567D01*
X31249656Y-71764499D01*
X31294486Y-71775592D01*
X31373286Y-71788630D01*
X31470426Y-71801088D01*
X31488346Y-71803042D01*
X31644365Y-71830030D01*
X31757523Y-71875873D01*
X31832569Y-71944803D01*
X31874253Y-72041054D01*
X31887238Y-72158617D01*
X31869299Y-72292254D01*
X31811050Y-72397195D01*
X31712255Y-72473630D01*
X31572682Y-72521748D01*
X31417745Y-72540732D01*
X31291398Y-72540504D01*
X31188913Y-72523262D01*
X31118921Y-72499457D01*
X31030483Y-72457978D01*
X30948754Y-72409842D01*
X30919705Y-72388655D01*
X30845000Y-72327676D01*
X30935098Y-72236508D01*
X31025196Y-72145339D01*
X31127632Y-72213128D01*
X31230374Y-72264042D01*
X31340087Y-72290673D01*
X31445551Y-72293483D01*
X31535546Y-72272935D01*
X31598854Y-72229493D01*
X31619296Y-72192838D01*
X31616229Y-72134053D01*
X31565434Y-72089099D01*
X31467048Y-72058057D01*
X31359256Y-72043710D01*
X31193365Y-72016337D01*
X31070124Y-71964693D01*
X30987886Y-71887266D01*
X30945001Y-71782544D01*
X30939060Y-71658387D01*
X30968406Y-71528702D01*
X31035309Y-71430677D01*
X31140371Y-71363866D01*
X31284190Y-71327820D01*
X31390738Y-71320754D01*
X31507759Y-71324345D01*
X31507759Y-71324345D01*
G37*
X31507759Y-71324345D02*
X31602059Y-71342229D01*
X31699890Y-71379633D01*
X31710343Y-71384402D01*
X31784531Y-71423412D01*
X31835910Y-71459664D01*
X31852517Y-71482887D01*
X31836702Y-71520761D01*
X31798288Y-71576644D01*
X31781237Y-71597505D01*
X31710969Y-71679618D01*
X31620379Y-71626168D01*
X31534164Y-71590561D01*
X31434549Y-71571529D01*
X31339019Y-71570326D01*
X31265061Y-71588210D01*
X31247312Y-71599373D01*
X31213512Y-71650553D01*
X31209404Y-71709509D01*
X31234696Y-71755567D01*
X31249656Y-71764499D01*
X31294486Y-71775592D01*
X31373286Y-71788630D01*
X31470426Y-71801088D01*
X31488346Y-71803042D01*
X31644365Y-71830030D01*
X31757523Y-71875873D01*
X31832569Y-71944803D01*
X31874253Y-72041054D01*
X31887238Y-72158617D01*
X31869299Y-72292254D01*
X31811050Y-72397195D01*
X31712255Y-72473630D01*
X31572682Y-72521748D01*
X31417745Y-72540732D01*
X31291398Y-72540504D01*
X31188913Y-72523262D01*
X31118921Y-72499457D01*
X31030483Y-72457978D01*
X30948754Y-72409842D01*
X30919705Y-72388655D01*
X30845000Y-72327676D01*
X30935098Y-72236508D01*
X31025196Y-72145339D01*
X31127632Y-72213128D01*
X31230374Y-72264042D01*
X31340087Y-72290673D01*
X31445551Y-72293483D01*
X31535546Y-72272935D01*
X31598854Y-72229493D01*
X31619296Y-72192838D01*
X31616229Y-72134053D01*
X31565434Y-72089099D01*
X31467048Y-72058057D01*
X31359256Y-72043710D01*
X31193365Y-72016337D01*
X31070124Y-71964693D01*
X30987886Y-71887266D01*
X30945001Y-71782544D01*
X30939060Y-71658387D01*
X30968406Y-71528702D01*
X31035309Y-71430677D01*
X31140371Y-71363866D01*
X31284190Y-71327820D01*
X31390738Y-71320754D01*
X31507759Y-71324345D01*
G36*
X28793204Y-71356354D02*
X28818019Y-71368037D01*
X28903906Y-71430951D01*
X28985121Y-71522769D01*
X29045764Y-71623868D01*
X29063012Y-71670349D01*
X29078749Y-71753376D01*
X29088133Y-71853713D01*
X29089272Y-71895147D01*
X29089411Y-72025882D01*
X28336953Y-72025882D01*
X28352993Y-72094363D01*
X28392363Y-72175355D01*
X28461194Y-72245351D01*
X28543081Y-72290441D01*
X28595263Y-72299804D01*
X28666029Y-72288441D01*
X28750460Y-72259943D01*
X28779142Y-72246831D01*
X28885209Y-72193858D01*
X28975728Y-72262901D01*
X29027961Y-72309597D01*
X29055753Y-72348140D01*
X29057160Y-72359452D01*
X29032332Y-72386868D01*
X28977917Y-72428532D01*
X28928528Y-72461037D01*
X28795252Y-72519468D01*
X28645839Y-72545915D01*
X28497751Y-72539039D01*
X28379705Y-72503096D01*
X28258018Y-72426101D01*
X28171540Y-72324728D01*
X28117441Y-72193570D01*
X28092891Y-72027224D01*
X28090714Y-71951108D01*
X28099427Y-71776685D01*
X28100497Y-71771611D01*
X28349827Y-71771611D01*
X28356694Y-71787968D01*
X28384917Y-71796988D01*
X28443127Y-71800854D01*
X28539958Y-71801749D01*
X28577243Y-71801765D01*
X28690683Y-71800413D01*
X28762622Y-71795505D01*
X28801313Y-71785760D01*
X28815005Y-71769899D01*
X28815490Y-71764805D01*
X28799863Y-71724326D01*
X28760753Y-71667621D01*
X28743939Y-71647766D01*
X28681519Y-71591611D01*
X28616453Y-71569532D01*
X28581397Y-71567686D01*
X28486558Y-71590766D01*
X28407027Y-71652759D01*
X28356577Y-71742802D01*
X28355683Y-71745735D01*
X28349827Y-71771611D01*
X28100497Y-71771611D01*
X28128399Y-71639343D01*
X28180590Y-71529461D01*
X28244421Y-71451461D01*
X28362433Y-71366882D01*
X28501158Y-71321686D01*
X28648710Y-71317600D01*
X28793204Y-71356354D01*
X28793204Y-71356354D01*
G37*
X28793204Y-71356354D02*
X28818019Y-71368037D01*
X28903906Y-71430951D01*
X28985121Y-71522769D01*
X29045764Y-71623868D01*
X29063012Y-71670349D01*
X29078749Y-71753376D01*
X29088133Y-71853713D01*
X29089272Y-71895147D01*
X29089411Y-72025882D01*
X28336953Y-72025882D01*
X28352993Y-72094363D01*
X28392363Y-72175355D01*
X28461194Y-72245351D01*
X28543081Y-72290441D01*
X28595263Y-72299804D01*
X28666029Y-72288441D01*
X28750460Y-72259943D01*
X28779142Y-72246831D01*
X28885209Y-72193858D01*
X28975728Y-72262901D01*
X29027961Y-72309597D01*
X29055753Y-72348140D01*
X29057160Y-72359452D01*
X29032332Y-72386868D01*
X28977917Y-72428532D01*
X28928528Y-72461037D01*
X28795252Y-72519468D01*
X28645839Y-72545915D01*
X28497751Y-72539039D01*
X28379705Y-72503096D01*
X28258018Y-72426101D01*
X28171540Y-72324728D01*
X28117441Y-72193570D01*
X28092891Y-72027224D01*
X28090714Y-71951108D01*
X28099427Y-71776685D01*
X28100497Y-71771611D01*
X28349827Y-71771611D01*
X28356694Y-71787968D01*
X28384917Y-71796988D01*
X28443127Y-71800854D01*
X28539958Y-71801749D01*
X28577243Y-71801765D01*
X28690683Y-71800413D01*
X28762622Y-71795505D01*
X28801313Y-71785760D01*
X28815005Y-71769899D01*
X28815490Y-71764805D01*
X28799863Y-71724326D01*
X28760753Y-71667621D01*
X28743939Y-71647766D01*
X28681519Y-71591611D01*
X28616453Y-71569532D01*
X28581397Y-71567686D01*
X28486558Y-71590766D01*
X28407027Y-71652759D01*
X28356577Y-71742802D01*
X28355683Y-71745735D01*
X28349827Y-71771611D01*
X28100497Y-71771611D01*
X28128399Y-71639343D01*
X28180590Y-71529461D01*
X28244421Y-71451461D01*
X28362433Y-71366882D01*
X28501158Y-71321686D01*
X28648710Y-71317600D01*
X28793204Y-71356354D01*
G36*
X26453247Y-71341568D02*
X26583522Y-71399163D01*
X26682419Y-71495334D01*
X26750082Y-71630229D01*
X26786655Y-71803996D01*
X26789276Y-71831126D01*
X26791330Y-72022408D01*
X26764699Y-72190073D01*
X26711001Y-72325967D01*
X26682247Y-72369681D01*
X26582091Y-72462198D01*
X26454537Y-72522119D01*
X26311837Y-72546985D01*
X26166240Y-72534339D01*
X26055562Y-72495391D01*
X25960384Y-72429755D01*
X25882594Y-72343699D01*
X25881249Y-72341685D01*
X25849657Y-72288570D01*
X25829127Y-72235160D01*
X25816695Y-72167754D01*
X25809397Y-72072653D01*
X25806182Y-71994666D01*
X25804844Y-71923944D01*
X26053814Y-71923944D01*
X26056247Y-71994348D01*
X26065080Y-72088068D01*
X26080664Y-72148214D01*
X26108766Y-72191006D01*
X26135086Y-72216002D01*
X26228392Y-72268338D01*
X26326020Y-72275333D01*
X26416942Y-72237676D01*
X26462402Y-72195479D01*
X26495162Y-72152956D01*
X26514323Y-72112267D01*
X26522733Y-72059314D01*
X26523237Y-71979997D01*
X26520645Y-71906950D01*
X26515071Y-71802601D01*
X26506234Y-71734920D01*
X26490307Y-71690774D01*
X26463462Y-71657031D01*
X26442189Y-71637746D01*
X26353206Y-71587086D01*
X26257211Y-71584560D01*
X26176719Y-71614567D01*
X26108053Y-71677231D01*
X26067144Y-71780168D01*
X26053814Y-71923944D01*
X25804844Y-71923944D01*
X25803246Y-71839582D01*
X25808260Y-71723600D01*
X25823283Y-71636367D01*
X25850376Y-71567530D01*
X25891600Y-71506737D01*
X25906885Y-71488686D01*
X26002454Y-71398746D01*
X26104961Y-71346211D01*
X26230321Y-71324201D01*
X26291450Y-71322402D01*
X26453247Y-71341568D01*
X26453247Y-71341568D01*
G37*
X26453247Y-71341568D02*
X26583522Y-71399163D01*
X26682419Y-71495334D01*
X26750082Y-71630229D01*
X26786655Y-71803996D01*
X26789276Y-71831126D01*
X26791330Y-72022408D01*
X26764699Y-72190073D01*
X26711001Y-72325967D01*
X26682247Y-72369681D01*
X26582091Y-72462198D01*
X26454537Y-72522119D01*
X26311837Y-72546985D01*
X26166240Y-72534339D01*
X26055562Y-72495391D01*
X25960384Y-72429755D01*
X25882594Y-72343699D01*
X25881249Y-72341685D01*
X25849657Y-72288570D01*
X25829127Y-72235160D01*
X25816695Y-72167754D01*
X25809397Y-72072653D01*
X25806182Y-71994666D01*
X25804844Y-71923944D01*
X26053814Y-71923944D01*
X26056247Y-71994348D01*
X26065080Y-72088068D01*
X26080664Y-72148214D01*
X26108766Y-72191006D01*
X26135086Y-72216002D01*
X26228392Y-72268338D01*
X26326020Y-72275333D01*
X26416942Y-72237676D01*
X26462402Y-72195479D01*
X26495162Y-72152956D01*
X26514323Y-72112267D01*
X26522733Y-72059314D01*
X26523237Y-71979997D01*
X26520645Y-71906950D01*
X26515071Y-71802601D01*
X26506234Y-71734920D01*
X26490307Y-71690774D01*
X26463462Y-71657031D01*
X26442189Y-71637746D01*
X26353206Y-71587086D01*
X26257211Y-71584560D01*
X26176719Y-71614567D01*
X26108053Y-71677231D01*
X26067144Y-71780168D01*
X26053814Y-71923944D01*
X25804844Y-71923944D01*
X25803246Y-71839582D01*
X25808260Y-71723600D01*
X25823283Y-71636367D01*
X25850376Y-71567530D01*
X25891600Y-71506737D01*
X25906885Y-71488686D01*
X26002454Y-71398746D01*
X26104961Y-71346211D01*
X26230321Y-71324201D01*
X26291450Y-71322402D01*
X26453247Y-71341568D01*
G36*
X35505307Y-73202784D02*
X35624337Y-73233731D01*
X35724021Y-73297600D01*
X35772288Y-73345313D01*
X35851408Y-73458106D01*
X35896752Y-73588950D01*
X35912330Y-73749792D01*
X35912410Y-73762794D01*
X35912549Y-73893530D01*
X35160091Y-73893530D01*
X35176130Y-73962010D01*
X35205091Y-74024031D01*
X35255778Y-74088654D01*
X35266379Y-74098971D01*
X35357494Y-74154805D01*
X35461400Y-74164275D01*
X35581000Y-74127540D01*
X35601274Y-74117647D01*
X35663456Y-74087574D01*
X35705106Y-74070440D01*
X35712373Y-74068855D01*
X35737740Y-74084242D01*
X35786120Y-74121887D01*
X35810679Y-74142459D01*
X35861570Y-74189714D01*
X35878281Y-74220917D01*
X35866683Y-74249620D01*
X35860483Y-74257468D01*
X35818493Y-74291819D01*
X35749206Y-74333565D01*
X35700882Y-74357935D01*
X35563711Y-74400873D01*
X35411847Y-74414786D01*
X35268024Y-74398300D01*
X35227745Y-74386496D01*
X35103078Y-74319689D01*
X35010671Y-74216892D01*
X34949990Y-74077105D01*
X34920498Y-73899330D01*
X34917260Y-73806373D01*
X34926714Y-73671033D01*
X35165490Y-73671033D01*
X35188584Y-73681038D01*
X35250662Y-73688888D01*
X35340914Y-73693521D01*
X35402058Y-73694314D01*
X35512040Y-73693549D01*
X35581457Y-73689970D01*
X35619538Y-73681649D01*
X35635515Y-73666657D01*
X35638627Y-73644903D01*
X35617278Y-73577892D01*
X35563529Y-73511664D01*
X35492822Y-73460832D01*
X35422089Y-73440038D01*
X35326016Y-73458484D01*
X35242849Y-73511811D01*
X35185186Y-73588677D01*
X35165490Y-73671033D01*
X34926714Y-73671033D01*
X34931028Y-73609291D01*
X34973520Y-73452271D01*
X35045635Y-73334069D01*
X35148273Y-73253440D01*
X35282332Y-73209139D01*
X35354957Y-73200607D01*
X35505307Y-73202784D01*
X35505307Y-73202784D01*
G37*
X35505307Y-73202784D02*
X35624337Y-73233731D01*
X35724021Y-73297600D01*
X35772288Y-73345313D01*
X35851408Y-73458106D01*
X35896752Y-73588950D01*
X35912330Y-73749792D01*
X35912410Y-73762794D01*
X35912549Y-73893530D01*
X35160091Y-73893530D01*
X35176130Y-73962010D01*
X35205091Y-74024031D01*
X35255778Y-74088654D01*
X35266379Y-74098971D01*
X35357494Y-74154805D01*
X35461400Y-74164275D01*
X35581000Y-74127540D01*
X35601274Y-74117647D01*
X35663456Y-74087574D01*
X35705106Y-74070440D01*
X35712373Y-74068855D01*
X35737740Y-74084242D01*
X35786120Y-74121887D01*
X35810679Y-74142459D01*
X35861570Y-74189714D01*
X35878281Y-74220917D01*
X35866683Y-74249620D01*
X35860483Y-74257468D01*
X35818493Y-74291819D01*
X35749206Y-74333565D01*
X35700882Y-74357935D01*
X35563711Y-74400873D01*
X35411847Y-74414786D01*
X35268024Y-74398300D01*
X35227745Y-74386496D01*
X35103078Y-74319689D01*
X35010671Y-74216892D01*
X34949990Y-74077105D01*
X34920498Y-73899330D01*
X34917260Y-73806373D01*
X34926714Y-73671033D01*
X35165490Y-73671033D01*
X35188584Y-73681038D01*
X35250662Y-73688888D01*
X35340914Y-73693521D01*
X35402058Y-73694314D01*
X35512040Y-73693549D01*
X35581457Y-73689970D01*
X35619538Y-73681649D01*
X35635515Y-73666657D01*
X35638627Y-73644903D01*
X35617278Y-73577892D01*
X35563529Y-73511664D01*
X35492822Y-73460832D01*
X35422089Y-73440038D01*
X35326016Y-73458484D01*
X35242849Y-73511811D01*
X35185186Y-73588677D01*
X35165490Y-73671033D01*
X34926714Y-73671033D01*
X34931028Y-73609291D01*
X34973520Y-73452271D01*
X35045635Y-73334069D01*
X35148273Y-73253440D01*
X35282332Y-73209139D01*
X35354957Y-73200607D01*
X35505307Y-73202784D01*
G36*
X34718446Y-73195883D02*
X34814177Y-73214755D01*
X34868677Y-73242699D01*
X34926008Y-73289123D01*
X34844441Y-73392111D01*
X34794150Y-73454479D01*
X34760001Y-73484907D01*
X34726063Y-73489555D01*
X34676406Y-73474586D01*
X34653096Y-73466117D01*
X34558063Y-73453622D01*
X34471032Y-73480406D01*
X34407138Y-73540915D01*
X34396759Y-73560208D01*
X34385456Y-73611314D01*
X34376732Y-73705500D01*
X34370997Y-73836089D01*
X34368660Y-73996405D01*
X34368627Y-74019211D01*
X34368627Y-74416471D01*
X34094705Y-74416471D01*
X34094705Y-73196275D01*
X34231666Y-73196275D01*
X34310638Y-73198337D01*
X34351779Y-73207513D01*
X34366992Y-73228290D01*
X34368627Y-73247886D01*
X34368627Y-73299497D01*
X34434240Y-73247886D01*
X34509475Y-73212675D01*
X34610544Y-73195265D01*
X34718446Y-73195883D01*
X34718446Y-73195883D01*
G37*
X34718446Y-73195883D02*
X34814177Y-73214755D01*
X34868677Y-73242699D01*
X34926008Y-73289123D01*
X34844441Y-73392111D01*
X34794150Y-73454479D01*
X34760001Y-73484907D01*
X34726063Y-73489555D01*
X34676406Y-73474586D01*
X34653096Y-73466117D01*
X34558063Y-73453622D01*
X34471032Y-73480406D01*
X34407138Y-73540915D01*
X34396759Y-73560208D01*
X34385456Y-73611314D01*
X34376732Y-73705500D01*
X34370997Y-73836089D01*
X34368660Y-73996405D01*
X34368627Y-74019211D01*
X34368627Y-74416471D01*
X34094705Y-74416471D01*
X34094705Y-73196275D01*
X34231666Y-73196275D01*
X34310638Y-73198337D01*
X34351779Y-73207513D01*
X34366992Y-73228290D01*
X34368627Y-73247886D01*
X34368627Y-73299497D01*
X34434240Y-73247886D01*
X34509475Y-73212675D01*
X34610544Y-73195265D01*
X34718446Y-73195883D01*
G36*
X33536459Y-73203669D02*
X33641420Y-73229163D01*
X33671761Y-73242669D01*
X33730573Y-73278046D01*
X33775709Y-73317890D01*
X33809106Y-73369120D01*
X33832701Y-73438654D01*
X33848433Y-73533409D01*
X33858239Y-73660305D01*
X33864057Y-73826258D01*
X33866266Y-73937108D01*
X33874396Y-74416471D01*
X33735531Y-74416471D01*
X33651287Y-74412938D01*
X33607884Y-74400866D01*
X33596666Y-74380594D01*
X33590744Y-74358674D01*
X33564266Y-74362865D01*
X33528186Y-74380441D01*
X33437862Y-74407382D01*
X33321777Y-74414642D01*
X33199680Y-74402767D01*
X33091321Y-74372305D01*
X33081602Y-74368077D01*
X32982568Y-74298505D01*
X32917281Y-74201789D01*
X32887240Y-74088738D01*
X32889535Y-74048122D01*
X33134633Y-74048122D01*
X33156229Y-74102782D01*
X33220259Y-74141952D01*
X33323565Y-74162974D01*
X33378774Y-74165766D01*
X33470782Y-74158620D01*
X33531941Y-74130848D01*
X33546862Y-74117647D01*
X33587287Y-74045829D01*
X33596666Y-73980686D01*
X33596666Y-73893530D01*
X33475269Y-73893530D01*
X33334153Y-73900722D01*
X33235173Y-73923345D01*
X33172633Y-73962964D01*
X33158631Y-73980628D01*
X33134633Y-74048122D01*
X32889535Y-74048122D01*
X32893941Y-73970157D01*
X32938880Y-73856855D01*
X33000196Y-73780285D01*
X33037332Y-73747181D01*
X33073687Y-73725425D01*
X33120990Y-73712161D01*
X33190973Y-73704528D01*
X33295364Y-73699670D01*
X33336770Y-73698273D01*
X33596666Y-73689780D01*
X33596285Y-73611116D01*
X33586219Y-73528428D01*
X33549829Y-73478431D01*
X33476311Y-73446489D01*
X33474339Y-73445920D01*
X33370105Y-73433361D01*
X33268108Y-73449766D01*
X33192305Y-73489657D01*
X33161890Y-73509354D01*
X33129132Y-73506629D01*
X33078721Y-73478091D01*
X33049119Y-73457950D01*
X32991218Y-73414919D01*
X32955352Y-73382662D01*
X32949597Y-73373427D01*
X32973295Y-73325636D01*
X33043313Y-73268562D01*
X33073725Y-73249305D01*
X33161155Y-73216140D01*
X33278983Y-73197350D01*
X33409866Y-73193129D01*
X33536459Y-73203669D01*
X33536459Y-73203669D01*
G37*
X33536459Y-73203669D02*
X33641420Y-73229163D01*
X33671761Y-73242669D01*
X33730573Y-73278046D01*
X33775709Y-73317890D01*
X33809106Y-73369120D01*
X33832701Y-73438654D01*
X33848433Y-73533409D01*
X33858239Y-73660305D01*
X33864057Y-73826258D01*
X33866266Y-73937108D01*
X33874396Y-74416471D01*
X33735531Y-74416471D01*
X33651287Y-74412938D01*
X33607884Y-74400866D01*
X33596666Y-74380594D01*
X33590744Y-74358674D01*
X33564266Y-74362865D01*
X33528186Y-74380441D01*
X33437862Y-74407382D01*
X33321777Y-74414642D01*
X33199680Y-74402767D01*
X33091321Y-74372305D01*
X33081602Y-74368077D01*
X32982568Y-74298505D01*
X32917281Y-74201789D01*
X32887240Y-74088738D01*
X32889535Y-74048122D01*
X33134633Y-74048122D01*
X33156229Y-74102782D01*
X33220259Y-74141952D01*
X33323565Y-74162974D01*
X33378774Y-74165766D01*
X33470782Y-74158620D01*
X33531941Y-74130848D01*
X33546862Y-74117647D01*
X33587287Y-74045829D01*
X33596666Y-73980686D01*
X33596666Y-73893530D01*
X33475269Y-73893530D01*
X33334153Y-73900722D01*
X33235173Y-73923345D01*
X33172633Y-73962964D01*
X33158631Y-73980628D01*
X33134633Y-74048122D01*
X32889535Y-74048122D01*
X32893941Y-73970157D01*
X32938880Y-73856855D01*
X33000196Y-73780285D01*
X33037332Y-73747181D01*
X33073687Y-73725425D01*
X33120990Y-73712161D01*
X33190973Y-73704528D01*
X33295364Y-73699670D01*
X33336770Y-73698273D01*
X33596666Y-73689780D01*
X33596285Y-73611116D01*
X33586219Y-73528428D01*
X33549829Y-73478431D01*
X33476311Y-73446489D01*
X33474339Y-73445920D01*
X33370105Y-73433361D01*
X33268108Y-73449766D01*
X33192305Y-73489657D01*
X33161890Y-73509354D01*
X33129132Y-73506629D01*
X33078721Y-73478091D01*
X33049119Y-73457950D01*
X32991218Y-73414919D01*
X32955352Y-73382662D01*
X32949597Y-73373427D01*
X32973295Y-73325636D01*
X33043313Y-73268562D01*
X33073725Y-73249305D01*
X33161155Y-73216140D01*
X33278983Y-73197350D01*
X33409866Y-73193129D01*
X33536459Y-73203669D01*
G36*
X32037528Y-73201332D02*
X32136014Y-73208726D01*
X32264776Y-73594706D01*
X32393537Y-73980686D01*
X32433911Y-73843726D01*
X32458207Y-73759083D01*
X32490167Y-73644697D01*
X32524679Y-73518963D01*
X32542928Y-73451520D01*
X32611571Y-73196275D01*
X32894773Y-73196275D01*
X32810122Y-73463971D01*
X32768435Y-73595638D01*
X32718074Y-73754458D01*
X32665481Y-73920128D01*
X32618530Y-74067843D01*
X32511589Y-74404020D01*
X32280661Y-74419044D01*
X32218050Y-74212316D01*
X32179438Y-74083896D01*
X32137300Y-73942322D01*
X32100472Y-73817285D01*
X32099018Y-73812309D01*
X32071511Y-73727586D01*
X32047242Y-73669778D01*
X32030243Y-73647918D01*
X32026750Y-73650446D01*
X32014490Y-73684336D01*
X31991195Y-73756930D01*
X31959700Y-73859101D01*
X31922842Y-73981720D01*
X31902899Y-74049167D01*
X31794895Y-74416471D01*
X31565679Y-74416471D01*
X31382439Y-73837500D01*
X31330963Y-73675091D01*
X31284070Y-73527602D01*
X31243977Y-73401960D01*
X31212897Y-73305095D01*
X31193045Y-73243934D01*
X31187011Y-73226065D01*
X31191788Y-73207768D01*
X31229297Y-73199755D01*
X31307355Y-73200557D01*
X31319574Y-73201163D01*
X31464326Y-73208726D01*
X31559130Y-73557353D01*
X31593977Y-73684497D01*
X31625117Y-73796265D01*
X31649809Y-73882953D01*
X31665312Y-73934856D01*
X31668176Y-73943318D01*
X31680046Y-73933587D01*
X31703983Y-73883172D01*
X31737239Y-73798935D01*
X31777064Y-73687741D01*
X31810730Y-73587297D01*
X31939041Y-73193939D01*
X32037528Y-73201332D01*
X32037528Y-73201332D01*
G37*
X32037528Y-73201332D02*
X32136014Y-73208726D01*
X32264776Y-73594706D01*
X32393537Y-73980686D01*
X32433911Y-73843726D01*
X32458207Y-73759083D01*
X32490167Y-73644697D01*
X32524679Y-73518963D01*
X32542928Y-73451520D01*
X32611571Y-73196275D01*
X32894773Y-73196275D01*
X32810122Y-73463971D01*
X32768435Y-73595638D01*
X32718074Y-73754458D01*
X32665481Y-73920128D01*
X32618530Y-74067843D01*
X32511589Y-74404020D01*
X32280661Y-74419044D01*
X32218050Y-74212316D01*
X32179438Y-74083896D01*
X32137300Y-73942322D01*
X32100472Y-73817285D01*
X32099018Y-73812309D01*
X32071511Y-73727586D01*
X32047242Y-73669778D01*
X32030243Y-73647918D01*
X32026750Y-73650446D01*
X32014490Y-73684336D01*
X31991195Y-73756930D01*
X31959700Y-73859101D01*
X31922842Y-73981720D01*
X31902899Y-74049167D01*
X31794895Y-74416471D01*
X31565679Y-74416471D01*
X31382439Y-73837500D01*
X31330963Y-73675091D01*
X31284070Y-73527602D01*
X31243977Y-73401960D01*
X31212897Y-73305095D01*
X31193045Y-73243934D01*
X31187011Y-73226065D01*
X31191788Y-73207768D01*
X31229297Y-73199755D01*
X31307355Y-73200557D01*
X31319574Y-73201163D01*
X31464326Y-73208726D01*
X31559130Y-73557353D01*
X31593977Y-73684497D01*
X31625117Y-73796265D01*
X31649809Y-73882953D01*
X31665312Y-73934856D01*
X31668176Y-73943318D01*
X31680046Y-73933587D01*
X31703983Y-73883172D01*
X31737239Y-73798935D01*
X31777064Y-73687741D01*
X31810730Y-73587297D01*
X31939041Y-73193939D01*
X32037528Y-73201332D01*
G36*
X31081568Y-74416471D02*
X30944607Y-74416471D01*
X30865111Y-74414140D01*
X30823708Y-74404488D01*
X30808801Y-74383525D01*
X30807647Y-74369351D01*
X30805133Y-74340927D01*
X30789280Y-74335475D01*
X30747621Y-74352998D01*
X30715224Y-74369351D01*
X30590849Y-74408103D01*
X30455646Y-74410346D01*
X30345726Y-74381444D01*
X30243366Y-74311619D01*
X30165340Y-74208555D01*
X30122614Y-74086989D01*
X30121526Y-74080192D01*
X30115178Y-74006032D01*
X30112021Y-73899570D01*
X30112275Y-73819052D01*
X30384289Y-73819052D01*
X30390590Y-73926070D01*
X30404925Y-74014278D01*
X30424331Y-74064090D01*
X30497746Y-74132162D01*
X30584914Y-74156564D01*
X30674804Y-74136831D01*
X30751617Y-74077968D01*
X30780708Y-74038379D01*
X30797717Y-73991138D01*
X30805684Y-73922181D01*
X30807647Y-73818607D01*
X30804134Y-73716039D01*
X30794857Y-73625921D01*
X30781706Y-73565613D01*
X30779514Y-73560208D01*
X30726478Y-73495940D01*
X30649067Y-73460656D01*
X30562454Y-73454959D01*
X30481807Y-73479453D01*
X30422297Y-73534742D01*
X30416124Y-73545743D01*
X30396801Y-73612827D01*
X30386274Y-73709284D01*
X30384289Y-73819052D01*
X30112275Y-73819052D01*
X30112404Y-73778225D01*
X30114194Y-73712918D01*
X30126373Y-73551355D01*
X30151685Y-73430053D01*
X30193793Y-73340379D01*
X30256359Y-73273699D01*
X30317100Y-73234557D01*
X30401964Y-73207040D01*
X30507515Y-73197603D01*
X30615598Y-73205290D01*
X30708058Y-73229146D01*
X30756910Y-73257685D01*
X30807647Y-73303601D01*
X30807647Y-72723137D01*
X31081568Y-72723137D01*
X31081568Y-74416471D01*
X31081568Y-74416471D01*
G37*
X31081568Y-74416471D02*
X30944607Y-74416471D01*
X30865111Y-74414140D01*
X30823708Y-74404488D01*
X30808801Y-74383525D01*
X30807647Y-74369351D01*
X30805133Y-74340927D01*
X30789280Y-74335475D01*
X30747621Y-74352998D01*
X30715224Y-74369351D01*
X30590849Y-74408103D01*
X30455646Y-74410346D01*
X30345726Y-74381444D01*
X30243366Y-74311619D01*
X30165340Y-74208555D01*
X30122614Y-74086989D01*
X30121526Y-74080192D01*
X30115178Y-74006032D01*
X30112021Y-73899570D01*
X30112275Y-73819052D01*
X30384289Y-73819052D01*
X30390590Y-73926070D01*
X30404925Y-74014278D01*
X30424331Y-74064090D01*
X30497746Y-74132162D01*
X30584914Y-74156564D01*
X30674804Y-74136831D01*
X30751617Y-74077968D01*
X30780708Y-74038379D01*
X30797717Y-73991138D01*
X30805684Y-73922181D01*
X30807647Y-73818607D01*
X30804134Y-73716039D01*
X30794857Y-73625921D01*
X30781706Y-73565613D01*
X30779514Y-73560208D01*
X30726478Y-73495940D01*
X30649067Y-73460656D01*
X30562454Y-73454959D01*
X30481807Y-73479453D01*
X30422297Y-73534742D01*
X30416124Y-73545743D01*
X30396801Y-73612827D01*
X30386274Y-73709284D01*
X30384289Y-73819052D01*
X30112275Y-73819052D01*
X30112404Y-73778225D01*
X30114194Y-73712918D01*
X30126373Y-73551355D01*
X30151685Y-73430053D01*
X30193793Y-73340379D01*
X30256359Y-73273699D01*
X30317100Y-73234557D01*
X30401964Y-73207040D01*
X30507515Y-73197603D01*
X30615598Y-73205290D01*
X30708058Y-73229146D01*
X30756910Y-73257685D01*
X30807647Y-73303601D01*
X30807647Y-72723137D01*
X31081568Y-72723137D01*
X31081568Y-74416471D01*
G36*
X29512764Y-73198921D02*
X29550030Y-73210091D01*
X29562043Y-73234633D01*
X29562549Y-73245712D01*
X29564704Y-73276572D01*
X29579551Y-73281417D01*
X29619657Y-73260260D01*
X29643480Y-73245806D01*
X29718638Y-73214850D01*
X29808406Y-73199544D01*
X29902529Y-73198367D01*
X29990754Y-73209799D01*
X30062826Y-73232320D01*
X30108492Y-73264409D01*
X30117498Y-73304545D01*
X30112953Y-73315415D01*
X30079821Y-73360534D01*
X30028445Y-73416026D01*
X30019152Y-73424996D01*
X29970182Y-73466245D01*
X29927931Y-73479572D01*
X29868841Y-73470271D01*
X29845169Y-73464090D01*
X29771504Y-73449246D01*
X29719710Y-73455921D01*
X29675969Y-73479465D01*
X29635902Y-73511061D01*
X29606392Y-73550798D01*
X29585884Y-73606252D01*
X29572824Y-73685003D01*
X29565656Y-73794629D01*
X29562824Y-73942706D01*
X29562549Y-74032111D01*
X29562549Y-74416471D01*
X29313529Y-74416471D01*
X29313529Y-73196275D01*
X29438039Y-73196275D01*
X29512764Y-73198921D01*
X29512764Y-73198921D01*
G37*
X29512764Y-73198921D02*
X29550030Y-73210091D01*
X29562043Y-73234633D01*
X29562549Y-73245712D01*
X29564704Y-73276572D01*
X29579551Y-73281417D01*
X29619657Y-73260260D01*
X29643480Y-73245806D01*
X29718638Y-73214850D01*
X29808406Y-73199544D01*
X29902529Y-73198367D01*
X29990754Y-73209799D01*
X30062826Y-73232320D01*
X30108492Y-73264409D01*
X30117498Y-73304545D01*
X30112953Y-73315415D01*
X30079821Y-73360534D01*
X30028445Y-73416026D01*
X30019152Y-73424996D01*
X29970182Y-73466245D01*
X29927931Y-73479572D01*
X29868841Y-73470271D01*
X29845169Y-73464090D01*
X29771504Y-73449246D01*
X29719710Y-73455921D01*
X29675969Y-73479465D01*
X29635902Y-73511061D01*
X29606392Y-73550798D01*
X29585884Y-73606252D01*
X29572824Y-73685003D01*
X29565656Y-73794629D01*
X29562824Y-73942706D01*
X29562549Y-74032111D01*
X29562549Y-74416471D01*
X29313529Y-74416471D01*
X29313529Y-73196275D01*
X29438039Y-73196275D01*
X29512764Y-73198921D01*
G36*
X28738720Y-73205922D02*
X28855870Y-73237180D01*
X28945051Y-73293837D01*
X29007984Y-73368045D01*
X29027548Y-73399716D01*
X29041992Y-73432891D01*
X29052089Y-73475329D01*
X29058615Y-73534788D01*
X29062342Y-73619029D01*
X29064046Y-73735810D01*
X29064500Y-73892890D01*
X29064509Y-73934565D01*
X29064509Y-74416471D01*
X28944980Y-74416471D01*
X28868739Y-74411131D01*
X28812366Y-74397604D01*
X28798242Y-74389262D01*
X28759630Y-74374864D01*
X28720192Y-74389262D01*
X28655262Y-74407237D01*
X28560945Y-74414472D01*
X28456407Y-74411333D01*
X28360811Y-74398186D01*
X28305000Y-74381318D01*
X28196998Y-74311986D01*
X28129503Y-74215772D01*
X28099159Y-74087844D01*
X28098877Y-74084559D01*
X28101540Y-74027808D01*
X28342353Y-74027808D01*
X28363405Y-74092358D01*
X28397697Y-74128686D01*
X28466532Y-74156162D01*
X28557390Y-74167129D01*
X28650042Y-74161731D01*
X28724256Y-74140110D01*
X28745049Y-74126239D01*
X28781381Y-74062143D01*
X28790588Y-73989278D01*
X28790588Y-73893530D01*
X28652827Y-73893530D01*
X28521953Y-73903605D01*
X28422741Y-73932148D01*
X28361023Y-73976639D01*
X28342353Y-74027808D01*
X28101540Y-74027808D01*
X28105436Y-73944790D01*
X28151534Y-73834282D01*
X28238200Y-73750712D01*
X28250179Y-73743110D01*
X28301655Y-73718357D01*
X28365368Y-73703368D01*
X28454435Y-73696082D01*
X28560245Y-73694407D01*
X28790588Y-73694314D01*
X28790588Y-73597755D01*
X28780817Y-73522836D01*
X28755884Y-73472644D01*
X28752965Y-73469972D01*
X28697481Y-73448015D01*
X28613727Y-73439505D01*
X28521167Y-73443687D01*
X28439270Y-73459809D01*
X28390673Y-73483990D01*
X28364341Y-73503359D01*
X28336535Y-73507057D01*
X28298161Y-73491188D01*
X28240125Y-73451855D01*
X28153331Y-73385164D01*
X28145365Y-73378916D01*
X28149447Y-73355800D01*
X28183501Y-73317352D01*
X28235260Y-73274627D01*
X28292455Y-73238679D01*
X28310425Y-73230191D01*
X28375972Y-73213252D01*
X28472020Y-73201170D01*
X28579329Y-73196323D01*
X28584347Y-73196313D01*
X28738720Y-73205922D01*
X28738720Y-73205922D01*
G37*
X28738720Y-73205922D02*
X28855870Y-73237180D01*
X28945051Y-73293837D01*
X29007984Y-73368045D01*
X29027548Y-73399716D01*
X29041992Y-73432891D01*
X29052089Y-73475329D01*
X29058615Y-73534788D01*
X29062342Y-73619029D01*
X29064046Y-73735810D01*
X29064500Y-73892890D01*
X29064509Y-73934565D01*
X29064509Y-74416471D01*
X28944980Y-74416471D01*
X28868739Y-74411131D01*
X28812366Y-74397604D01*
X28798242Y-74389262D01*
X28759630Y-74374864D01*
X28720192Y-74389262D01*
X28655262Y-74407237D01*
X28560945Y-74414472D01*
X28456407Y-74411333D01*
X28360811Y-74398186D01*
X28305000Y-74381318D01*
X28196998Y-74311986D01*
X28129503Y-74215772D01*
X28099159Y-74087844D01*
X28098877Y-74084559D01*
X28101540Y-74027808D01*
X28342353Y-74027808D01*
X28363405Y-74092358D01*
X28397697Y-74128686D01*
X28466532Y-74156162D01*
X28557390Y-74167129D01*
X28650042Y-74161731D01*
X28724256Y-74140110D01*
X28745049Y-74126239D01*
X28781381Y-74062143D01*
X28790588Y-73989278D01*
X28790588Y-73893530D01*
X28652827Y-73893530D01*
X28521953Y-73903605D01*
X28422741Y-73932148D01*
X28361023Y-73976639D01*
X28342353Y-74027808D01*
X28101540Y-74027808D01*
X28105436Y-73944790D01*
X28151534Y-73834282D01*
X28238200Y-73750712D01*
X28250179Y-73743110D01*
X28301655Y-73718357D01*
X28365368Y-73703368D01*
X28454435Y-73696082D01*
X28560245Y-73694407D01*
X28790588Y-73694314D01*
X28790588Y-73597755D01*
X28780817Y-73522836D01*
X28755884Y-73472644D01*
X28752965Y-73469972D01*
X28697481Y-73448015D01*
X28613727Y-73439505D01*
X28521167Y-73443687D01*
X28439270Y-73459809D01*
X28390673Y-73483990D01*
X28364341Y-73503359D01*
X28336535Y-73507057D01*
X28298161Y-73491188D01*
X28240125Y-73451855D01*
X28153331Y-73385164D01*
X28145365Y-73378916D01*
X28149447Y-73355800D01*
X28183501Y-73317352D01*
X28235260Y-73274627D01*
X28292455Y-73238679D01*
X28310425Y-73230191D01*
X28375972Y-73213252D01*
X28472020Y-73201170D01*
X28579329Y-73196323D01*
X28584347Y-73196313D01*
X28738720Y-73205922D01*
G36*
X27699909Y-71349560D02*
X27752412Y-71375499D01*
X27817158Y-71420700D01*
X27864347Y-71469991D01*
X27896665Y-71531885D01*
X27916797Y-71614896D01*
X27927430Y-71727538D01*
X27931247Y-71878324D01*
X27931470Y-71943149D01*
X27930818Y-72085221D01*
X27928112Y-72186757D01*
X27922224Y-72257015D01*
X27912027Y-72305256D01*
X27896394Y-72340738D01*
X27880128Y-72364943D01*
X27776295Y-72467929D01*
X27654021Y-72529874D01*
X27522114Y-72548506D01*
X27389384Y-72521549D01*
X27347333Y-72502486D01*
X27246666Y-72450015D01*
X27246666Y-73272259D01*
X27320135Y-73234267D01*
X27416941Y-73204872D01*
X27535928Y-73197342D01*
X27654745Y-73211245D01*
X27744473Y-73242476D01*
X27818899Y-73301954D01*
X27882490Y-73387066D01*
X27887271Y-73395805D01*
X27907437Y-73436966D01*
X27922165Y-73478454D01*
X27932303Y-73528713D01*
X27938699Y-73596184D01*
X27942201Y-73689309D01*
X27943658Y-73816531D01*
X27943921Y-73959701D01*
X27943921Y-74416471D01*
X27670000Y-74416471D01*
X27670000Y-73574231D01*
X27593383Y-73509763D01*
X27513793Y-73458194D01*
X27438422Y-73448818D01*
X27362633Y-73472947D01*
X27322241Y-73496574D01*
X27292179Y-73530227D01*
X27270797Y-73581087D01*
X27256450Y-73656334D01*
X27247490Y-73763146D01*
X27242270Y-73908704D01*
X27240431Y-74005588D01*
X27234215Y-74404020D01*
X27103480Y-74411547D01*
X26972745Y-74419073D01*
X26972745Y-71946582D01*
X27246666Y-71946582D01*
X27253650Y-72084423D01*
X27277182Y-72180107D01*
X27321135Y-72239641D01*
X27389382Y-72269029D01*
X27458333Y-72274902D01*
X27536386Y-72268154D01*
X27588189Y-72241594D01*
X27620583Y-72206499D01*
X27646084Y-72168752D01*
X27661265Y-72126700D01*
X27668019Y-72067779D01*
X27668241Y-71979428D01*
X27665968Y-71905448D01*
X27660749Y-71794000D01*
X27652979Y-71720833D01*
X27639895Y-71674422D01*
X27618732Y-71643244D01*
X27598760Y-71625223D01*
X27515314Y-71585925D01*
X27416551Y-71579579D01*
X27359841Y-71593116D01*
X27303692Y-71641233D01*
X27266499Y-71734833D01*
X27248472Y-71873254D01*
X27246666Y-71946582D01*
X26972745Y-71946582D01*
X26972745Y-71328628D01*
X27109705Y-71328628D01*
X27191935Y-71331879D01*
X27234360Y-71343426D01*
X27246661Y-71365952D01*
X27246666Y-71366620D01*
X27252374Y-71388681D01*
X27277547Y-71386176D01*
X27327598Y-71361935D01*
X27444219Y-71324851D01*
X27575429Y-71320953D01*
X27699909Y-71349560D01*
X27699909Y-71349560D01*
G37*
X27699909Y-71349560D02*
X27752412Y-71375499D01*
X27817158Y-71420700D01*
X27864347Y-71469991D01*
X27896665Y-71531885D01*
X27916797Y-71614896D01*
X27927430Y-71727538D01*
X27931247Y-71878324D01*
X27931470Y-71943149D01*
X27930818Y-72085221D01*
X27928112Y-72186757D01*
X27922224Y-72257015D01*
X27912027Y-72305256D01*
X27896394Y-72340738D01*
X27880128Y-72364943D01*
X27776295Y-72467929D01*
X27654021Y-72529874D01*
X27522114Y-72548506D01*
X27389384Y-72521549D01*
X27347333Y-72502486D01*
X27246666Y-72450015D01*
X27246666Y-73272259D01*
X27320135Y-73234267D01*
X27416941Y-73204872D01*
X27535928Y-73197342D01*
X27654745Y-73211245D01*
X27744473Y-73242476D01*
X27818899Y-73301954D01*
X27882490Y-73387066D01*
X27887271Y-73395805D01*
X27907437Y-73436966D01*
X27922165Y-73478454D01*
X27932303Y-73528713D01*
X27938699Y-73596184D01*
X27942201Y-73689309D01*
X27943658Y-73816531D01*
X27943921Y-73959701D01*
X27943921Y-74416471D01*
X27670000Y-74416471D01*
X27670000Y-73574231D01*
X27593383Y-73509763D01*
X27513793Y-73458194D01*
X27438422Y-73448818D01*
X27362633Y-73472947D01*
X27322241Y-73496574D01*
X27292179Y-73530227D01*
X27270797Y-73581087D01*
X27256450Y-73656334D01*
X27247490Y-73763146D01*
X27242270Y-73908704D01*
X27240431Y-74005588D01*
X27234215Y-74404020D01*
X27103480Y-74411547D01*
X26972745Y-74419073D01*
X26972745Y-71946582D01*
X27246666Y-71946582D01*
X27253650Y-72084423D01*
X27277182Y-72180107D01*
X27321135Y-72239641D01*
X27389382Y-72269029D01*
X27458333Y-72274902D01*
X27536386Y-72268154D01*
X27588189Y-72241594D01*
X27620583Y-72206499D01*
X27646084Y-72168752D01*
X27661265Y-72126700D01*
X27668019Y-72067779D01*
X27668241Y-71979428D01*
X27665968Y-71905448D01*
X27660749Y-71794000D01*
X27652979Y-71720833D01*
X27639895Y-71674422D01*
X27618732Y-71643244D01*
X27598760Y-71625223D01*
X27515314Y-71585925D01*
X27416551Y-71579579D01*
X27359841Y-71593116D01*
X27303692Y-71641233D01*
X27266499Y-71734833D01*
X27248472Y-71873254D01*
X27246666Y-71946582D01*
X26972745Y-71946582D01*
X26972745Y-71328628D01*
X27109705Y-71328628D01*
X27191935Y-71331879D01*
X27234360Y-71343426D01*
X27246661Y-71365952D01*
X27246666Y-71366620D01*
X27252374Y-71388681D01*
X27277547Y-71386176D01*
X27327598Y-71361935D01*
X27444219Y-71324851D01*
X27575429Y-71320953D01*
X27699909Y-71349560D01*
G36*
X24744430Y-68614848D02*
X24743811Y-68701931D01*
X24292086Y-69160891D01*
X23840361Y-69619852D01*
X23840032Y-69830471D01*
X23839703Y-70041089D01*
X23564610Y-70041089D01*
X23557522Y-70094530D01*
X23554838Y-70118888D01*
X23550313Y-70164759D01*
X23544191Y-70229405D01*
X23536712Y-70310091D01*
X23528119Y-70404081D01*
X23518654Y-70508637D01*
X23508558Y-70621025D01*
X23498074Y-70738507D01*
X23487444Y-70858348D01*
X23476909Y-70977811D01*
X23466713Y-71094159D01*
X23457095Y-71204657D01*
X23448300Y-71306569D01*
X23440568Y-71397158D01*
X23434142Y-71473687D01*
X23429263Y-71533421D01*
X23426175Y-71573624D01*
X23425117Y-71591559D01*
X23425118Y-71591644D01*
X23432827Y-71606035D01*
X23455981Y-71635748D01*
X23494895Y-71681131D01*
X23549884Y-71742529D01*
X23621264Y-71820288D01*
X23709349Y-71914754D01*
X23814454Y-72026272D01*
X23936895Y-72155188D01*
X23971310Y-72191287D01*
X24517137Y-72763416D01*
X24428881Y-72851436D01*
X24357485Y-72773758D01*
X24331366Y-72745686D01*
X24290566Y-72702274D01*
X24237777Y-72646366D01*
X24175691Y-72580808D01*
X24107000Y-72508441D01*
X24034396Y-72432112D01*
X23990960Y-72386524D01*
X23909416Y-72301119D01*
X23843504Y-72232710D01*
X23791544Y-72180053D01*
X23751855Y-72141905D01*
X23722757Y-72117020D01*
X23702569Y-72104156D01*
X23689610Y-72102068D01*
X23682200Y-72109513D01*
X23678658Y-72125246D01*
X23677303Y-72148023D01*
X23677121Y-72154239D01*
X23667703Y-72197061D01*
X23644497Y-72248819D01*
X23612136Y-72301328D01*
X23575252Y-72346403D01*
X23560493Y-72360328D01*
X23484767Y-72409047D01*
X23396308Y-72436306D01*
X23318100Y-72442773D01*
X23229468Y-72430576D01*
X23147612Y-72394813D01*
X23075164Y-72336722D01*
X23061797Y-72322262D01*
X23012918Y-72266733D01*
X22167326Y-72266733D01*
X22167326Y-72442773D01*
X21940990Y-72442773D01*
X21940990Y-72360531D01*
X21938150Y-72304386D01*
X21928607Y-72265416D01*
X21917009Y-72244219D01*
X21908723Y-72229052D01*
X21901627Y-72207062D01*
X21895252Y-72174987D01*
X21889128Y-72129569D01*
X21882784Y-72067548D01*
X21875750Y-71985662D01*
X21870934Y-71924746D01*
X21848839Y-71639343D01*
X21306435Y-72188805D01*
X21208363Y-72288228D01*
X21114216Y-72383815D01*
X21025715Y-72473810D01*
X20944580Y-72556457D01*
X20872531Y-72630001D01*
X20811288Y-72692684D01*
X20762573Y-72742752D01*
X20728104Y-72778448D01*
X20709621Y-72797995D01*
X20679257Y-72828944D01*
X20653929Y-72850530D01*
X20640305Y-72857723D01*
X20622905Y-72849297D01*
X20597540Y-72828245D01*
X20588942Y-72819671D01*
X20552486Y-72781620D01*
X20753198Y-72577658D01*
X20804404Y-72525699D01*
X20870431Y-72458820D01*
X20948382Y-72379950D01*
X21035362Y-72292014D01*
X21128474Y-72197941D01*
X21224821Y-72100658D01*
X21321508Y-72003093D01*
X21390866Y-71933145D01*
X21496297Y-71826550D01*
X21584871Y-71736307D01*
X21657719Y-71661192D01*
X21715977Y-71599986D01*
X21760775Y-71551466D01*
X21782979Y-71526129D01*
X21961276Y-71526129D01*
X21983599Y-71811555D01*
X21990331Y-71895219D01*
X21996843Y-71971727D01*
X22002766Y-72037081D01*
X22007732Y-72087281D01*
X22011371Y-72118329D01*
X22012542Y-72125273D01*
X22019162Y-72153565D01*
X22968636Y-72153565D01*
X22974974Y-72074606D01*
X22994110Y-71981315D01*
X23034154Y-71898791D01*
X23092582Y-71830038D01*
X23166871Y-71778063D01*
X23250252Y-71746863D01*
X23277302Y-71732228D01*
X23290844Y-71700819D01*
X23291128Y-71699434D01*
X23292753Y-71686174D01*
X23290744Y-71672595D01*
X23283142Y-71656181D01*
X23267984Y-71634411D01*
X23243312Y-71604767D01*
X23207164Y-71564732D01*
X23157580Y-71511785D01*
X23092599Y-71443409D01*
X23088401Y-71439005D01*
X23018507Y-71365611D01*
X22944200Y-71287437D01*
X22870586Y-71209864D01*
X22802771Y-71138275D01*
X22745860Y-71078051D01*
X22733168Y-71064587D01*
X22684513Y-71013820D01*
X22641291Y-70970375D01*
X22606605Y-70937241D01*
X22583556Y-70917405D01*
X22575818Y-70913046D01*
X22564278Y-70922170D01*
X22537290Y-70947200D01*
X22496979Y-70986052D01*
X22445471Y-71036643D01*
X22384891Y-71096888D01*
X22317364Y-71164704D01*
X22262174Y-71220565D01*
X21961276Y-71526129D01*
X21782979Y-71526129D01*
X21793249Y-71514411D01*
X21814529Y-71487599D01*
X21825749Y-71469808D01*
X21828246Y-71461570D01*
X21827300Y-71443590D01*
X21824427Y-71402892D01*
X21819813Y-71341819D01*
X21813642Y-71262713D01*
X21806102Y-71167914D01*
X21797379Y-71059767D01*
X21787657Y-70940612D01*
X21777124Y-70812791D01*
X21768635Y-70710635D01*
X21720604Y-70134674D01*
X21844195Y-70134674D01*
X21844727Y-70147104D01*
X21847231Y-70182110D01*
X21851504Y-70237215D01*
X21857347Y-70309943D01*
X21864557Y-70397814D01*
X21872934Y-70498351D01*
X21882277Y-70609077D01*
X21891242Y-70714205D01*
X21901398Y-70833483D01*
X21910858Y-70946080D01*
X21919404Y-71049305D01*
X21926821Y-71140473D01*
X21932892Y-71216895D01*
X21937399Y-71275883D01*
X21940127Y-71314749D01*
X21940884Y-71329844D01*
X21942065Y-71339238D01*
X21946744Y-71342966D01*
X21956724Y-71339471D01*
X21973810Y-71327199D01*
X21999804Y-71304594D01*
X22036510Y-71270100D01*
X22085733Y-71222162D01*
X22149274Y-71159224D01*
X22216695Y-71091968D01*
X22492399Y-70816477D01*
X22490467Y-70814406D01*
X22672710Y-70814406D01*
X22681016Y-70825780D01*
X22704267Y-70852563D01*
X22740135Y-70892292D01*
X22786287Y-70942507D01*
X22840394Y-71000746D01*
X22900126Y-71064547D01*
X22963152Y-71131449D01*
X23027142Y-71198990D01*
X23089764Y-71264710D01*
X23148690Y-71326146D01*
X23201588Y-71380837D01*
X23246128Y-71426322D01*
X23279980Y-71460138D01*
X23300812Y-71479826D01*
X23306494Y-71483837D01*
X23308366Y-71470891D01*
X23312254Y-71435134D01*
X23317943Y-71378804D01*
X23325219Y-71304140D01*
X23333869Y-71213380D01*
X23343678Y-71108762D01*
X23354434Y-70992526D01*
X23365921Y-70866908D01*
X23375093Y-70765618D01*
X23386826Y-70634279D01*
X23397665Y-70510552D01*
X23407430Y-70396681D01*
X23415937Y-70294911D01*
X23423005Y-70207487D01*
X23428451Y-70136653D01*
X23432092Y-70084653D01*
X23433747Y-70053732D01*
X23433558Y-70045703D01*
X23423666Y-70052854D01*
X23398476Y-70075841D01*
X23360190Y-70112439D01*
X23311011Y-70160422D01*
X23253139Y-70217566D01*
X23188778Y-70281647D01*
X23120129Y-70350438D01*
X23049395Y-70421716D01*
X22978778Y-70493255D01*
X22910480Y-70562830D01*
X22846704Y-70628217D01*
X22789650Y-70687191D01*
X22741522Y-70737527D01*
X22704522Y-70776999D01*
X22680852Y-70803383D01*
X22672710Y-70814406D01*
X22490467Y-70814406D01*
X22389591Y-70706295D01*
X22337232Y-70650377D01*
X22278465Y-70587948D01*
X22215615Y-70521443D01*
X22151005Y-70453298D01*
X22086958Y-70385948D01*
X22025797Y-70321828D01*
X21969847Y-70263372D01*
X21921430Y-70213018D01*
X21882870Y-70173198D01*
X21856491Y-70146350D01*
X21844616Y-70134908D01*
X21844195Y-70134674D01*
X21720604Y-70134674D01*
X21708599Y-69990726D01*
X21108062Y-69359158D01*
X20507525Y-68727589D01*
X20507966Y-68639315D01*
X20508408Y-68551040D01*
X20605417Y-68654666D01*
X20659709Y-68712463D01*
X20723808Y-68780368D01*
X20795984Y-68856572D01*
X20874508Y-68939269D01*
X20957651Y-69026653D01*
X21043681Y-69116915D01*
X21130870Y-69208250D01*
X21217487Y-69298849D01*
X21301803Y-69386907D01*
X21382088Y-69470615D01*
X21456613Y-69548167D01*
X21523646Y-69617757D01*
X21581459Y-69677576D01*
X21628321Y-69725818D01*
X21662504Y-69760676D01*
X21682276Y-69780343D01*
X21686610Y-69784116D01*
X21686908Y-69770992D01*
X21685269Y-69737389D01*
X21681977Y-69687880D01*
X21677318Y-69627037D01*
X21675318Y-69602732D01*
X21660423Y-69424951D01*
X21777045Y-69424951D01*
X21783066Y-69453243D01*
X21786137Y-69475618D01*
X21790452Y-69517717D01*
X21795512Y-69574178D01*
X21800819Y-69639635D01*
X21802656Y-69663862D01*
X21808073Y-69733421D01*
X21813541Y-69798018D01*
X21818512Y-69851548D01*
X21822439Y-69887910D01*
X21823325Y-69894509D01*
X21826666Y-69908056D01*
X21833899Y-69923914D01*
X21846560Y-69943861D01*
X21866189Y-69969673D01*
X21894322Y-70003129D01*
X21932498Y-70046007D01*
X21982254Y-70100083D01*
X22045129Y-70167136D01*
X22122659Y-70248943D01*
X22201749Y-70331950D01*
X22280436Y-70414094D01*
X22353888Y-70490169D01*
X22420276Y-70558325D01*
X22477773Y-70616712D01*
X22524549Y-70663481D01*
X22558776Y-70696782D01*
X22578627Y-70714767D01*
X22582860Y-70717442D01*
X22593997Y-70707741D01*
X22620029Y-70682441D01*
X22658430Y-70644082D01*
X22706672Y-70595200D01*
X22762230Y-70538334D01*
X22802408Y-70496906D01*
X23012169Y-70280000D01*
X22393663Y-70280000D01*
X22393663Y-70041089D01*
X23148119Y-70041089D01*
X23148119Y-70147542D01*
X23286435Y-70009654D01*
X23384553Y-69911840D01*
X23575643Y-69911840D01*
X23577471Y-69927270D01*
X23586723Y-69935867D01*
X23609050Y-69939613D01*
X23650105Y-69940489D01*
X23657376Y-69940495D01*
X23739109Y-69940495D01*
X23739109Y-69721172D01*
X23657376Y-69802179D01*
X23611270Y-69851428D01*
X23583694Y-69889159D01*
X23575643Y-69911840D01*
X23384553Y-69911840D01*
X23424752Y-69871766D01*
X23424752Y-69748952D01*
X23425137Y-69692450D01*
X23426900Y-69656505D01*
X23430950Y-69636530D01*
X23438199Y-69627937D01*
X23449130Y-69626139D01*
X23461288Y-69623498D01*
X23470273Y-69612912D01*
X23477174Y-69590381D01*
X23483076Y-69551909D01*
X23489065Y-69493498D01*
X23490987Y-69472104D01*
X23495148Y-69424951D01*
X21777045Y-69424951D01*
X21660423Y-69424951D01*
X21500891Y-69424951D01*
X21500891Y-69311782D01*
X21568686Y-69311782D01*
X21608338Y-69310696D01*
X21629884Y-69305454D01*
X21632520Y-69302334D01*
X21771384Y-69302334D01*
X21778692Y-69309462D01*
X21804007Y-69311662D01*
X21821092Y-69311782D01*
X21878119Y-69311782D01*
X22090779Y-69311782D01*
X23505302Y-69311782D01*
X23457458Y-69262786D01*
X23383150Y-69202324D01*
X23291184Y-69155691D01*
X23180002Y-69122249D01*
X23069529Y-69103753D01*
X22997227Y-69095122D01*
X22997227Y-69186040D01*
X22418812Y-69186040D01*
X22418812Y-69082893D01*
X22333935Y-69091496D01*
X22274632Y-69098756D01*
X22211449Y-69108379D01*
X22173614Y-69115252D01*
X22098168Y-69130407D01*
X22094474Y-69221095D01*
X22090779Y-69311782D01*
X21878119Y-69311782D01*
X21878119Y-69261485D01*
X21876456Y-69229976D01*
X21872303Y-69212463D01*
X21870629Y-69211188D01*
X21852013Y-69219254D01*
X21824817Y-69238820D01*
X21797552Y-69262944D01*
X21778733Y-69284682D01*
X21777057Y-69287508D01*
X21771384Y-69302334D01*
X21632520Y-69302334D01*
X21640338Y-69293081D01*
X21644558Y-69279604D01*
X21661781Y-69244627D01*
X21694862Y-69202579D01*
X21738107Y-69159356D01*
X21785826Y-69120854D01*
X21817170Y-69100801D01*
X21852877Y-69078851D01*
X21871181Y-69060411D01*
X21877612Y-69038668D01*
X21878106Y-69025718D01*
X21878106Y-69022575D01*
X22519406Y-69022575D01*
X22519406Y-69085446D01*
X22896633Y-69085446D01*
X22896633Y-69022575D01*
X22519406Y-69022575D01*
X21878106Y-69022575D01*
X21878119Y-68984852D01*
X21983952Y-68984852D01*
X22032645Y-68986029D01*
X22070595Y-68989165D01*
X22091692Y-68993671D01*
X22093977Y-68995495D01*
X22107359Y-68998295D01*
X22139926Y-68997148D01*
X22186084Y-68992393D01*
X22217624Y-68988003D01*
X22274812Y-68979378D01*
X22327114Y-68971591D01*
X22366418Y-68965847D01*
X22377945Y-68964215D01*
X22408063Y-68954888D01*
X22418812Y-68940272D01*
X22422080Y-68934320D01*
X22433770Y-68929778D01*
X22456712Y-68926470D01*
X22493735Y-68924215D01*
X22547668Y-68922834D01*
X22621340Y-68922150D01*
X22708020Y-68921980D01*
X22800529Y-68922077D01*
X22870906Y-68922530D01*
X22922164Y-68923590D01*
X22957320Y-68925503D01*
X22979389Y-68928519D01*
X22991385Y-68932885D01*
X22996324Y-68938849D01*
X22997227Y-68945784D01*
X23004921Y-68967795D01*
X23030121Y-68980321D01*
X23076009Y-68984788D01*
X23084264Y-68984852D01*
X23161973Y-68992868D01*
X23250233Y-69014936D01*
X23341085Y-69048084D01*
X23426570Y-69089339D01*
X23498726Y-69135731D01*
X23508072Y-69143082D01*
X23538533Y-69166998D01*
X23556572Y-69176576D01*
X23569169Y-69173480D01*
X23582100Y-69160704D01*
X23620293Y-69135678D01*
X23669998Y-69126071D01*
X23723524Y-69131067D01*
X23773178Y-69149851D01*
X23811267Y-69181606D01*
X23814025Y-69185297D01*
X23842526Y-69244575D01*
X23847828Y-69305934D01*
X23830518Y-69364427D01*
X23791180Y-69415104D01*
X23786370Y-69419289D01*
X23758440Y-69439167D01*
X23730102Y-69447921D01*
X23690263Y-69448553D01*
X23680311Y-69447992D01*
X23641332Y-69446562D01*
X23621254Y-69449839D01*
X23613985Y-69459728D01*
X23613240Y-69468961D01*
X23611716Y-69495744D01*
X23607935Y-69536025D01*
X23605218Y-69560124D01*
X23601277Y-69598401D01*
X23602916Y-69617996D01*
X23612421Y-69625158D01*
X23629351Y-69626139D01*
X23639392Y-69622901D01*
X23655590Y-69612420D01*
X23679145Y-69593548D01*
X23711257Y-69565135D01*
X23753128Y-69526035D01*
X23805957Y-69475097D01*
X23870945Y-69411173D01*
X23949291Y-69333114D01*
X24042197Y-69239772D01*
X24150863Y-69129998D01*
X24203231Y-69076952D01*
X24745049Y-68527767D01*
X24744430Y-68614848D01*
X24744430Y-68614848D01*
G37*
X24744430Y-68614848D02*
X24743811Y-68701931D01*
X24292086Y-69160891D01*
X23840361Y-69619852D01*
X23840032Y-69830471D01*
X23839703Y-70041089D01*
X23564610Y-70041089D01*
X23557522Y-70094530D01*
X23554838Y-70118888D01*
X23550313Y-70164759D01*
X23544191Y-70229405D01*
X23536712Y-70310091D01*
X23528119Y-70404081D01*
X23518654Y-70508637D01*
X23508558Y-70621025D01*
X23498074Y-70738507D01*
X23487444Y-70858348D01*
X23476909Y-70977811D01*
X23466713Y-71094159D01*
X23457095Y-71204657D01*
X23448300Y-71306569D01*
X23440568Y-71397158D01*
X23434142Y-71473687D01*
X23429263Y-71533421D01*
X23426175Y-71573624D01*
X23425117Y-71591559D01*
X23425118Y-71591644D01*
X23432827Y-71606035D01*
X23455981Y-71635748D01*
X23494895Y-71681131D01*
X23549884Y-71742529D01*
X23621264Y-71820288D01*
X23709349Y-71914754D01*
X23814454Y-72026272D01*
X23936895Y-72155188D01*
X23971310Y-72191287D01*
X24517137Y-72763416D01*
X24428881Y-72851436D01*
X24357485Y-72773758D01*
X24331366Y-72745686D01*
X24290566Y-72702274D01*
X24237777Y-72646366D01*
X24175691Y-72580808D01*
X24107000Y-72508441D01*
X24034396Y-72432112D01*
X23990960Y-72386524D01*
X23909416Y-72301119D01*
X23843504Y-72232710D01*
X23791544Y-72180053D01*
X23751855Y-72141905D01*
X23722757Y-72117020D01*
X23702569Y-72104156D01*
X23689610Y-72102068D01*
X23682200Y-72109513D01*
X23678658Y-72125246D01*
X23677303Y-72148023D01*
X23677121Y-72154239D01*
X23667703Y-72197061D01*
X23644497Y-72248819D01*
X23612136Y-72301328D01*
X23575252Y-72346403D01*
X23560493Y-72360328D01*
X23484767Y-72409047D01*
X23396308Y-72436306D01*
X23318100Y-72442773D01*
X23229468Y-72430576D01*
X23147612Y-72394813D01*
X23075164Y-72336722D01*
X23061797Y-72322262D01*
X23012918Y-72266733D01*
X22167326Y-72266733D01*
X22167326Y-72442773D01*
X21940990Y-72442773D01*
X21940990Y-72360531D01*
X21938150Y-72304386D01*
X21928607Y-72265416D01*
X21917009Y-72244219D01*
X21908723Y-72229052D01*
X21901627Y-72207062D01*
X21895252Y-72174987D01*
X21889128Y-72129569D01*
X21882784Y-72067548D01*
X21875750Y-71985662D01*
X21870934Y-71924746D01*
X21848839Y-71639343D01*
X21306435Y-72188805D01*
X21208363Y-72288228D01*
X21114216Y-72383815D01*
X21025715Y-72473810D01*
X20944580Y-72556457D01*
X20872531Y-72630001D01*
X20811288Y-72692684D01*
X20762573Y-72742752D01*
X20728104Y-72778448D01*
X20709621Y-72797995D01*
X20679257Y-72828944D01*
X20653929Y-72850530D01*
X20640305Y-72857723D01*
X20622905Y-72849297D01*
X20597540Y-72828245D01*
X20588942Y-72819671D01*
X20552486Y-72781620D01*
X20753198Y-72577658D01*
X20804404Y-72525699D01*
X20870431Y-72458820D01*
X20948382Y-72379950D01*
X21035362Y-72292014D01*
X21128474Y-72197941D01*
X21224821Y-72100658D01*
X21321508Y-72003093D01*
X21390866Y-71933145D01*
X21496297Y-71826550D01*
X21584871Y-71736307D01*
X21657719Y-71661192D01*
X21715977Y-71599986D01*
X21760775Y-71551466D01*
X21782979Y-71526129D01*
X21961276Y-71526129D01*
X21983599Y-71811555D01*
X21990331Y-71895219D01*
X21996843Y-71971727D01*
X22002766Y-72037081D01*
X22007732Y-72087281D01*
X22011371Y-72118329D01*
X22012542Y-72125273D01*
X22019162Y-72153565D01*
X22968636Y-72153565D01*
X22974974Y-72074606D01*
X22994110Y-71981315D01*
X23034154Y-71898791D01*
X23092582Y-71830038D01*
X23166871Y-71778063D01*
X23250252Y-71746863D01*
X23277302Y-71732228D01*
X23290844Y-71700819D01*
X23291128Y-71699434D01*
X23292753Y-71686174D01*
X23290744Y-71672595D01*
X23283142Y-71656181D01*
X23267984Y-71634411D01*
X23243312Y-71604767D01*
X23207164Y-71564732D01*
X23157580Y-71511785D01*
X23092599Y-71443409D01*
X23088401Y-71439005D01*
X23018507Y-71365611D01*
X22944200Y-71287437D01*
X22870586Y-71209864D01*
X22802771Y-71138275D01*
X22745860Y-71078051D01*
X22733168Y-71064587D01*
X22684513Y-71013820D01*
X22641291Y-70970375D01*
X22606605Y-70937241D01*
X22583556Y-70917405D01*
X22575818Y-70913046D01*
X22564278Y-70922170D01*
X22537290Y-70947200D01*
X22496979Y-70986052D01*
X22445471Y-71036643D01*
X22384891Y-71096888D01*
X22317364Y-71164704D01*
X22262174Y-71220565D01*
X21961276Y-71526129D01*
X21782979Y-71526129D01*
X21793249Y-71514411D01*
X21814529Y-71487599D01*
X21825749Y-71469808D01*
X21828246Y-71461570D01*
X21827300Y-71443590D01*
X21824427Y-71402892D01*
X21819813Y-71341819D01*
X21813642Y-71262713D01*
X21806102Y-71167914D01*
X21797379Y-71059767D01*
X21787657Y-70940612D01*
X21777124Y-70812791D01*
X21768635Y-70710635D01*
X21720604Y-70134674D01*
X21844195Y-70134674D01*
X21844727Y-70147104D01*
X21847231Y-70182110D01*
X21851504Y-70237215D01*
X21857347Y-70309943D01*
X21864557Y-70397814D01*
X21872934Y-70498351D01*
X21882277Y-70609077D01*
X21891242Y-70714205D01*
X21901398Y-70833483D01*
X21910858Y-70946080D01*
X21919404Y-71049305D01*
X21926821Y-71140473D01*
X21932892Y-71216895D01*
X21937399Y-71275883D01*
X21940127Y-71314749D01*
X21940884Y-71329844D01*
X21942065Y-71339238D01*
X21946744Y-71342966D01*
X21956724Y-71339471D01*
X21973810Y-71327199D01*
X21999804Y-71304594D01*
X22036510Y-71270100D01*
X22085733Y-71222162D01*
X22149274Y-71159224D01*
X22216695Y-71091968D01*
X22492399Y-70816477D01*
X22490467Y-70814406D01*
X22672710Y-70814406D01*
X22681016Y-70825780D01*
X22704267Y-70852563D01*
X22740135Y-70892292D01*
X22786287Y-70942507D01*
X22840394Y-71000746D01*
X22900126Y-71064547D01*
X22963152Y-71131449D01*
X23027142Y-71198990D01*
X23089764Y-71264710D01*
X23148690Y-71326146D01*
X23201588Y-71380837D01*
X23246128Y-71426322D01*
X23279980Y-71460138D01*
X23300812Y-71479826D01*
X23306494Y-71483837D01*
X23308366Y-71470891D01*
X23312254Y-71435134D01*
X23317943Y-71378804D01*
X23325219Y-71304140D01*
X23333869Y-71213380D01*
X23343678Y-71108762D01*
X23354434Y-70992526D01*
X23365921Y-70866908D01*
X23375093Y-70765618D01*
X23386826Y-70634279D01*
X23397665Y-70510552D01*
X23407430Y-70396681D01*
X23415937Y-70294911D01*
X23423005Y-70207487D01*
X23428451Y-70136653D01*
X23432092Y-70084653D01*
X23433747Y-70053732D01*
X23433558Y-70045703D01*
X23423666Y-70052854D01*
X23398476Y-70075841D01*
X23360190Y-70112439D01*
X23311011Y-70160422D01*
X23253139Y-70217566D01*
X23188778Y-70281647D01*
X23120129Y-70350438D01*
X23049395Y-70421716D01*
X22978778Y-70493255D01*
X22910480Y-70562830D01*
X22846704Y-70628217D01*
X22789650Y-70687191D01*
X22741522Y-70737527D01*
X22704522Y-70776999D01*
X22680852Y-70803383D01*
X22672710Y-70814406D01*
X22490467Y-70814406D01*
X22389591Y-70706295D01*
X22337232Y-70650377D01*
X22278465Y-70587948D01*
X22215615Y-70521443D01*
X22151005Y-70453298D01*
X22086958Y-70385948D01*
X22025797Y-70321828D01*
X21969847Y-70263372D01*
X21921430Y-70213018D01*
X21882870Y-70173198D01*
X21856491Y-70146350D01*
X21844616Y-70134908D01*
X21844195Y-70134674D01*
X21720604Y-70134674D01*
X21708599Y-69990726D01*
X21108062Y-69359158D01*
X20507525Y-68727589D01*
X20507966Y-68639315D01*
X20508408Y-68551040D01*
X20605417Y-68654666D01*
X20659709Y-68712463D01*
X20723808Y-68780368D01*
X20795984Y-68856572D01*
X20874508Y-68939269D01*
X20957651Y-69026653D01*
X21043681Y-69116915D01*
X21130870Y-69208250D01*
X21217487Y-69298849D01*
X21301803Y-69386907D01*
X21382088Y-69470615D01*
X21456613Y-69548167D01*
X21523646Y-69617757D01*
X21581459Y-69677576D01*
X21628321Y-69725818D01*
X21662504Y-69760676D01*
X21682276Y-69780343D01*
X21686610Y-69784116D01*
X21686908Y-69770992D01*
X21685269Y-69737389D01*
X21681977Y-69687880D01*
X21677318Y-69627037D01*
X21675318Y-69602732D01*
X21660423Y-69424951D01*
X21777045Y-69424951D01*
X21783066Y-69453243D01*
X21786137Y-69475618D01*
X21790452Y-69517717D01*
X21795512Y-69574178D01*
X21800819Y-69639635D01*
X21802656Y-69663862D01*
X21808073Y-69733421D01*
X21813541Y-69798018D01*
X21818512Y-69851548D01*
X21822439Y-69887910D01*
X21823325Y-69894509D01*
X21826666Y-69908056D01*
X21833899Y-69923914D01*
X21846560Y-69943861D01*
X21866189Y-69969673D01*
X21894322Y-70003129D01*
X21932498Y-70046007D01*
X21982254Y-70100083D01*
X22045129Y-70167136D01*
X22122659Y-70248943D01*
X22201749Y-70331950D01*
X22280436Y-70414094D01*
X22353888Y-70490169D01*
X22420276Y-70558325D01*
X22477773Y-70616712D01*
X22524549Y-70663481D01*
X22558776Y-70696782D01*
X22578627Y-70714767D01*
X22582860Y-70717442D01*
X22593997Y-70707741D01*
X22620029Y-70682441D01*
X22658430Y-70644082D01*
X22706672Y-70595200D01*
X22762230Y-70538334D01*
X22802408Y-70496906D01*
X23012169Y-70280000D01*
X22393663Y-70280000D01*
X22393663Y-70041089D01*
X23148119Y-70041089D01*
X23148119Y-70147542D01*
X23286435Y-70009654D01*
X23384553Y-69911840D01*
X23575643Y-69911840D01*
X23577471Y-69927270D01*
X23586723Y-69935867D01*
X23609050Y-69939613D01*
X23650105Y-69940489D01*
X23657376Y-69940495D01*
X23739109Y-69940495D01*
X23739109Y-69721172D01*
X23657376Y-69802179D01*
X23611270Y-69851428D01*
X23583694Y-69889159D01*
X23575643Y-69911840D01*
X23384553Y-69911840D01*
X23424752Y-69871766D01*
X23424752Y-69748952D01*
X23425137Y-69692450D01*
X23426900Y-69656505D01*
X23430950Y-69636530D01*
X23438199Y-69627937D01*
X23449130Y-69626139D01*
X23461288Y-69623498D01*
X23470273Y-69612912D01*
X23477174Y-69590381D01*
X23483076Y-69551909D01*
X23489065Y-69493498D01*
X23490987Y-69472104D01*
X23495148Y-69424951D01*
X21777045Y-69424951D01*
X21660423Y-69424951D01*
X21500891Y-69424951D01*
X21500891Y-69311782D01*
X21568686Y-69311782D01*
X21608338Y-69310696D01*
X21629884Y-69305454D01*
X21632520Y-69302334D01*
X21771384Y-69302334D01*
X21778692Y-69309462D01*
X21804007Y-69311662D01*
X21821092Y-69311782D01*
X21878119Y-69311782D01*
X22090779Y-69311782D01*
X23505302Y-69311782D01*
X23457458Y-69262786D01*
X23383150Y-69202324D01*
X23291184Y-69155691D01*
X23180002Y-69122249D01*
X23069529Y-69103753D01*
X22997227Y-69095122D01*
X22997227Y-69186040D01*
X22418812Y-69186040D01*
X22418812Y-69082893D01*
X22333935Y-69091496D01*
X22274632Y-69098756D01*
X22211449Y-69108379D01*
X22173614Y-69115252D01*
X22098168Y-69130407D01*
X22094474Y-69221095D01*
X22090779Y-69311782D01*
X21878119Y-69311782D01*
X21878119Y-69261485D01*
X21876456Y-69229976D01*
X21872303Y-69212463D01*
X21870629Y-69211188D01*
X21852013Y-69219254D01*
X21824817Y-69238820D01*
X21797552Y-69262944D01*
X21778733Y-69284682D01*
X21777057Y-69287508D01*
X21771384Y-69302334D01*
X21632520Y-69302334D01*
X21640338Y-69293081D01*
X21644558Y-69279604D01*
X21661781Y-69244627D01*
X21694862Y-69202579D01*
X21738107Y-69159356D01*
X21785826Y-69120854D01*
X21817170Y-69100801D01*
X21852877Y-69078851D01*
X21871181Y-69060411D01*
X21877612Y-69038668D01*
X21878106Y-69025718D01*
X21878106Y-69022575D01*
X22519406Y-69022575D01*
X22519406Y-69085446D01*
X22896633Y-69085446D01*
X22896633Y-69022575D01*
X22519406Y-69022575D01*
X21878106Y-69022575D01*
X21878119Y-68984852D01*
X21983952Y-68984852D01*
X22032645Y-68986029D01*
X22070595Y-68989165D01*
X22091692Y-68993671D01*
X22093977Y-68995495D01*
X22107359Y-68998295D01*
X22139926Y-68997148D01*
X22186084Y-68992393D01*
X22217624Y-68988003D01*
X22274812Y-68979378D01*
X22327114Y-68971591D01*
X22366418Y-68965847D01*
X22377945Y-68964215D01*
X22408063Y-68954888D01*
X22418812Y-68940272D01*
X22422080Y-68934320D01*
X22433770Y-68929778D01*
X22456712Y-68926470D01*
X22493735Y-68924215D01*
X22547668Y-68922834D01*
X22621340Y-68922150D01*
X22708020Y-68921980D01*
X22800529Y-68922077D01*
X22870906Y-68922530D01*
X22922164Y-68923590D01*
X22957320Y-68925503D01*
X22979389Y-68928519D01*
X22991385Y-68932885D01*
X22996324Y-68938849D01*
X22997227Y-68945784D01*
X23004921Y-68967795D01*
X23030121Y-68980321D01*
X23076009Y-68984788D01*
X23084264Y-68984852D01*
X23161973Y-68992868D01*
X23250233Y-69014936D01*
X23341085Y-69048084D01*
X23426570Y-69089339D01*
X23498726Y-69135731D01*
X23508072Y-69143082D01*
X23538533Y-69166998D01*
X23556572Y-69176576D01*
X23569169Y-69173480D01*
X23582100Y-69160704D01*
X23620293Y-69135678D01*
X23669998Y-69126071D01*
X23723524Y-69131067D01*
X23773178Y-69149851D01*
X23811267Y-69181606D01*
X23814025Y-69185297D01*
X23842526Y-69244575D01*
X23847828Y-69305934D01*
X23830518Y-69364427D01*
X23791180Y-69415104D01*
X23786370Y-69419289D01*
X23758440Y-69439167D01*
X23730102Y-69447921D01*
X23690263Y-69448553D01*
X23680311Y-69447992D01*
X23641332Y-69446562D01*
X23621254Y-69449839D01*
X23613985Y-69459728D01*
X23613240Y-69468961D01*
X23611716Y-69495744D01*
X23607935Y-69536025D01*
X23605218Y-69560124D01*
X23601277Y-69598401D01*
X23602916Y-69617996D01*
X23612421Y-69625158D01*
X23629351Y-69626139D01*
X23639392Y-69622901D01*
X23655590Y-69612420D01*
X23679145Y-69593548D01*
X23711257Y-69565135D01*
X23753128Y-69526035D01*
X23805957Y-69475097D01*
X23870945Y-69411173D01*
X23949291Y-69333114D01*
X24042197Y-69239772D01*
X24150863Y-69129998D01*
X24203231Y-69076952D01*
X24745049Y-68527767D01*
X24744430Y-68614848D01*
G36*
X24367822Y-74567822D02*
X20847029Y-74567822D01*
X20847029Y-73700198D01*
X24367822Y-73700198D01*
X24367822Y-74567822D01*
X24367822Y-74567822D01*
G37*
X24367822Y-74567822D02*
X20847029Y-74567822D01*
X20847029Y-73700198D01*
X24367822Y-73700198D01*
X24367822Y-74567822D01*
D12*
X40933809Y-73225714D02*
X40933809Y-73892380D01*
X40695714Y-72844761D02*
X40457619Y-73559047D01*
X41076666Y-73559047D01*
X41362380Y-72892380D02*
X41981428Y-72892380D01*
X41648095Y-73273333D01*
X41790952Y-73273333D01*
X41886190Y-73320952D01*
X41933809Y-73368571D01*
X41981428Y-73463809D01*
X41981428Y-73701904D01*
X41933809Y-73797142D01*
X41886190Y-73844761D01*
X41790952Y-73892380D01*
X41505238Y-73892380D01*
X41410000Y-73844761D01*
X41362380Y-73797142D01*
X42314761Y-72892380D02*
X42933809Y-72892380D01*
X42600476Y-73273333D01*
X42743333Y-73273333D01*
X42838571Y-73320952D01*
X42886190Y-73368571D01*
X42933809Y-73463809D01*
X42933809Y-73701904D01*
X42886190Y-73797142D01*
X42838571Y-73844761D01*
X42743333Y-73892380D01*
X42457619Y-73892380D01*
X42362380Y-73844761D01*
X42314761Y-73797142D01*
X43124285Y-73987619D02*
X43886190Y-73987619D01*
X43981428Y-72892380D02*
X44552857Y-72892380D01*
X44267142Y-73892380D02*
X44267142Y-72892380D01*
X44790952Y-72892380D02*
X45457619Y-73892380D01*
X45457619Y-72892380D02*
X44790952Y-73892380D01*
X46362380Y-73892380D02*
X45790952Y-73892380D01*
X46076666Y-73892380D02*
X46076666Y-72892380D01*
X45981428Y-73035238D01*
X45886190Y-73130476D01*
X45790952Y-73178095D01*
X29345714Y-42375238D02*
X30012380Y-42375238D01*
X28964761Y-42613333D02*
X29679047Y-42851428D01*
X29679047Y-42232380D01*
X29012380Y-41946666D02*
X29012380Y-41327619D01*
X29393333Y-41660952D01*
X29393333Y-41518095D01*
X29440952Y-41422857D01*
X29488571Y-41375238D01*
X29583809Y-41327619D01*
X29821904Y-41327619D01*
X29917142Y-41375238D01*
X29964761Y-41422857D01*
X30012380Y-41518095D01*
X30012380Y-41803809D01*
X29964761Y-41899047D01*
X29917142Y-41946666D01*
X29012380Y-40994285D02*
X29012380Y-40375238D01*
X29393333Y-40708571D01*
X29393333Y-40565714D01*
X29440952Y-40470476D01*
X29488571Y-40422857D01*
X29583809Y-40375238D01*
X29821904Y-40375238D01*
X29917142Y-40422857D01*
X29964761Y-40470476D01*
X30012380Y-40565714D01*
X30012380Y-40851428D01*
X29964761Y-40946666D01*
X29917142Y-40994285D01*
X30107619Y-40184761D02*
X30107619Y-39422857D01*
X30012380Y-38613333D02*
X29536190Y-38946666D01*
X30012380Y-39184761D02*
X29012380Y-39184761D01*
X29012380Y-38803809D01*
X29060000Y-38708571D01*
X29107619Y-38660952D01*
X29202857Y-38613333D01*
X29345714Y-38613333D01*
X29440952Y-38660952D01*
X29488571Y-38708571D01*
X29536190Y-38803809D01*
X29536190Y-39184761D01*
X29012380Y-38280000D02*
X30012380Y-37613333D01*
X29012380Y-37613333D02*
X30012380Y-38280000D01*
X30012380Y-36708571D02*
X30012380Y-37280000D01*
X30012380Y-36994285D02*
X29012380Y-36994285D01*
X29155238Y-37089523D01*
X29250476Y-37184761D01*
X29298095Y-37280000D01*
X58882380Y-72174761D02*
X58882380Y-71603333D01*
X59882380Y-71889047D02*
X58882380Y-71889047D01*
X59834761Y-71317619D02*
X59882380Y-71174761D01*
X59882380Y-70936666D01*
X59834761Y-70841428D01*
X59787142Y-70793809D01*
X59691904Y-70746190D01*
X59596666Y-70746190D01*
X59501428Y-70793809D01*
X59453809Y-70841428D01*
X59406190Y-70936666D01*
X59358571Y-71127142D01*
X59310952Y-71222380D01*
X59263333Y-71270000D01*
X59168095Y-71317619D01*
X59072857Y-71317619D01*
X58977619Y-71270000D01*
X58930000Y-71222380D01*
X58882380Y-71127142D01*
X58882380Y-70889047D01*
X58930000Y-70746190D01*
X58882380Y-70127142D02*
X58882380Y-69936666D01*
X58930000Y-69841428D01*
X59025238Y-69746190D01*
X59215714Y-69698571D01*
X59549047Y-69698571D01*
X59739523Y-69746190D01*
X59834761Y-69841428D01*
X59882380Y-69936666D01*
X59882380Y-70127142D01*
X59834761Y-70222380D01*
X59739523Y-70317619D01*
X59549047Y-70365238D01*
X59215714Y-70365238D01*
X59025238Y-70317619D01*
X58930000Y-70222380D01*
X58882380Y-70127142D01*
X59882380Y-69270000D02*
X58882380Y-69270000D01*
X58882380Y-68889047D01*
X58930000Y-68793809D01*
X58977619Y-68746190D01*
X59072857Y-68698571D01*
X59215714Y-68698571D01*
X59310952Y-68746190D01*
X59358571Y-68793809D01*
X59406190Y-68889047D01*
X59406190Y-69270000D01*
X59215714Y-67841428D02*
X59882380Y-67841428D01*
X58834761Y-68079523D02*
X59549047Y-68317619D01*
X59549047Y-67698571D01*
X59310952Y-67174761D02*
X59263333Y-67270000D01*
X59215714Y-67317619D01*
X59120476Y-67365238D01*
X59072857Y-67365238D01*
X58977619Y-67317619D01*
X58930000Y-67270000D01*
X58882380Y-67174761D01*
X58882380Y-66984285D01*
X58930000Y-66889047D01*
X58977619Y-66841428D01*
X59072857Y-66793809D01*
X59120476Y-66793809D01*
X59215714Y-66841428D01*
X59263333Y-66889047D01*
X59310952Y-66984285D01*
X59310952Y-67174761D01*
X59358571Y-67270000D01*
X59406190Y-67317619D01*
X59501428Y-67365238D01*
X59691904Y-67365238D01*
X59787142Y-67317619D01*
X59834761Y-67270000D01*
X59882380Y-67174761D01*
X59882380Y-66984285D01*
X59834761Y-66889047D01*
X59787142Y-66841428D01*
X59691904Y-66793809D01*
X59501428Y-66793809D01*
X59406190Y-66841428D01*
X59358571Y-66889047D01*
X59310952Y-66984285D01*
X59882380Y-66460476D02*
X59215714Y-65936666D01*
X59215714Y-66460476D02*
X59882380Y-65936666D01*
X59882380Y-65650952D02*
X59215714Y-65127142D01*
X59215714Y-65650952D02*
X59882380Y-65127142D01*
X59977619Y-64984285D02*
X59977619Y-64222380D01*
X59882380Y-63460476D02*
X59882380Y-64031904D01*
X59882380Y-63746190D02*
X58882380Y-63746190D01*
X59025238Y-63841428D01*
X59120476Y-63936666D01*
X59168095Y-64031904D01*
X33524761Y-25072380D02*
X33524761Y-24072380D01*
X33905714Y-24072380D01*
X34000952Y-24120000D01*
X34048571Y-24167619D01*
X34096190Y-24262857D01*
X34096190Y-24405714D01*
X34048571Y-24500952D01*
X34000952Y-24548571D01*
X33905714Y-24596190D01*
X33524761Y-24596190D01*
X34524761Y-25072380D02*
X34524761Y-24072380D01*
X35096190Y-25072380D01*
X35096190Y-24072380D01*
X35524761Y-24167619D02*
X35572380Y-24120000D01*
X35667619Y-24072380D01*
X35905714Y-24072380D01*
X36000952Y-24120000D01*
X36048571Y-24167619D01*
X36096190Y-24262857D01*
X36096190Y-24358095D01*
X36048571Y-24500952D01*
X35477142Y-25072380D01*
X36096190Y-25072380D01*
X36477142Y-24167619D02*
X36524761Y-24120000D01*
X36620000Y-24072380D01*
X36858095Y-24072380D01*
X36953333Y-24120000D01*
X37000952Y-24167619D01*
X37048571Y-24262857D01*
X37048571Y-24358095D01*
X37000952Y-24500952D01*
X36429523Y-25072380D01*
X37048571Y-25072380D01*
X37429523Y-24167619D02*
X37477142Y-24120000D01*
X37572380Y-24072380D01*
X37810476Y-24072380D01*
X37905714Y-24120000D01*
X37953333Y-24167619D01*
X38000952Y-24262857D01*
X38000952Y-24358095D01*
X37953333Y-24500952D01*
X37381904Y-25072380D01*
X38000952Y-25072380D01*
X38381904Y-24167619D02*
X38429523Y-24120000D01*
X38524761Y-24072380D01*
X38762857Y-24072380D01*
X38858095Y-24120000D01*
X38905714Y-24167619D01*
X38953333Y-24262857D01*
X38953333Y-24358095D01*
X38905714Y-24500952D01*
X38334285Y-25072380D01*
X38953333Y-25072380D01*
X39334285Y-24786666D02*
X39810476Y-24786666D01*
X39239047Y-25072380D02*
X39572380Y-24072380D01*
X39905714Y-25072380D01*
X40762857Y-25072380D02*
X40191428Y-25072380D01*
X40477142Y-25072380D02*
X40477142Y-24072380D01*
X40381904Y-24215238D01*
X40286666Y-24310476D01*
X40191428Y-24358095D01*
X54657142Y-54157142D02*
X54609523Y-54204761D01*
X54466666Y-54252380D01*
X54371428Y-54252380D01*
X54228571Y-54204761D01*
X54133333Y-54109523D01*
X54085714Y-54014285D01*
X54038095Y-53823809D01*
X54038095Y-53680952D01*
X54085714Y-53490476D01*
X54133333Y-53395238D01*
X54228571Y-53300000D01*
X54371428Y-53252380D01*
X54466666Y-53252380D01*
X54609523Y-53300000D01*
X54657142Y-53347619D01*
X54847619Y-54347619D02*
X55609523Y-54347619D01*
X56038095Y-53252380D02*
X56133333Y-53252380D01*
X56228571Y-53300000D01*
X56276190Y-53347619D01*
X56323809Y-53442857D01*
X56371428Y-53633333D01*
X56371428Y-53871428D01*
X56323809Y-54061904D01*
X56276190Y-54157142D01*
X56228571Y-54204761D01*
X56133333Y-54252380D01*
X56038095Y-54252380D01*
X55942857Y-54204761D01*
X55895238Y-54157142D01*
X55847619Y-54061904D01*
X55800000Y-53871428D01*
X55800000Y-53633333D01*
X55847619Y-53442857D01*
X55895238Y-53347619D01*
X55942857Y-53300000D01*
X56038095Y-53252380D01*
X56800000Y-54157142D02*
X56847619Y-54204761D01*
X56800000Y-54252380D01*
X56752380Y-54204761D01*
X56800000Y-54157142D01*
X56800000Y-54252380D01*
X57228571Y-53347619D02*
X57276190Y-53300000D01*
X57371428Y-53252380D01*
X57609523Y-53252380D01*
X57704761Y-53300000D01*
X57752380Y-53347619D01*
X57800000Y-53442857D01*
X57800000Y-53538095D01*
X57752380Y-53680952D01*
X57180952Y-54252380D01*
X57800000Y-54252380D01*
X58180952Y-53347619D02*
X58228571Y-53300000D01*
X58323809Y-53252380D01*
X58561904Y-53252380D01*
X58657142Y-53300000D01*
X58704761Y-53347619D01*
X58752380Y-53442857D01*
X58752380Y-53538095D01*
X58704761Y-53680952D01*
X58133333Y-54252380D01*
X58752380Y-54252380D01*
X59514285Y-53728571D02*
X59180952Y-53728571D01*
X59180952Y-54252380D02*
X59180952Y-53252380D01*
X59657142Y-53252380D01*
X60561904Y-54252380D02*
X59990476Y-54252380D01*
X60276190Y-54252380D02*
X60276190Y-53252380D01*
X60180952Y-53395238D01*
X60085714Y-53490476D01*
X59990476Y-53538095D01*
X36882857Y-23872380D02*
X36882857Y-22872380D01*
X37930476Y-23872380D02*
X37597142Y-23396190D01*
X37359047Y-23872380D02*
X37359047Y-22872380D01*
X37740000Y-22872380D01*
X37835238Y-22920000D01*
X37882857Y-22967619D01*
X37930476Y-23062857D01*
X37930476Y-23205714D01*
X37882857Y-23300952D01*
X37835238Y-23348571D01*
X37740000Y-23396190D01*
X37359047Y-23396190D01*
X38120952Y-23967619D02*
X38882857Y-23967619D01*
X39120952Y-23872380D02*
X39120952Y-22872380D01*
X39359047Y-22872380D01*
X39501904Y-22920000D01*
X39597142Y-23015238D01*
X39644761Y-23110476D01*
X39692380Y-23300952D01*
X39692380Y-23443809D01*
X39644761Y-23634285D01*
X39597142Y-23729523D01*
X39501904Y-23824761D01*
X39359047Y-23872380D01*
X39120952Y-23872380D01*
X40073333Y-22967619D02*
X40120952Y-22920000D01*
X40216190Y-22872380D01*
X40454285Y-22872380D01*
X40549523Y-22920000D01*
X40597142Y-22967619D01*
X40644761Y-23062857D01*
X40644761Y-23158095D01*
X40597142Y-23300952D01*
X40025714Y-23872380D01*
X40644761Y-23872380D01*
X42602857Y-23822380D02*
X42602857Y-22822380D01*
X43650476Y-23822380D02*
X43317142Y-23346190D01*
X43079047Y-23822380D02*
X43079047Y-22822380D01*
X43460000Y-22822380D01*
X43555238Y-22870000D01*
X43602857Y-22917619D01*
X43650476Y-23012857D01*
X43650476Y-23155714D01*
X43602857Y-23250952D01*
X43555238Y-23298571D01*
X43460000Y-23346190D01*
X43079047Y-23346190D01*
X43840952Y-23917619D02*
X44602857Y-23917619D01*
X44840952Y-23822380D02*
X44840952Y-22822380D01*
X45079047Y-22822380D01*
X45221904Y-22870000D01*
X45317142Y-22965238D01*
X45364761Y-23060476D01*
X45412380Y-23250952D01*
X45412380Y-23393809D01*
X45364761Y-23584285D01*
X45317142Y-23679523D01*
X45221904Y-23774761D01*
X45079047Y-23822380D01*
X44840952Y-23822380D01*
X46364761Y-23822380D02*
X45793333Y-23822380D01*
X46079047Y-23822380D02*
X46079047Y-22822380D01*
X45983809Y-22965238D01*
X45888571Y-23060476D01*
X45793333Y-23108095D01*
X48324761Y-43657142D02*
X48277142Y-43704761D01*
X48134285Y-43752380D01*
X48039047Y-43752380D01*
X47896190Y-43704761D01*
X47800952Y-43609523D01*
X47753333Y-43514285D01*
X47705714Y-43323809D01*
X47705714Y-43180952D01*
X47753333Y-42990476D01*
X47800952Y-42895238D01*
X47896190Y-42800000D01*
X48039047Y-42752380D01*
X48134285Y-42752380D01*
X48277142Y-42800000D01*
X48324761Y-42847619D01*
X49324761Y-43657142D02*
X49277142Y-43704761D01*
X49134285Y-43752380D01*
X49039047Y-43752380D01*
X48896190Y-43704761D01*
X48800952Y-43609523D01*
X48753333Y-43514285D01*
X48705714Y-43323809D01*
X48705714Y-43180952D01*
X48753333Y-42990476D01*
X48800952Y-42895238D01*
X48896190Y-42800000D01*
X49039047Y-42752380D01*
X49134285Y-42752380D01*
X49277142Y-42800000D01*
X49324761Y-42847619D01*
X50277142Y-43752380D02*
X49705714Y-43752380D01*
X49991428Y-43752380D02*
X49991428Y-42752380D01*
X49896190Y-42895238D01*
X49800952Y-42990476D01*
X49705714Y-43038095D01*
X51229523Y-43752380D02*
X50658095Y-43752380D01*
X50943809Y-43752380D02*
X50943809Y-42752380D01*
X50848571Y-42895238D01*
X50753333Y-42990476D01*
X50658095Y-43038095D01*
X51848571Y-42752380D02*
X51943809Y-42752380D01*
X52039047Y-42800000D01*
X52086666Y-42847619D01*
X52134285Y-42942857D01*
X52181904Y-43133333D01*
X52181904Y-43371428D01*
X52134285Y-43561904D01*
X52086666Y-43657142D01*
X52039047Y-43704761D01*
X51943809Y-43752380D01*
X51848571Y-43752380D01*
X51753333Y-43704761D01*
X51705714Y-43657142D01*
X51658095Y-43561904D01*
X51610476Y-43371428D01*
X51610476Y-43133333D01*
X51658095Y-42942857D01*
X51705714Y-42847619D01*
X51753333Y-42800000D01*
X51848571Y-42752380D01*
X53134285Y-43752380D02*
X52562857Y-43752380D01*
X52848571Y-43752380D02*
X52848571Y-42752380D01*
X52753333Y-42895238D01*
X52658095Y-42990476D01*
X52562857Y-43038095D01*
X70086666Y-20562380D02*
X70086666Y-21276666D01*
X70039047Y-21419523D01*
X69943809Y-21514761D01*
X69800952Y-21562380D01*
X69705714Y-21562380D01*
X70467619Y-20562380D02*
X71086666Y-20562380D01*
X70753333Y-20943333D01*
X70896190Y-20943333D01*
X70991428Y-20990952D01*
X71039047Y-21038571D01*
X71086666Y-21133809D01*
X71086666Y-21371904D01*
X71039047Y-21467142D01*
X70991428Y-21514761D01*
X70896190Y-21562380D01*
X70610476Y-21562380D01*
X70515238Y-21514761D01*
X70467619Y-21467142D01*
X62952380Y-57316666D02*
X62952380Y-57792857D01*
X61952380Y-57792857D01*
X62952380Y-56983333D02*
X61952380Y-56983333D01*
X61952380Y-56745238D01*
X62000000Y-56602380D01*
X62095238Y-56507142D01*
X62190476Y-56459523D01*
X62380952Y-56411904D01*
X62523809Y-56411904D01*
X62714285Y-56459523D01*
X62809523Y-56507142D01*
X62904761Y-56602380D01*
X62952380Y-56745238D01*
X62952380Y-56983333D01*
X62952380Y-55411904D02*
X62476190Y-55745238D01*
X62952380Y-55983333D02*
X61952380Y-55983333D01*
X61952380Y-55602380D01*
X62000000Y-55507142D01*
X62047619Y-55459523D01*
X62142857Y-55411904D01*
X62285714Y-55411904D01*
X62380952Y-55459523D01*
X62428571Y-55507142D01*
X62476190Y-55602380D01*
X62476190Y-55983333D01*
X62952380Y-54459523D02*
X62952380Y-55030952D01*
X62952380Y-54745238D02*
X61952380Y-54745238D01*
X62095238Y-54840476D01*
X62190476Y-54935714D01*
X62238095Y-55030952D01*
X33576190Y-27642380D02*
X33242857Y-27166190D01*
X33004761Y-27642380D02*
X33004761Y-26642380D01*
X33385714Y-26642380D01*
X33480952Y-26690000D01*
X33528571Y-26737619D01*
X33576190Y-26832857D01*
X33576190Y-26975714D01*
X33528571Y-27070952D01*
X33480952Y-27118571D01*
X33385714Y-27166190D01*
X33004761Y-27166190D01*
X34528571Y-27642380D02*
X33957142Y-27642380D01*
X34242857Y-27642380D02*
X34242857Y-26642380D01*
X34147619Y-26785238D01*
X34052380Y-26880476D01*
X33957142Y-26928095D01*
X35147619Y-26642380D02*
X35242857Y-26642380D01*
X35338095Y-26690000D01*
X35385714Y-26737619D01*
X35433333Y-26832857D01*
X35480952Y-27023333D01*
X35480952Y-27261428D01*
X35433333Y-27451904D01*
X35385714Y-27547142D01*
X35338095Y-27594761D01*
X35242857Y-27642380D01*
X35147619Y-27642380D01*
X35052380Y-27594761D01*
X35004761Y-27547142D01*
X34957142Y-27451904D01*
X34909523Y-27261428D01*
X34909523Y-27023333D01*
X34957142Y-26832857D01*
X35004761Y-26737619D01*
X35052380Y-26690000D01*
X35147619Y-26642380D01*
X35909523Y-27642380D02*
X35909523Y-26642380D01*
X36004761Y-27261428D02*
X36290476Y-27642380D01*
X36290476Y-26975714D02*
X35909523Y-27356666D01*
X37242857Y-27642380D02*
X36671428Y-27642380D01*
X36957142Y-27642380D02*
X36957142Y-26642380D01*
X36861904Y-26785238D01*
X36766666Y-26880476D01*
X36671428Y-26928095D01*
X33390000Y-30822380D02*
X33056666Y-30346190D01*
X32818571Y-30822380D02*
X32818571Y-29822380D01*
X33199523Y-29822380D01*
X33294761Y-29870000D01*
X33342380Y-29917619D01*
X33390000Y-30012857D01*
X33390000Y-30155714D01*
X33342380Y-30250952D01*
X33294761Y-30298571D01*
X33199523Y-30346190D01*
X32818571Y-30346190D01*
X34294761Y-29822380D02*
X33818571Y-29822380D01*
X33770952Y-30298571D01*
X33818571Y-30250952D01*
X33913809Y-30203333D01*
X34151904Y-30203333D01*
X34247142Y-30250952D01*
X34294761Y-30298571D01*
X34342380Y-30393809D01*
X34342380Y-30631904D01*
X34294761Y-30727142D01*
X34247142Y-30774761D01*
X34151904Y-30822380D01*
X33913809Y-30822380D01*
X33818571Y-30774761D01*
X33770952Y-30727142D01*
X35199523Y-29822380D02*
X35009047Y-29822380D01*
X34913809Y-29870000D01*
X34866190Y-29917619D01*
X34770952Y-30060476D01*
X34723333Y-30250952D01*
X34723333Y-30631904D01*
X34770952Y-30727142D01*
X34818571Y-30774761D01*
X34913809Y-30822380D01*
X35104285Y-30822380D01*
X35199523Y-30774761D01*
X35247142Y-30727142D01*
X35294761Y-30631904D01*
X35294761Y-30393809D01*
X35247142Y-30298571D01*
X35199523Y-30250952D01*
X35104285Y-30203333D01*
X34913809Y-30203333D01*
X34818571Y-30250952D01*
X34770952Y-30298571D01*
X34723333Y-30393809D01*
X35485238Y-30917619D02*
X36247142Y-30917619D01*
X37009047Y-30822380D02*
X36437619Y-30822380D01*
X36723333Y-30822380D02*
X36723333Y-29822380D01*
X36628095Y-29965238D01*
X36532857Y-30060476D01*
X36437619Y-30108095D01*
X57582380Y-29029523D02*
X57582380Y-28458095D01*
X58582380Y-28743809D02*
X57582380Y-28743809D01*
X58534761Y-27743809D02*
X58582380Y-27839047D01*
X58582380Y-28029523D01*
X58534761Y-28124761D01*
X58439523Y-28172380D01*
X58058571Y-28172380D01*
X57963333Y-28124761D01*
X57915714Y-28029523D01*
X57915714Y-27839047D01*
X57963333Y-27743809D01*
X58058571Y-27696190D01*
X58153809Y-27696190D01*
X58249047Y-28172380D01*
X58582380Y-27267619D02*
X57915714Y-27267619D01*
X58010952Y-27267619D02*
X57963333Y-27220000D01*
X57915714Y-27124761D01*
X57915714Y-26981904D01*
X57963333Y-26886666D01*
X58058571Y-26839047D01*
X58582380Y-26839047D01*
X58058571Y-26839047D02*
X57963333Y-26791428D01*
X57915714Y-26696190D01*
X57915714Y-26553333D01*
X57963333Y-26458095D01*
X58058571Y-26410476D01*
X58582380Y-26410476D01*
X57915714Y-25934285D02*
X58915714Y-25934285D01*
X57963333Y-25934285D02*
X57915714Y-25839047D01*
X57915714Y-25648571D01*
X57963333Y-25553333D01*
X58010952Y-25505714D01*
X58106190Y-25458095D01*
X58391904Y-25458095D01*
X58487142Y-25505714D01*
X58534761Y-25553333D01*
X58582380Y-25648571D01*
X58582380Y-25839047D01*
X58534761Y-25934285D01*
X58582380Y-24505714D02*
X58582380Y-25077142D01*
X58582380Y-24791428D02*
X57582380Y-24791428D01*
X57725238Y-24886666D01*
X57820476Y-24981904D01*
X57868095Y-25077142D01*
M02*
