G04 #@! TF.GenerationSoftware,KiCad,Pcbnew,(5.0.0-rc2-dev-482-gf81c77cd4)*
G04 #@! TF.CreationDate,2018-06-29T22:25:28+02:00*
G04 #@! TF.ProjectId,ha_plattform,68615F706C617474666F726D2E6B6963,rev?*
G04 #@! TF.SameCoordinates,Original*
G04 #@! TF.FileFunction,Copper,L1,Top,Signal*
G04 #@! TF.FilePolarity,Positive*
%FSLAX46Y46*%
G04 Gerber Fmt 4.6, Leading zero omitted, Abs format (unit mm)*
G04 Created by KiCad (PCBNEW (5.0.0-rc2-dev-482-gf81c77cd4)) date Fri Jun 29 22:25:28 2018*
%MOMM*%
%LPD*%
G01*
G04 APERTURE LIST*
%ADD10O,1.905000X2.000000*%
%ADD11R,1.905000X2.000000*%
%ADD12O,2.000000X1.905000*%
%ADD13R,2.000000X1.905000*%
%ADD14R,1.600000X1.600000*%
%ADD15C,1.600000*%
%ADD16R,1.800000X1.800000*%
%ADD17C,1.800000*%
%ADD18O,1.750000X1.300000*%
%ADD19C,1.750000*%
%ADD20O,1.700000X1.700000*%
%ADD21R,1.700000X1.700000*%
%ADD22C,1.400000*%
%ADD23O,1.400000X1.400000*%
%ADD24C,0.600000*%
%ADD25C,1.270000*%
%ADD26C,0.250000*%
G04 APERTURE END LIST*
D10*
X46900000Y-68990000D03*
X44360000Y-68990000D03*
D11*
X41820000Y-68990000D03*
D12*
X25290000Y-43590000D03*
X25290000Y-41050000D03*
X25290000Y-38510000D03*
D13*
X25290000Y-35970000D03*
D12*
X63700000Y-65230000D03*
X63700000Y-67770000D03*
D13*
X63700000Y-70310000D03*
D10*
X25330000Y-22140000D03*
X27870000Y-22140000D03*
D11*
X30410000Y-22140000D03*
D14*
X56050000Y-57670000D03*
D15*
X58550000Y-57670000D03*
D16*
X40010000Y-21460000D03*
D17*
X37470000Y-21460000D03*
D16*
X45730000Y-21410000D03*
D17*
X43190000Y-21410000D03*
D18*
X59200000Y-50300000D03*
X59200000Y-48300000D03*
X59200000Y-46300000D03*
X59200000Y-44300000D03*
X59200000Y-42300000D03*
X59200000Y-40300000D03*
X59200000Y-38300000D03*
X59200000Y-36300000D03*
D19*
X40920000Y-39800000D03*
X40920000Y-42300000D03*
X40920000Y-44800000D03*
D20*
X71690000Y-71700000D03*
X69150000Y-71700000D03*
X71690000Y-69160000D03*
X69150000Y-69160000D03*
X71690000Y-66620000D03*
X69150000Y-66620000D03*
X71690000Y-64080000D03*
X69150000Y-64080000D03*
X71690000Y-61540000D03*
X69150000Y-61540000D03*
X71690000Y-59000000D03*
X69150000Y-59000000D03*
X71690000Y-56460000D03*
X69150000Y-56460000D03*
X71690000Y-53920000D03*
X69150000Y-53920000D03*
X71690000Y-51380000D03*
X69150000Y-51380000D03*
X71690000Y-48840000D03*
X69150000Y-48840000D03*
X71690000Y-46300000D03*
X69150000Y-46300000D03*
X71690000Y-43760000D03*
X69150000Y-43760000D03*
X71690000Y-41220000D03*
X69150000Y-41220000D03*
X71690000Y-38680000D03*
X69150000Y-38680000D03*
X71690000Y-36140000D03*
X69150000Y-36140000D03*
X71690000Y-33600000D03*
X69150000Y-33600000D03*
X71690000Y-31060000D03*
X69150000Y-31060000D03*
X71690000Y-28520000D03*
X69150000Y-28520000D03*
X71690000Y-25980000D03*
X69150000Y-25980000D03*
X71690000Y-23440000D03*
D21*
X69150000Y-23440000D03*
D22*
X64420000Y-58690000D03*
D23*
X64420000Y-53610000D03*
D22*
X31790000Y-27200000D03*
D23*
X24170000Y-27200000D03*
X31700000Y-30190000D03*
D22*
X24080000Y-30190000D03*
D12*
X62400000Y-22910000D03*
X62400000Y-25450000D03*
X62400000Y-27990000D03*
D13*
X62400000Y-30530000D03*
D24*
X46890000Y-24370000D03*
D25*
X25330000Y-24410000D02*
X26150000Y-25230000D01*
X25330000Y-22140000D02*
X25330000Y-24410000D01*
X38410000Y-25230000D02*
X40010000Y-23630000D01*
X40010000Y-23630000D02*
X40010000Y-21460000D01*
X26150000Y-25230000D02*
X38410000Y-25230000D01*
X40920000Y-39410000D02*
X40920000Y-39800000D01*
X31700000Y-30190000D02*
X40920000Y-39410000D01*
X38960000Y-27200000D02*
X31790000Y-27200000D01*
X45400000Y-33640000D02*
X38960000Y-27200000D01*
X60367919Y-33640000D02*
X45400000Y-33640000D01*
X69150000Y-41220000D02*
X67947919Y-41220000D01*
X67947919Y-41220000D02*
X60367919Y-33640000D01*
X64420000Y-54270000D02*
X69150000Y-59000000D01*
X64420000Y-53610000D02*
X64420000Y-54270000D01*
X59200000Y-40300000D02*
X65052249Y-40300000D01*
X65052249Y-40300000D02*
X67116125Y-42363876D01*
D26*
X71690000Y-43760000D02*
X70410000Y-42480000D01*
X67232249Y-42480000D02*
X67116125Y-42363876D01*
X70410000Y-42480000D02*
X67232249Y-42480000D01*
D25*
X69150000Y-48840000D02*
X67335670Y-48840000D01*
X60795670Y-42300000D02*
X59920000Y-42300000D01*
X67335670Y-48840000D02*
X60795670Y-42300000D01*
X67947919Y-51380000D02*
X67607919Y-51040000D01*
X69150000Y-51380000D02*
X67947919Y-51380000D01*
X59920000Y-44300000D02*
X60820000Y-44300000D01*
X67560000Y-51040000D02*
X67607919Y-51040000D01*
X60820000Y-44300000D02*
X67560000Y-51040000D01*
X43190000Y-22682792D02*
X44887208Y-24380000D01*
X43190000Y-21410000D02*
X43190000Y-22682792D01*
X52850000Y-24380000D02*
X56392990Y-20837010D01*
X44887208Y-24380000D02*
X46970000Y-24380000D01*
X72947010Y-20837010D02*
X73162990Y-21052990D01*
X56392990Y-20837010D02*
X72947010Y-20837010D01*
X73162990Y-21052990D02*
X73162990Y-22020000D01*
D26*
X73162990Y-24507010D02*
X71690000Y-25980000D01*
X73162990Y-22020000D02*
X73162990Y-24507010D01*
D25*
X46970000Y-24380000D02*
X52850000Y-24380000D01*
X41800000Y-66624000D02*
X44984000Y-63440000D01*
X41800000Y-68910000D02*
X41800000Y-66624000D01*
X58550000Y-58801370D02*
X58550000Y-57670000D01*
X53911370Y-63440000D02*
X58550000Y-58801370D01*
X44984000Y-63440000D02*
X53911370Y-63440000D01*
X58550000Y-57670000D02*
X58550000Y-53780000D01*
X44420000Y-48300000D02*
X40920000Y-44800000D01*
X57040000Y-48620000D02*
X56720000Y-48300000D01*
X57040000Y-52270000D02*
X57040000Y-48620000D01*
X59200000Y-48300000D02*
X56720000Y-48300000D01*
X58550000Y-53780000D02*
X57040000Y-52270000D01*
X56720000Y-48300000D02*
X44420000Y-48300000D01*
X71690000Y-74152990D02*
X71690000Y-71700000D01*
X71680000Y-74162990D02*
X71690000Y-74152990D01*
X65330490Y-74162990D02*
X71680000Y-74162990D01*
X63700000Y-70310000D02*
X63700000Y-72532500D01*
X63700000Y-72532500D02*
X65330490Y-74162990D01*
X63700000Y-63007500D02*
X61092500Y-60400000D01*
X63700000Y-65230000D02*
X63700000Y-63007500D01*
X59200000Y-52220000D02*
X59200000Y-50300000D01*
X61092500Y-54112500D02*
X59200000Y-52220000D01*
X61092500Y-60400000D02*
X61092500Y-54112500D01*
X64670000Y-30530000D02*
X65770000Y-29430000D01*
X62400000Y-30530000D02*
X64670000Y-30530000D01*
X67030000Y-23440000D02*
X69150000Y-23440000D01*
X65770000Y-24700000D02*
X67030000Y-23440000D01*
X65770000Y-29430000D02*
X65770000Y-24700000D01*
M02*
