M48
;DRILL file {KiCad (5.0.0-rc2-dev-482-gf81c77cd4)} date Fri Jun 29 22:25:24 2018
;FORMAT={-:-/ absolute / inch / decimal}
FMAT,2
INCH,TZ
T1C0.0157
T2C0.0276
T3C0.0354
T4C0.0394
T5C0.0433
T6C0.0472
%
G90
G05
M72
T1
X1.8461Y-0.9594
T2
X0.948Y-1.1886
X1.248Y-1.1886
X0.9516Y-1.0709
X1.2516Y-1.0709
X2.5362Y-2.1106
X2.5362Y-2.3106
T3
X1.4752Y-0.8449
X1.5752Y-0.8449
T4
X2.2067Y-2.2705
X2.3051Y-2.2705
X1.7004Y-0.8429
X1.8004Y-0.8429
X2.7224Y-0.9228
X2.7224Y-1.0228
X2.7224Y-1.1228
X2.7224Y-1.2228
X2.7224Y-1.3228
X2.7224Y-1.4228
X2.7224Y-1.5228
X2.7224Y-1.6228
X2.7224Y-1.7228
X2.7224Y-1.8228
X2.7224Y-1.9228
X2.7224Y-2.0228
X2.7224Y-2.1228
X2.7224Y-2.2228
X2.7224Y-2.3228
X2.7224Y-2.4228
X2.7224Y-2.5228
X2.7224Y-2.6228
X2.7224Y-2.7228
X2.7224Y-2.8228
X2.8224Y-0.9228
X2.8224Y-1.0228
X2.8224Y-1.1228
X2.8224Y-1.2228
X2.8224Y-1.3228
X2.8224Y-1.4228
X2.8224Y-1.5228
X2.8224Y-1.6228
X2.8224Y-1.7228
X2.8224Y-1.8228
X2.8224Y-1.9228
X2.8224Y-2.0228
X2.8224Y-2.1228
X2.8224Y-2.2228
X2.8224Y-2.3228
X2.8224Y-2.4228
X2.8224Y-2.5228
X2.8224Y-2.6228
X2.8224Y-2.7228
X2.8224Y-2.8228
T5
X2.5079Y-2.5681
X2.5079Y-2.6681
X2.5079Y-2.7681
X0.9972Y-0.8717
X1.0972Y-0.8717
X1.1972Y-0.8717
X1.6465Y-2.7161
X1.7465Y-2.7161
X1.8465Y-2.7161
X2.4567Y-0.902
X2.4567Y-1.002
X2.4567Y-1.102
X2.4567Y-1.202
X0.9957Y-1.4161
X0.9957Y-1.5161
X0.9957Y-1.6161
X0.9957Y-1.7161
T6
X1.611Y-1.5669
X1.611Y-1.6654
X1.611Y-1.7638
X2.3307Y-1.4291
X2.3307Y-1.5079
X2.3307Y-1.5866
X2.3307Y-1.6654
X2.3307Y-1.7441
X2.3307Y-1.8228
X2.3307Y-1.9016
X2.3307Y-1.9803
T0
M30
