M48
;DRILL file {KiCad (5.0.0-rc2-dev-482-gf81c77cd4)} date Fri Jun  8 20:02:38 2018
;FORMAT={-:-/ absolute / inch / decimal}
FMAT,2
INCH,TZ
T1C0.0276
T2C0.0354
T3C0.0394
T4C0.0400
T5C0.0433
T6C0.0472
%
G90
G05
M72
T1
X1.6469Y-2.537
X1.8469Y-2.537
X0.9098Y-1.3177
X1.2098Y-1.3177
X0.9Y-1.1571
X1.2Y-1.1571
T2
X1.4752Y-0.8449
X1.5752Y-0.8449
T3
X2.0882Y-2.813
X2.1866Y-2.813
X1.7004Y-0.8429
X1.8004Y-0.8429
X2.7224Y-0.9228
X2.7224Y-1.0228
X2.7224Y-1.1228
X2.7224Y-1.2228
X2.7224Y-1.3228
X2.7224Y-1.4228
X2.7224Y-1.5228
X2.7224Y-1.6228
X2.7224Y-1.7228
X2.7224Y-1.8228
X2.7224Y-1.9228
X2.7224Y-2.0228
X2.7224Y-2.1228
X2.7224Y-2.2228
X2.7224Y-2.3228
X2.7224Y-2.4228
X2.7224Y-2.5228
X2.7224Y-2.6228
X2.7224Y-2.7228
X2.7224Y-2.8228
X2.8224Y-0.9228
X2.8224Y-1.0228
X2.8224Y-1.1228
X2.8224Y-1.2228
X2.8224Y-1.3228
X2.8224Y-1.4228
X2.8224Y-1.5228
X2.8224Y-1.6228
X2.8224Y-1.7228
X2.8224Y-1.8228
X2.8224Y-1.9228
X2.8224Y-2.0228
X2.8224Y-2.1228
X2.8224Y-2.2228
X2.8224Y-2.3228
X2.8224Y-2.4228
X2.8224Y-2.5228
X2.8224Y-2.6228
X2.8224Y-2.7228
X2.8224Y-2.8228
T4
X1.302Y-2.8094
X1.402Y-2.8094
X1.502Y-2.8094
X1.0927Y-1.689
X1.0927Y-1.789
X1.0927Y-1.889
X1.0927Y-1.989
T5
X0.9945Y-0.9654
X1.0945Y-0.9654
X1.1945Y-0.9654
X2.5079Y-2.5681
X2.5079Y-2.6681
X2.5079Y-2.7681
X2.4551Y-0.9909
X2.4551Y-1.0909
X2.4551Y-1.1909
X2.4551Y-1.2909
T6
X1.5839Y-1.772
X1.5839Y-1.8705
X1.5839Y-1.9689
X2.3319Y-1.6343
X2.3319Y-1.713
X2.3319Y-1.7917
X2.3319Y-1.8705
X2.3319Y-1.9492
X2.3319Y-2.028
X2.3319Y-2.1067
X2.3319Y-2.1854
T0
M30
