G04 #@! TF.GenerationSoftware,KiCad,Pcbnew,(5.0.0-rc2-dev-482-gf81c77cd4)*
G04 #@! TF.CreationDate,2018-06-29T22:25:28+02:00*
G04 #@! TF.ProjectId,ha_plattform,68615F706C617474666F726D2E6B6963,rev?*
G04 #@! TF.SameCoordinates,Original*
G04 #@! TF.FileFunction,Soldermask,Bot*
G04 #@! TF.FilePolarity,Negative*
%FSLAX46Y46*%
G04 Gerber Fmt 4.6, Leading zero omitted, Abs format (unit mm)*
G04 Created by KiCad (PCBNEW (5.0.0-rc2-dev-482-gf81c77cd4)) date Fri Jun 29 22:25:28 2018*
%MOMM*%
%LPD*%
G01*
G04 APERTURE LIST*
%ADD10O,2.305000X2.400000*%
%ADD11R,2.305000X2.400000*%
%ADD12O,2.400000X2.305000*%
%ADD13R,2.400000X2.305000*%
%ADD14R,2.000000X2.000000*%
%ADD15C,2.000000*%
%ADD16R,2.200000X2.200000*%
%ADD17C,2.200000*%
%ADD18O,2.150000X1.700000*%
%ADD19C,2.150000*%
%ADD20O,2.100000X2.100000*%
%ADD21R,2.100000X2.100000*%
%ADD22C,1.800000*%
%ADD23O,1.800000X1.800000*%
G04 APERTURE END LIST*
D10*
X46900000Y-68990000D03*
X44360000Y-68990000D03*
D11*
X41820000Y-68990000D03*
D12*
X25290000Y-43590000D03*
X25290000Y-41050000D03*
X25290000Y-38510000D03*
D13*
X25290000Y-35970000D03*
D12*
X63700000Y-65230000D03*
X63700000Y-67770000D03*
D13*
X63700000Y-70310000D03*
D10*
X25330000Y-22140000D03*
X27870000Y-22140000D03*
D11*
X30410000Y-22140000D03*
D14*
X56050000Y-57670000D03*
D15*
X58550000Y-57670000D03*
D16*
X40010000Y-21460000D03*
D17*
X37470000Y-21460000D03*
D16*
X45730000Y-21410000D03*
D17*
X43190000Y-21410000D03*
D18*
X59200000Y-50300000D03*
X59200000Y-48300000D03*
X59200000Y-46300000D03*
X59200000Y-44300000D03*
X59200000Y-42300000D03*
X59200000Y-40300000D03*
X59200000Y-38300000D03*
X59200000Y-36300000D03*
D19*
X40920000Y-39800000D03*
X40920000Y-42300000D03*
X40920000Y-44800000D03*
D20*
X71690000Y-71700000D03*
X69150000Y-71700000D03*
X71690000Y-69160000D03*
X69150000Y-69160000D03*
X71690000Y-66620000D03*
X69150000Y-66620000D03*
X71690000Y-64080000D03*
X69150000Y-64080000D03*
X71690000Y-61540000D03*
X69150000Y-61540000D03*
X71690000Y-59000000D03*
X69150000Y-59000000D03*
X71690000Y-56460000D03*
X69150000Y-56460000D03*
X71690000Y-53920000D03*
X69150000Y-53920000D03*
X71690000Y-51380000D03*
X69150000Y-51380000D03*
X71690000Y-48840000D03*
X69150000Y-48840000D03*
X71690000Y-46300000D03*
X69150000Y-46300000D03*
X71690000Y-43760000D03*
X69150000Y-43760000D03*
X71690000Y-41220000D03*
X69150000Y-41220000D03*
X71690000Y-38680000D03*
X69150000Y-38680000D03*
X71690000Y-36140000D03*
X69150000Y-36140000D03*
X71690000Y-33600000D03*
X69150000Y-33600000D03*
X71690000Y-31060000D03*
X69150000Y-31060000D03*
X71690000Y-28520000D03*
X69150000Y-28520000D03*
X71690000Y-25980000D03*
X69150000Y-25980000D03*
X71690000Y-23440000D03*
D21*
X69150000Y-23440000D03*
D22*
X64420000Y-58690000D03*
D23*
X64420000Y-53610000D03*
D22*
X31790000Y-27200000D03*
D23*
X24170000Y-27200000D03*
X31700000Y-30190000D03*
D22*
X24080000Y-30190000D03*
D12*
X62400000Y-22910000D03*
X62400000Y-25450000D03*
X62400000Y-27990000D03*
D13*
X62400000Y-30530000D03*
M02*
